<?xml version="1.0" encoding="UTF-8" ?>
<!DOCTYPE svg PUBLIC "-//W3C//DTD SVG 1.1//EN" "http://www.w3.org/Graphics/SVG/1.1/DTD/svg11.dtd">
<svg width="900pt" height="1080pt" viewBox="0 0 900 1080" version="1.1" xmlns="http://www.w3.org/2000/svg">
<g id="#000000f8">
<path fill="#000000" opacity="0.97" d=" M 448.07 90.61 C 450.83 90.95 452.05 93.01 451.86 95.65 C 453.38 98.30 452.98 101.41 453.08 104.33 C 451.35 104.65 448.92 105.17 448.21 102.99 C 447.74 98.88 448.03 94.73 448.07 90.61 Z" />
<path fill="#000000" opacity="0.97" d=" M 447.93 107.59 C 449.66 107.29 451.97 106.84 452.80 108.91 C 453.14 111.35 452.98 113.83 452.95 116.29 C 451.34 116.18 448.99 116.73 448.28 114.78 C 447.86 112.41 448.00 109.98 447.93 107.59 Z" />
<path fill="#000000" opacity="0.97" d=" M 448.09 119.02 C 449.60 119.12 451.80 118.53 452.63 120.26 C 453.31 122.67 453.13 125.27 452.73 127.71 C 451.24 128.26 449.24 128.27 448.38 126.71 C 447.68 124.21 448.08 121.57 448.09 119.02 Z" />
<path fill="#000000" opacity="0.97" d=" M 448.03 130.67 C 449.67 130.70 452.07 130.13 452.77 132.18 C 453.14 134.55 453.00 136.96 453.05 139.34 C 451.37 139.53 449.00 140.15 448.25 138.06 C 447.81 135.62 448.02 133.13 448.03 130.67 Z" />
<path fill="#000000" opacity="0.97" d=" M 447.92 142.57 C 449.45 142.43 451.50 141.62 452.49 143.31 C 453.46 145.79 452.84 148.62 452.93 151.24 C 451.32 151.09 448.96 151.72 448.27 149.73 C 447.86 147.37 447.99 144.96 447.92 142.57 Z" />
<path fill="#000000" opacity="0.97" d=" M 448.08 153.94 C 449.61 154.03 451.82 153.50 452.67 155.22 C 453.29 157.74 452.92 160.37 452.85 162.92 C 451.34 162.79 449.43 163.23 448.43 161.78 C 447.68 159.25 448.07 156.55 448.08 153.94 Z" />
<path fill="#000000" opacity="0.97" d=" M 448.01 165.65 C 449.65 165.65 452.08 165.08 452.77 167.15 C 453.13 169.54 452.99 171.97 453.04 174.38 C 451.50 174.42 449.72 174.97 448.53 173.66 C 447.61 171.10 448.09 168.31 448.01 165.65 Z" />
<path fill="#000000" opacity="0.97" d=" M 448.12 184.00 C 448.23 181.74 446.63 177.27 450.06 177.01 C 454.52 177.49 452.64 183.18 452.92 186.18 C 451.12 186.27 448.29 186.45 448.12 184.00 Z" />
<path fill="#000000" opacity="0.97" d=" M 448.10 188.83 C 449.64 188.99 451.87 188.41 452.67 190.21 C 453.15 192.60 453.40 195.28 452.57 197.61 C 450.98 198.38 448.66 197.95 448.18 196.05 C 447.84 193.66 448.02 191.23 448.10 188.83 Z" />
<path fill="#000000" opacity="0.97" d=" M 447.96 200.69 C 449.61 200.46 452.04 200.07 452.76 202.09 C 453.14 204.47 452.99 206.89 453.05 209.29 C 451.52 209.42 449.64 209.95 448.53 208.52 C 447.63 206.03 448.11 203.29 447.96 200.69 Z" />
<path fill="#000000" opacity="0.97" d=" M 448.14 219.01 C 448.00 216.55 446.75 211.11 450.97 212.09 C 454.41 213.66 452.56 218.27 452.89 221.20 C 451.15 221.15 448.29 221.42 448.14 219.01 Z" />
<path fill="#000000" opacity="0.97" d=" M 448.06 223.83 C 449.66 223.91 451.93 223.37 452.72 225.25 C 453.11 227.59 453.00 229.97 453.11 232.33 C 451.38 233.14 448.91 233.21 448.17 231.06 C 447.85 228.66 448.01 226.23 448.06 223.83 Z" />
<path fill="#000000" opacity="0.97" d=" M 415.80 245.43 C 420.62 246.29 425.41 244.93 430.25 245.10 C 419.04 245.40 409.88 252.93 401.51 259.59 C 392.35 266.78 384.84 275.70 377.91 285.00 C 370.61 294.03 365.29 304.41 359.50 314.41 C 355.56 321.72 352.35 329.40 348.92 336.96 C 344.69 345.87 341.78 355.31 338.45 364.57 C 334.35 375.41 331.95 386.78 328.63 397.86 C 326.44 406.36 324.94 415.02 322.98 423.57 C 326.28 423.07 329.58 422.56 332.87 422.03 C 333.08 423.69 333.30 425.35 333.52 427.02 C 330.34 427.53 327.16 428.04 323.97 428.53 C 323.54 427.22 323.14 425.95 322.71 424.66 C 317.52 452.50 314.13 480.69 312.92 509.00 C 311.89 527.64 311.63 546.36 312.76 565.01 C 312.83 576.01 313.81 586.97 314.80 597.92 C 315.36 609.33 317.44 620.59 318.77 631.92 C 319.35 637.74 320.69 643.45 321.71 649.20 C 323.44 658.13 324.75 667.16 327.26 675.92 C 335.38 678.13 343.85 678.12 352.05 679.84 C 358.03 681.08 364.19 680.78 370.18 681.93 C 376.78 683.23 383.56 682.70 390.19 683.73 C 396.40 684.76 402.73 684.23 408.97 684.98 C 415.78 685.86 422.66 685.12 429.49 685.77 C 435.67 686.32 441.88 685.92 448.07 685.98 C 448.03 683.28 448.04 680.59 448.15 677.91 C 449.62 678.31 451.57 677.96 452.60 679.34 C 453.10 681.57 453.01 683.88 453.13 686.16 C 462.08 685.67 471.06 686.31 479.99 685.28 C 487.35 685.50 494.66 684.79 501.99 684.17 C 510.06 684.39 517.99 682.64 526.04 682.39 C 532.41 682.09 538.63 680.48 545.00 680.18 C 551.12 679.89 557.02 678.06 563.12 677.59 C 569.53 677.25 575.56 674.79 581.95 674.30 C 588.24 673.83 594.25 671.81 600.40 670.57 C 609.53 669.31 618.20 665.99 627.24 664.28 C 635.79 661.29 644.74 659.61 653.14 656.20 C 658.54 654.20 664.18 652.89 669.43 650.48 C 675.46 647.68 681.96 646.01 687.84 642.88 C 693.59 639.84 699.81 637.76 705.39 634.39 C 711.41 630.76 717.92 627.96 723.58 623.74 C 736.55 615.41 748.78 605.60 758.40 593.48 C 760.30 591.09 762.22 588.72 764.27 586.47 L 765.20 587.70 L 764.27 588.08 C 764.62 589.99 764.54 591.96 764.01 593.84 C 762.82 598.98 758.44 602.33 755.09 606.07 C 735.31 625.97 710.27 639.69 684.71 650.71 C 651.13 664.91 615.69 674.33 579.86 680.79 C 578.75 681.18 577.04 680.94 576.67 682.36 C 574.96 687.39 574.02 692.66 572.39 697.73 C 570.79 697.22 569.21 696.74 567.63 696.25 C 568.94 691.50 570.22 686.75 571.38 681.96 C 563.04 683.96 554.50 684.87 546.02 686.01 C 515.16 689.96 484.06 691.83 452.96 692.03 C 452.99 694.22 453.02 696.41 453.07 698.62 C 451.53 698.48 449.42 699.30 448.46 697.67 C 447.99 695.81 447.97 693.88 447.80 692.00 C 407.97 691.85 368.12 688.84 328.83 682.32 C 330.46 688.33 331.61 694.48 333.64 700.38 C 337.20 711.10 340.11 722.06 344.61 732.45 C 354.30 757.67 366.97 781.93 383.96 803.02 C 389.98 809.63 396.15 816.16 403.00 821.92 C 409.33 826.57 415.96 830.97 423.25 833.96 C 419.86 834.07 416.45 834.29 413.07 833.95 C 407.70 832.71 403.73 828.65 399.49 825.43 C 386.99 815.89 377.25 803.32 368.24 790.58 C 360.81 778.78 353.52 766.81 348.07 753.93 C 343.59 744.69 339.68 735.18 336.46 725.43 C 330.79 711.03 327.07 695.98 322.95 681.08 C 302.23 678.01 281.86 672.85 261.71 667.18 C 229.71 657.65 198.16 645.33 170.24 626.77 C 158.64 618.96 147.73 609.97 138.68 599.26 C 137.32 597.72 136.68 595.75 136.03 593.86 C 135.77 592.68 135.05 591.88 133.88 591.46 C 134.02 589.89 134.27 588.35 134.94 586.93 C 134.37 586.93 133.24 586.94 132.67 586.94 C 133.09 585.53 133.53 584.13 134.04 582.76 C 145.15 600.99 161.99 614.98 180.04 626.00 C 187.54 631.17 195.95 634.77 203.90 639.15 C 212.12 642.53 219.95 646.83 228.44 649.55 C 234.06 651.54 239.44 654.23 245.24 655.74 C 251.57 657.39 257.51 660.32 263.94 661.66 C 270.37 663.04 276.47 665.69 282.98 666.81 C 288.72 667.74 294.17 669.94 299.91 670.87 C 307.30 671.92 314.55 673.79 321.71 675.87 C 319.62 664.56 316.57 653.44 315.12 642.01 C 311.30 619.54 308.93 596.82 307.81 574.05 C 306.69 563.06 307.20 552.01 307.00 540.99 C 306.77 516.97 308.17 492.96 310.72 469.08 C 312.53 456.33 313.67 443.46 316.40 430.86 C 320.79 404.83 327.64 379.26 336.35 354.36 C 341.58 340.88 346.64 327.29 353.66 314.61 C 359.13 302.95 366.36 292.27 373.72 281.75 C 380.38 272.55 388.29 264.29 396.69 256.68 C 402.40 252.01 408.32 246.81 415.80 245.43 Z" />
<path fill="#000000" opacity="0.97" d=" M 464.22 245.57 C 468.45 245.25 472.69 245.19 476.93 245.50 C 481.56 245.29 486.20 245.63 490.65 246.96 C 489.77 248.53 488.89 250.09 488.01 251.66 C 484.39 249.71 480.92 247.36 476.99 246.10 C 472.78 245.11 468.42 246.65 464.22 245.57 Z" />
<path fill="#000000" opacity="0.97" d=" M 448.31 247.30 C 449.96 246.60 452.33 247.00 452.84 248.96 C 453.15 251.34 452.97 253.75 452.88 256.15 C 451.37 255.96 449.05 256.48 448.35 254.71 C 447.73 252.30 447.82 249.72 448.31 247.30 Z" />
<path fill="#000000" opacity="0.97" d=" M 495.71 257.07 C 496.73 255.77 497.76 254.47 498.80 253.18 C 504.02 257.37 509.11 261.76 513.51 266.82 C 512.24 267.89 510.97 268.95 509.69 270.01 C 505.42 265.29 500.59 261.13 495.71 257.07 Z" />
<path fill="#000000" opacity="0.97" d=" M 448.08 258.75 C 449.70 258.77 451.84 258.41 452.73 260.19 C 453.12 262.57 453.01 264.99 453.10 267.40 C 451.57 267.54 449.56 268.40 448.56 266.75 C 447.49 264.27 448.16 261.39 448.08 258.75 Z" />
<path fill="#000000" opacity="0.97" d=" M 447.94 270.65 C 449.62 270.42 452.01 269.89 452.76 271.96 C 453.17 274.39 452.98 276.86 452.97 279.31 C 451.32 279.26 448.83 279.92 448.24 277.77 C 447.86 275.42 448.00 273.02 447.94 270.65 Z" />
<path fill="#000000" opacity="0.97" d=" M 516.31 277.22 C 517.58 276.20 518.85 275.18 520.13 274.16 C 524.29 279.29 528.49 284.46 531.91 290.14 C 530.66 291.20 529.27 292.07 527.94 293.00 C 524.28 287.58 520.30 282.39 516.31 277.22 Z" />
<path fill="#000000" opacity="0.97" d=" M 448.15 282.03 C 449.65 282.18 451.73 281.65 452.61 283.30 C 453.38 285.79 452.88 288.48 452.86 291.05 C 451.35 290.88 449.25 291.45 448.39 289.80 C 447.62 287.30 448.10 284.60 448.15 282.03 Z" />
<path fill="#000000" opacity="0.97" d=" M 448.04 293.75 C 449.64 293.81 451.91 293.26 452.73 295.14 C 453.12 297.54 453.00 299.98 453.08 302.40 C 451.37 302.73 449.02 303.15 448.22 301.10 C 447.85 298.66 448.01 296.19 448.04 293.75 Z" />
<path fill="#000000" opacity="0.97" d=" M 533.11 301.11 C 534.61 300.31 536.11 299.52 537.63 298.74 C 540.86 304.52 544.17 310.25 547.16 316.16 C 545.59 316.86 544.02 317.55 542.45 318.22 C 539.61 312.37 536.39 306.71 533.11 301.11 Z" />
<path fill="#000000" opacity="0.97" d=" M 447.93 305.62 C 449.63 305.36 452.04 304.87 452.78 306.97 C 453.15 309.39 452.98 311.85 452.97 314.29 C 451.34 314.21 448.96 314.84 448.26 312.82 C 447.86 310.44 447.99 308.01 447.93 305.62 Z" />
<path fill="#000000" opacity="0.97" d=" M 448.16 316.97 C 449.66 317.21 451.82 316.57 452.64 318.30 C 453.35 320.79 452.89 323.45 452.83 326.01 C 451.31 325.82 449.22 326.40 448.37 324.72 C 447.63 322.21 448.10 319.54 448.16 316.97 Z" />
<path fill="#000000" opacity="0.97" d=" M 546.95 327.19 C 548.43 326.49 549.90 325.78 551.39 325.07 C 554.25 331.21 557.18 337.36 559.24 343.83 C 557.66 344.24 556.08 344.65 554.50 345.05 C 552.23 338.99 549.55 333.11 546.95 327.19 Z" />
<path fill="#000000" opacity="0.97" d=" M 448.03 328.72 C 449.67 328.70 452.03 328.21 452.76 330.22 C 453.12 332.56 453.00 334.95 453.08 337.32 C 451.38 337.61 449.00 338.20 448.23 336.08 C 447.83 333.65 448.01 331.17 448.03 328.72 Z" />
<path fill="#000000" opacity="0.97" d=" M 447.91 340.61 C 449.59 340.36 452.11 339.74 452.77 341.93 C 453.17 344.35 452.97 346.82 452.95 349.27 C 451.34 349.15 448.96 349.79 448.28 347.78 C 447.87 345.41 447.99 343.00 447.91 340.61 Z" />
<path fill="#000000" opacity="0.97" d=" M 448.15 351.90 C 449.70 352.05 451.76 351.63 452.69 353.27 C 453.27 355.78 452.94 358.39 452.86 360.95 C 451.34 360.81 449.19 361.36 448.38 359.65 C 447.62 357.15 448.11 354.47 448.15 351.90 Z" />
<path fill="#000000" opacity="0.97" d=" M 558.19 354.61 C 559.75 354.01 561.33 353.41 562.91 352.82 C 565.16 359.15 567.45 365.49 569.25 371.97 C 567.63 372.34 566.00 372.71 564.38 373.07 C 562.58 366.83 560.40 360.71 558.19 354.61 Z" />
<path fill="#000000" opacity="0.97" d=" M 448.01 363.70 C 449.66 363.70 452.11 363.11 452.76 365.21 C 453.13 367.55 453.00 369.94 453.06 372.31 C 451.38 372.58 449.06 373.13 448.25 371.09 C 447.82 368.65 448.01 366.16 448.01 363.70 Z" />
<path fill="#000000" opacity="0.97" d=" M 448.10 376.03 C 449.24 374.39 452.17 375.02 452.79 376.88 C 453.16 379.30 452.97 381.76 452.95 384.20 C 451.35 384.15 449.09 384.67 448.29 382.83 C 447.81 380.60 447.85 378.28 448.10 376.03 Z" />
<path fill="#000000" opacity="0.97" d=" M 567.40 382.70 C 569.00 382.26 570.59 381.82 572.20 381.39 C 573.93 387.85 575.84 394.26 577.17 400.82 C 575.55 401.15 573.95 401.50 572.34 401.84 C 570.81 395.43 569.08 389.07 567.40 382.70 Z" />
<path fill="#000000" opacity="0.97" d=" M 448.11 386.89 C 449.65 387.00 451.82 386.52 452.66 388.25 C 453.32 390.74 452.91 393.38 452.84 395.93 C 451.33 395.83 449.42 396.23 448.44 394.74 C 447.62 392.22 448.11 389.49 448.11 386.89 Z" />
<path fill="#000000" opacity="0.97" d=" M 684.34 389.12 C 686.23 389.04 688.13 388.99 690.03 388.95 C 694.00 401.00 698.28 412.95 702.20 425.02 C 700.52 425.00 698.86 424.98 697.21 424.95 C 695.89 421.24 695.12 417.26 693.10 413.86 C 689.00 413.56 684.90 413.80 680.81 413.78 C 679.53 417.53 678.28 421.28 677.04 425.03 C 675.44 424.99 673.85 424.96 672.27 424.93 C 676.30 413.00 680.36 401.07 684.34 389.12 M 681.78 410.21 C 685.34 410.26 688.90 410.26 692.46 410.22 C 690.75 404.51 688.44 398.98 687.26 393.12 C 685.48 398.83 683.64 404.52 681.78 410.21 Z" />
<path fill="#000000" opacity="0.97" d=" M 448.01 398.64 C 449.65 398.67 452.12 398.06 452.77 400.17 C 453.14 402.55 452.99 404.98 453.04 407.38 C 451.50 407.41 449.74 407.96 448.54 406.67 C 447.61 404.11 448.09 401.30 448.01 398.64 Z" />
<path fill="#000000" opacity="0.97" d=" M 447.61 412.96 C 447.94 411.21 448.84 409.48 450.95 410.11 C 454.16 411.36 452.50 415.27 452.62 417.86 C 449.19 418.05 445.75 418.05 442.31 417.92 C 442.30 416.30 442.30 414.70 442.29 413.09 C 444.06 413.03 445.83 413.00 447.61 412.96 Z" />
<path fill="#000000" opacity="0.97" d=" M 574.59 411.59 C 576.21 411.19 577.82 410.78 579.45 410.39 C 580.65 414.99 581.21 419.74 582.57 424.30 C 585.37 425.53 588.56 425.69 591.52 426.49 C 591.22 428.01 590.92 429.54 590.64 431.07 C 586.56 430.08 582.40 430.42 578.27 430.58 C 577.18 429.03 576.10 427.22 576.44 425.24 C 577.14 420.58 575.42 416.10 574.59 411.59 Z" />
<path fill="#000000" opacity="0.97" d=" M 462.30 413.14 C 465.70 413.13 469.11 413.20 472.51 413.36 C 472.41 414.93 472.29 416.52 472.07 418.09 C 468.81 418.47 465.52 418.16 462.25 418.02 C 462.26 416.39 462.28 414.76 462.30 413.14 Z" />
<path fill="#000000" opacity="0.97" d=" M 482.34 413.60 C 485.66 413.79 488.97 413.95 492.30 414.10 C 492.22 415.77 492.15 417.44 492.09 419.12 C 488.77 418.99 485.45 418.84 482.14 418.69 C 482.20 416.99 482.26 415.29 482.34 413.60 Z" />
<path fill="#000000" opacity="0.97" d=" M 402.38 414.42 C 405.71 414.23 409.04 414.06 412.37 413.91 C 412.43 415.58 412.49 417.26 412.55 418.94 C 409.25 419.08 405.95 419.25 402.66 419.40 C 402.56 417.74 402.47 416.08 402.38 414.42 Z" />
<path fill="#000000" opacity="0.97" d=" M 422.37 413.47 C 425.71 413.35 429.05 413.27 432.40 413.24 C 432.40 414.89 432.40 416.54 432.41 418.20 C 429.10 418.30 425.80 418.40 422.49 418.46 C 422.44 416.79 422.41 415.13 422.37 413.47 Z" />
<path fill="#000000" opacity="0.97" d=" M 382.45 415.90 C 385.78 415.60 389.13 415.33 392.48 415.17 C 392.57 416.80 392.66 418.43 392.76 420.07 C 389.46 420.39 386.16 420.66 382.85 420.92 C 382.71 419.24 382.57 417.57 382.45 415.90 Z" />
<path fill="#000000" opacity="0.97" d=" M 502.23 414.81 C 505.59 414.92 508.95 415.15 512.29 415.52 C 512.17 417.15 512.05 418.78 511.94 420.42 C 508.63 420.22 505.32 419.99 502.02 419.78 C 502.08 418.12 502.16 416.46 502.23 414.81 Z" />
<path fill="#000000" opacity="0.97" d=" M 362.57 417.92 C 365.91 417.51 369.25 417.13 372.62 417.05 C 372.71 418.65 372.82 420.26 372.93 421.87 C 369.63 422.20 366.34 422.56 363.05 422.90 C 362.89 421.24 362.73 419.58 362.57 417.92 Z" />
<path fill="#000000" opacity="0.97" d=" M 521.98 416.45 C 525.37 416.62 528.76 416.94 532.15 417.28 C 531.96 418.97 531.77 420.66 531.57 422.35 C 528.41 422.00 525.25 421.68 522.09 421.43 C 522.04 419.76 522.00 418.10 521.98 416.45 Z" />
<path fill="#000000" opacity="0.97" d=" M 542.05 418.53 C 545.32 418.88 548.60 419.28 551.89 419.65 C 551.77 421.33 551.65 423.02 551.53 424.71 C 548.21 424.35 544.90 423.91 541.60 423.46 C 541.74 421.81 541.89 420.17 542.05 418.53 Z" />
<path fill="#000000" opacity="0.97" d=" M 342.78 420.72 C 346.02 419.71 349.45 419.60 352.82 419.33 C 352.92 420.93 353.03 422.53 353.15 424.13 C 349.91 424.57 346.67 425.03 343.44 425.51 C 343.17 423.91 342.93 422.32 342.78 420.72 Z" />
<path fill="#000000" opacity="0.97" d=" M 448.09 421.89 C 449.62 422.24 451.64 421.77 452.71 423.21 C 453.13 425.59 453.01 428.03 453.11 430.45 C 451.49 430.69 449.46 431.51 448.47 429.68 C 447.53 427.24 448.15 424.46 448.09 421.89 Z" />
<path fill="#000000" opacity="0.97" d=" M 561.82 421.27 C 565.09 421.84 568.61 421.70 571.68 423.08 C 571.58 424.61 571.35 426.12 571.15 427.65 C 567.86 427.22 564.58 426.73 561.31 426.21 C 561.47 424.56 561.64 422.91 561.82 421.27 Z" />
<path fill="#000000" opacity="0.97" d=" M 303.28 427.53 C 306.57 426.76 309.88 426.08 313.22 425.55 C 313.46 427.20 313.70 428.86 313.93 430.52 C 310.71 431.11 307.49 431.72 304.26 432.29 C 303.94 430.70 303.61 429.11 303.28 427.53 Z" />
<path fill="#000000" opacity="0.97" d=" M 601.11 428.52 C 604.40 429.10 607.67 429.80 610.93 430.53 C 610.64 432.17 610.32 433.81 610.03 435.46 C 606.77 434.85 603.54 434.11 600.32 433.35 C 600.58 431.73 600.84 430.12 601.11 428.52 Z" />
<path fill="#000000" opacity="0.97" d=" M 283.86 431.87 C 287.04 431.09 290.23 430.34 293.43 429.58 C 293.86 431.17 294.28 432.75 294.72 434.36 C 291.48 435.29 288.19 436.04 284.87 436.68 C 284.53 435.08 284.19 433.47 283.86 431.87 Z" />
<path fill="#000000" opacity="0.97" d=" M 447.96 433.69 C 449.66 433.45 451.98 433.08 452.80 435.10 C 453.13 437.49 452.99 439.92 453.02 442.34 C 451.35 442.52 449.04 442.92 448.25 440.96 C 447.87 438.55 448.00 436.11 447.96 433.69 Z" />
<path fill="#000000" opacity="0.97" d=" M 620.60 433.09 C 623.91 433.81 627.19 434.66 630.44 435.67 C 629.99 437.23 629.55 438.79 629.12 440.36 C 625.94 439.60 622.78 438.77 619.62 437.95 C 619.93 436.32 620.27 434.71 620.60 433.09 Z" />
<path fill="#000000" opacity="0.97" d=" M 264.59 436.95 C 267.83 436.06 271.07 435.18 274.34 434.41 C 274.57 436.08 274.81 437.75 275.02 439.43 C 271.91 440.21 268.81 441.02 265.69 441.75 C 265.32 440.15 264.95 438.54 264.59 436.95 Z" />
<path fill="#000000" opacity="0.97" d=" M 647.12 440.43 C 650.82 438.33 654.97 435.73 659.39 437.53 C 664.70 438.94 666.42 444.51 668.31 448.98 C 666.08 453.56 662.61 458.59 657.03 458.97 C 653.07 459.56 649.67 457.18 646.86 454.73 C 628.02 463.06 609.41 471.89 590.54 480.13 C 590.56 483.31 590.78 486.48 590.93 489.66 C 589.30 489.74 587.67 489.82 586.04 489.91 C 585.86 487.59 585.67 485.28 585.47 482.97 C 582.14 483.92 579.03 485.45 575.91 486.91 C 537.60 504.32 499.29 521.73 460.99 539.14 C 460.94 541.94 461.14 544.98 459.56 547.45 C 458.22 550.09 455.51 551.48 453.03 552.84 C 452.99 554.87 452.94 556.90 452.87 558.93 C 452.15 558.93 450.71 558.92 450.00 558.91 C 447.37 558.28 448.26 554.98 447.81 553.03 C 443.39 551.57 439.35 548.01 439.06 543.11 C 438.26 537.41 442.66 532.48 447.89 530.97 C 447.97 529.55 448.05 528.13 448.14 526.72 C 448.86 526.74 450.28 526.77 451.00 526.79 C 453.15 527.23 452.80 529.85 453.41 531.46 C 455.24 532.46 457.02 533.55 458.80 534.67 C 497.67 516.82 536.68 499.25 575.60 481.50 C 578.52 480.08 581.68 479.08 584.37 477.22 C 585.07 474.91 584.33 472.40 584.34 470.03 C 585.92 469.92 587.51 469.81 589.11 469.71 C 589.36 471.46 589.63 473.23 589.92 475.00 C 608.26 466.66 626.62 458.32 644.96 449.97 C 645.01 448.35 645.07 446.74 645.15 445.13 C 643.20 444.57 641.22 444.08 639.35 443.35 C 638.06 441.73 639.94 439.91 640.30 438.27 C 642.54 439.07 644.79 439.90 647.12 440.43 Z" />
<path fill="#000000" opacity="0.97" d=" M 245.73 442.92 C 248.71 441.64 251.87 440.84 254.96 439.89 C 255.41 441.51 255.85 443.13 256.30 444.76 C 253.13 445.73 249.97 446.73 246.79 447.67 C 246.42 446.09 245.69 444.55 245.73 442.92 Z" />
<path fill="#000000" opacity="0.97" d=" M 580.23 440.58 C 581.86 440.37 583.49 440.15 585.14 439.95 C 586.18 446.54 587.22 453.14 587.97 459.78 C 586.31 459.95 584.66 460.12 583.02 460.29 C 582.19 453.71 581.11 447.16 580.23 440.58 Z" />
<path fill="#000000" opacity="0.97" d=" M 448.01 451.05 C 448.17 449.02 446.90 444.93 450.06 444.98 C 454.52 445.46 452.63 451.10 452.94 454.11 C 450.73 454.50 447.66 453.94 448.01 451.05 Z" />
<path fill="#000000" opacity="0.97" d=" M 226.47 449.80 C 229.62 448.48 232.82 447.28 236.07 446.26 C 236.54 447.84 237.02 449.42 237.49 451.00 C 234.49 452.08 231.51 453.20 228.56 454.42 C 227.85 452.88 227.16 451.34 226.47 449.80 Z" />
<path fill="#000000" opacity="0.97" d=" M 675.96 456.03 C 676.57 454.50 677.17 452.98 677.79 451.46 C 680.91 452.67 684.01 453.95 687.10 455.26 C 686.42 456.76 685.79 458.29 684.96 459.72 C 681.87 458.72 678.95 457.28 675.96 456.03 Z" />
<path fill="#000000" opacity="0.97" d=" M 208.06 457.54 C 211.09 456.11 214.16 454.75 217.25 453.47 C 217.90 454.98 218.55 456.50 219.21 458.02 C 216.22 459.40 213.21 460.72 210.18 462.00 C 209.47 460.51 208.76 459.01 208.06 457.54 Z" />
<path fill="#000000" opacity="0.97" d=" M 448.09 456.80 C 449.67 456.87 451.80 456.42 452.71 458.15 C 453.12 460.55 453.00 462.99 453.10 465.42 C 451.51 465.61 449.46 466.46 448.48 464.68 C 447.55 462.19 448.14 459.40 448.09 456.80 Z" />
<path fill="#000000" opacity="0.97" d=" M 696.06 459.45 C 698.98 460.96 702.48 461.80 704.88 464.11 C 704.33 465.54 703.60 466.90 702.94 468.28 C 699.94 466.88 696.98 465.42 694.04 463.92 C 694.71 462.43 695.38 460.94 696.06 459.45 Z" />
<path fill="#000000" opacity="0.97" d=" M 190.37 466.28 C 193.14 464.49 196.19 463.18 199.14 461.71 C 199.81 463.26 200.47 464.83 201.10 466.42 C 198.22 467.75 195.38 469.18 192.61 470.72 C 191.81 469.27 190.81 467.88 190.37 466.28 Z" />
<path fill="#000000" opacity="0.97" d=" M 447.96 468.62 C 449.59 468.51 451.96 467.97 452.73 469.93 C 453.17 472.37 452.98 474.87 453.00 477.34 C 451.36 477.29 448.96 477.96 448.26 475.92 C 447.85 473.51 448.00 471.05 447.96 468.62 Z" />
<path fill="#000000" opacity="0.97" d=" M 711.54 472.93 C 712.32 471.47 713.12 470.02 713.93 468.57 C 716.91 470.15 719.82 471.86 722.63 473.73 C 721.69 475.10 720.77 476.47 719.85 477.84 C 717.10 476.16 714.33 474.52 711.54 472.93 Z" />
<path fill="#000000" opacity="0.97" d=" M 172.96 476.37 C 175.79 474.68 178.59 472.94 181.37 471.17 C 182.25 472.62 183.13 474.09 184.00 475.55 C 181.19 477.20 178.42 478.91 175.68 480.66 C 174.77 479.23 173.86 477.80 172.96 476.37 Z" />
<path fill="#000000" opacity="0.97" d=" M 448.18 480.03 C 449.84 480.13 452.35 479.82 452.84 481.96 C 453.16 484.34 452.96 486.75 452.89 489.15 C 451.31 488.98 449.14 489.46 448.31 487.71 C 447.72 485.19 448.06 482.57 448.18 480.03 Z" />
<path fill="#000000" opacity="0.97" d=" M 728.15 483.12 C 729.08 481.76 730.01 480.41 730.95 479.06 C 733.59 481.01 736.62 482.53 738.86 484.97 C 738.06 486.35 737.04 487.60 736.11 488.89 C 733.45 486.97 730.80 485.05 728.15 483.12 Z" />
<path fill="#000000" opacity="0.97" d=" M 156.97 488.17 C 159.31 485.85 162.08 484.03 164.75 482.13 C 165.69 483.45 166.63 484.77 167.58 486.11 C 165.06 488.03 162.67 490.16 159.97 491.86 C 158.67 490.91 157.70 489.58 156.97 488.17 Z" />
<path fill="#000000" opacity="0.97" d=" M 405.46 491.65 C 411.96 489.01 420.17 490.94 424.27 496.78 C 429.04 503.82 428.92 513.91 424.20 520.95 C 418.94 528.72 406.47 529.77 400.01 522.98 C 391.69 514.11 393.63 496.51 405.46 491.65 M 408.42 494.66 C 404.60 495.72 402.03 499.20 400.90 502.85 C 399.12 508.84 399.77 516.10 404.21 520.81 C 408.16 524.98 415.63 524.67 419.17 520.13 C 423.69 514.37 423.91 505.76 420.34 499.49 C 418.05 495.39 412.94 493.21 408.42 494.66 Z" />
<path fill="#000000" opacity="0.97" d=" M 448.05 491.79 C 449.63 491.83 451.92 491.35 452.71 493.19 C 453.14 495.57 453.00 498.00 453.09 500.41 C 451.35 500.77 448.98 501.26 448.21 499.13 C 447.84 496.69 448.01 494.23 448.05 491.79 Z" />
<path fill="#000000" opacity="0.97" d=" M 743.83 494.96 C 744.71 493.60 745.77 492.37 746.81 491.13 C 749.25 493.35 751.91 495.38 753.96 497.98 C 752.99 499.23 751.92 500.39 750.84 501.53 C 748.45 499.39 745.94 497.37 743.83 494.96 Z" />
<path fill="#000000" opacity="0.97" d=" M 142.19 501.80 C 144.45 499.31 146.79 496.89 149.42 494.80 C 150.47 495.98 151.52 497.16 152.58 498.34 C 150.32 500.69 148.03 503.01 145.61 505.19 C 144.47 504.05 143.33 502.92 142.19 501.80 Z" />
<path fill="#000000" opacity="0.97" d=" M 586.77 499.79 C 588.45 499.72 590.14 499.66 591.83 499.61 C 592.12 506.24 592.49 512.86 592.68 519.50 C 591.01 519.55 589.36 519.60 587.70 519.66 C 587.41 513.04 587.12 506.41 586.77 499.79 Z" />
<path fill="#000000" opacity="0.97" d=" M 447.94 503.65 C 449.59 503.48 452.02 502.83 452.74 504.93 C 453.19 507.35 452.97 509.84 452.97 512.29 C 451.30 512.38 448.95 512.80 448.23 510.80 C 447.85 508.43 447.99 506.02 447.94 503.65 Z" />
<path fill="#000000" opacity="0.97" d=" M 760.70 505.29 C 763.08 507.75 765.15 510.50 767.10 513.32 C 765.65 514.21 764.21 515.11 762.77 516.00 C 761.01 513.47 759.17 511.00 757.21 508.64 C 758.37 507.52 759.53 506.40 760.70 505.29 Z" />
<path fill="#000000" opacity="0.97" d=" M 131.18 515.96 C 132.65 513.74 134.19 511.58 135.76 509.44 C 137.06 510.47 138.35 511.52 139.65 512.57 C 137.87 515.08 136.14 517.63 134.48 520.22 C 133.24 519.53 132.00 518.84 130.77 518.15 L 130.01 517.72 C 130.30 517.28 130.89 516.40 131.18 515.96 Z" />
<path fill="#000000" opacity="0.97" d=" M 448.14 515.05 C 449.64 515.18 451.71 514.65 452.59 516.29 C 453.39 518.75 452.88 521.44 452.90 523.99 C 451.35 523.82 449.12 524.52 448.36 522.70 C 447.64 520.22 448.10 517.58 448.14 515.05 Z" />
<path fill="#000000" opacity="0.97" d=" M 587.93 529.54 C 589.61 529.53 591.29 529.54 592.98 529.55 C 593.00 536.19 593.02 542.83 592.98 549.47 C 591.28 549.46 589.60 549.45 587.92 549.44 C 588.03 542.80 587.97 536.17 587.93 529.54 Z" />
<path fill="#000000" opacity="0.97" d=" M 587.69 559.42 C 589.36 559.42 591.03 559.43 592.71 559.45 C 592.57 566.11 592.16 572.77 591.87 579.43 C 590.19 579.35 588.50 579.27 586.83 579.20 C 587.15 572.61 587.49 566.02 587.69 559.42 Z" />
<path fill="#000000" opacity="0.97" d=" M 448.05 561.68 C 449.67 561.78 452.03 561.17 452.75 563.17 C 453.13 565.55 453.00 567.97 453.07 570.37 C 451.38 570.59 448.90 571.20 448.23 569.03 C 447.82 566.60 448.02 564.12 448.05 561.68 Z" />
<path fill="#000000" opacity="0.97" d=" M 447.93 573.58 C 449.64 573.30 452.02 572.81 452.79 574.91 C 453.16 577.34 452.98 579.82 452.95 582.28 C 451.34 582.20 449.04 582.70 448.28 580.82 C 447.87 578.42 448.00 575.99 447.93 573.58 Z" />
<path fill="#000000" opacity="0.97" d=" M 448.14 584.90 C 449.68 585.10 451.82 584.57 452.66 586.30 C 453.33 588.80 452.91 591.45 452.82 594.01 C 451.34 593.79 449.33 594.32 448.43 592.78 C 447.59 590.25 448.12 587.51 448.14 584.90 Z" />
<path fill="#000000" opacity="0.97" d=" M 586.10 589.11 C 587.72 589.18 589.36 589.27 590.99 589.36 C 590.79 596.03 589.93 602.66 589.30 609.30 C 587.65 609.18 586.02 609.07 584.39 608.96 C 584.87 602.34 585.67 595.74 586.10 589.11 Z" />
<path fill="#000000" opacity="0.97" d=" M 448.02 596.70 C 449.67 596.68 452.11 596.11 452.77 598.22 C 453.13 600.57 452.99 602.97 453.05 605.35 C 451.38 605.54 449.00 606.14 448.27 604.08 C 447.81 601.64 448.01 599.15 448.02 596.70 Z" />
<path fill="#000000" opacity="0.97" d=" M 447.90 608.61 C 449.46 608.41 451.48 607.60 452.50 609.32 C 453.44 611.79 452.85 614.58 452.95 617.18 C 451.32 617.16 449.05 617.67 448.26 615.76 C 447.88 613.40 447.99 610.99 447.90 608.61 Z" />
<path fill="#000000" opacity="0.97" d=" M 583.11 618.75 C 584.76 618.89 586.41 619.05 588.07 619.21 C 587.35 625.81 586.29 632.36 585.40 638.93 C 583.73 638.78 582.06 638.61 580.40 638.45 C 581.24 631.87 582.34 625.34 583.11 618.75 Z" />
<path fill="#000000" opacity="0.97" d=" M 448.13 619.83 C 449.62 620.05 451.85 619.52 452.64 621.22 C 453.36 623.72 452.90 626.39 452.83 628.96 C 451.34 628.73 449.30 629.28 448.43 627.71 C 447.61 625.18 448.11 622.43 448.13 619.83 Z" />
<path fill="#000000" opacity="0.97" d=" M 448.02 631.65 C 449.66 631.58 452.11 631.13 452.78 633.20 C 453.16 635.57 452.99 637.99 453.03 640.39 C 451.47 640.40 449.66 640.98 448.50 639.60 C 447.63 637.05 448.09 634.28 448.02 631.65 Z" />
<path fill="#000000" opacity="0.97" d=" M 447.89 643.61 C 449.42 643.31 451.52 642.57 452.51 644.30 C 453.46 646.77 452.84 649.58 452.91 652.19 C 451.32 652.04 449.05 652.66 448.30 650.77 C 447.86 648.41 447.99 645.99 447.89 643.61 Z" />
<path fill="#000000" opacity="0.97" d=" M 578.61 648.06 C 580.30 648.40 582.01 648.75 583.71 649.17 C 582.31 655.57 581.07 662.01 579.85 668.45 C 578.21 668.20 576.58 667.94 574.96 667.70 C 575.93 661.11 577.63 654.65 578.61 648.06 Z" />
<path fill="#000000" opacity="0.97" d=" M 448.12 654.78 C 449.66 655.03 451.92 654.38 452.68 656.22 C 453.22 658.44 453.14 660.79 452.88 663.05 C 451.76 664.76 448.65 664.02 448.17 662.06 C 447.83 659.64 448.03 657.20 448.12 654.78 Z" />
<path fill="#000000" opacity="0.97" d=" M 447.96 666.69 C 449.63 666.48 452.11 666.04 452.78 668.15 C 453.14 670.52 452.99 672.93 453.03 675.32 C 451.38 675.50 448.96 675.96 448.26 673.92 C 447.84 671.53 448.00 669.09 447.96 666.69 Z" />
<path fill="#000000" opacity="0.97" d=" M 448.01 701.58 C 449.64 701.47 451.97 701.01 452.75 702.96 C 453.18 705.39 452.97 707.89 452.98 710.35 C 451.33 710.32 448.92 710.92 448.24 708.88 C 447.83 706.46 448.01 704.00 448.01 701.58 Z" />
<path fill="#000000" opacity="0.97" d=" M 558.50 724.47 C 560.93 718.40 562.54 712.03 564.92 705.96 C 566.54 706.27 568.11 706.81 569.66 707.38 C 567.56 713.61 565.49 719.84 563.42 726.08 C 561.76 725.58 560.12 725.04 558.50 724.47 Z" />
<path fill="#000000" opacity="0.97" d=" M 448.12 713.98 C 449.08 712.00 452.40 713.00 452.84 714.95 C 453.15 717.34 452.97 719.76 452.88 722.16 C 451.45 721.98 449.77 722.34 448.62 721.28 C 447.62 719.01 447.91 716.38 448.12 713.98 Z" />
<path fill="#000000" opacity="0.97" d=" M 448.05 724.80 C 449.66 724.79 451.89 724.34 452.72 726.20 C 453.19 728.42 453.13 730.74 452.90 733.00 C 451.69 734.58 448.81 733.96 448.22 732.11 C 447.83 729.68 448.02 727.23 448.05 724.80 Z" />
<path fill="#000000" opacity="0.97" d=" M 555.09 733.76 C 556.64 734.37 558.19 735.00 559.75 735.63 C 557.23 741.78 554.71 747.94 551.89 753.96 C 550.39 753.29 548.89 752.63 547.40 751.98 C 549.97 745.90 552.63 739.87 555.09 733.76 Z" />
<path fill="#000000" opacity="0.97" d=" M 447.93 736.68 C 449.58 736.46 452.00 735.82 452.73 737.92 C 453.21 740.34 452.96 742.84 452.97 745.31 C 451.32 745.30 448.95 745.86 448.25 743.84 C 447.87 741.47 447.99 739.06 447.93 736.68 Z" />
<path fill="#000000" opacity="0.97" d=" M 448.15 748.04 C 449.63 748.19 451.76 747.62 452.59 749.29 C 453.38 751.77 452.88 754.45 452.88 757.02 C 451.34 756.80 449.13 757.52 448.37 755.72 C 447.63 753.24 448.10 750.58 448.15 748.04 Z" />
<path fill="#000000" opacity="0.97" d=" M 448.05 759.72 C 449.65 759.82 451.95 759.26 452.73 761.17 C 453.12 763.54 453.00 765.96 453.09 768.37 C 451.51 768.62 449.70 769.13 448.48 767.76 C 447.70 765.15 448.06 762.39 448.05 759.72 Z" />
<path fill="#000000" opacity="0.97" d=" M 543.08 760.77 C 544.57 761.48 546.05 762.21 547.55 762.94 C 544.50 768.70 541.80 774.72 538.02 780.05 C 536.35 780.11 535.10 778.65 533.66 778.00 C 536.97 772.35 540.05 766.57 543.08 760.77 Z" />
<path fill="#000000" opacity="0.97" d=" M 447.93 771.63 C 449.60 771.39 452.02 770.82 452.77 772.92 C 453.14 775.34 452.99 777.81 452.98 780.27 C 451.34 780.24 448.91 780.83 448.25 778.77 C 447.86 776.41 448.00 774.00 447.93 771.63 Z" />
<path fill="#000000" opacity="0.97" d=" M 448.12 783.03 C 449.66 783.11 451.79 782.59 452.65 784.32 C 453.34 786.80 452.90 789.44 452.84 791.99 C 451.32 791.85 449.19 792.40 448.37 790.71 C 447.64 788.22 448.10 785.57 448.12 783.03 Z" />
<path fill="#000000" opacity="0.97" d=" M 517.11 801.92 C 520.88 796.64 524.92 791.55 528.59 786.19 C 529.91 787.13 531.24 788.09 532.57 789.05 C 528.87 794.49 525.19 800.00 520.79 804.91 C 519.37 804.17 518.14 803.12 517.11 801.92 Z" />
<path fill="#000000" opacity="0.97" d=" M 448.03 794.72 C 449.67 794.75 452.11 794.15 452.77 796.26 C 453.14 798.61 452.99 801.00 453.05 803.39 C 451.36 803.61 448.98 804.15 448.22 802.07 C 447.84 799.63 448.01 797.16 448.03 794.72 Z" />
<path fill="#000000" opacity="0.97" d=" M 447.91 806.63 C 449.45 806.46 451.50 805.70 452.50 807.39 C 453.44 809.85 452.85 812.64 452.97 815.24 C 451.37 815.21 448.89 815.74 448.28 813.72 C 447.86 811.38 447.99 808.98 447.91 806.63 Z" />
<path fill="#000000" opacity="0.97" d=" M 496.53 822.17 C 501.53 818.22 506.12 813.79 510.56 809.22 C 511.75 810.29 512.96 811.36 514.17 812.44 C 509.72 817.52 504.78 822.20 499.35 826.23 C 498.40 824.86 497.46 823.52 496.53 822.17 Z" />
<path fill="#000000" opacity="0.97" d=" M 448.10 818.00 C 449.66 818.07 451.81 817.55 452.68 819.30 C 453.30 821.81 452.92 824.43 452.84 826.99 C 451.35 826.76 449.27 827.36 448.42 825.74 C 447.62 823.26 448.11 820.56 448.10 818.00 Z" />
<path fill="#000000" opacity="0.97" d=" M 475.48 834.76 C 480.13 832.88 484.46 830.34 488.79 827.84 C 489.65 829.24 490.51 830.64 491.38 832.04 C 490.44 832.63 489.50 833.22 488.56 833.81 C 484.21 834.21 479.85 835.66 475.48 834.76 Z" />
<path fill="#000000" opacity="0.97" d=" M 448.08 829.46 C 449.50 829.77 451.20 829.49 452.40 830.47 C 452.85 831.98 453.06 833.55 453.34 835.13 C 451.54 835.16 449.75 835.19 447.97 835.22 C 447.99 833.29 448.02 831.37 448.08 829.46 Z" />
<path fill="#000000" opacity="0.97" d=" M 425.21 834.37 L 425.72 834.34 C 425.59 834.35 425.34 834.36 425.21 834.37 Z" />
<path fill="#000000" opacity="0.97" d=" M 426.98 834.15 C 427.99 833.88 428.94 834.06 429.83 834.69 C 428.46 835.91 427.51 835.72 426.98 834.15 Z" />
<path fill="#000000" opacity="0.97" d=" M 447.77 845.98 C 449.52 845.98 451.29 845.98 453.06 845.97 C 452.99 847.38 452.92 848.81 452.86 850.24 C 451.43 850.17 449.66 850.67 448.63 849.36 C 448.23 848.26 447.94 847.13 447.77 845.98 Z" />
<path fill="#000000" opacity="0.97" d=" M 448.10 852.88 C 449.65 853.00 451.72 852.55 452.67 854.18 C 453.28 856.72 452.93 859.37 452.83 861.97 C 451.33 861.77 449.40 862.22 448.43 860.77 C 447.65 858.22 448.09 855.49 448.10 852.88 Z" />
<path fill="#000000" opacity="0.97" d=" M 448.02 864.65 C 449.65 864.60 451.98 864.12 452.76 866.09 C 453.16 868.50 452.99 870.96 453.02 873.40 C 451.41 873.46 448.95 874.03 448.28 872.03 C 447.80 869.60 448.02 867.10 448.02 864.65 Z" />
<path fill="#000000" opacity="0.97" d=" M 448.12 877.06 C 449.09 875.21 452.43 876.01 452.83 878.03 C 453.17 880.40 452.96 882.82 452.89 885.23 C 451.31 885.06 449.06 885.63 448.30 883.78 C 447.82 881.57 447.83 879.27 448.12 877.06 Z" />
<path fill="#000000" opacity="0.97" d=" M 448.12 887.78 C 449.67 887.99 451.86 887.42 452.68 889.20 C 453.15 891.58 453.00 894.03 453.11 896.45 C 451.48 896.69 449.43 897.50 448.46 895.66 C 447.53 893.17 448.15 890.37 448.12 887.78 Z" />
<path fill="#000000" opacity="0.97" d=" M 447.96 899.71 C 449.65 899.43 451.94 899.09 452.79 901.07 C 453.13 903.46 453.00 905.89 453.04 908.31 C 451.50 908.40 449.54 908.99 448.50 907.44 C 447.62 904.98 448.12 902.26 447.96 899.71 Z" />
<path fill="#000000" opacity="0.97" d=" M 447.90 911.52 C 449.45 911.25 451.50 910.58 452.52 912.27 C 453.46 914.75 452.84 917.56 452.90 920.18 C 451.33 919.98 449.13 920.58 448.33 918.79 C 447.83 916.40 448.00 913.93 447.90 911.52 Z" />
<path fill="#000000" opacity="0.97" d=" M 448.09 922.76 C 449.67 922.93 451.91 922.37 452.70 924.22 C 453.14 926.59 452.99 929.03 453.08 931.45 C 451.51 931.62 449.42 932.44 448.47 930.66 C 447.55 928.16 448.14 925.37 448.09 922.76 Z" />
<path fill="#000000" opacity="0.97" d=" M 447.97 934.62 C 449.52 934.56 451.36 933.98 452.52 935.44 C 453.37 937.96 452.90 940.70 452.99 943.33 C 451.34 943.34 448.92 943.92 448.23 941.86 C 447.85 939.46 448.00 937.02 447.97 934.62 Z" />
<path fill="#000000" opacity="0.97" d=" M 448.12 946.89 C 449.19 945.05 452.43 946.00 452.81 947.97 C 453.23 951.78 453.00 955.64 452.89 959.47 C 451.18 958.63 450.16 957.10 449.50 955.39 C 447.63 952.96 447.76 949.77 448.12 946.89 Z" />
</g>
<g id="#007bffff">
<path fill="#007bff" opacity="1.00" d=" M 396.97 237.95 C 450.51 229.95 505.90 234.12 557.49 250.62 C 622.06 271.12 680.61 311.31 721.25 365.71 C 755.94 411.78 777.05 468.22 779.60 525.94 C 779.64 532.01 780.32 538.13 779.21 544.15 C 778.47 547.77 779.05 551.48 778.67 555.14 C 777.86 561.73 778.80 568.39 777.81 574.96 C 770.32 638.60 740.09 698.73 695.50 744.47 C 652.80 788.60 597.36 819.88 537.94 835.00 C 510.23 842.10 481.65 845.74 453.06 845.97 C 451.29 845.98 449.52 845.98 447.77 845.98 C 372.72 845.74 297.63 820.96 238.31 774.74 C 210.21 752.94 185.66 726.48 166.41 696.54 C 145.42 664.02 130.88 627.31 124.25 589.15 C 122.94 583.26 123.76 577.00 121.13 571.41 C 120.95 568.72 121.25 565.96 120.43 563.36 C 120.00 558.01 120.79 552.61 119.79 547.31 C 119.89 523.02 121.76 498.63 127.49 474.97 C 141.67 413.50 176.94 357.69 224.54 316.58 C 272.89 274.52 333.66 247.32 396.97 237.95 M 405.90 247.58 C 371.96 251.84 338.65 261.28 307.59 275.62 C 252.12 301.19 203.79 342.77 171.81 394.96 C 154.51 423.22 142.18 454.53 135.88 487.07 C 133.91 496.63 133.01 506.37 131.18 515.96 C 130.89 516.40 130.30 517.28 130.01 517.72 L 130.77 518.15 C 130.82 525.09 130.91 532.03 130.79 538.97 C 130.66 550.68 131.67 562.34 132.56 574.00 C 132.92 576.93 132.03 580.26 134.04 582.76 C 133.53 584.13 133.09 585.53 132.67 586.94 C 133.24 586.94 134.37 586.93 134.94 586.93 C 134.27 588.35 134.02 589.89 133.88 591.46 C 135.05 591.88 135.77 592.68 136.03 593.86 C 146.43 646.74 172.95 695.99 210.17 734.83 C 256.04 783.19 317.52 816.02 382.85 828.71 C 392.85 830.87 403.09 831.70 413.07 833.95 C 416.45 834.29 419.86 834.07 423.25 833.96 C 423.74 834.06 424.72 834.27 425.21 834.37 C 425.34 834.36 425.59 834.35 425.72 834.34 L 426.98 834.15 C 427.51 835.72 428.46 835.91 429.83 834.69 C 431.69 835.42 433.73 835.14 435.53 834.36 C 439.51 835.70 443.84 834.83 447.97 835.22 C 449.75 835.19 451.54 835.16 453.34 835.13 C 456.73 835.04 460.27 835.57 463.53 834.38 C 467.38 835.53 471.56 835.43 475.48 834.76 C 479.85 835.66 484.21 834.21 488.56 833.81 C 491.78 833.65 494.74 832.22 497.94 831.92 C 534.47 826.90 570.19 815.89 603.09 799.21 C 654.64 773.10 699.33 732.92 729.22 683.33 C 745.87 655.80 757.64 625.37 764.01 593.84 C 764.54 591.96 764.62 589.99 764.27 588.08 L 765.20 587.70 L 764.27 586.47 C 767.39 583.48 766.55 578.79 767.17 574.91 C 768.48 562.64 769.24 550.32 769.29 537.98 C 770.02 532.28 769.64 526.55 768.76 520.91 C 766.05 487.09 757.72 453.65 743.22 422.93 C 714.51 361.34 663.41 311.30 603.01 280.76 C 567.96 262.87 529.63 251.89 490.65 246.96 C 486.20 245.63 481.56 245.29 476.93 245.50 C 472.69 245.19 468.45 245.25 464.22 245.57 C 460.21 244.55 456.05 244.90 451.96 244.85 C 445.77 244.77 439.58 244.85 433.40 245.15 C 432.34 245.09 431.29 245.07 430.25 245.10 C 425.41 244.93 420.62 246.29 415.80 245.43 C 412.20 244.51 409.35 247.39 405.90 247.58 Z" />
</g>
</svg>
