<?xml version="1.0" encoding="UTF-8" ?>
<!DOCTYPE svg PUBLIC "-//W3C//DTD SVG 1.1//EN" "http://www.w3.org/Graphics/SVG/1.1/DTD/svg11.dtd">
<svg width="900pt" height="1080pt" viewBox="0 0 900 1080" version="1.1" xmlns="http://www.w3.org/2000/svg">
<g id="#000000f5">
<path fill="#000000" opacity="0.96" d=" M 449.07 105.57 C 450.09 105.97 451.09 106.43 452.05 106.97 C 453.44 110.95 454.28 115.13 454.11 119.37 C 452.37 119.64 449.99 120.16 449.21 118.03 C 448.74 113.90 449.02 109.72 449.07 105.57 Z" />
<path fill="#000000" opacity="0.96" d=" M 448.91 122.57 C 450.66 122.32 453.08 121.82 453.82 123.99 C 454.16 126.42 453.98 128.87 453.95 131.31 C 452.35 131.16 449.98 131.75 449.28 129.78 C 448.85 127.40 448.99 124.97 448.91 122.57 Z" />
<path fill="#000000" opacity="0.96" d=" M 449.27 134.20 C 450.78 133.58 452.78 133.68 453.66 135.26 C 454.29 137.68 454.17 140.28 453.71 142.72 C 452.19 143.30 450.20 143.27 449.36 141.66 C 448.67 139.25 448.85 136.65 449.27 134.20 Z" />
<path fill="#000000" opacity="0.96" d=" M 448.99 145.69 C 450.66 145.64 453.04 145.17 453.78 147.20 C 454.14 149.57 454.01 151.97 454.07 154.35 C 452.38 154.54 450.06 155.11 449.24 153.09 C 448.83 150.64 449.00 148.15 448.99 145.69 Z" />
<path fill="#000000" opacity="0.96" d=" M 448.91 157.56 C 450.66 157.24 453.12 156.74 453.82 158.96 C 454.16 161.38 453.98 163.83 453.94 166.26 C 452.34 166.08 450.08 166.70 449.28 164.83 C 448.83 162.43 448.99 159.98 448.91 157.56 Z" />
<path fill="#000000" opacity="0.96" d=" M 449.11 168.80 C 450.65 169.07 452.86 168.53 453.69 170.28 C 454.29 172.70 454.17 175.30 453.67 177.74 C 452.03 178.36 449.67 178.03 449.19 176.08 C 448.82 173.67 449.03 171.22 449.11 168.80 Z" />
<path fill="#000000" opacity="0.96" d=" M 448.98 180.63 C 450.62 180.66 452.97 180.10 453.76 182.07 C 454.15 184.49 454.00 186.96 454.05 189.40 C 452.38 189.50 450.11 190.01 449.27 188.10 C 448.80 185.64 449.01 183.12 448.98 180.63 Z" />
<path fill="#000000" opacity="0.96" d=" M 448.88 192.59 C 450.48 192.33 452.56 191.54 453.55 193.39 C 454.46 195.84 453.84 198.63 453.93 201.21 C 452.33 201.01 450.01 201.69 449.29 199.74 C 448.84 197.39 448.98 194.97 448.88 192.59 Z" />
<path fill="#000000" opacity="0.96" d=" M 449.09 203.79 C 450.63 204.06 452.89 203.37 453.66 205.20 C 454.21 207.58 453.99 210.06 454.11 212.49 C 452.52 212.67 450.38 213.50 449.44 211.66 C 448.55 209.17 449.14 206.39 449.09 203.79 Z" />
<path fill="#000000" opacity="0.96" d=" M 448.95 215.67 C 450.62 215.50 452.91 215.07 453.76 217.01 C 454.14 219.42 454.00 221.89 454.06 224.33 C 452.40 224.48 450.03 224.96 449.25 222.96 C 448.85 220.55 448.99 218.10 448.95 215.67 Z" />
<path fill="#000000" opacity="0.96" d=" M 449.41 227.41 C 450.98 226.46 453.30 227.16 453.84 228.97 C 454.16 231.37 453.97 233.80 453.92 236.21 C 452.35 235.97 450.11 236.59 449.32 234.78 C 448.83 232.39 448.59 229.73 449.41 227.41 Z" />
<path fill="#000000" opacity="0.96" d=" M 449.06 238.79 C 450.66 238.98 453.03 238.31 453.72 240.30 C 454.14 242.63 454.01 245.03 454.12 247.40 C 452.36 247.96 449.93 248.27 449.18 246.10 C 448.84 243.68 449.01 241.22 449.06 238.79 Z" />
<path fill="#000000" opacity="0.96" d=" M 414.10 260.96 C 415.99 260.24 417.97 259.26 420.05 259.82 C 423.74 260.72 427.52 260.13 431.27 260.09 C 424.99 261.08 419.04 263.74 413.34 266.44 C 406.55 271.96 400.06 277.90 393.06 283.18 C 391.27 284.61 389.81 286.42 388.50 288.30 C 383.72 295.16 378.10 301.39 373.04 308.02 C 368.42 316.62 363.34 324.97 358.40 333.39 C 354.57 342.46 350.47 351.41 346.31 360.34 C 343.18 369.80 339.83 379.21 336.38 388.56 C 334.04 397.78 331.55 406.95 328.80 416.06 C 327.21 423.59 325.80 431.17 324.13 438.70 C 327.36 438.08 330.60 437.53 333.85 436.99 C 334.08 438.67 334.31 440.35 334.55 442.03 C 331.38 442.53 328.22 443.02 325.06 443.49 C 324.55 442.47 324.05 441.47 323.54 440.47 C 321.41 451.55 320.22 462.80 318.17 473.90 C 314.39 507.75 311.91 541.87 313.57 575.94 C 314.60 614.60 319.27 653.22 328.16 690.87 C 337.61 693.30 347.42 693.46 356.95 695.45 C 366.01 695.84 374.90 697.95 383.98 698.05 C 389.00 698.19 393.94 699.35 398.97 699.41 C 403.36 699.45 407.74 699.72 412.11 700.16 C 417.99 700.77 423.91 700.16 429.80 700.71 C 436.20 701.30 442.63 700.92 449.04 700.98 C 449.01 698.42 448.86 695.84 449.30 693.32 C 450.76 692.85 452.59 692.87 453.56 694.27 C 454.12 696.51 454.01 698.85 454.14 701.15 C 463.09 700.68 472.06 701.30 480.98 700.28 C 491.05 700.61 501.01 698.96 511.07 698.88 C 518.71 697.83 526.43 697.57 534.09 696.65 C 541.65 695.16 549.43 695.34 556.95 693.59 C 565.60 691.81 574.66 692.44 583.06 689.44 C 590.82 688.37 598.29 685.92 606.03 684.75 C 611.39 683.87 616.46 681.81 621.78 680.76 C 630.02 679.21 637.78 675.94 645.95 674.09 C 656.03 670.42 666.38 667.50 676.18 663.09 C 684.16 660.58 691.41 656.36 699.10 653.12 C 704.08 650.99 708.58 647.94 713.39 645.47 C 720.99 641.68 727.74 636.46 734.82 631.81 C 742.18 625.91 749.68 620.01 755.78 612.76 C 759.04 609.09 761.94 605.11 765.26 601.48 L 766.25 602.72 L 765.27 603.05 C 765.70 605.14 765.54 607.28 764.71 609.28 C 762.63 615.39 757.45 619.57 753.09 624.04 C 733.37 642.67 709.15 655.76 684.34 666.29 C 650.28 680.51 614.37 689.98 578.05 696.25 C 576.58 702.10 575.09 707.94 573.40 713.74 C 571.79 713.23 570.20 712.75 568.61 712.26 C 569.98 707.33 571.32 702.39 572.50 697.41 C 533.37 703.62 493.76 706.89 454.13 707.00 C 453.65 709.47 455.25 714.93 451.05 713.84 C 448.24 712.89 449.31 709.24 448.79 707.00 C 408.94 706.83 369.04 703.90 329.73 697.27 C 338.59 732.89 351.48 767.87 371.13 799.02 C 383.74 818.54 399.58 836.98 420.63 847.62 C 424.14 849.59 428.20 849.92 432.15 850.03 C 427.36 850.78 422.76 848.89 418.00 848.90 C 415.07 848.67 411.95 849.01 409.18 847.90 C 405.50 845.26 402.63 841.66 398.81 839.22 C 390.94 834.28 385.03 826.91 379.69 819.45 C 372.67 812.38 367.29 803.91 362.82 795.06 C 357.07 787.02 352.68 778.13 349.07 768.96 C 344.47 760.34 340.74 751.26 337.98 741.89 C 334.83 734.08 331.86 726.18 329.91 717.98 C 328.24 710.58 325.41 703.50 323.84 696.07 C 303.40 693.03 283.30 687.96 263.42 682.39 C 232.75 673.33 202.55 661.67 175.43 644.52 C 162.46 636.23 150.23 626.57 140.17 614.86 C 138.73 613.27 138.14 611.19 137.33 609.27 C 136.94 607.94 136.12 606.98 134.87 606.40 C 135.02 604.86 135.34 603.34 135.92 601.91 C 135.36 601.92 134.22 601.95 133.65 601.96 C 134.07 600.55 134.54 599.16 135.07 597.80 C 142.65 610.18 152.87 620.80 164.44 629.51 C 170.81 635.06 178.31 639.04 185.28 643.74 C 197.86 650.90 210.94 657.12 224.28 662.70 C 232.95 665.59 241.19 669.64 250.07 671.88 C 259.80 675.71 270.07 677.79 280.02 680.94 C 288.42 682.36 296.43 685.43 304.90 686.52 C 310.79 687.53 316.52 689.28 322.39 690.40 C 321.46 682.10 318.62 674.17 317.44 665.90 C 315.44 651.92 312.57 638.05 311.65 623.93 C 310.01 612.73 309.48 601.41 308.86 590.12 C 307.73 579.79 308.16 569.39 308.01 559.03 C 307.53 505.12 313.66 450.98 328.04 398.96 C 334.82 375.12 343.26 351.65 354.66 329.60 C 365.89 307.98 379.71 287.19 398.40 271.28 C 403.27 267.35 408.13 263.13 414.10 260.96 Z" />
<path fill="#000000" opacity="0.96" d=" M 468.24 260.65 C 471.95 259.64 475.73 260.66 479.48 260.81 C 482.89 261.01 486.42 260.77 489.70 261.94 C 490.19 262.15 491.17 262.58 491.66 262.80 C 490.84 264.46 489.95 266.08 489.07 267.71 C 485.44 265.70 481.88 263.51 478.05 261.90 C 474.95 260.57 471.50 261.01 468.24 260.65 Z" />
<path fill="#000000" opacity="0.96" d=" M 449.13 262.06 C 450.81 262.11 453.27 261.81 453.84 263.91 C 454.16 266.32 453.97 268.76 453.89 271.18 C 452.33 270.94 450.13 271.48 449.32 269.71 C 448.71 267.21 449.06 264.60 449.13 262.06 Z" />
<path fill="#000000" opacity="0.96" d=" M 496.70 273.09 C 497.72 271.78 498.75 270.47 499.78 269.16 C 505.02 273.30 509.99 277.78 514.52 282.70 C 513.31 283.82 512.11 284.94 510.91 286.06 C 506.41 281.49 501.69 277.12 496.70 273.09 Z" />
<path fill="#000000" opacity="0.96" d=" M 449.06 273.72 C 450.66 273.87 452.91 273.35 453.73 275.20 C 454.15 277.58 454.01 280.02 454.10 282.43 C 452.35 282.73 449.98 283.28 449.20 281.14 C 448.83 278.68 449.01 276.19 449.06 273.72 Z" />
<path fill="#000000" opacity="0.96" d=" M 448.93 285.65 C 450.67 285.36 452.88 284.95 453.79 286.94 C 454.15 289.38 454.00 291.85 453.99 294.31 C 452.33 294.35 449.98 294.83 449.23 292.83 C 448.85 290.45 448.98 288.04 448.93 285.65 Z" />
<path fill="#000000" opacity="0.96" d=" M 517.28 293.22 C 518.57 292.20 519.86 291.17 521.16 290.15 C 525.36 295.35 529.57 300.59 533.03 306.34 C 531.64 307.20 530.25 308.06 528.87 308.93 C 525.24 303.52 521.29 298.35 517.28 293.22 Z" />
<path fill="#000000" opacity="0.96" d=" M 449.17 296.96 C 450.66 297.23 452.80 296.64 453.61 298.33 C 454.40 300.80 453.89 303.49 453.90 306.05 C 452.34 305.83 450.14 306.50 449.34 304.71 C 448.63 302.19 449.09 299.52 449.17 296.96 Z" />
<path fill="#000000" opacity="0.96" d=" M 449.04 308.70 C 450.64 308.84 452.98 308.26 453.74 310.20 C 454.14 312.57 454.01 315.00 454.09 317.40 C 452.35 317.74 449.97 318.16 449.21 316.05 C 448.84 313.62 449.00 311.15 449.04 308.70 Z" />
<path fill="#000000" opacity="0.96" d=" M 534.29 317.15 C 535.65 316.21 537.13 315.46 538.60 314.68 C 541.85 320.46 545.14 326.22 548.17 332.13 C 546.75 332.84 545.34 333.57 543.87 334.16 C 540.31 328.74 537.48 322.81 534.29 317.15 Z" />
<path fill="#000000" opacity="0.96" d=" M 448.92 320.60 C 450.65 320.34 452.99 319.89 453.80 321.96 C 454.14 324.39 454.00 326.85 453.99 329.30 C 452.33 329.26 450.02 329.78 449.24 327.84 C 448.86 325.44 448.98 323.01 448.92 320.60 Z" />
<path fill="#000000" opacity="0.96" d=" M 449.15 331.94 C 450.64 332.18 452.75 331.60 453.60 333.26 C 454.36 335.63 454.16 338.27 453.70 340.70 C 452.06 341.61 449.59 341.08 449.14 339.09 C 448.82 336.71 449.03 334.31 449.15 331.94 Z" />
<path fill="#000000" opacity="0.96" d=" M 547.93 343.21 C 549.42 342.49 550.90 341.77 552.41 341.06 C 555.26 347.15 558.06 353.28 560.27 359.64 C 558.76 360.18 557.25 360.73 555.75 361.29 C 553.16 355.25 550.67 349.18 547.93 343.21 Z" />
<path fill="#000000" opacity="0.96" d=" M 449.02 343.68 C 450.65 343.81 453.06 343.14 453.75 345.19 C 454.13 347.56 454.01 349.97 454.08 352.37 C 452.37 352.60 449.96 353.17 449.21 351.04 C 448.83 348.60 449.00 346.13 449.02 343.68 Z" />
<path fill="#000000" opacity="0.96" d=" M 448.90 355.60 C 450.64 355.29 453.08 354.82 453.81 356.98 C 454.15 359.40 453.99 361.85 453.97 364.29 C 452.35 364.16 449.90 364.76 449.26 362.72 C 448.85 360.37 448.98 357.97 448.90 355.60 Z" />
<path fill="#000000" opacity="0.96" d=" M 449.11 366.92 C 450.65 367.10 452.77 366.59 453.67 368.27 C 454.31 370.78 453.93 373.42 453.87 375.99 C 452.36 375.77 450.28 376.36 449.41 374.74 C 448.60 372.23 449.11 369.51 449.11 366.92 Z" />
<path fill="#000000" opacity="0.96" d=" M 559.18 370.59 C 560.75 369.99 562.34 369.40 563.92 368.81 C 566.18 375.14 568.41 381.48 570.30 387.93 C 568.67 388.33 567.03 388.73 565.41 389.12 C 563.56 382.87 561.41 376.72 559.18 370.59 Z" />
<path fill="#000000" opacity="0.96" d=" M 449.01 378.66 C 450.65 378.70 452.97 378.14 453.77 380.12 C 454.14 382.50 454.01 384.93 454.07 387.34 C 452.38 387.54 450.02 388.13 449.24 386.06 C 448.82 383.61 449.01 381.12 449.01 378.66 Z" />
<path fill="#000000" opacity="0.96" d=" M 448.90 390.57 C 450.44 390.43 452.47 389.63 453.49 391.30 C 454.49 393.79 453.84 396.64 453.94 399.28 C 452.33 399.06 450.00 399.71 449.27 397.78 C 448.85 395.40 448.98 392.97 448.90 390.57 Z" />
<path fill="#000000" opacity="0.96" d=" M 568.38 398.65 C 569.99 398.23 571.60 397.81 573.22 397.40 C 574.96 403.84 576.76 410.26 578.23 416.77 C 576.60 417.13 574.98 417.50 573.36 417.87 C 571.80 411.44 570.07 405.05 568.38 398.65 Z" />
<path fill="#000000" opacity="0.96" d=" M 449.08 401.89 C 450.80 401.91 453.64 401.63 453.87 404.01 C 453.99 406.50 455.28 412.06 450.98 410.95 C 447.64 409.31 449.42 404.81 449.08 401.89 Z" />
<path fill="#000000" opacity="0.96" d=" M 448.98 413.64 C 450.62 413.65 453.01 413.09 453.76 415.10 C 454.15 417.50 454.00 419.96 454.05 422.40 C 452.42 422.48 450.05 423.04 449.29 421.08 C 448.78 418.63 449.02 416.11 448.98 413.64 Z" />
<path fill="#000000" opacity="0.96" d=" M 448.59 427.98 C 448.90 426.30 449.97 424.21 452.05 425.21 C 455.10 426.33 453.75 430.25 453.46 432.66 C 450.17 433.46 446.67 432.88 443.30 432.93 C 443.30 431.30 443.30 429.68 443.30 428.06 C 445.06 428.01 446.82 427.99 448.59 427.98 Z" />
<path fill="#000000" opacity="0.96" d=" M 575.58 427.61 C 577.20 427.19 578.81 426.77 580.45 426.36 C 581.47 430.75 582.32 435.17 583.34 439.57 C 586.44 440.16 589.54 440.79 592.62 441.50 C 592.20 443.08 591.82 444.67 591.43 446.26 C 587.47 444.91 583.45 445.74 579.61 447.02 C 578.78 444.80 577.28 442.69 577.48 440.23 C 577.87 435.93 576.39 431.78 575.58 427.61 Z" />
<path fill="#000000" opacity="0.96" d=" M 463.31 428.13 C 466.69 428.13 470.08 428.20 473.47 428.31 C 473.36 429.90 473.33 431.51 473.09 433.10 C 469.81 433.46 466.51 433.17 463.23 433.02 C 463.25 431.38 463.28 429.75 463.31 428.13 Z" />
<path fill="#000000" opacity="0.96" d=" M 483.34 428.61 C 486.66 428.80 489.98 428.96 493.31 429.08 C 493.23 430.76 493.15 432.44 493.08 434.12 C 489.76 433.99 486.45 433.85 483.14 433.70 C 483.20 432.00 483.26 430.30 483.34 428.61 Z" />
<path fill="#000000" opacity="0.96" d=" M 403.37 429.41 C 406.70 429.22 410.04 429.04 413.38 428.90 C 413.43 430.58 413.50 432.26 413.56 433.95 C 410.26 434.08 406.95 434.25 403.65 434.42 C 403.55 432.75 403.46 431.08 403.37 429.41 Z" />
<path fill="#000000" opacity="0.96" d=" M 423.35 428.45 C 426.69 428.35 430.04 428.26 433.39 428.22 C 433.41 429.87 433.42 431.53 433.45 433.19 C 430.12 433.30 426.80 433.40 423.48 433.48 C 423.43 431.80 423.39 430.12 423.35 428.45 Z" />
<path fill="#000000" opacity="0.96" d=" M 383.41 430.91 C 386.75 430.60 390.11 430.32 393.47 430.15 C 393.57 431.79 393.67 433.42 393.79 435.06 C 390.48 435.38 387.17 435.67 383.87 435.94 C 383.71 434.26 383.55 432.58 383.41 430.91 Z" />
<path fill="#000000" opacity="0.96" d=" M 503.19 429.83 C 506.50 430.00 509.89 429.82 513.12 430.69 C 513.14 432.27 513.12 433.85 513.06 435.44 C 509.72 435.22 506.38 435.00 503.05 434.81 C 503.08 433.14 503.13 431.48 503.19 429.83 Z" />
<path fill="#000000" opacity="0.96" d=" M 363.54 432.92 C 366.88 432.51 370.23 432.14 373.60 432.00 C 373.71 433.61 373.83 435.23 373.95 436.86 C 370.66 437.20 367.37 437.57 364.08 437.93 C 363.89 436.26 363.71 434.59 363.54 432.92 Z" />
<path fill="#000000" opacity="0.96" d=" M 523.00 431.39 C 526.39 431.62 529.78 431.95 533.18 432.28 C 532.98 433.96 532.79 435.66 532.59 437.36 C 529.39 436.99 526.14 436.88 523.00 436.18 C 522.94 434.58 522.94 432.98 523.00 431.39 Z" />
<path fill="#000000" opacity="0.96" d=" M 543.07 433.50 C 546.41 433.87 549.74 434.30 553.07 434.77 C 552.85 436.41 552.65 438.06 552.45 439.71 C 549.15 439.33 545.86 438.91 542.57 438.49 C 542.73 436.82 542.90 435.15 543.07 433.50 Z" />
<path fill="#000000" opacity="0.96" d=" M 343.60 435.58 C 346.91 435.05 350.23 434.59 353.54 434.09 C 353.78 435.76 354.02 437.44 354.26 439.12 C 351.00 439.58 347.75 440.03 344.49 440.50 C 344.19 438.86 343.89 437.21 343.60 435.58 Z" />
<path fill="#000000" opacity="0.96" d=" M 449.11 436.76 C 450.64 437.14 452.54 436.86 453.71 438.14 C 454.12 440.56 454.02 443.03 454.12 445.48 C 452.51 445.70 450.46 446.48 449.46 444.70 C 448.53 442.18 449.14 439.38 449.11 436.76 Z" />
<path fill="#000000" opacity="0.96" d=" M 562.85 436.21 C 566.21 436.65 569.56 437.20 572.89 437.87 C 572.59 439.46 572.30 441.07 572.02 442.67 C 568.76 442.20 565.51 441.72 562.27 441.20 C 562.45 439.54 562.65 437.87 562.85 436.21 Z" />
<path fill="#000000" opacity="0.96" d=" M 304.25 442.52 C 307.55 441.76 310.87 441.07 314.21 440.53 C 314.46 442.18 314.72 443.84 314.97 445.50 C 311.73 446.10 308.51 446.72 305.27 447.31 C 304.93 445.71 304.59 444.11 304.25 442.52 Z" />
<path fill="#000000" opacity="0.96" d=" M 602.12 443.49 C 605.39 444.10 608.65 444.80 611.92 445.50 C 611.64 447.16 611.33 448.81 611.05 450.48 C 607.79 449.84 604.55 449.12 601.31 448.39 C 601.57 446.75 601.84 445.12 602.12 443.49 Z" />
<path fill="#000000" opacity="0.96" d=" M 284.81 446.87 C 288.01 446.10 291.22 445.34 294.42 444.55 C 294.86 446.17 295.29 447.78 295.72 449.42 C 292.47 450.26 289.20 451.02 285.92 451.72 C 285.55 450.10 285.17 448.48 284.81 446.87 Z" />
<path fill="#000000" opacity="0.96" d=" M 448.95 448.67 C 450.62 448.51 452.96 448.05 453.77 450.05 C 454.14 452.46 454.00 454.92 454.05 457.35 C 452.52 457.40 450.64 457.94 449.53 456.53 C 448.61 454.03 449.11 451.27 448.95 448.67 Z" />
<path fill="#000000" opacity="0.96" d=" M 621.61 448.08 C 624.92 448.81 628.21 449.67 631.46 450.66 C 631.00 452.22 630.57 453.79 630.14 455.36 C 626.94 454.60 623.77 453.77 620.60 452.95 C 620.93 451.32 621.27 449.70 621.61 448.08 Z" />
<path fill="#000000" opacity="0.96" d=" M 265.53 451.98 C 268.78 451.07 272.03 450.19 275.31 449.38 C 275.61 450.96 275.94 452.53 276.13 454.14 C 273.10 455.36 269.87 456.01 266.71 456.78 C 266.32 455.17 265.92 453.57 265.53 451.98 Z" />
<path fill="#000000" opacity="0.96" d=" M 640.91 453.37 C 644.15 454.25 647.36 455.22 650.58 456.19 C 650.08 457.76 649.67 459.37 649.04 460.91 C 645.85 460.27 642.78 459.12 639.68 458.17 C 640.08 456.57 640.49 454.97 640.91 453.37 Z" />
<path fill="#000000" opacity="0.96" d=" M 246.42 457.89 C 249.59 456.86 252.77 455.84 255.96 454.86 C 256.40 456.50 256.85 458.14 257.28 459.79 C 254.13 460.75 250.99 461.73 247.83 462.65 C 247.36 461.06 246.88 459.47 246.42 457.89 Z" />
<path fill="#000000" opacity="0.96" d=" M 581.23 456.60 C 582.86 456.37 584.49 456.14 586.14 455.92 C 587.20 462.52 588.19 469.14 588.99 475.78 C 587.33 475.94 585.67 476.12 584.01 476.30 C 583.17 469.72 582.11 463.17 581.23 456.60 Z" />
<path fill="#000000" opacity="0.96" d=" M 448.90 460.49 C 450.51 460.25 452.58 459.56 453.58 461.36 C 454.41 463.85 453.87 466.59 453.92 469.19 C 452.34 468.98 450.10 469.60 449.30 467.76 C 448.83 465.36 448.99 462.91 448.90 460.49 Z" />
<path fill="#000000" opacity="0.96" d=" M 659.96 459.50 C 663.16 460.49 666.33 461.60 669.46 462.80 C 668.92 464.35 668.39 465.91 667.87 467.47 C 664.71 466.45 661.59 465.35 658.48 464.21 C 658.97 462.63 659.46 461.06 659.96 459.50 Z" />
<path fill="#000000" opacity="0.96" d=" M 227.58 464.74 C 230.63 463.54 233.68 462.36 236.72 461.15 C 237.38 462.74 238.00 464.34 238.64 465.96 C 235.51 467.14 232.38 468.28 229.20 469.33 C 228.66 467.79 228.12 466.26 227.58 464.74 Z" />
<path fill="#000000" opacity="0.96" d=" M 676.92 471.03 C 677.56 469.49 678.19 467.95 678.84 466.42 C 681.93 467.67 685.01 468.95 688.08 470.25 C 687.39 471.79 686.70 473.34 686.01 474.89 C 682.98 473.59 679.95 472.31 676.92 471.03 Z" />
<path fill="#000000" opacity="0.96" d=" M 209.22 472.25 C 212.25 471.05 215.25 469.76 218.24 468.46 C 218.91 469.98 219.57 471.50 220.23 473.03 C 217.20 474.41 214.15 475.75 211.08 477.05 C 210.45 475.45 209.83 473.85 209.22 472.25 Z" />
<path fill="#000000" opacity="0.96" d=" M 449.08 471.75 C 450.65 471.92 452.84 471.40 453.70 473.17 C 454.14 475.55 454.01 477.99 454.11 480.40 C 452.51 480.66 450.47 481.45 449.47 479.65 C 448.52 477.17 449.15 474.36 449.08 471.75 Z" />
<path fill="#000000" opacity="0.96" d=" M 697.06 474.43 C 700.05 475.86 703.28 476.93 705.94 478.98 C 705.36 480.46 704.63 481.87 703.95 483.31 C 700.96 481.88 697.99 480.42 695.03 478.95 C 695.70 477.44 696.38 475.93 697.06 474.43 Z" />
<path fill="#000000" opacity="0.96" d=" M 191.13 481.27 C 194.11 479.71 197.10 478.18 200.11 476.68 C 200.79 478.10 201.51 479.51 202.07 480.99 C 199.51 483.01 196.39 484.12 193.57 485.70 C 192.75 484.22 191.94 482.75 191.13 481.27 Z" />
<path fill="#000000" opacity="0.96" d=" M 448.95 483.60 C 450.61 483.49 452.94 482.98 453.74 484.95 C 454.17 487.38 453.99 489.87 454.04 492.34 C 452.37 492.31 449.89 492.96 449.22 490.84 C 448.84 488.45 448.99 486.01 448.95 483.60 Z" />
<path fill="#000000" opacity="0.96" d=" M 712.73 487.89 C 713.32 486.36 714.11 484.93 714.86 483.49 C 717.87 485.14 720.83 486.88 723.72 488.74 C 722.76 490.06 721.87 491.43 720.81 492.67 C 717.99 491.29 715.29 489.67 712.73 487.89 Z" />
<path fill="#000000" opacity="0.96" d=" M 585.26 485.90 C 586.87 485.85 588.49 485.86 590.11 485.94 C 591.08 492.46 591.52 499.05 592.02 505.62 C 590.36 505.72 588.71 505.83 587.07 505.95 C 586.52 499.26 585.78 492.59 585.26 485.90 Z" />
<path fill="#000000" opacity="0.96" d=" M 173.94 491.39 C 176.78 489.68 179.60 487.93 182.40 486.16 C 183.27 487.62 184.14 489.09 185.00 490.56 C 182.19 492.21 179.42 493.91 176.68 495.67 C 175.76 494.24 174.84 492.82 173.94 491.39 Z" />
<path fill="#000000" opacity="0.96" d=" M 449.29 495.30 C 450.94 494.63 453.32 494.95 453.83 496.93 C 454.17 499.33 453.97 501.76 453.90 504.18 C 452.35 503.92 450.19 504.47 449.33 502.78 C 448.72 500.34 448.83 497.75 449.29 495.30 Z" />
<path fill="#000000" opacity="0.96" d=" M 729.13 498.12 C 730.07 496.75 731.01 495.39 731.96 494.04 C 734.66 495.94 737.52 497.65 739.93 499.94 C 739.08 501.32 738.06 502.59 737.10 503.91 C 734.44 501.97 731.79 500.04 729.13 498.12 Z" />
<path fill="#000000" opacity="0.96" d=" M 157.71 503.16 C 160.34 501.07 163.00 499.04 165.72 497.08 C 166.68 498.43 167.64 499.77 168.61 501.12 C 166.06 503.05 163.64 505.18 160.93 506.90 C 159.74 505.75 158.75 504.43 157.71 503.16 Z" />
<path fill="#000000" opacity="0.96" d=" M 449.06 506.74 C 450.65 506.83 452.95 506.37 453.74 508.25 C 454.14 510.60 454.01 513.02 454.11 515.41 C 452.34 515.77 449.91 516.27 449.18 514.05 C 448.83 511.62 449.01 509.17 449.06 506.74 Z" />
<path fill="#000000" opacity="0.96" d=" M 744.61 509.98 C 745.68 508.70 746.76 507.41 747.85 506.14 C 750.36 508.34 752.80 510.62 755.19 512.95 C 754.04 514.14 752.88 515.33 751.74 516.53 C 749.36 514.34 746.99 512.15 744.61 509.98 Z" />
<path fill="#000000" opacity="0.96" d=" M 143.07 516.91 C 145.33 514.55 147.47 512.05 150.05 510.02 C 151.43 510.88 152.53 512.10 153.71 513.22 C 151.45 515.45 149.36 517.85 146.95 519.92 C 145.46 519.21 144.33 517.94 143.07 516.91 Z" />
<path fill="#000000" opacity="0.96" d=" M 587.76 515.78 C 589.45 515.71 591.15 515.65 592.85 515.60 C 593.10 522.25 593.52 528.89 593.68 535.55 C 592.00 535.58 590.34 535.61 588.68 535.65 C 588.42 529.02 588.09 522.40 587.76 515.78 Z" />
<path fill="#000000" opacity="0.96" d=" M 448.93 518.63 C 450.63 518.41 452.89 517.92 453.76 519.90 C 454.16 522.34 453.99 524.83 453.99 527.31 C 452.32 527.35 450.00 527.82 449.23 525.84 C 448.86 523.45 448.99 521.03 448.93 518.63 Z" />
<path fill="#000000" opacity="0.96" d=" M 758.19 523.56 C 759.41 522.45 760.63 521.35 761.85 520.24 C 764.08 522.83 766.16 525.55 768.13 528.35 C 766.75 529.22 765.40 530.13 763.96 530.89 C 761.85 528.60 760.14 525.98 758.19 523.56 Z" />
<path fill="#000000" opacity="0.96" d=" M 132.17 530.99 C 133.64 528.75 135.19 526.57 136.76 524.41 C 138.06 525.45 139.37 526.51 140.67 527.56 C 138.90 530.08 137.32 532.77 135.20 535.02 C 134.01 534.49 132.87 533.86 131.75 533.22 L 130.98 532.78 C 131.28 532.34 131.87 531.44 132.17 530.99 Z" />
<path fill="#000000" opacity="0.96" d=" M 449.14 530.01 C 450.65 530.23 452.79 529.62 453.62 531.33 C 454.37 533.80 453.90 536.46 453.91 539.02 C 452.35 538.85 450.17 539.49 449.33 537.72 C 448.66 535.21 449.07 532.56 449.14 530.01 Z" />
<path fill="#000000" opacity="0.96" d=" M 449.11 541.71 C 449.82 541.73 451.23 541.77 451.94 541.80 C 454.13 542.12 453.79 544.83 454.41 546.42 C 460.17 548.49 463.80 555.32 461.22 561.12 C 460.13 564.47 456.90 566.09 454.20 567.94 C 453.92 569.95 453.91 571.99 453.79 574.03 C 452.29 573.84 450.28 574.36 449.39 572.77 C 448.99 571.22 448.97 569.61 448.81 568.04 C 444.42 566.57 440.40 563.07 440.06 558.19 C 439.20 552.44 443.65 547.48 448.92 545.94 C 448.97 544.52 449.04 543.11 449.11 541.71 Z" />
<path fill="#000000" opacity="0.96" d=" M 588.93 545.54 C 590.61 545.52 592.30 545.52 593.99 545.53 C 594.00 552.17 594.02 558.82 593.98 565.47 C 592.29 565.47 590.60 565.47 588.93 565.47 C 589.02 558.82 588.98 552.18 588.93 545.54 Z" />
<path fill="#000000" opacity="0.96" d=" M 588.59 575.40 C 590.29 575.41 591.99 575.40 593.72 575.43 C 593.58 582.11 593.16 588.77 592.88 595.45 C 591.19 595.36 589.50 595.28 587.83 595.20 C 588.09 588.60 588.59 582.01 588.59 575.40 Z" />
<path fill="#000000" opacity="0.96" d=" M 449.02 576.68 C 450.64 576.81 453.04 576.15 453.74 578.17 C 454.14 580.54 454.01 582.95 454.09 585.35 C 452.37 585.63 450.04 586.15 449.21 584.08 C 448.84 581.63 449.00 579.14 449.02 576.68 Z" />
<path fill="#000000" opacity="0.96" d=" M 448.91 588.56 C 450.65 588.30 453.07 587.82 453.82 589.98 C 454.15 592.40 453.99 594.86 453.96 597.31 C 452.34 597.14 449.93 597.75 449.26 595.74 C 448.86 593.37 448.99 590.95 448.91 588.56 Z" />
<path fill="#000000" opacity="0.96" d=" M 449.13 599.87 C 450.62 600.17 452.79 599.55 453.61 601.23 C 454.44 603.73 453.86 606.47 453.81 609.07 C 452.14 608.85 449.64 609.26 449.16 607.11 C 448.82 604.70 449.03 602.27 449.13 599.87 Z" />
<path fill="#000000" opacity="0.96" d=" M 587.11 605.08 C 588.74 605.16 590.37 605.26 592.00 605.35 C 591.80 612.03 590.94 618.66 590.31 625.31 C 588.65 625.18 587.00 625.06 585.36 624.95 C 585.90 618.32 586.64 611.71 587.11 605.08 Z" />
<path fill="#000000" opacity="0.96" d=" M 448.99 611.68 C 450.64 611.66 452.98 611.16 453.77 613.14 C 454.14 615.51 454.01 617.93 454.08 620.34 C 452.37 620.58 450.10 621.08 449.24 619.10 C 448.84 616.64 449.00 614.15 448.99 611.68 Z" />
<path fill="#000000" opacity="0.96" d=" M 448.90 623.58 C 450.65 623.21 453.06 622.74 453.81 624.92 C 454.17 627.35 453.98 629.82 453.93 632.27 C 452.34 632.13 450.03 632.65 449.27 630.77 C 448.86 628.39 448.98 625.97 448.90 623.58 Z" />
<path fill="#000000" opacity="0.96" d=" M 449.10 634.84 C 450.63 635.04 452.80 634.52 453.66 636.22 C 454.21 638.61 454.33 641.26 453.63 643.63 C 452.06 644.53 449.65 643.95 449.19 642.08 C 448.83 639.68 449.02 637.25 449.10 634.84 Z" />
<path fill="#000000" opacity="0.96" d=" M 584.11 634.73 C 585.76 634.88 587.42 635.04 589.09 635.21 C 588.34 641.81 587.30 648.37 586.41 654.95 C 584.73 654.80 583.04 654.61 581.37 654.46 C 582.25 647.88 583.32 641.33 584.11 634.73 Z" />
<path fill="#000000" opacity="0.96" d=" M 448.97 646.66 C 450.63 646.60 453.01 646.11 453.78 648.13 C 454.15 650.53 454.00 652.98 454.05 655.41 C 452.38 655.51 450.03 656.00 449.25 654.03 C 448.83 651.59 449.00 649.11 448.97 646.66 Z" />
<path fill="#000000" opacity="0.96" d=" M 448.89 658.56 C 450.50 658.32 452.53 657.56 453.54 659.37 C 454.48 661.84 453.84 664.65 453.90 667.26 C 452.35 666.98 450.07 667.67 449.33 665.82 C 448.79 663.44 449.00 660.97 448.89 658.56 Z" />
<path fill="#000000" opacity="0.96" d=" M 579.60 664.07 C 581.29 664.40 583.00 664.76 584.70 665.15 C 583.35 671.57 582.08 678.01 580.85 684.46 C 579.20 684.20 577.56 683.95 575.93 683.71 C 576.95 677.12 578.60 670.66 579.60 664.07 Z" />
<path fill="#000000" opacity="0.96" d=" M 449.11 669.75 C 450.68 670.01 452.91 669.43 453.70 671.26 C 454.15 673.63 454.01 676.06 454.12 678.47 C 452.52 678.68 450.46 679.49 449.47 677.70 C 448.49 675.20 449.16 672.36 449.11 669.75 Z" />
<path fill="#000000" opacity="0.96" d=" M 448.94 681.68 C 450.62 681.49 452.98 681.05 453.78 683.07 C 454.14 685.47 454.00 687.91 454.06 690.33 C 452.38 690.49 449.91 690.97 449.23 688.86 C 448.86 686.48 448.99 684.06 448.94 681.68 Z" />
<path fill="#000000" opacity="0.96" d=" M 448.95 716.62 C 450.59 716.47 452.97 715.97 453.73 717.96 C 454.18 720.38 453.99 722.87 454.03 725.33 C 452.37 725.31 450.00 725.93 449.24 723.93 C 448.84 721.51 448.99 719.05 448.95 716.62 Z" />
<path fill="#000000" opacity="0.96" d=" M 559.52 740.39 C 561.92 734.36 563.54 728.05 565.89 722.01 C 567.46 722.27 569.02 722.67 570.58 723.04 C 568.75 729.56 566.51 735.95 564.21 742.31 C 562.64 741.66 561.08 741.03 559.52 740.39 Z" />
<path fill="#000000" opacity="0.96" d=" M 449.04 729.82 C 448.64 726.94 453.54 727.63 453.85 729.99 C 454.15 732.35 453.98 734.75 453.91 737.13 C 452.37 736.92 450.21 737.50 449.36 735.79 C 448.76 733.86 448.90 731.80 449.04 729.82 Z" />
<path fill="#000000" opacity="0.96" d=" M 449.06 739.72 C 450.65 739.88 452.90 739.33 453.73 741.19 C 454.13 743.56 454.01 745.99 454.11 748.40 C 452.33 748.80 449.97 749.25 449.18 747.09 C 448.83 744.64 449.01 742.17 449.06 739.72 Z" />
<path fill="#000000" opacity="0.96" d=" M 556.08 749.74 C 557.63 750.36 559.19 750.98 560.76 751.61 C 558.24 757.81 555.69 763.99 552.86 770.06 C 551.45 769.38 550.03 768.72 548.68 767.95 C 550.62 761.72 553.83 755.89 556.08 749.74 Z" />
<path fill="#000000" opacity="0.96" d=" M 448.93 751.64 C 450.59 751.46 452.94 750.86 453.73 752.89 C 454.17 755.32 453.99 757.82 454.03 760.29 C 452.37 760.26 449.95 760.91 449.25 758.85 C 448.85 756.47 448.99 754.04 448.93 751.64 Z" />
<path fill="#000000" opacity="0.96" d=" M 449.29 763.28 C 450.97 762.54 453.37 762.90 453.85 764.95 C 454.17 767.31 453.97 769.71 453.88 772.09 C 452.34 771.86 450.19 772.45 449.35 770.75 C 448.68 768.32 448.84 765.72 449.29 763.28 Z" />
<path fill="#000000" opacity="0.96" d=" M 449.02 774.73 C 450.63 774.82 452.91 774.26 453.74 776.15 C 454.12 778.54 454.01 780.98 454.09 783.40 C 452.37 783.73 450.06 784.15 449.22 782.13 C 448.85 779.68 449.00 777.19 449.02 774.73 Z" />
<path fill="#000000" opacity="0.96" d=" M 544.10 776.73 C 545.58 777.47 547.07 778.22 548.56 778.98 C 545.46 784.81 542.66 790.84 538.93 796.31 C 537.43 795.66 536.02 794.83 534.61 794.04 C 537.98 788.38 541.04 782.55 544.10 776.73 Z" />
<path fill="#000000" opacity="0.96" d=" M 448.93 786.58 C 450.62 786.39 452.93 785.88 453.77 787.87 C 454.16 790.32 453.99 792.83 453.99 795.31 C 452.34 795.23 449.93 795.80 449.23 793.78 C 448.84 791.39 448.99 788.97 448.93 786.58 Z" />
<path fill="#000000" opacity="0.96" d=" M 449.29 798.24 C 450.96 797.47 453.38 797.87 453.86 799.90 C 454.17 802.25 453.96 804.63 453.86 807.01 C 452.36 806.77 450.22 807.42 449.40 805.75 C 448.63 803.34 448.86 800.68 449.29 798.24 Z" />
<path fill="#000000" opacity="0.96" d=" M 518.10 817.95 C 521.84 812.64 525.94 807.59 529.55 802.19 C 530.89 803.12 532.25 804.08 533.60 805.03 C 529.87 810.48 526.19 816.01 521.78 820.94 C 520.39 820.15 519.14 819.14 518.10 817.95 Z" />
<path fill="#000000" opacity="0.96" d=" M 449.01 809.71 C 450.65 809.70 453.00 809.22 453.76 811.20 C 454.14 813.56 454.01 815.96 454.08 818.36 C 452.34 818.66 450.06 819.12 449.21 817.08 C 448.84 814.63 449.00 812.16 449.01 809.71 Z" />
<path fill="#000000" opacity="0.96" d=" M 448.91 821.56 C 450.65 821.32 452.96 820.84 453.81 822.89 C 454.16 825.35 453.98 827.85 453.95 830.33 C 452.36 830.13 450.08 830.72 449.30 828.87 C 448.86 826.46 448.99 823.99 448.91 821.56 Z" />
<path fill="#000000" opacity="0.96" d=" M 511.44 825.22 C 512.70 826.29 513.96 827.37 515.23 828.45 C 510.71 833.48 505.79 838.17 500.39 842.24 C 499.42 840.89 498.45 839.55 497.48 838.22 C 502.44 834.23 507.13 829.90 511.44 825.22 Z" />
<path fill="#000000" opacity="0.96" d=" M 449.09 832.98 C 450.66 833.08 452.77 832.57 453.68 834.28 C 454.31 836.79 453.93 839.43 453.86 842.00 C 452.16 841.86 449.60 842.28 449.15 840.06 C 448.84 837.71 449.01 835.33 449.09 832.98 Z" />
<path fill="#000000" opacity="0.96" d=" M 475.93 850.10 C 481.00 849.15 485.43 846.45 489.77 843.83 C 490.61 845.16 491.45 846.51 492.29 847.86 C 486.97 849.43 481.45 849.85 475.93 850.10 Z" />
<path fill="#000000" opacity="0.96" d=" M 449.08 844.43 C 450.34 844.55 451.59 844.73 452.84 844.98 C 454.08 846.36 453.90 848.41 454.39 850.13 C 452.58 850.16 450.78 850.19 448.98 850.22 C 448.99 848.28 449.02 846.35 449.08 844.43 Z" />
<path fill="#000000" opacity="0.96" d=" M 448.73 860.99 C 450.50 860.99 452.27 860.98 454.04 860.98 C 453.99 862.39 453.95 863.81 453.90 865.25 C 452.63 865.30 451.38 865.19 450.17 864.93 C 449.07 863.92 449.14 862.29 448.73 860.99 Z" />
<path fill="#000000" opacity="0.96" d=" M 449.11 867.82 C 450.64 868.02 452.86 867.53 453.69 869.28 C 454.33 871.78 453.92 874.42 453.83 876.98 C 452.32 876.80 450.37 877.23 449.43 875.70 C 448.60 873.17 449.11 870.42 449.11 867.82 Z" />
<path fill="#000000" opacity="0.96" d=" M 448.97 879.66 C 450.63 879.59 453.01 879.11 453.78 881.13 C 454.16 883.53 453.99 885.99 454.03 888.43 C 452.40 888.48 450.03 889.01 449.28 887.06 C 448.80 884.62 449.01 882.12 448.97 879.66 Z" />
<path fill="#000000" opacity="0.96" d=" M 448.88 891.57 C 450.46 891.34 452.47 890.54 453.49 892.29 C 454.49 894.75 453.84 897.60 453.92 900.23 C 452.32 899.99 449.98 900.69 449.28 898.72 C 448.84 896.36 448.98 893.94 448.88 891.57 Z" />
<path fill="#000000" opacity="0.96" d=" M 449.09 902.79 C 450.64 903.01 452.88 902.41 453.68 904.21 C 454.23 906.41 454.17 908.75 453.87 911.00 C 452.86 912.81 449.73 912.02 449.16 910.10 C 448.84 907.67 449.01 905.22 449.09 902.79 Z" />
<path fill="#000000" opacity="0.96" d=" M 448.94 914.70 C 450.61 914.49 453.00 914.04 453.77 916.08 C 454.14 918.47 454.00 920.91 454.06 923.34 C 452.41 923.49 449.89 923.96 449.26 921.88 C 448.84 919.51 449.00 917.08 448.94 914.70 Z" />
<path fill="#000000" opacity="0.96" d=" M 449.44 926.39 C 450.98 925.46 453.32 926.16 453.83 927.96 C 454.16 930.35 453.98 932.78 453.93 935.19 C 452.34 934.96 450.06 935.60 449.30 933.73 C 448.85 931.35 448.57 928.69 449.44 926.39 Z" />
<path fill="#000000" opacity="0.96" d=" M 449.06 937.78 C 450.64 937.95 452.88 937.33 453.70 939.18 C 454.16 941.57 454.00 944.03 454.10 946.46 C 452.50 946.64 450.47 947.43 449.49 945.66 C 448.50 943.20 449.16 940.37 449.06 937.78 Z" />
<path fill="#000000" opacity="0.96" d=" M 448.95 949.61 C 450.66 949.43 452.85 949.03 453.78 950.95 C 454.13 953.39 454.00 955.87 454.03 958.35 C 452.37 958.30 449.94 958.94 449.24 956.89 C 448.84 954.48 448.99 952.02 448.95 949.61 Z" />
<path fill="#000000" opacity="0.96" d=" M 449.17 961.02 C 450.82 961.11 453.29 960.83 453.82 962.92 C 454.23 966.78 454.01 970.67 453.87 974.55 C 449.53 971.62 448.28 965.93 449.17 961.02 Z" />
</g>
<g id="#007bffff">
<path fill="#007bff" opacity="1.00" d=" M 386.91 254.79 C 440.25 245.08 495.84 247.59 548.00 262.45 C 614.65 281.31 675.68 320.88 718.37 375.63 C 757.82 425.80 781.00 489.08 780.83 553.08 C 779.81 561.04 779.71 569.04 779.30 577.06 C 779.72 589.57 777.23 601.94 774.82 614.16 C 762.49 673.25 730.71 727.62 686.92 768.94 C 639.72 813.79 578.93 843.70 514.96 855.24 C 494.87 858.91 474.46 860.80 454.04 860.98 C 452.27 860.98 450.50 860.99 448.73 860.99 C 373.46 860.72 298.16 835.80 238.76 789.31 C 210.72 767.46 186.24 740.98 167.08 711.02 C 146.25 678.60 131.82 642.04 125.23 604.06 C 123.96 598.19 124.73 591.98 122.13 586.41 C 121.95 583.71 122.23 580.94 121.43 578.32 C 121.02 573.13 121.74 567.89 120.85 562.75 C 120.78 538.32 122.77 513.79 128.49 489.99 C 141.56 433.41 172.45 381.52 214.47 341.64 C 261.72 296.51 322.71 266.40 386.91 254.79 M 414.10 260.96 C 406.88 263.14 399.25 263.27 391.90 264.80 C 326.39 275.90 264.22 307.07 217.13 354.08 C 177.43 393.30 148.75 443.96 137.54 498.76 C 135.17 509.41 134.20 520.29 132.17 530.99 C 131.87 531.44 131.28 532.34 130.98 532.78 L 131.75 533.22 C 131.88 540.82 131.86 548.42 131.78 556.02 C 131.74 567.38 132.83 578.69 133.62 590.02 C 133.81 592.64 133.22 595.60 135.07 597.80 C 134.54 599.16 134.07 600.55 133.65 601.96 C 134.22 601.95 135.36 601.92 135.92 601.91 C 135.34 603.34 135.02 604.86 134.87 606.40 C 136.12 606.98 136.94 607.94 137.33 609.27 C 141.39 631.80 149.07 653.60 158.82 674.28 C 188.80 737.10 242.04 787.65 304.63 817.51 C 337.49 833.36 373.05 843.17 409.18 847.90 C 411.95 849.01 415.07 848.67 418.00 848.90 C 422.76 848.89 427.36 850.78 432.15 850.03 C 433.64 850.17 435.12 849.85 436.54 849.40 C 440.55 850.64 444.84 849.87 448.98 850.22 C 450.78 850.19 452.58 850.16 454.39 850.13 C 457.77 850.07 461.28 850.52 464.55 849.40 C 468.19 850.62 472.17 851.05 475.93 850.10 C 481.45 849.85 486.97 849.43 492.29 847.86 C 529.12 843.34 565.30 833.10 598.71 816.87 C 652.09 791.08 698.50 750.34 729.44 699.63 C 745.62 673.28 757.08 644.17 764.10 614.10 C 764.56 612.53 764.83 610.91 764.71 609.28 C 765.54 607.28 765.70 605.14 765.27 603.05 L 766.25 602.72 L 765.26 601.48 C 768.38 598.51 767.56 593.82 768.16 589.95 C 769.48 577.68 770.24 565.37 770.29 553.04 C 771.02 547.32 770.64 541.56 769.76 535.89 C 767.02 501.76 758.55 468.01 743.81 437.06 C 728.30 404.08 706.27 374.29 679.87 349.22 C 628.47 300.09 560.27 269.51 489.70 261.94 C 486.42 260.77 482.89 261.01 479.48 260.81 C 475.73 260.66 471.95 259.64 468.24 260.65 L 467.35 260.59 C 455.38 259.10 443.29 260.12 431.27 260.09 C 427.52 260.13 423.74 260.72 420.05 259.82 C 417.97 259.26 415.99 260.24 414.10 260.96 Z" />
</g>
</svg>
