<?xml version="1.0" encoding="UTF-8" ?>
<!DOCTYPE svg PUBLIC "-//W3C//DTD SVG 1.1//EN" "http://www.w3.org/Graphics/SVG/1.1/DTD/svg11.dtd">
<svg width="900pt" height="1080pt" viewBox="0 0 900 1080" version="1.1" xmlns="http://www.w3.org/2000/svg">
<g id="#080a0bfa">
<path fill="#080a0b" opacity="0.98" d=" M 448.11 90.88 C 449.19 91.23 451.07 91.10 451.32 92.57 C 452.54 96.51 453.62 100.66 452.69 104.79 C 451.02 104.74 448.53 104.98 448.20 102.76 C 447.74 98.82 447.97 94.83 448.11 90.88 Z" />
<path fill="#080a0b" opacity="0.98" d=" M 448.07 108.15 C 449.14 106.62 451.46 107.18 452.62 108.32 C 453.29 110.86 453.00 113.51 452.87 116.09 C 451.37 116.39 449.84 116.30 448.45 115.64 C 447.99 113.18 447.74 110.65 448.07 108.15 Z" />
<path fill="#080a0b" opacity="0.98" d=" M 448.22 119.06 C 449.68 119.18 452.03 118.51 452.67 120.36 C 453.34 122.82 452.98 125.42 452.75 127.92 C 451.39 127.90 449.93 128.10 448.71 127.35 C 447.45 124.78 448.05 121.79 448.22 119.06 Z" />
<path fill="#080a0b" opacity="0.98" d=" M 448.10 130.88 C 449.61 130.54 451.20 130.51 452.58 131.35 C 453.05 133.81 453.25 136.35 452.89 138.84 C 451.70 140.47 448.66 139.73 448.19 137.80 C 447.75 135.52 448.00 133.18 448.10 130.88 Z" />
<path fill="#080a0b" opacity="0.98" d=" M 447.95 143.02 C 449.20 141.85 450.84 142.26 452.34 142.55 C 453.25 145.30 453.09 148.21 452.85 151.06 C 451.36 151.33 449.84 151.26 448.45 150.64 C 447.92 148.13 447.89 145.57 447.95 143.02 Z" />
<path fill="#080a0b" opacity="0.98" d=" M 448.20 154.03 C 449.58 154.03 451.13 153.65 452.32 154.60 C 453.54 157.20 452.96 160.18 452.74 162.93 C 451.34 162.93 449.96 162.77 448.62 162.46 C 447.71 159.73 447.91 156.84 448.20 154.03 Z" />
<path fill="#080a0b" opacity="0.98" d=" M 448.15 166.21 C 449.36 164.59 452.20 165.41 452.74 167.22 C 453.24 169.44 452.99 171.74 452.98 174.00 C 451.62 174.76 449.39 175.27 448.52 173.55 C 447.63 171.23 447.91 168.63 448.15 166.21 Z" />
<path fill="#080a0b" opacity="0.98" d=" M 448.40 177.25 C 449.72 177.09 451.05 177.25 452.35 177.56 C 453.29 180.29 453.07 183.20 452.82 186.02 C 451.35 186.33 449.85 186.22 448.48 185.61 C 447.89 182.86 447.64 179.99 448.40 177.25 Z" />
<path fill="#080a0b" opacity="0.98" d=" M 448.19 188.99 C 449.64 188.69 451.11 188.87 452.48 189.44 C 453.14 192.15 453.36 195.02 452.61 197.74 C 451.32 197.80 449.90 198.13 448.77 197.31 C 447.40 194.77 448.08 191.73 448.19 188.99 Z" />
<path fill="#080a0b" opacity="0.98" d=" M 448.02 201.02 C 449.56 199.88 452.10 200.23 452.78 202.20 C 453.21 204.43 452.99 206.72 452.97 208.97 C 451.59 209.94 449.66 209.87 448.55 208.53 C 447.61 206.14 448.04 203.52 448.02 201.02 Z" />
<path fill="#080a0b" opacity="0.98" d=" M 448.37 212.22 C 449.67 212.03 451.06 211.99 452.25 212.69 C 453.56 215.24 452.91 218.26 452.82 221.01 C 451.35 221.30 449.88 221.13 448.51 220.57 C 447.85 217.84 447.69 214.97 448.37 212.22 Z" />
<path fill="#080a0b" opacity="0.98" d=" M 448.17 223.97 C 449.63 223.66 451.13 223.80 452.53 224.39 C 453.07 227.12 453.40 230.00 452.59 232.72 C 451.26 232.93 449.94 232.75 448.65 232.44 C 447.71 229.71 447.91 226.80 448.17 223.97 Z" />
<path fill="#080a0b" opacity="0.98" d=" M 426.10 234.81 C 477.11 231.33 528.91 238.93 576.63 257.36 C 639.16 281.33 694.66 324.34 731.60 380.39 C 754.81 415.44 770.55 455.51 776.78 497.12 C 779.93 517.61 780.48 538.39 779.81 559.08 C 777.79 575.41 776.03 591.84 771.86 607.81 C 757.45 667.52 723.13 721.71 677.05 762.07 C 629.98 803.52 570.92 830.83 509.12 841.09 C 490.66 844.35 471.92 845.71 453.20 846.08 C 453.03 847.38 452.86 848.69 452.70 850.02 C 449.75 851.26 447.78 848.89 447.69 846.12 C 410.78 845.67 373.88 839.93 338.85 828.18 C 272.54 806.38 212.89 763.57 172.85 706.18 C 151.30 675.40 135.59 640.51 127.19 603.87 C 123.46 588.50 121.87 572.73 120.09 557.05 C 119.91 541.94 119.72 526.77 121.45 511.74 C 124.24 482.38 131.80 453.51 143.48 426.44 C 165.86 374.38 203.58 329.38 249.78 296.76 C 301.24 260.17 363.16 238.87 426.10 234.81 M 414.04 241.01 C 410.29 240.70 406.68 241.84 403.01 242.37 C 402.30 242.35 400.90 242.32 400.19 242.30 C 397.63 243.06 394.97 243.30 392.33 243.50 C 387.76 245.09 382.93 245.51 378.19 246.34 C 368.02 248.23 357.98 251.12 348.13 254.40 L 347.40 253.84 L 346.37 254.17 L 346.12 255.02 C 341.76 255.24 337.80 257.66 333.50 258.44 C 329.64 261.79 324.05 261.18 320.20 264.44 L 319.47 263.87 L 318.44 264.20 L 318.20 265.06 C 313.13 266.64 308.47 269.29 303.64 271.44 L 303.37 271.47 C 301.94 271.00 301.01 272.49 300.15 273.33 L 299.41 272.80 L 298.41 273.17 L 298.19 274.04 C 294.53 275.54 291.07 277.49 287.61 279.40 L 287.45 279.48 C 285.20 280.80 282.32 281.25 280.66 283.38 C 280.48 283.52 280.12 283.79 279.94 283.93 L 279.08 284.37 C 278.90 284.45 278.55 284.61 278.38 284.68 C 272.91 287.25 268.04 290.97 262.57 293.55 C 257.51 298.33 251.09 301.43 245.99 306.00 C 242.27 307.55 239.84 310.89 236.72 313.29 C 236.57 313.39 236.28 313.58 236.13 313.68 C 234.29 314.17 233.55 316.07 232.01 317.01 C 222.88 323.07 216.34 332.11 207.84 338.83 C 204.56 344.11 199.02 347.44 195.59 352.59 C 193.60 355.12 191.02 357.19 189.76 360.24 C 189.65 360.37 189.43 360.65 189.32 360.78 C 185.95 363.37 184.00 367.20 181.60 370.61 C 179.46 373.31 176.73 375.77 175.78 379.21 C 175.69 379.37 175.52 379.69 175.43 379.85 C 173.97 381.47 172.78 383.31 171.74 385.22 C 171.63 385.36 171.41 385.63 171.31 385.76 C 168.19 388.40 167.24 392.59 164.64 395.65 C 163.45 397.86 161.57 399.71 161.11 402.21 C 158.24 405.08 157.45 409.13 155.61 412.59 C 151.99 417.48 151.10 423.80 147.27 428.59 C 147.31 429.00 147.37 429.83 147.40 430.25 L 147.32 430.61 C 145.27 433.28 144.21 437.12 143.60 440.43 L 143.56 440.72 C 140.22 446.64 137.75 453.40 137.04 460.10 L 136.18 460.33 L 135.82 461.34 L 136.34 462.09 C 136.09 462.40 135.60 463.02 135.36 463.32 C 134.91 467.03 132.58 470.41 133.07 474.22 C 131.48 474.79 131.28 475.74 132.46 477.07 C 130.77 480.51 131.25 484.45 130.03 488.02 C 127.61 495.01 127.84 502.51 126.78 509.75 C 125.78 513.09 126.18 516.63 125.41 520.02 C 125.81 521.68 125.92 523.39 125.35 525.04 C 124.29 526.33 124.51 527.21 126.02 527.69 C 126.99 528.31 127.98 528.91 128.99 529.48 C 129.29 532.63 128.22 535.55 126.53 538.15 C 126.09 545.10 125.71 552.10 126.19 559.07 C 126.15 559.50 126.06 560.38 126.02 560.82 C 126.75 564.81 128.60 568.48 129.59 572.41 C 130.53 576.72 132.47 580.87 135.44 584.16 C 135.53 584.29 135.71 584.55 135.79 584.68 C 140.65 594.05 148.11 601.75 156.26 608.32 C 156.37 608.41 156.59 608.60 156.70 608.69 C 158.50 610.18 160.30 611.70 161.63 613.65 L 162.35 613.55 L 162.62 613.62 C 164.99 615.02 166.17 618.77 169.29 618.54 L 169.64 618.65 C 170.41 619.75 171.13 620.98 172.37 621.63 C 177.28 624.26 182.37 626.75 186.59 630.45 C 191.15 632.37 195.34 635.00 199.74 637.25 C 209.21 641.56 218.43 646.37 228.39 649.53 L 228.64 649.63 C 230.67 650.68 232.81 651.87 235.15 651.97 L 235.37 652.83 L 236.37 653.20 L 237.11 652.67 C 237.42 652.92 238.02 653.40 238.32 653.65 C 243.96 654.92 249.53 656.68 254.70 659.30 C 256.48 660.21 258.53 660.20 260.47 660.49 L 260.65 660.53 C 265.89 662.50 271.24 664.31 276.79 665.13 C 284.60 668.27 293.26 668.53 301.22 671.31 C 304.26 671.79 307.23 672.56 310.20 673.36 C 314.19 673.14 317.54 675.71 321.47 676.01 C 320.91 669.02 318.58 662.34 317.42 655.44 C 311.46 623.96 308.26 592.02 307.04 560.01 C 307.05 542.32 306.73 524.62 307.70 506.95 C 309.89 463.80 316.37 420.76 328.27 379.18 C 332.14 367.51 335.33 355.58 340.30 344.29 C 344.03 334.38 348.20 324.61 353.30 315.31 C 357.75 306.07 362.93 297.19 368.88 288.84 C 375.78 277.75 384.63 268.06 394.01 259.04 C 403.83 250.09 415.35 242.95 427.79 238.27 C 422.97 238.12 418.84 241.40 414.04 241.01 M 457.43 241.39 C 455.17 242.45 452.98 243.67 450.96 245.14 C 448.60 243.70 446.67 241.38 444.05 240.51 C 435.99 240.72 428.31 243.80 421.00 246.97 C 411.61 250.89 403.73 257.53 396.22 264.24 C 389.12 270.19 383.59 277.70 377.95 284.98 C 371.51 292.86 366.68 301.86 361.65 310.67 C 356.99 318.35 353.58 326.69 349.87 334.85 C 344.16 346.78 340.40 359.50 335.88 371.90 C 330.96 389.37 325.78 406.85 323.05 424.83 C 326.38 424.27 329.69 423.60 333.05 423.19 C 333.03 424.72 333.01 426.26 332.98 427.80 C 330.79 429.22 328.15 428.12 325.89 429.27 C 325.43 429.29 324.50 429.33 324.04 429.35 C 323.70 428.24 323.45 427.07 322.76 426.13 C 322.00 427.55 321.76 429.16 321.49 430.74 C 320.22 439.53 318.87 448.30 317.38 457.06 C 313.13 493.49 310.70 530.25 312.84 566.92 C 312.99 573.27 313.04 579.63 313.86 585.95 C 314.73 603.60 317.34 621.08 319.68 638.59 C 321.81 648.87 323.39 659.26 325.60 669.52 C 326.49 671.93 326.41 674.91 328.24 676.85 C 332.49 676.79 336.53 678.32 340.76 678.46 C 344.03 678.55 347.18 679.73 350.47 679.50 L 350.65 679.53 C 354.00 680.94 357.77 679.98 361.19 681.38 C 365.57 681.26 369.91 681.99 374.19 682.95 C 374.62 682.92 375.49 682.85 375.92 682.82 C 378.81 683.18 381.76 682.74 384.64 683.33 C 389.81 684.36 395.19 683.37 400.27 684.96 C 400.73 684.88 401.66 684.73 402.13 684.65 L 403.24 684.56 L 403.52 684.56 C 406.00 684.74 408.40 685.56 410.86 685.79 C 413.28 684.81 415.88 684.74 418.28 685.85 C 418.73 685.85 419.63 685.85 420.08 685.85 C 420.69 685.78 421.89 685.63 422.50 685.55 L 422.97 685.53 L 424.00 685.52 L 424.45 685.55 C 432.24 686.12 440.14 686.60 447.95 685.88 C 447.99 683.67 447.90 681.46 448.11 679.26 C 449.14 677.86 451.87 677.85 452.90 679.27 C 453.09 681.49 452.99 683.72 453.04 685.96 C 460.16 685.85 467.33 686.40 474.42 685.60 L 474.66 685.61 C 475.51 685.67 477.22 685.81 478.08 685.88 C 478.53 685.87 479.44 685.87 479.89 685.86 C 485.38 685.40 490.92 685.68 496.34 684.57 L 496.62 684.55 C 503.46 684.89 510.26 683.99 517.03 683.06 C 519.32 682.73 521.84 683.48 524.00 682.52 C 525.31 683.70 526.60 683.65 527.87 682.36 C 529.58 682.95 531.45 682.47 532.99 681.62 L 533.80 682.20 C 534.32 682.04 535.37 681.73 535.90 681.57 C 537.87 681.75 539.82 681.20 541.74 680.79 C 545.47 679.71 549.40 679.93 553.19 679.16 C 559.66 679.24 565.79 676.81 572.20 676.33 C 578.71 675.88 585.13 674.53 591.33 672.54 L 591.53 672.50 C 592.99 672.24 594.58 672.27 595.93 671.56 C 597.25 672.72 598.20 672.51 598.77 670.93 C 603.45 670.67 607.94 668.73 612.65 668.52 C 616.53 666.64 620.78 665.88 624.88 664.64 L 625.62 665.18 L 626.64 664.84 L 626.88 663.98 C 629.54 663.87 632.10 662.87 634.79 662.80 C 639.74 661.13 644.50 658.81 649.59 657.57 C 655.37 656.63 660.30 653.37 665.85 651.67 L 666.61 652.19 L 667.60 651.77 L 667.78 650.88 C 671.62 649.46 675.79 648.99 679.26 646.69 C 680.72 646.60 682.01 645.91 682.84 644.69 L 683.60 645.19 L 684.60 644.80 L 684.79 643.92 C 688.04 642.93 691.13 641.49 694.30 640.29 C 699.45 637.85 704.14 634.46 709.54 632.55 C 711.30 631.29 712.90 629.76 714.97 629.00 C 716.45 628.17 718.48 628.06 719.35 626.42 C 719.67 626.45 720.31 626.51 720.63 626.54 C 723.28 624.02 726.67 622.31 729.27 619.68 C 729.38 619.58 729.62 619.39 729.73 619.29 C 730.98 618.33 732.27 617.39 733.69 616.67 C 737.62 614.82 739.96 610.80 743.82 608.83 C 753.30 600.57 761.48 590.68 767.66 579.69 C 770.44 573.69 772.37 567.33 773.94 560.95 C 773.94 556.19 774.31 551.38 773.59 546.66 L 773.57 546.37 C 773.09 541.98 774.13 537.63 774.00 533.25 C 773.32 533.13 771.96 532.90 771.28 532.78 C 770.03 530.32 768.96 527.79 768.13 525.16 C 769.38 523.17 773.14 521.48 773.33 525.14 C 773.31 528.81 777.14 524.64 774.60 523.14 C 773.71 519.81 774.18 516.34 773.82 512.96 C 773.82 512.52 773.83 511.66 773.83 511.22 C 773.19 509.19 773.03 507.07 772.64 505.00 C 772.64 504.30 772.65 502.89 772.66 502.19 C 771.11 492.91 769.32 483.66 767.53 474.43 C 766.11 471.48 766.35 467.86 764.68 465.11 L 765.21 464.36 L 764.84 463.36 L 763.97 463.16 C 762.50 455.51 759.38 448.30 757.39 440.81 C 754.54 436.82 754.55 431.42 751.41 427.50 C 751.02 424.06 748.04 421.68 747.81 418.21 C 747.49 416.47 745.61 415.54 745.13 413.87 C 743.85 410.22 741.44 407.14 739.56 403.81 C 739.49 403.66 739.35 403.36 739.28 403.21 C 735.59 395.30 731.00 387.67 725.69 380.73 C 725.59 380.61 725.40 380.38 725.30 380.26 C 722.62 376.98 721.16 372.87 718.23 369.77 C 710.38 359.98 702.36 350.33 694.21 340.78 C 688.53 336.15 683.45 330.87 678.45 325.53 C 674.67 323.13 671.61 319.72 668.67 316.45 C 668.27 316.52 667.48 316.65 667.08 316.72 C 666.13 315.59 665.21 314.43 664.33 313.26 L 663.61 313.56 L 663.23 313.52 C 660.90 310.21 656.97 308.63 654.41 305.55 C 651.37 304.71 649.88 301.37 646.80 300.77 C 646.64 300.69 646.31 300.52 646.15 300.44 C 642.24 297.44 638.41 294.26 634.04 291.96 C 629.84 289.71 626.30 286.34 621.76 284.73 C 621.61 284.66 621.33 284.51 621.19 284.44 C 617.47 282.31 613.93 279.06 609.86 278.02 L 609.62 277.16 L 608.61 276.81 L 607.88 277.36 C 603.94 274.40 599.36 272.43 594.78 270.72 C 594.63 270.65 594.35 270.51 594.20 270.44 C 589.62 268.39 585.25 265.71 580.42 264.27 C 578.53 262.45 575.79 262.36 573.41 261.62 C 570.79 260.56 568.35 259.08 565.75 257.99 C 565.31 258.08 564.43 258.25 563.99 258.34 C 560.65 255.58 555.79 255.98 552.00 254.03 C 550.01 252.96 547.75 252.72 545.54 252.55 L 545.34 252.50 C 542.97 251.64 540.84 249.92 538.20 250.34 C 528.87 247.83 519.39 245.89 509.89 244.13 C 507.09 244.19 504.46 243.34 501.80 242.64 C 498.34 242.53 494.96 241.83 491.55 241.27 C 488.93 240.80 486.13 241.41 483.63 240.34 C 480.57 239.07 477.23 239.03 473.98 239.19 C 479.61 241.41 485.11 243.97 490.26 247.17 C 490.00 248.85 488.87 250.15 487.94 251.50 C 482.49 248.66 477.15 245.58 471.29 243.66 C 471.49 242.19 471.72 240.72 471.92 239.26 C 469.08 239.35 466.23 239.10 463.42 239.51 C 461.65 240.78 459.50 240.98 457.43 241.39 M 129.26 588.98 C 130.45 597.34 132.80 605.48 134.48 613.74 C 136.63 618.23 136.77 623.63 139.33 627.89 L 138.81 628.64 L 139.18 629.65 L 140.04 629.86 C 139.28 632.26 141.81 633.75 142.03 635.99 C 143.35 642.94 147.47 648.87 149.30 655.64 C 150.91 658.59 152.36 661.72 154.35 664.41 L 154.42 664.73 C 154.34 665.14 154.16 665.96 154.07 666.37 C 154.44 666.63 155.17 667.16 155.53 667.43 C 158.49 672.62 160.54 678.51 164.43 683.14 C 164.52 683.31 164.70 683.63 164.78 683.79 C 165.79 687.44 168.43 690.40 170.57 693.36 C 170.52 693.71 170.42 694.40 170.37 694.75 C 170.86 694.99 171.83 695.46 172.32 695.69 C 173.62 700.84 178.28 703.90 180.45 708.57 C 183.76 712.90 186.74 717.51 190.73 721.28 C 194.54 727.01 199.43 731.89 203.89 737.11 C 210.54 741.52 214.03 749.50 221.30 753.15 C 221.43 753.33 221.70 753.69 221.83 753.87 C 221.91 754.29 222.07 755.13 222.15 755.55 C 228.25 758.13 231.83 764.22 237.60 767.42 C 241.96 772.31 248.40 774.81 252.57 779.86 L 253.37 779.46 L 253.78 779.49 C 257.26 784.17 263.28 785.72 267.73 789.27 C 271.27 792.29 275.87 793.63 279.49 796.53 C 282.20 797.50 284.63 799.02 287.16 800.39 C 287.31 800.48 287.60 800.67 287.75 800.77 C 288.10 800.96 288.80 801.33 289.15 801.52 L 289.65 801.68 C 290.75 803.67 293.48 803.63 295.30 804.71 C 298.90 806.93 303.02 808.11 306.50 810.56 C 311.20 811.11 314.80 814.92 319.40 815.46 L 319.71 815.50 C 326.59 819.66 334.49 821.39 342.01 823.97 C 344.79 824.73 347.35 826.26 350.27 826.54 C 355.05 827.05 359.24 830.34 364.11 829.97 L 364.35 830.83 L 365.37 831.19 L 366.11 830.66 C 370.45 831.95 374.92 833.07 379.46 833.47 L 379.65 833.52 C 383.01 835.18 386.77 835.36 390.43 835.78 C 396.22 837.54 402.37 837.39 408.26 838.72 C 411.13 839.12 414.00 839.97 416.88 839.15 C 420.45 840.36 424.06 841.59 427.86 841.75 C 425.47 840.48 422.91 839.61 420.40 838.61 C 412.82 835.33 405.84 830.78 399.53 825.46 C 391.83 819.58 385.02 812.59 379.09 804.93 C 372.58 797.21 366.69 788.95 361.85 780.09 C 356.43 771.55 351.74 762.56 347.77 753.26 C 343.37 744.26 339.59 734.96 336.48 725.44 C 330.92 711.63 327.49 697.11 323.35 682.86 C 320.97 679.86 316.65 680.20 313.21 679.83 C 307.10 678.19 300.81 677.28 294.80 675.24 C 294.09 675.29 292.68 675.38 291.98 675.43 C 287.40 674.15 282.79 673.04 278.20 671.82 C 273.87 669.98 269.20 669.23 264.58 668.50 L 264.39 668.44 C 257.91 664.89 250.29 664.39 243.56 661.44 C 236.37 658.39 228.68 656.60 221.59 653.52 L 221.30 653.44 C 218.03 652.33 215.15 650.36 211.98 649.04 C 210.50 648.45 208.78 648.57 207.44 647.65 C 204.77 645.55 201.31 644.95 198.76 642.67 C 194.74 642.01 191.34 639.57 187.77 637.77 C 187.63 637.66 187.35 637.43 187.22 637.31 C 181.92 632.83 173.97 631.45 169.85 625.39 C 169.48 625.42 168.74 625.46 168.36 625.49 C 167.28 624.25 165.99 623.17 164.51 622.46 C 160.43 620.93 157.46 617.52 154.39 614.56 C 150.71 612.74 148.91 608.66 145.40 606.61 C 143.08 605.24 141.94 602.72 140.26 600.74 C 137.04 596.30 132.92 592.65 130.32 587.79 C 128.90 587.02 128.55 587.42 129.26 588.98 M 770.33 588.01 C 765.98 590.18 765.73 596.04 761.77 598.77 C 757.10 604.71 751.75 610.14 745.74 614.75 C 739.77 619.50 733.93 624.42 727.41 628.41 C 722.94 631.79 717.72 633.93 713.17 637.19 C 702.82 642.24 692.67 647.82 681.87 651.83 C 675.98 655.75 668.64 656.12 662.58 659.66 C 655.65 660.51 649.65 664.82 642.70 665.54 C 639.20 666.33 635.91 668.88 632.30 668.55 C 630.90 669.48 629.35 670.14 627.70 670.46 L 627.43 670.51 C 623.77 671.23 620.29 672.71 616.63 673.44 L 616.41 673.46 C 613.77 672.93 611.49 674.80 608.92 674.93 C 607.19 675.04 605.48 675.24 603.87 675.89 C 600.25 677.33 596.29 677.33 592.63 678.60 C 589.86 679.63 586.42 678.47 584.01 680.29 C 583.57 680.26 582.69 680.20 582.25 680.17 C 580.52 680.55 578.76 680.76 577.01 680.91 C 575.20 686.42 574.44 692.26 572.16 697.61 C 570.81 696.95 568.65 697.38 567.89 695.89 C 568.69 690.83 570.93 686.07 571.29 680.93 C 567.83 681.95 564.65 684.01 560.93 683.92 C 557.47 683.84 554.22 685.21 550.79 685.31 C 547.71 685.28 544.86 686.69 541.80 686.87 C 533.72 687.34 525.70 688.45 517.68 689.44 L 517.43 689.46 C 512.94 690.18 508.42 689.26 503.99 690.28 C 503.55 690.24 502.68 690.17 502.25 690.14 C 499.63 691.24 496.77 691.04 494.00 691.02 C 488.39 690.87 482.79 691.30 477.20 691.69 C 474.06 692.47 470.92 690.62 467.82 691.80 C 462.92 692.32 457.96 691.82 453.04 692.04 C 453.01 694.36 453.00 696.70 452.96 699.04 C 452.30 699.02 450.98 698.98 450.31 698.95 C 449.58 698.18 448.83 697.42 448.09 696.68 C 448.01 695.13 447.96 693.58 447.91 692.04 C 439.30 691.90 430.68 692.12 422.07 691.95 C 416.28 690.10 410.15 691.73 404.26 690.56 C 399.63 689.56 394.87 690.36 390.21 689.63 C 382.43 689.80 374.84 687.12 367.06 687.94 C 363.07 687.28 358.95 687.25 355.11 685.93 C 354.27 685.60 353.41 685.54 352.54 685.75 C 349.05 686.45 345.72 684.61 342.19 684.85 C 338.00 683.16 333.49 683.00 329.03 682.98 C 330.75 690.06 332.37 697.16 334.85 704.02 C 339.55 720.55 345.97 736.51 352.84 752.24 C 357.07 760.58 361.27 768.95 365.88 777.09 C 370.94 785.27 376.44 793.17 382.18 800.89 C 386.72 806.29 391.66 811.37 396.76 816.25 C 404.54 824.22 414.35 829.87 424.31 834.68 C 431.55 837.69 439.39 839.31 447.22 839.65 C 448.66 837.30 448.77 834.56 448.06 831.97 C 447.39 830.33 448.93 829.48 450.01 828.65 C 450.99 829.48 451.95 830.35 452.92 831.24 C 452.63 833.56 451.74 836.03 452.75 838.30 C 454.77 840.70 458.27 838.90 460.95 839.08 C 462.60 838.34 463.01 840.58 464.40 840.58 C 471.65 840.35 478.99 840.81 486.12 839.09 C 490.74 839.09 495.20 837.44 499.84 837.69 C 509.31 836.11 518.75 834.24 528.09 832.07 C 531.59 832.38 534.67 830.71 537.86 829.56 L 538.59 830.13 L 539.63 829.82 L 539.90 828.97 C 543.82 829.61 547.05 826.68 550.83 826.34 C 552.30 826.07 553.89 826.09 555.16 825.19 C 558.79 823.04 563.46 822.94 566.90 820.66 L 567.65 821.18 L 568.65 820.82 L 568.88 819.96 C 569.33 819.97 570.23 820.00 570.68 820.02 C 575.09 817.22 580.50 816.62 584.78 813.60 L 585.58 814.08 L 586.54 813.61 L 586.65 812.70 C 588.04 812.70 589.41 812.35 590.64 811.68 C 597.37 808.31 604.10 804.69 611.13 802.18 C 614.78 798.79 619.81 797.64 623.82 794.80 C 628.46 791.30 633.54 788.54 638.46 785.46 C 640.66 783.01 643.94 781.98 646.22 779.69 C 646.36 779.58 646.64 779.36 646.78 779.25 C 648.14 778.43 649.59 777.75 650.92 776.87 C 659.72 769.72 669.23 763.32 677.05 755.08 C 682.41 751.17 686.49 745.81 691.68 741.67 C 693.75 738.44 697.20 736.46 699.21 733.18 C 700.26 731.27 702.37 730.35 703.58 728.58 C 705.94 724.99 709.61 722.46 711.58 718.58 C 712.93 715.60 716.75 714.16 717.15 710.80 C 717.26 710.61 717.48 710.23 717.59 710.05 C 721.07 707.93 722.08 703.67 724.89 700.91 C 729.55 694.71 733.02 687.71 737.17 681.18 C 738.86 678.19 740.97 675.42 742.17 672.17 C 743.53 668.99 746.21 666.23 746.54 662.69 L 746.66 662.38 C 749.48 660.62 748.44 656.76 750.38 654.39 C 752.76 651.25 754.25 647.55 754.79 643.66 L 755.66 643.72 L 756.27 642.90 L 755.97 642.04 L 756.42 641.88 C 756.34 638.56 759.50 636.05 758.70 632.65 L 759.60 632.54 L 760.06 631.58 L 759.59 630.79 C 760.30 629.72 761.00 628.64 761.64 627.53 C 762.39 622.73 763.81 618.06 765.56 613.54 C 766.99 607.60 767.78 601.48 769.93 595.75 C 769.86 595.31 769.71 594.44 769.64 594.01 C 770.77 592.12 771.28 590.00 770.88 587.83 C 770.74 587.88 770.47 587.96 770.33 588.01 Z" />
<path fill="#080a0b" opacity="0.98" d=" M 448.00 247.20 C 449.96 247.10 451.72 247.62 452.96 249.24 C 453.04 251.51 453.05 253.78 452.97 256.05 C 451.54 256.11 450.13 256.01 448.74 255.76 C 448.61 255.64 448.37 255.39 448.24 255.27 C 447.74 252.61 448.01 249.89 448.00 247.20 Z" />
<path fill="#080a0b" opacity="0.98" d=" M 495.88 257.07 C 496.62 255.63 497.65 254.39 498.91 253.37 C 504.03 257.44 509.37 261.59 513.23 266.92 C 512.16 267.97 511.08 269.00 509.98 270.01 C 505.42 265.54 500.67 261.28 495.88 257.07 Z" />
<path fill="#080a0b" opacity="0.98" d=" M 449.10 258.35 C 450.07 258.28 451.06 258.38 452.05 258.42 L 452.22 259.15 L 452.36 259.75 C 452.80 262.36 454.19 266.03 451.70 267.94 C 449.70 268.69 447.46 267.16 447.97 264.94 C 448.28 262.81 447.03 259.77 449.10 258.35 Z" />
<path fill="#080a0b" opacity="0.98" d=" M 448.04 269.95 C 448.70 269.98 450.02 270.03 450.68 270.05 C 451.42 270.82 452.18 271.57 452.95 272.32 C 453.06 274.56 453.05 276.80 452.97 279.04 C 451.26 278.88 449.08 279.59 448.10 277.72 C 447.82 275.14 447.98 272.54 448.04 269.95 Z" />
<path fill="#080a0b" opacity="0.98" d=" M 516.49 277.09 C 517.65 276.14 518.82 275.20 520.01 274.28 C 524.55 279.11 528.30 284.64 532.02 290.12 C 530.77 291.16 529.39 292.04 527.96 292.80 C 524.19 287.52 520.06 282.47 516.49 277.09 Z" />
<path fill="#080a0b" opacity="0.98" d=" M 449.30 282.07 C 450.65 281.68 452.14 281.94 452.89 283.26 C 453.18 285.84 453.00 288.45 452.96 291.04 C 451.14 291.04 448.01 291.49 448.00 288.84 C 448.18 286.59 447.07 283.56 449.30 282.07 Z" />
<path fill="#080a0b" opacity="0.98" d=" M 448.03 293.98 C 449.27 293.99 450.51 293.99 451.76 294.00 C 453.34 296.77 453.11 299.95 452.97 303.02 C 451.72 303.01 450.47 303.00 449.23 303.00 C 447.66 300.23 447.88 297.05 448.03 293.98 Z" />
<path fill="#080a0b" opacity="0.98" d=" M 533.22 301.18 C 534.62 300.28 535.98 299.18 537.70 298.98 C 540.96 304.57 544.21 310.18 547.02 316.02 C 545.58 316.93 544.10 318.05 542.30 317.91 C 539.54 312.19 536.27 306.75 533.22 301.18 Z" />
<path fill="#080a0b" opacity="0.98" d=" M 448.00 312.81 C 448.27 310.02 446.78 306.14 450.00 304.65 C 451.00 305.50 451.98 306.38 452.97 307.27 C 452.85 309.86 453.77 312.90 451.89 315.07 C 450.55 314.38 449.23 313.66 448.00 312.81 Z" />
<path fill="#080a0b" opacity="0.98" d=" M 448.04 316.98 C 449.27 316.98 450.52 316.99 451.77 317.00 C 453.34 319.78 453.11 322.96 452.97 326.04 C 451.26 325.88 449.08 326.59 448.10 324.72 C 447.82 322.15 447.99 319.56 448.04 316.98 Z" />
<path fill="#080a0b" opacity="0.98" d=" M 547.00 327.18 C 548.58 326.71 551.26 324.00 552.20 326.60 C 554.48 332.30 557.71 337.74 559.01 343.76 C 557.71 344.21 556.43 344.73 555.10 345.03 C 553.84 344.45 553.80 342.82 553.18 341.75 C 551.34 336.80 548.93 332.09 547.00 327.18 Z" />
<path fill="#080a0b" opacity="0.98" d=" M 449.03 328.13 C 450.32 328.55 451.63 328.90 452.96 329.22 C 453.01 331.72 453.18 334.24 452.88 336.73 C 451.86 338.27 447.96 338.25 448.02 335.91 C 448.15 333.34 447.18 330.25 449.03 328.13 Z" />
<path fill="#080a0b" opacity="0.98" d=" M 448.03 341.25 C 449.61 340.58 451.75 339.01 452.88 341.24 C 453.20 343.84 453.05 346.48 452.84 349.09 L 452.21 349.26 C 451.70 349.41 450.69 349.70 450.19 349.84 C 449.49 349.11 448.78 348.40 448.07 347.70 C 447.93 345.55 447.94 343.39 448.03 341.25 Z" />
<path fill="#080a0b" opacity="0.98" d=" M 448.04 351.89 C 449.79 351.84 451.39 352.57 452.99 353.23 C 453.24 356.36 453.85 362.74 448.75 360.76 C 448.62 360.64 448.37 360.40 448.24 360.28 C 447.71 357.52 448.02 354.68 448.04 351.89 Z" />
<path fill="#080a0b" opacity="0.98" d=" M 558.32 354.83 C 559.63 353.75 561.30 353.37 562.91 352.95 C 565.18 359.18 567.53 365.42 569.12 371.87 C 567.59 372.44 566.02 372.91 564.39 372.99 C 562.55 366.87 560.42 360.86 558.32 354.83 Z" />
<path fill="#080a0b" opacity="0.98" d=" M 447.98 364.28 C 448.93 363.89 449.88 363.49 450.82 363.09 C 451.46 363.81 452.11 364.54 452.78 365.26 C 452.67 367.41 452.91 369.56 453.02 371.72 C 452.06 372.10 451.11 372.50 450.18 372.92 C 449.52 372.18 448.87 371.45 448.22 370.74 C 448.33 368.58 448.08 366.43 447.98 364.28 Z" />
<path fill="#080a0b" opacity="0.98" d=" M 448.03 374.90 C 449.79 374.84 451.39 375.57 452.99 376.23 C 452.81 378.84 453.83 381.96 451.85 384.10 C 450.56 383.73 449.31 383.28 448.06 382.84 C 447.94 380.19 447.93 377.54 448.03 374.90 Z" />
<path fill="#080a0b" opacity="0.98" d=" M 567.48 382.87 C 568.95 382.25 570.49 381.78 572.05 381.40 C 574.02 387.79 575.96 394.24 577.04 400.84 C 575.48 401.21 573.91 401.54 572.34 401.79 C 570.76 395.47 569.08 389.18 567.48 382.87 Z" />
<path fill="#080a0b" opacity="0.98" d=" M 448.01 393.87 C 448.21 391.05 446.81 387.15 450.00 385.64 C 450.96 386.46 451.90 387.32 452.82 388.21 C 452.16 390.76 454.25 394.16 451.71 395.92 C 450.19 396.48 447.91 395.75 448.01 393.87 Z" />
<path fill="#080a0b" opacity="0.98" d=" M 448.15 398.75 L 448.83 398.80 C 450.44 398.83 453.08 398.95 453.00 401.16 C 453.30 403.92 453.61 409.22 449.29 407.94 C 446.73 405.73 448.37 401.72 448.15 398.75 Z" />
<path fill="#080a0b" opacity="0.98" d=" M 448.06 410.04 C 449.36 410.19 450.67 410.34 451.99 410.41 C 452.66 413.41 453.76 417.34 451.71 419.92 C 448.42 420.50 445.33 418.71 442.04 418.89 C 442.46 417.35 441.81 415.20 443.27 414.14 C 444.80 413.95 446.35 413.96 447.90 413.91 C 447.95 412.61 448.00 411.32 448.06 410.04 Z" />
<path fill="#080a0b" opacity="0.98" d=" M 575.06 411.30 C 576.43 411.04 577.80 410.77 579.17 410.48 C 581.11 415.17 581.23 420.38 582.65 425.24 C 584.93 426.86 588.30 426.35 591.01 427.15 C 591.08 428.90 591.41 432.08 588.87 431.97 C 584.81 431.02 580.59 430.94 576.57 429.89 C 576.73 428.19 576.80 426.49 576.91 424.79 C 577.19 420.19 574.66 415.88 575.06 411.30 Z" />
<path fill="#080a0b" opacity="0.98" d=" M 422.27 415.02 C 425.09 414.54 427.96 414.45 430.79 414.05 C 431.00 414.33 431.42 414.90 431.63 415.19 L 432.07 415.87 C 432.06 416.65 432.03 418.21 432.02 419.00 C 430.61 419.03 429.20 419.01 427.79 418.94 C 427.16 418.99 425.90 419.09 425.27 419.14 C 424.72 419.33 423.64 419.70 423.10 419.88 C 422.91 418.24 422.66 416.61 422.27 415.02 Z" />
<path fill="#080a0b" opacity="0.98" d=" M 462.09 413.98 C 465.68 414.34 469.78 413.41 473.03 415.10 C 472.80 415.59 472.35 416.57 472.12 417.06 C 471.45 417.76 470.80 418.46 470.15 419.17 C 467.46 419.01 464.77 419.03 462.08 418.99 C 462.32 417.32 462.32 415.64 462.09 413.98 Z" />
<path fill="#080a0b" opacity="0.98" d=" M 401.90 415.04 C 404.95 414.95 408.00 414.97 411.05 414.91 L 411.71 414.90 C 412.14 416.60 412.64 418.29 413.11 419.99 C 409.82 420.05 406.52 420.04 403.23 419.98 C 402.57 418.39 401.83 416.79 401.90 415.04 Z" />
<path fill="#080a0b" opacity="0.98" d=" M 482.35 414.99 C 485.56 414.95 488.78 414.96 492.00 415.02 C 492.01 416.69 492.01 418.35 492.00 420.03 C 488.65 420.12 485.32 419.42 481.99 420.01 C 482.11 418.33 482.32 416.67 482.35 414.99 Z" />
<path fill="#080a0b" opacity="0.98" d=" M 383.99 416.27 C 386.62 416.38 389.26 416.34 391.89 416.46 C 393.65 417.23 392.38 419.53 392.69 420.99 C 389.17 420.21 385.23 422.95 382.09 420.97 C 382.66 419.38 382.99 417.67 383.99 416.27 Z" />
<path fill="#080a0b" opacity="0.98" d=" M 502.06 415.97 C 502.59 415.93 503.65 415.86 504.17 415.82 L 504.85 415.84 C 506.81 416.12 508.78 416.36 510.78 416.22 C 512.86 417.39 511.74 420.12 512.02 422.06 C 508.80 420.84 505.36 420.95 501.98 420.98 C 501.97 419.30 501.99 417.63 502.06 415.97 Z" />
<path fill="#080a0b" opacity="0.98" d=" M 524.10 417.30 C 526.67 418.09 529.37 417.99 532.03 418.06 C 531.87 419.71 531.66 421.37 531.66 423.04 C 528.35 423.63 525.10 421.84 521.89 422.76 C 521.94 421.61 522.00 420.46 522.07 419.32 C 522.75 418.64 523.42 417.97 524.10 417.30 Z" />
<path fill="#080a0b" opacity="0.98" d=" M 362.11 419.98 C 365.08 418.57 368.44 417.87 371.74 417.97 C 372.38 419.58 373.30 421.18 372.99 422.99 C 372.45 423.02 371.37 423.08 370.82 423.12 L 370.14 423.15 C 367.81 423.19 365.51 423.59 363.22 423.94 C 362.89 422.60 362.53 421.28 362.11 419.98 Z" />
<path fill="#080a0b" opacity="0.98" d=" M 343.00 421.11 C 346.36 421.01 349.65 420.28 352.99 419.93 C 352.73 421.86 353.89 424.61 351.77 425.77 C 348.84 425.69 345.93 426.08 343.00 426.02 C 342.98 424.38 342.98 422.74 343.00 421.11 Z" />
<path fill="#080a0b" opacity="0.98" d=" M 542.27 420.04 C 545.59 419.27 548.86 421.21 552.08 420.22 C 551.74 421.99 552.81 424.59 550.89 425.66 C 548.16 425.55 545.32 425.22 542.84 424.03 L 542.16 423.63 C 541.87 423.44 541.28 423.07 540.99 422.88 C 541.43 421.94 541.85 420.99 542.27 420.04 Z" />
<path fill="#080a0b" opacity="0.98" d=" M 448.04 421.96 C 449.73 422.11 451.92 421.40 452.90 423.28 C 453.13 425.42 453.14 427.59 452.88 429.73 C 452.07 431.60 450.21 430.79 448.80 430.28 L 448.17 430.08 C 447.88 427.38 447.94 424.66 448.04 421.96 Z" />
<path fill="#080a0b" opacity="0.98" d=" M 563.16 421.95 C 566.12 422.85 569.53 423.02 571.91 425.23 C 572.21 426.59 571.08 427.75 570.78 429.03 C 567.50 428.15 564.23 427.18 560.85 426.78 C 561.23 425.00 562.19 423.45 563.16 421.95 Z" />
<path fill="#080a0b" opacity="0.98" d=" M 302.95 429.32 C 306.01 427.71 309.22 426.36 312.76 427.02 C 313.08 428.36 313.45 429.69 313.89 431.01 C 310.92 432.43 307.55 433.14 304.26 433.02 C 303.75 431.80 303.18 430.61 302.95 429.32 Z" />
<path fill="#080a0b" opacity="0.98" d=" M 601.24 430.00 C 604.34 429.77 607.63 430.07 610.34 431.73 C 611.78 432.45 610.39 434.12 610.27 435.21 L 610.08 435.84 C 607.93 436.26 605.80 435.80 603.71 435.38 L 603.08 435.28 C 602.30 435.18 600.73 434.97 599.94 434.87 C 600.36 433.24 600.83 431.63 601.24 430.00 Z" />
<path fill="#080a0b" opacity="0.98" d=" M 287.92 431.89 C 289.64 431.89 291.37 431.75 293.02 431.23 C 293.74 432.43 294.40 433.66 295.06 434.90 C 292.23 436.96 288.60 437.02 285.25 437.01 C 284.92 435.69 284.58 434.39 284.17 433.11 C 285.18 432.69 286.21 432.30 287.25 431.93 L 287.92 431.89 Z" />
<path fill="#080a0b" opacity="0.98" d=" M 448.02 434.19 C 449.61 433.23 451.36 433.26 452.97 434.18 C 452.61 437.25 454.43 441.60 451.00 443.35 C 449.99 442.49 449.00 441.61 448.03 440.73 C 447.95 438.55 447.94 436.36 448.02 434.19 Z" />
<path fill="#080a0b" opacity="0.98" d=" M 619.98 435.22 C 621.88 433.98 624.01 434.59 626.00 435.29 C 626.50 435.47 627.51 435.84 628.02 436.02 C 628.51 436.00 629.50 435.96 629.99 435.94 C 629.88 437.66 630.61 439.91 628.72 440.92 C 626.23 440.94 623.82 439.91 621.32 439.77 C 619.33 439.04 620.12 436.81 619.98 435.22 Z" />
<path fill="#080a0b" opacity="0.98" d=" M 268.76 436.62 C 270.39 436.16 272.08 435.96 273.77 435.93 C 274.64 437.20 275.37 438.55 276.07 439.92 C 273.13 441.69 269.57 441.81 266.24 442.06 C 265.38 440.81 264.65 439.49 263.96 438.16 C 265.35 437.68 266.72 437.15 268.15 436.78 L 268.76 436.62 Z" />
<path fill="#080a0b" opacity="0.98" d=" M 580.27 440.51 C 581.80 440.33 583.33 440.14 584.86 439.94 C 586.53 446.41 587.13 453.17 587.92 459.82 C 586.30 459.97 584.68 460.10 583.07 460.17 C 582.08 453.63 581.05 447.08 580.27 440.51 Z" />
<path fill="#080a0b" opacity="0.98" d=" M 640.31 440.06 C 641.93 439.66 643.51 440.27 645.03 440.78 L 645.62 440.97 C 647.25 441.34 648.82 441.94 650.04 443.17 C 649.22 444.56 647.99 445.63 646.84 446.74 C 644.21 446.08 641.58 445.44 638.98 444.74 C 639.05 443.07 638.48 441.00 640.31 440.06 Z" />
<path fill="#080a0b" opacity="0.98" d=" M 246.90 443.24 C 249.72 442.87 252.45 442.07 255.14 441.18 L 255.31 441.80 C 255.78 443.38 256.99 446.42 254.33 446.56 C 251.46 446.39 248.39 449.44 245.99 446.83 C 245.99 446.22 245.98 445.00 245.98 444.39 C 246.21 444.10 246.67 443.52 246.90 443.24 Z" />
<path fill="#080a0b" opacity="0.98" d=" M 448.04 444.90 C 449.79 444.83 451.39 445.57 452.98 446.23 C 453.05 448.86 453.07 451.49 452.90 454.13 L 451.87 454.02 C 451.45 454.02 450.62 454.00 450.20 454.00 C 446.30 453.24 448.52 447.76 448.04 444.90 Z" />
<path fill="#080a0b" opacity="0.98" d=" M 658.01 445.93 C 661.09 446.37 664.51 446.32 667.16 448.17 C 667.38 448.47 667.82 449.08 668.04 449.38 C 668.30 450.90 667.77 452.99 665.92 453.04 C 664.23 453.40 663.37 451.24 661.78 451.14 C 660.51 451.01 659.25 450.93 658.00 450.90 C 657.98 449.24 657.98 447.58 658.01 445.93 Z" />
<path fill="#080a0b" opacity="0.98" d=" M 227.00 450.29 C 230.07 449.55 233.09 448.55 235.89 447.07 C 236.27 448.09 236.64 449.13 236.98 450.18 C 236.98 450.59 236.98 451.41 236.98 451.82 L 237.04 452.78 C 236.50 452.89 235.42 453.09 234.88 453.20 L 234.25 453.32 C 232.73 453.61 231.36 454.36 229.98 455.00 C 228.99 454.56 228.00 454.13 227.00 453.73 C 227.00 452.58 226.99 451.43 227.00 450.29 Z" />
<path fill="#080a0b" opacity="0.98" d=" M 678.32 452.85 C 681.34 453.72 684.38 454.48 686.97 456.36 C 686.59 457.85 686.20 459.34 685.88 460.86 C 682.55 459.64 679.01 458.87 676.00 456.92 C 676.40 455.91 676.83 454.92 677.27 453.93 C 677.54 453.66 678.06 453.12 678.32 452.85 Z" />
<path fill="#080a0b" opacity="0.98" d=" M 208.15 458.21 C 211.51 457.57 214.17 454.84 217.74 454.91 C 218.36 456.51 219.21 458.09 219.05 459.87 C 216.07 460.33 213.06 460.97 210.88 463.25 C 208.97 462.26 208.84 460.00 208.15 458.21 Z" />
<path fill="#080a0b" opacity="0.98" d=" M 448.03 456.96 C 449.72 457.11 451.91 456.40 452.90 458.28 C 453.18 460.84 453.01 463.44 452.96 466.02 C 451.71 466.01 450.47 466.00 449.23 466.00 C 447.66 463.22 447.88 460.03 448.03 456.96 Z" />
<path fill="#080a0b" opacity="0.98" d=" M 696.05 461.12 C 699.07 462.16 702.12 463.12 705.12 464.26 C 704.80 465.98 703.81 467.45 702.94 468.92 C 700.39 467.93 697.42 467.43 695.61 465.19 C 694.37 464.10 694.95 462.09 696.05 461.12 Z" />
<path fill="#080a0b" opacity="0.98" d=" M 190.03 467.28 C 193.03 466.01 195.92 464.52 198.83 463.05 C 199.67 464.04 200.51 465.03 201.35 466.04 C 199.76 467.84 197.62 468.99 195.73 470.43 C 195.60 470.51 195.34 470.67 195.22 470.74 C 194.48 470.83 193.02 471.02 192.28 471.11 C 191.42 469.89 190.71 468.59 190.03 467.28 Z" />
<path fill="#080a0b" opacity="0.98" d=" M 449.10 467.94 C 450.43 468.61 451.75 469.33 453.00 470.18 C 453.04 472.47 453.07 474.77 452.87 477.07 C 452.21 477.06 450.90 477.05 450.24 477.04 C 448.84 477.22 447.88 475.66 448.22 474.42 C 448.38 472.23 447.30 469.72 449.10 467.94 Z" />
<path fill="#080a0b" opacity="0.98" d=" M 584.53 469.95 C 586.07 469.90 587.61 469.86 589.16 469.85 C 589.85 476.44 590.74 483.03 590.90 489.66 C 589.30 489.75 587.70 489.85 586.12 489.93 C 585.66 483.27 584.45 476.63 584.53 469.95 Z" />
<path fill="#080a0b" opacity="0.98" d=" M 713.13 470.16 C 714.06 470.42 715.01 470.68 715.96 470.94 L 716.56 471.13 C 718.55 472.18 720.43 473.45 722.18 474.89 C 721.66 475.89 721.18 476.91 720.75 477.96 C 720.35 477.96 719.55 477.97 719.14 477.98 C 718.76 477.93 717.98 477.83 717.59 477.79 C 716.25 475.79 713.45 475.76 712.12 473.73 C 711.73 472.46 712.84 471.35 713.13 470.16 Z" />
<path fill="#080a0b" opacity="0.98" d=" M 179.43 473.22 C 181.66 471.97 183.12 474.62 184.36 476.03 C 182.25 478.62 178.80 479.47 175.96 481.02 C 174.22 480.80 173.91 478.53 173.05 477.29 C 175.51 476.48 177.59 475.00 179.43 473.22 Z" />
<path fill="#080a0b" opacity="0.98" d=" M 448.01 482.15 C 447.93 479.60 451.88 479.11 452.89 481.26 C 453.20 483.84 453.01 486.44 452.91 489.03 C 452.40 489.08 451.37 489.18 450.86 489.23 L 450.21 489.27 C 446.95 488.43 448.11 484.61 448.01 482.15 Z" />
<path fill="#080a0b" opacity="0.98" d=" M 730.29 479.85 C 733.51 481.36 736.62 483.43 739.24 485.85 C 738.31 487.18 737.40 488.52 736.63 489.94 C 733.34 488.31 730.94 485.42 727.87 483.46 C 729.84 483.21 730.04 481.47 730.29 479.85 Z" />
<path fill="#080a0b" opacity="0.98" d=" M 161.40 485.39 C 162.16 484.08 163.64 483.64 164.88 482.95 C 165.67 484.30 166.42 485.68 167.20 487.05 C 164.97 489.12 162.67 491.11 160.27 492.98 C 159.03 491.68 157.80 490.36 156.67 488.98 C 158.10 487.57 160.35 487.20 161.40 485.39 Z" />
<path fill="#080a0b" opacity="0.98" d=" M 448.03 491.96 C 449.73 492.10 451.92 491.40 452.90 493.29 C 452.89 496.03 454.13 499.89 451.00 501.34 C 449.99 500.49 449.00 499.61 448.03 498.73 C 447.95 496.47 447.94 494.21 448.03 491.96 Z" />
<path fill="#080a0b" opacity="0.98" d=" M 743.65 496.03 C 744.79 494.56 746.09 493.22 747.53 492.03 C 749.13 494.60 751.60 496.38 753.97 498.18 C 752.71 499.54 751.95 503.17 749.53 501.74 C 747.79 499.61 745.61 497.93 743.65 496.03 Z" />
<path fill="#080a0b" opacity="0.98" d=" M 142.02 502.17 C 145.04 500.82 146.87 498.05 149.02 495.69 C 150.25 496.59 151.36 497.65 152.22 498.93 C 151.18 502.29 147.62 503.43 145.92 506.34 C 145.46 505.88 144.54 504.97 144.08 504.52 L 143.67 504.04 C 143.13 503.41 142.58 502.78 142.02 502.17 Z" />
<path fill="#080a0b" opacity="0.98" d=" M 586.87 499.82 C 588.52 499.66 590.19 499.57 591.85 499.76 C 592.08 506.40 592.63 513.03 592.63 519.67 C 590.95 519.65 589.28 519.61 587.62 519.51 C 587.47 512.94 586.96 506.38 586.87 499.82 Z" />
<path fill="#080a0b" opacity="0.98" d=" M 448.01 504.25 C 448.94 503.87 449.87 503.49 450.80 503.10 C 451.50 503.84 452.20 504.58 452.93 505.32 C 452.83 507.81 453.82 510.82 451.96 512.87 C 450.79 512.49 449.61 512.17 448.43 511.89 C 448.17 509.35 447.87 506.80 448.01 504.25 Z" />
<path fill="#080a0b" opacity="0.98" d=" M 757.95 508.21 C 758.88 507.84 759.84 507.52 760.83 507.27 C 763.73 508.36 763.78 512.28 766.94 513.19 C 766.50 514.11 766.10 515.05 765.72 516.01 C 761.63 516.63 757.84 512.12 757.95 508.21 Z" />
<path fill="#080a0b" opacity="0.98" d=" M 135.40 511.30 C 137.00 511.75 138.63 512.16 140.05 513.07 C 138.22 515.70 136.46 518.39 134.68 521.07 C 132.71 521.43 131.33 520.18 130.11 518.85 C 131.11 515.83 133.02 513.36 135.40 511.30 M 132.13 519.29 C 132.77 519.92 132.77 519.92 132.13 519.29 Z" />
<path fill="#080a0b" opacity="0.98" d=" M 448.10 514.87 L 449.14 514.76 L 449.82 514.70 C 451.06 515.28 451.92 516.41 452.97 517.28 C 453.04 519.53 453.04 521.78 452.98 524.04 C 451.34 523.83 449.11 524.65 448.24 522.78 C 448.31 520.13 447.89 517.50 448.10 514.87 Z" />
<path fill="#080a0b" opacity="0.98" d=" M 448.03 526.96 C 449.67 527.16 452.00 526.29 452.78 528.33 C 452.96 529.44 453.10 530.55 453.20 531.68 C 454.53 532.24 455.86 532.79 457.18 533.42 C 457.31 533.49 457.57 533.64 457.70 533.71 C 458.50 534.83 459.16 536.06 459.71 537.33 C 459.82 537.71 460.05 538.48 460.16 538.86 C 462.71 543.99 458.75 551.21 453.29 552.36 C 453.08 552.81 452.65 553.70 452.44 554.15 C 452.67 555.32 452.88 556.50 453.06 557.70 C 451.77 558.00 450.58 559.33 449.22 558.88 C 447.45 557.64 448.14 555.28 447.81 553.46 C 446.81 552.93 445.87 552.32 444.98 551.65 C 444.70 551.41 444.12 550.93 443.83 550.69 C 443.34 550.41 442.36 549.85 441.87 549.57 C 441.74 549.49 441.49 549.33 441.36 549.24 C 439.12 546.78 440.10 543.06 439.56 539.99 C 438.99 537.49 440.84 535.47 442.34 533.73 C 442.44 533.63 442.65 533.42 442.76 533.31 C 444.25 532.17 446.05 531.00 448.00 531.68 C 447.99 530.10 448.00 528.53 448.03 526.96 Z" />
<path fill="#080a0b" opacity="0.98" d=" M 587.99 529.65 C 589.65 529.51 591.32 529.50 592.99 529.64 C 593.01 536.21 593.01 542.78 592.99 549.36 C 591.32 549.48 589.64 549.48 587.98 549.36 C 587.99 542.79 587.95 536.22 587.99 529.65 Z" />
<path fill="#080a0b" opacity="0.98" d=" M 587.64 559.52 C 589.30 559.39 590.97 559.33 592.65 559.32 C 592.72 565.98 592.11 572.63 591.91 579.30 C 590.23 579.38 588.57 579.32 586.91 579.19 C 587.03 572.63 587.49 566.08 587.64 559.52 Z" />
<path fill="#080a0b" opacity="0.98" d=" M 448.09 563.28 C 448.83 561.94 450.32 561.69 451.70 562.07 C 454.11 563.81 452.66 567.24 452.98 569.78 C 451.74 570.26 450.51 570.76 449.24 571.14 C 448.04 568.68 447.61 565.97 448.09 563.28 Z" />
<path fill="#080a0b" opacity="0.98" d=" M 448.00 573.05 C 449.64 573.76 451.65 573.85 452.92 575.26 C 453.14 577.51 453.01 579.77 452.97 582.04 C 451.26 581.88 449.07 582.59 448.10 580.72 C 447.83 578.17 447.98 575.60 448.00 573.05 Z" />
<path fill="#080a0b" opacity="0.98" d=" M 448.03 584.98 C 449.27 584.98 450.51 584.99 451.76 585.00 C 453.07 587.85 454.45 592.53 451.00 594.34 C 449.99 593.49 449.01 592.61 448.03 591.73 C 447.95 589.48 447.94 587.23 448.03 584.98 Z" />
<path fill="#080a0b" opacity="0.98" d=" M 586.15 589.09 C 587.73 589.15 589.31 589.23 590.91 589.33 C 590.93 595.86 589.83 602.33 589.49 608.85 C 587.91 609.30 586.27 609.10 584.67 609.06 C 584.50 602.40 585.82 595.75 586.15 589.09 Z" />
<path fill="#080a0b" opacity="0.98" d=" M 449.10 595.94 C 450.44 596.61 451.77 597.33 453.01 598.20 C 453.14 601.01 453.49 604.14 450.82 605.92 C 449.90 605.51 448.97 605.12 448.04 604.76 C 448.21 601.84 447.11 598.42 449.10 595.94 Z" />
<path fill="#080a0b" opacity="0.98" d=" M 448.08 609.29 C 449.19 607.01 451.36 608.55 452.97 609.25 C 453.06 611.83 453.05 614.42 452.95 617.01 C 452.20 617.04 450.69 617.10 449.94 617.13 L 449.27 617.10 C 447.44 615.04 448.40 611.85 448.08 609.29 Z" />
<path fill="#080a0b" opacity="0.98" d=" M 583.09 618.86 C 584.71 618.90 586.34 619.00 587.97 619.16 C 587.49 625.76 586.27 632.28 585.45 638.85 C 583.78 638.98 582.14 638.64 580.55 638.23 C 581.10 631.74 582.42 625.34 583.09 618.86 Z" />
<path fill="#080a0b" opacity="0.98" d=" M 448.03 619.96 C 449.73 620.10 451.92 619.40 452.90 621.28 C 453.18 623.85 453.00 626.44 452.96 629.02 C 451.71 629.00 450.47 629.00 449.23 629.00 C 447.66 626.22 447.88 623.03 448.03 619.96 Z" />
<path fill="#080a0b" opacity="0.98" d=" M 449.25 630.89 C 450.92 630.81 451.83 632.31 452.96 633.29 C 453.05 635.44 453.06 637.60 452.96 639.76 C 452.02 640.12 451.09 640.51 450.18 640.92 C 446.84 638.58 447.69 634.05 449.25 630.89 Z" />
<path fill="#080a0b" opacity="0.98" d=" M 448.11 644.25 C 448.86 642.79 450.40 642.95 451.80 642.96 C 452.93 645.39 452.83 648.10 452.91 650.72 C 452.05 652.26 450.22 652.30 448.74 651.76 C 448.62 651.64 448.37 651.40 448.25 651.28 C 447.77 648.97 447.87 646.58 448.11 644.25 Z" />
<path fill="#080a0b" opacity="0.98" d=" M 578.55 648.22 C 580.20 648.25 581.84 648.54 583.45 648.97 C 582.69 655.45 581.01 661.78 579.89 668.20 C 578.26 668.37 576.65 668.00 575.07 667.75 C 575.73 661.16 577.64 654.77 578.55 648.22 Z" />
<path fill="#080a0b" opacity="0.98" d=" M 448.12 654.85 L 449.16 654.78 L 449.84 654.76 C 451.02 654.82 452.03 655.28 452.87 656.14 C 452.52 658.33 453.07 660.51 452.93 662.70 C 452.15 664.19 450.58 664.05 449.15 664.03 C 448.29 661.05 447.73 657.95 448.12 654.85 Z" />
<path fill="#080a0b" opacity="0.98" d=" M 448.08 667.29 C 449.21 665.03 451.35 666.52 452.96 667.24 C 453.07 669.87 453.09 672.52 452.86 675.15 L 452.23 675.28 C 450.77 675.83 449.35 675.45 448.02 674.78 C 448.48 672.29 447.99 669.78 448.08 667.29 Z" />
<path fill="#080a0b" opacity="0.98" d=" M 448.09 708.71 C 448.11 705.95 446.87 702.12 450.00 700.65 C 451.00 701.50 451.98 702.38 452.97 703.27 C 453.04 705.52 453.05 707.77 452.97 710.04 C 451.26 709.88 449.07 710.59 448.09 708.71 Z" />
<path fill="#080a0b" opacity="0.98" d=" M 564.55 706.20 C 566.21 705.95 567.77 706.63 569.33 707.10 C 568.13 713.51 565.32 719.50 563.56 725.77 C 561.94 726.03 560.44 725.24 558.95 724.77 C 560.01 718.40 563.13 712.52 564.55 706.20 Z" />
<path fill="#080a0b" opacity="0.98" d=" M 448.03 712.96 C 449.73 713.10 451.92 712.40 452.90 714.28 C 453.17 716.85 453.01 719.43 452.96 722.02 C 451.71 722.00 450.47 722.00 449.23 722.00 C 447.65 719.22 447.88 716.03 448.03 712.96 Z" />
<path fill="#080a0b" opacity="0.98" d=" M 447.98 725.28 C 448.93 724.89 449.88 724.48 450.82 724.07 C 453.73 726.05 453.15 729.68 452.89 732.73 C 451.79 734.25 449.31 733.91 448.01 732.83 C 448.39 730.31 448.17 727.79 447.98 725.28 Z" />
<path fill="#080a0b" opacity="0.98" d=" M 555.09 733.88 C 556.67 734.34 558.31 734.77 559.60 735.87 C 557.21 741.97 554.73 748.04 551.86 753.93 C 550.39 753.34 548.94 752.67 547.54 751.96 C 549.82 745.84 552.60 739.92 555.09 733.88 Z" />
<path fill="#080a0b" opacity="0.98" d=" M 448.02 737.23 C 449.31 736.91 450.60 736.57 451.88 736.17 C 452.56 739.34 454.24 743.19 451.89 746.07 C 450.55 745.37 449.24 744.65 448.00 743.81 C 447.96 741.61 447.95 739.42 448.02 737.23 Z" />
<path fill="#080a0b" opacity="0.98" d=" M 448.04 747.96 C 449.73 748.10 451.92 747.40 452.90 749.28 C 453.17 751.85 453.00 754.45 452.96 757.04 C 451.26 756.88 449.07 757.58 448.10 755.72 C 447.82 753.14 447.99 750.54 448.04 747.96 Z" />
<path fill="#080a0b" opacity="0.98" d=" M 448.10 759.88 L 449.15 760.01 C 449.57 760.01 450.41 760.03 450.83 760.04 C 451.36 760.01 452.42 759.95 452.94 759.92 C 453.01 762.52 453.19 765.13 452.89 767.73 C 452.14 769.16 450.63 769.04 449.25 769.06 C 447.66 766.23 447.84 762.99 448.10 759.88 Z" />
<path fill="#080a0b" opacity="0.98" d=" M 543.11 760.86 C 544.62 761.40 546.06 762.12 547.41 763.02 C 544.57 768.92 541.61 774.82 537.94 780.25 C 536.44 779.70 534.97 779.04 533.83 777.91 C 536.90 772.21 540.03 766.55 543.11 760.86 Z" />
<path fill="#080a0b" opacity="0.98" d=" M 447.95 770.90 C 449.62 771.32 451.29 771.81 452.97 772.22 C 453.05 774.82 453.05 777.43 452.97 780.04 C 451.33 779.83 449.11 780.63 448.23 778.77 C 448.30 776.14 448.01 773.52 447.95 770.90 Z" />
<path fill="#080a0b" opacity="0.98" d=" M 448.03 782.98 C 449.27 782.98 450.51 782.98 451.76 783.00 C 453.02 785.38 453.36 788.06 452.91 790.72 C 452.15 792.14 450.64 792.05 449.25 792.05 C 447.67 789.26 447.87 786.06 448.03 782.98 Z" />
<path fill="#080a0b" opacity="0.98" d=" M 528.30 786.34 C 529.86 786.92 531.15 787.97 532.43 789.01 C 529.06 794.68 524.98 799.91 520.82 805.01 C 519.43 804.13 518.17 803.08 517.02 801.93 C 520.82 796.76 524.87 791.77 528.30 786.34 Z" />
<path fill="#080a0b" opacity="0.98" d=" M 448.04 795.24 C 448.96 794.86 449.88 794.48 450.80 794.10 C 451.49 794.84 452.20 795.58 452.93 796.32 C 453.06 798.46 453.05 800.62 452.98 802.78 C 451.74 803.26 450.51 803.76 449.24 804.14 C 447.77 801.37 447.81 798.27 448.04 795.24 Z" />
<path fill="#080a0b" opacity="0.98" d=" M 447.97 807.23 C 449.58 806.28 451.35 806.19 452.97 807.19 C 452.76 810.12 453.91 813.57 451.89 816.07 C 450.60 815.39 449.32 814.69 448.14 813.87 C 448.39 811.65 448.09 809.44 447.97 807.23 Z" />
<path fill="#080a0b" opacity="0.98" d=" M 510.31 809.32 C 511.81 810.17 513.23 811.27 514.01 812.87 C 509.29 817.46 504.90 822.61 499.23 826.06 C 498.28 824.81 497.39 823.52 496.70 822.12 C 501.45 818.09 506.14 813.96 510.31 809.32 Z" />
<path fill="#080a0b" opacity="0.98" d=" M 447.98 817.98 C 449.69 818.11 451.91 817.37 452.90 819.28 C 453.18 821.85 453.00 824.45 452.96 827.04 C 452.28 827.02 450.92 826.98 450.24 826.96 C 447.44 824.83 448.21 821.04 447.98 817.98 Z" />
<path fill="#080a0b" opacity="0.98" d=" M 472.09 836.09 C 478.00 834.03 483.39 830.85 488.88 827.91 C 489.71 829.23 490.50 830.60 491.23 832.01 C 487.84 834.51 484.04 836.38 480.25 838.21 C 477.98 839.18 475.65 840.45 473.09 840.21 C 472.68 838.84 472.30 837.48 472.09 836.09 Z" />
<path fill="#080a0b" opacity="0.98" d=" M 448.20 853.03 C 449.62 852.90 451.08 852.93 452.44 853.48 C 453.29 856.22 453.10 859.11 452.74 861.93 C 451.34 861.92 449.96 861.77 448.62 861.46 C 447.70 858.73 447.92 855.83 448.20 853.03 Z" />
<path fill="#080a0b" opacity="0.98" d=" M 448.06 865.11 C 449.47 863.80 452.16 864.30 452.74 866.23 C 453.23 868.44 453.00 870.73 452.99 872.99 C 451.63 873.79 449.39 874.23 448.52 872.54 C 447.56 870.19 448.06 867.56 448.06 865.11 Z" />
<path fill="#080a0b" opacity="0.98" d=" M 448.39 876.26 C 449.72 876.08 451.05 876.23 452.34 876.57 C 453.32 879.28 453.05 882.19 452.82 885.02 C 451.35 885.30 449.84 885.23 448.48 884.60 C 447.91 881.86 447.62 878.99 448.39 876.26 Z" />
<path fill="#080a0b" opacity="0.98" d=" M 448.19 887.98 C 449.64 887.69 451.11 887.88 452.49 888.44 C 453.13 891.14 453.36 894.01 452.61 896.74 C 451.20 896.81 449.07 897.27 448.39 895.64 C 447.64 893.15 448.02 890.51 448.19 887.98 Z" />
<path fill="#080a0b" opacity="0.98" d=" M 448.02 900.03 C 449.55 898.87 452.11 899.23 452.77 901.20 C 453.17 903.38 453.15 905.64 452.87 907.85 C 451.79 909.23 449.58 908.70 448.55 907.53 C 447.61 905.14 448.04 902.51 448.02 900.03 Z" />
<path fill="#080a0b" opacity="0.98" d=" M 448.37 911.23 C 449.68 911.02 451.06 910.98 452.25 911.68 C 453.57 914.24 452.92 917.26 452.82 920.02 C 451.35 920.28 449.87 920.15 448.51 919.56 C 447.85 916.83 447.68 913.96 448.37 911.23 Z" />
<path fill="#080a0b" opacity="0.98" d=" M 448.17 922.97 C 449.63 922.65 451.13 922.79 452.52 923.38 C 453.05 926.11 453.42 928.99 452.58 931.72 C 451.25 931.91 449.93 931.73 448.64 931.45 C 447.73 928.70 447.90 925.79 448.17 922.97 Z" />
<path fill="#080a0b" opacity="0.98" d=" M 448.01 935.00 C 449.37 934.23 451.61 933.73 452.48 935.46 C 453.43 937.80 452.93 940.43 452.94 942.90 C 451.49 944.14 448.83 943.73 448.26 941.77 C 447.75 939.54 447.99 937.24 448.01 935.00 Z" />
<path fill="#080a0b" opacity="0.98" d=" M 448.26 946.07 C 449.65 946.05 451.03 946.20 452.39 946.55 C 453.48 950.64 452.97 954.93 452.91 959.12 C 450.45 958.73 449.91 956.01 448.84 954.20 C 447.42 951.71 448.01 948.76 448.26 946.07 Z" />
</g>
<g id="#b4dffeff">
<path fill="#b4dffe" opacity="1.00" d=" M 414.04 241.01 C 418.84 241.40 422.97 238.12 427.79 238.27 C 415.35 242.95 403.83 250.09 394.01 259.04 C 384.63 268.06 375.78 277.75 368.88 288.84 C 362.93 297.19 357.75 306.07 353.30 315.31 C 348.20 324.61 344.03 334.38 340.30 344.29 C 335.33 355.58 332.14 367.51 328.27 379.18 C 316.37 420.76 309.89 463.80 307.70 506.95 C 306.73 524.62 307.05 542.32 307.04 560.01 C 308.26 592.02 311.46 623.96 317.42 655.44 C 318.58 662.34 320.91 669.02 321.47 676.01 C 317.54 675.71 314.19 673.14 310.20 673.36 C 307.23 672.56 304.26 671.79 301.22 671.31 C 293.26 668.53 284.60 668.27 276.79 665.13 C 271.24 664.31 265.89 662.50 260.65 660.53 C 260.61 660.52 260.51 660.50 260.47 660.49 C 258.53 660.20 256.48 660.21 254.70 659.30 C 249.53 656.68 243.96 654.92 238.32 653.65 C 238.02 653.40 237.42 652.92 237.11 652.67 C 236.62 652.49 235.64 652.14 235.15 651.97 C 232.81 651.87 230.67 650.68 228.64 649.63 C 228.58 649.60 228.46 649.55 228.39 649.53 C 218.43 646.37 209.21 641.56 199.74 637.25 C 195.34 635.00 191.15 632.37 186.59 630.45 C 182.37 626.75 177.28 624.26 172.37 621.63 C 171.13 620.98 170.41 619.75 169.64 618.65 L 169.54 618.51 C 169.48 618.52 169.35 618.53 169.29 618.54 C 166.17 618.77 164.99 615.02 162.62 613.62 L 162.52 613.53 C 162.48 613.53 162.40 613.55 162.35 613.55 L 161.63 613.65 C 160.30 611.70 158.50 610.18 156.70 608.69 C 156.59 608.60 156.37 608.41 156.26 608.32 C 148.11 601.75 140.65 594.05 135.79 584.68 C 135.71 584.55 135.53 584.29 135.44 584.16 C 132.47 580.87 130.53 576.72 129.59 572.41 C 128.60 568.48 126.75 564.81 126.02 560.82 C 127.49 560.42 127.54 559.84 126.19 559.07 C 125.71 552.10 126.09 545.10 126.53 538.15 C 128.22 535.55 129.29 532.63 128.99 529.48 C 127.98 528.91 126.99 528.31 126.02 527.69 C 126.48 526.59 126.25 525.71 125.35 525.04 C 125.92 523.39 125.81 521.68 125.41 520.02 C 126.18 516.63 125.78 513.09 126.78 509.75 C 127.84 502.51 127.61 495.01 130.03 488.02 C 131.25 484.45 130.77 480.51 132.46 477.07 C 133.13 476.22 133.33 475.27 133.07 474.22 C 132.58 470.41 134.91 467.03 135.36 463.32 C 135.60 463.02 136.09 462.40 136.34 462.09 C 136.51 461.60 136.87 460.60 137.04 460.10 C 137.75 453.40 140.22 446.64 143.56 440.72 L 143.62 440.62 C 143.61 440.57 143.60 440.47 143.60 440.43 C 144.21 437.12 145.27 433.28 147.32 430.61 L 147.47 430.50 C 147.45 430.44 147.42 430.31 147.40 430.25 C 147.37 429.83 147.31 429.00 147.27 428.59 C 151.10 423.80 151.99 417.48 155.61 412.59 C 157.45 409.13 158.24 405.08 161.11 402.21 C 161.57 399.71 163.45 397.86 164.64 395.65 C 167.24 392.59 168.19 388.40 171.31 385.76 C 171.41 385.63 171.63 385.36 171.74 385.22 C 172.78 383.31 173.97 381.47 175.43 379.85 C 175.52 379.69 175.69 379.37 175.78 379.21 C 176.73 375.77 179.46 373.31 181.60 370.61 C 184.00 367.20 185.95 363.37 189.32 360.78 C 189.43 360.65 189.65 360.37 189.76 360.24 C 191.02 357.19 193.60 355.12 195.59 352.59 C 199.02 347.44 204.56 344.11 207.84 338.83 C 216.34 332.11 222.88 323.07 232.01 317.01 C 233.55 316.07 234.29 314.17 236.13 313.68 C 236.28 313.58 236.57 313.39 236.72 313.29 C 239.84 310.89 242.27 307.55 245.99 306.00 C 251.09 301.43 257.51 298.33 262.57 293.55 C 268.04 290.97 272.91 287.25 278.38 284.68 C 278.55 284.61 278.90 284.45 279.08 284.37 L 279.94 283.93 C 280.12 283.79 280.48 283.52 280.66 283.38 C 282.32 281.25 285.20 280.80 287.45 279.48 C 287.49 279.46 287.57 279.42 287.61 279.40 C 291.07 277.49 294.53 275.54 298.19 274.04 C 298.68 273.86 299.66 273.50 300.15 273.33 C 301.01 272.49 301.94 271.00 303.37 271.47 C 303.42 271.47 303.50 271.48 303.54 271.49 L 303.64 271.44 C 308.47 269.29 313.13 266.64 318.20 265.06 C 318.70 264.91 319.70 264.60 320.20 264.44 C 324.05 261.18 329.64 261.79 333.50 258.44 C 337.80 257.66 341.76 255.24 346.12 255.02 C 346.62 254.87 347.63 254.55 348.13 254.40 C 357.98 251.12 368.02 248.23 378.19 246.34 C 382.93 245.51 387.76 245.09 392.33 243.50 C 394.97 243.30 397.63 243.06 400.19 242.30 C 400.51 243.67 402.43 243.41 403.01 242.37 C 406.68 241.84 410.29 240.70 414.04 241.01 M 302.95 429.32 C 303.18 430.61 303.75 431.80 304.26 433.02 C 307.55 433.14 310.92 432.43 313.89 431.01 C 313.45 429.69 313.08 428.36 312.76 427.02 C 309.22 426.36 306.01 427.71 302.95 429.32 M 287.24 431.30 L 287.25 431.93 C 286.21 432.30 285.18 432.69 284.17 433.11 C 284.58 434.39 284.92 435.69 285.25 437.01 C 288.60 437.02 292.23 436.96 295.06 434.90 C 294.40 433.66 293.74 432.43 293.02 431.23 C 291.37 431.75 289.64 431.89 287.92 431.89 C 287.75 431.75 287.41 431.45 287.24 431.30 M 268.15 436.78 C 266.72 437.15 265.35 437.68 263.96 438.16 C 264.65 439.49 265.38 440.81 266.24 442.06 C 269.57 441.81 273.13 441.69 276.07 439.92 C 275.37 438.55 274.64 437.20 273.77 435.93 C 272.08 435.96 270.39 436.16 268.76 436.62 L 268.61 436.06 C 268.49 436.24 268.26 436.60 268.15 436.78 M 246.90 443.24 C 246.50 443.19 245.70 443.10 245.31 443.05 L 245.22 443.93 L 245.98 444.39 C 245.98 445.00 245.99 446.22 245.99 446.83 C 248.39 449.44 251.46 446.39 254.33 446.56 C 256.99 446.42 255.78 443.38 255.31 441.80 L 255.87 441.64 C 255.69 441.52 255.32 441.29 255.14 441.18 C 252.45 442.07 249.72 442.87 246.90 443.24 M 227.00 450.29 C 226.99 451.43 227.00 452.58 227.00 453.73 C 228.00 454.13 228.99 454.56 229.98 455.00 C 231.36 454.36 232.73 453.61 234.25 453.32 L 234.37 453.90 C 234.50 453.72 234.75 453.37 234.88 453.20 C 235.42 453.09 236.50 452.89 237.04 452.78 L 236.98 451.82 L 237.78 451.82 C 237.79 451.40 237.79 450.57 237.79 450.15 L 236.98 450.18 C 236.64 449.13 236.27 448.09 235.89 447.07 C 233.09 448.55 230.07 449.55 227.00 450.29 M 246.24 448.14 C 246.92 448.82 246.92 448.82 246.24 448.14 M 208.15 458.21 C 208.84 460.00 208.97 462.26 210.88 463.25 C 213.06 460.97 216.07 460.33 219.05 459.87 C 219.21 458.09 218.36 456.51 217.74 454.91 C 214.17 454.84 211.51 457.57 208.15 458.21 M 190.03 467.28 C 190.71 468.59 191.42 469.89 192.28 471.11 C 193.02 471.02 194.48 470.83 195.22 470.74 C 195.34 470.67 195.60 470.51 195.73 470.43 C 197.62 468.99 199.76 467.84 201.35 466.04 C 200.51 465.03 199.67 464.04 198.83 463.05 C 195.92 464.52 193.03 466.01 190.03 467.28 M 179.43 473.22 C 177.59 475.00 175.51 476.48 173.05 477.29 C 173.91 478.53 174.22 480.80 175.96 481.02 C 178.80 479.47 182.25 478.62 184.36 476.03 C 183.12 474.62 181.66 471.97 179.43 473.22 M 161.40 485.39 C 160.35 487.20 158.10 487.57 156.67 488.98 C 157.80 490.36 159.03 491.68 160.27 492.98 C 162.67 491.11 164.97 489.12 167.20 487.05 C 166.42 485.68 165.67 484.30 164.88 482.95 C 163.64 483.64 162.16 484.08 161.40 485.39 M 142.02 502.17 C 142.58 502.78 143.13 503.41 143.67 504.04 L 143.20 504.41 C 143.42 504.44 143.86 504.49 144.08 504.52 C 144.54 504.97 145.46 505.88 145.92 506.34 C 147.62 503.43 151.18 502.29 152.22 498.93 C 151.36 497.65 150.25 496.59 149.02 495.69 C 146.87 498.05 145.04 500.82 142.02 502.17 M 135.40 511.30 C 133.02 513.36 131.11 515.83 130.11 518.85 C 131.33 520.18 132.71 521.43 134.68 521.07 C 136.46 518.39 138.22 515.70 140.05 513.07 C 138.63 512.16 137.00 511.75 135.40 511.30 Z" />
<path fill="#b4dffe" opacity="1.00" d=" M 457.43 241.39 C 459.50 240.98 461.65 240.78 463.42 239.51 C 466.23 239.10 469.08 239.35 471.92 239.26 C 471.72 240.72 471.49 242.19 471.29 243.66 C 477.15 245.58 482.49 248.66 487.94 251.50 C 488.87 250.15 490.00 248.85 490.26 247.17 C 485.11 243.97 479.61 241.41 473.98 239.19 C 477.23 239.03 480.57 239.07 483.63 240.34 C 486.13 241.41 488.93 240.80 491.55 241.27 C 494.96 241.83 498.34 242.53 501.80 242.64 C 504.46 243.34 507.09 244.19 509.89 244.13 C 519.39 245.89 528.87 247.83 538.20 250.34 C 540.84 249.92 542.97 251.64 545.34 252.50 C 545.39 252.51 545.49 252.54 545.54 252.55 C 547.75 252.72 550.01 252.96 552.00 254.03 C 555.79 255.98 560.65 255.58 563.99 258.34 C 564.95 259.55 565.54 259.44 565.75 257.99 C 568.35 259.08 570.79 260.56 573.41 261.62 C 575.79 262.36 578.53 262.45 580.42 264.27 C 585.25 265.71 589.62 268.39 594.20 270.44 C 594.35 270.51 594.63 270.65 594.78 270.72 C 599.36 272.43 603.94 274.40 607.88 277.36 C 608.37 277.52 609.37 277.86 609.86 278.02 C 613.93 279.06 617.47 282.31 621.19 284.44 C 621.33 284.51 621.61 284.66 621.76 284.73 C 626.30 286.34 629.84 289.71 634.04 291.96 C 638.41 294.26 642.24 297.44 646.15 300.44 C 646.31 300.52 646.64 300.69 646.80 300.77 C 649.88 301.37 651.37 304.71 654.41 305.55 C 656.97 308.63 660.90 310.21 663.23 313.52 L 663.36 313.67 C 663.42 313.64 663.54 313.59 663.61 313.56 L 664.33 313.26 C 665.21 314.43 666.13 315.59 667.08 316.72 C 667.48 316.65 668.27 316.52 668.67 316.45 C 671.61 319.72 674.67 323.13 678.45 325.53 C 683.45 330.87 688.53 336.15 694.21 340.78 C 702.36 350.33 710.38 359.98 718.23 369.77 C 721.16 372.87 722.62 376.98 725.30 380.26 C 725.40 380.38 725.59 380.61 725.69 380.73 C 731.00 387.67 735.59 395.30 739.28 403.21 C 739.35 403.36 739.49 403.66 739.56 403.81 C 741.44 407.14 743.85 410.22 745.13 413.87 C 745.61 415.54 747.49 416.47 747.81 418.21 C 748.04 421.68 751.02 424.06 751.41 427.50 C 754.55 431.42 754.54 436.82 757.39 440.81 C 759.38 448.30 762.50 455.51 763.97 463.16 C 764.15 463.65 764.50 464.62 764.68 465.11 C 766.35 467.86 766.11 471.48 767.53 474.43 C 769.32 483.66 771.11 492.91 772.66 502.19 C 771.30 502.54 771.58 504.45 772.64 505.00 C 773.03 507.07 773.19 509.19 773.83 511.22 C 772.42 511.65 772.42 512.23 773.82 512.96 C 774.18 516.34 773.71 519.81 774.60 523.14 C 774.13 523.78 773.70 524.45 773.33 525.14 C 773.14 521.48 769.38 523.17 768.13 525.16 C 768.96 527.79 770.03 530.32 771.28 532.78 C 771.96 532.90 773.32 533.13 774.00 533.25 C 774.13 537.63 773.09 541.98 773.57 546.37 C 773.57 546.44 773.59 546.59 773.59 546.66 C 774.31 551.38 773.94 556.19 773.94 560.95 C 772.37 567.33 770.44 573.69 767.66 579.69 C 761.48 590.68 753.30 600.57 743.82 608.83 C 739.96 610.80 737.62 614.82 733.69 616.67 C 732.27 617.39 730.98 618.33 729.73 619.29 C 729.62 619.39 729.38 619.58 729.27 619.68 C 726.67 622.31 723.28 624.02 720.63 626.54 C 720.31 626.51 719.67 626.45 719.35 626.42 C 718.48 628.06 716.45 628.17 714.97 629.00 C 712.90 629.76 711.30 631.29 709.54 632.55 C 704.14 634.46 699.45 637.85 694.30 640.29 C 691.13 641.49 688.04 642.93 684.79 643.92 C 684.30 644.11 683.33 644.49 682.84 644.69 C 682.01 645.91 680.72 646.60 679.26 646.69 C 675.79 648.99 671.62 649.46 667.78 650.88 C 667.30 651.08 666.33 651.47 665.85 651.67 C 660.30 653.37 655.37 656.63 649.59 657.57 C 644.50 658.81 639.74 661.13 634.79 662.80 C 632.10 662.87 629.54 663.87 626.88 663.98 C 626.38 664.14 625.38 664.47 624.88 664.64 C 620.78 665.88 616.53 666.64 612.65 668.52 C 607.94 668.73 603.45 670.67 598.77 670.93 C 597.71 670.66 596.76 670.87 595.93 671.56 C 594.58 672.27 592.99 672.24 591.53 672.50 C 591.48 672.51 591.38 672.53 591.33 672.54 C 585.13 674.53 578.71 675.88 572.20 676.33 C 565.79 676.81 559.66 679.24 553.19 679.16 C 549.40 679.93 545.47 679.71 541.74 680.79 C 539.82 681.20 537.87 681.75 535.90 681.57 C 535.19 680.51 533.63 680.47 532.99 681.62 C 531.45 682.47 529.58 682.95 527.87 682.36 C 526.64 681.66 525.12 681.58 524.00 682.52 C 521.84 683.48 519.32 682.73 517.03 683.06 C 510.26 683.99 503.46 684.89 496.62 684.55 C 496.55 684.56 496.41 684.57 496.34 684.57 C 490.92 685.68 485.38 685.40 479.89 685.86 C 479.28 684.48 478.68 684.49 478.08 685.88 C 477.22 685.81 475.51 685.67 474.66 685.61 C 474.60 685.61 474.48 685.60 474.42 685.60 C 467.33 686.40 460.16 685.85 453.04 685.96 C 452.99 683.72 453.09 681.49 452.90 679.27 C 451.87 677.85 449.14 677.86 448.11 679.26 C 447.90 681.46 447.99 683.67 447.95 685.88 C 440.14 686.60 432.24 686.12 424.45 685.55 C 424.34 685.54 424.11 685.53 424.00 685.52 L 422.97 685.53 C 422.85 685.53 422.62 685.54 422.50 685.55 C 421.89 685.63 420.69 685.78 420.08 685.85 C 419.29 684.46 418.69 684.46 418.28 685.85 C 415.88 684.74 413.28 684.81 410.86 685.79 C 408.40 685.56 406.00 684.74 403.52 684.56 C 403.45 684.56 403.31 684.56 403.24 684.56 L 402.13 684.65 C 401.15 683.46 400.53 683.56 400.27 684.96 C 395.19 683.37 389.81 684.36 384.64 683.33 C 381.76 682.74 378.81 683.18 375.92 682.82 C 375.15 681.45 374.58 681.49 374.19 682.95 C 369.91 681.99 365.57 681.26 361.19 681.38 C 357.77 679.98 354.00 680.94 350.65 679.53 C 350.61 679.52 350.52 679.50 350.47 679.50 C 347.18 679.73 344.03 678.55 340.76 678.46 C 336.53 678.32 332.49 676.79 328.24 676.85 C 326.41 674.91 326.49 671.93 325.60 669.52 C 323.39 659.26 321.81 648.87 319.68 638.59 C 317.34 621.08 314.73 603.60 313.86 585.95 C 313.04 579.63 312.99 573.27 312.84 566.92 C 310.70 530.25 313.13 493.49 317.38 457.06 C 318.87 448.30 320.22 439.53 321.49 430.74 C 321.76 429.16 322.00 427.55 322.76 426.13 C 323.45 427.07 323.70 428.24 324.04 429.35 C 324.60 430.62 325.22 430.60 325.89 429.27 C 328.15 428.12 330.79 429.22 332.98 427.80 C 333.01 426.26 333.03 424.72 333.05 423.19 C 329.69 423.60 326.38 424.27 323.05 424.83 C 325.78 406.85 330.96 389.37 335.88 371.90 C 340.40 359.50 344.16 346.78 349.87 334.85 C 353.58 326.69 356.99 318.35 361.65 310.67 C 366.68 301.86 371.51 292.86 377.95 284.98 C 383.59 277.70 389.12 270.19 396.22 264.24 C 403.73 257.53 411.61 250.89 421.00 246.97 C 428.31 243.80 435.99 240.72 444.05 240.51 C 446.67 241.38 448.60 243.70 450.96 245.14 C 452.98 243.67 455.17 242.45 457.43 241.39 M 448.00 247.20 C 448.01 249.89 447.74 252.61 448.24 255.27 C 448.37 255.39 448.61 255.64 448.74 255.76 C 450.13 256.01 451.54 256.11 452.97 256.05 C 453.05 253.78 453.04 251.51 452.96 249.24 C 451.72 247.62 449.96 247.10 448.00 247.20 M 495.88 257.07 C 500.67 261.28 505.42 265.54 509.98 270.01 C 511.08 269.00 512.16 267.97 513.23 266.92 C 509.37 261.59 504.03 257.44 498.91 253.37 C 497.65 254.39 496.62 255.63 495.88 257.07 M 449.10 258.35 C 447.03 259.77 448.28 262.81 447.97 264.94 C 447.46 267.16 449.70 268.69 451.70 267.94 C 454.19 266.03 452.80 262.36 452.36 259.75 C 452.33 259.60 452.26 259.30 452.22 259.15 L 452.05 258.42 C 451.06 258.38 450.07 258.28 449.10 258.35 M 448.04 269.95 C 447.98 272.54 447.82 275.14 448.10 277.72 C 449.08 279.59 451.26 278.88 452.97 279.04 C 453.05 276.80 453.06 274.56 452.95 272.32 C 452.18 271.57 451.42 270.82 450.68 270.05 C 450.02 270.03 448.70 269.98 448.04 269.95 M 516.49 277.09 C 520.06 282.47 524.19 287.52 527.96 292.80 C 529.39 292.04 530.77 291.16 532.02 290.12 C 528.30 284.64 524.55 279.11 520.01 274.28 C 518.82 275.20 517.65 276.14 516.49 277.09 M 449.30 282.07 C 447.07 283.56 448.18 286.59 448.00 288.84 C 448.01 291.49 451.14 291.04 452.96 291.04 C 453.00 288.45 453.18 285.84 452.89 283.26 C 452.14 281.94 450.65 281.68 449.30 282.07 M 448.03 293.98 C 447.88 297.05 447.66 300.23 449.23 303.00 C 450.47 303.00 451.72 303.01 452.97 303.02 C 453.11 299.95 453.34 296.77 451.76 294.00 C 450.51 293.99 449.27 293.99 448.03 293.98 M 533.22 301.18 C 536.27 306.75 539.54 312.19 542.30 317.91 C 544.10 318.05 545.58 316.93 547.02 316.02 C 544.21 310.18 540.96 304.57 537.70 298.98 C 535.98 299.18 534.62 300.28 533.22 301.18 M 448.00 312.81 C 449.23 313.66 450.55 314.38 451.89 315.07 C 453.77 312.90 452.85 309.86 452.97 307.27 C 451.98 306.38 451.00 305.50 450.00 304.65 C 446.78 306.14 448.27 310.02 448.00 312.81 M 448.04 316.98 C 447.99 319.56 447.82 322.15 448.10 324.72 C 449.08 326.59 451.26 325.88 452.97 326.04 C 453.11 322.96 453.34 319.78 451.77 317.00 C 450.52 316.99 449.27 316.98 448.04 316.98 M 547.00 327.18 C 548.93 332.09 551.34 336.80 553.18 341.75 C 553.80 342.82 553.84 344.45 555.10 345.03 C 556.43 344.73 557.71 344.21 559.01 343.76 C 557.71 337.74 554.48 332.30 552.20 326.60 C 551.26 324.00 548.58 326.71 547.00 327.18 M 449.03 328.13 C 447.18 330.25 448.15 333.34 448.02 335.91 C 447.96 338.25 451.86 338.27 452.88 336.73 C 453.18 334.24 453.01 331.72 452.96 329.22 C 451.63 328.90 450.32 328.55 449.03 328.13 M 448.03 341.25 C 447.94 343.39 447.93 345.55 448.07 347.70 C 448.78 348.40 449.49 349.11 450.19 349.84 C 450.69 349.70 451.70 349.41 452.21 349.26 L 452.37 349.83 C 452.48 349.64 452.72 349.27 452.84 349.09 C 453.05 346.48 453.20 343.84 452.88 341.24 C 451.75 339.01 449.61 340.58 448.03 341.25 M 448.04 351.89 C 448.02 354.68 447.71 357.52 448.24 360.28 C 448.37 360.40 448.62 360.64 448.75 360.76 C 453.85 362.74 453.24 356.36 452.99 353.23 C 451.39 352.57 449.79 351.84 448.04 351.89 M 558.32 354.83 C 560.42 360.86 562.55 366.87 564.39 372.99 C 566.02 372.91 567.59 372.44 569.12 371.87 C 567.53 365.42 565.18 359.18 562.91 352.95 C 561.30 353.37 559.63 353.75 558.32 354.83 M 447.98 364.28 C 448.08 366.43 448.33 368.58 448.22 370.74 C 448.87 371.45 449.52 372.18 450.18 372.92 C 451.11 372.50 452.06 372.10 453.02 371.72 C 452.91 369.56 452.67 367.41 452.78 365.26 C 452.11 364.54 451.46 363.81 450.82 363.09 C 449.88 363.49 448.93 363.89 447.98 364.28 M 448.03 374.90 C 447.93 377.54 447.94 380.19 448.06 382.84 C 449.31 383.28 450.56 383.73 451.85 384.10 C 453.83 381.96 452.81 378.84 452.99 376.23 C 451.39 375.57 449.79 374.84 448.03 374.90 M 567.48 382.87 C 569.08 389.18 570.76 395.47 572.34 401.79 C 573.91 401.54 575.48 401.21 577.04 400.84 C 575.96 394.24 574.02 387.79 572.05 381.40 C 570.49 381.78 568.95 382.25 567.48 382.87 M 449.24 384.14 C 449.92 384.82 449.92 384.82 449.24 384.14 M 448.01 393.87 C 447.91 395.75 450.19 396.48 451.71 395.92 C 454.25 394.16 452.16 390.76 452.82 388.21 C 451.90 387.32 450.96 386.46 450.00 385.64 C 446.81 387.15 448.21 391.05 448.01 393.87 M 448.15 398.75 C 448.37 401.72 446.73 405.73 449.29 407.94 C 453.61 409.22 453.30 403.92 453.00 401.16 C 453.08 398.95 450.44 398.83 448.83 398.80 C 448.66 398.79 448.32 398.76 448.15 398.75 M 448.06 410.04 C 448.00 411.32 447.95 412.61 447.90 413.91 C 446.35 413.96 444.80 413.95 443.27 414.14 C 441.81 415.20 442.46 417.35 442.04 418.89 C 445.33 418.71 448.42 420.50 451.71 419.92 C 453.76 417.34 452.66 413.41 451.99 410.41 C 450.67 410.34 449.36 410.19 448.06 410.04 M 575.06 411.30 C 574.66 415.88 577.19 420.19 576.91 424.79 C 576.80 426.49 576.73 428.19 576.57 429.89 C 580.59 430.94 584.81 431.02 588.87 431.97 C 591.41 432.08 591.08 428.90 591.01 427.15 C 588.30 426.35 584.93 426.86 582.65 425.24 C 581.23 420.38 581.11 415.17 579.17 410.48 C 577.80 410.77 576.43 411.04 575.06 411.30 M 411.08 414.30 L 411.05 414.91 C 408.00 414.97 404.95 414.95 401.90 415.04 C 401.83 416.79 402.57 418.39 403.23 419.98 C 406.52 420.04 409.82 420.05 413.11 419.99 C 412.64 418.29 412.14 416.60 411.71 414.90 C 411.56 414.75 411.24 414.45 411.08 414.30 M 422.27 415.02 C 422.66 416.61 422.91 418.24 423.10 419.88 C 423.64 419.70 424.72 419.33 425.27 419.14 C 424.77 420.83 428.47 420.56 427.79 418.94 C 429.20 419.01 430.61 419.03 432.02 419.00 C 432.03 418.21 432.06 416.65 432.07 415.87 C 434.57 416.19 432.12 412.53 431.63 415.19 C 431.42 414.90 431.00 414.33 430.79 414.05 C 427.96 414.45 425.09 414.54 422.27 415.02 M 462.09 413.98 C 462.32 415.64 462.32 417.32 462.08 418.99 C 464.77 419.03 467.46 419.01 470.15 419.17 C 470.59 421.86 474.91 417.53 472.12 417.06 C 472.35 416.57 472.80 415.59 473.03 415.10 C 469.78 413.41 465.68 414.34 462.09 413.98 M 482.35 414.99 C 482.32 416.67 482.11 418.33 481.99 420.01 C 485.32 419.42 488.65 420.12 492.00 420.03 C 492.01 418.35 492.01 416.69 492.00 415.02 C 488.78 414.96 485.56 414.95 482.35 414.99 M 504.21 415.20 L 504.17 415.82 C 503.65 415.86 502.59 415.93 502.06 415.97 C 501.99 417.63 501.97 419.30 501.98 420.98 C 505.36 420.95 508.80 420.84 512.02 422.06 C 511.74 420.12 512.86 417.39 510.78 416.22 C 508.78 416.36 506.81 416.12 504.85 415.84 C 504.69 415.68 504.37 415.36 504.21 415.20 M 383.99 416.27 C 382.99 417.67 382.66 419.38 382.09 420.97 C 385.23 422.95 389.17 420.21 392.69 420.99 C 392.38 419.53 393.65 417.23 391.89 416.46 C 389.26 416.34 386.62 416.38 383.99 416.27 M 524.10 417.30 C 523.42 417.97 522.75 418.64 522.07 419.32 C 522.00 420.46 521.94 421.61 521.89 422.76 C 525.10 421.84 528.35 423.63 531.66 423.04 C 531.66 421.37 531.87 419.71 532.03 418.06 C 529.37 417.99 526.67 418.09 524.10 417.30 M 362.11 419.98 C 362.53 421.28 362.89 422.60 363.22 423.94 C 365.51 423.59 367.81 423.19 370.14 423.15 C 370.32 423.29 370.66 423.59 370.83 423.74 L 370.82 423.12 C 371.37 423.08 372.45 423.02 372.99 422.99 C 373.30 421.18 372.38 419.58 371.74 417.97 C 368.44 417.87 365.08 418.57 362.11 419.98 M 343.00 421.11 C 342.98 422.74 342.98 424.38 343.00 426.02 C 345.93 426.08 348.84 425.69 351.77 425.77 C 353.89 424.61 352.73 421.86 352.99 419.93 C 349.65 420.28 346.36 421.01 343.00 421.11 M 542.27 420.04 C 541.85 420.99 541.43 421.94 540.99 422.88 C 541.28 423.07 541.87 423.44 542.16 423.63 C 539.50 424.16 543.17 426.54 542.84 424.03 C 545.32 425.22 548.16 425.55 550.89 425.66 C 552.81 424.59 551.74 421.99 552.08 420.22 C 548.86 421.21 545.59 419.27 542.27 420.04 M 448.04 421.96 C 447.94 424.66 447.88 427.38 448.17 430.08 C 448.33 430.13 448.64 430.23 448.80 430.28 C 450.21 430.79 452.07 431.60 452.88 429.73 C 453.14 427.59 453.13 425.42 452.90 423.28 C 451.92 421.40 449.73 422.11 448.04 421.96 M 563.16 421.95 C 562.19 423.45 561.23 425.00 560.85 426.78 C 564.23 427.18 567.50 428.15 570.78 429.03 C 571.08 427.75 572.21 426.59 571.91 425.23 C 569.53 423.02 566.12 422.85 563.16 421.95 M 601.24 430.00 C 600.83 431.63 600.36 433.24 599.94 434.87 C 600.73 434.97 602.30 435.18 603.08 435.28 C 603.24 435.30 603.55 435.36 603.71 435.38 C 605.80 435.80 607.93 436.26 610.08 435.84 C 610.13 435.68 610.23 435.37 610.27 435.21 C 610.39 434.12 611.78 432.45 610.34 431.73 C 607.63 430.07 604.34 429.77 601.24 430.00 M 448.02 434.19 C 447.94 436.36 447.95 438.55 448.03 440.73 C 449.00 441.61 449.99 442.49 451.00 443.35 C 454.43 441.60 452.61 437.25 452.97 434.18 C 451.36 433.26 449.61 433.23 448.02 434.19 M 619.98 435.22 C 620.12 436.81 619.33 439.04 621.32 439.77 C 623.82 439.91 626.23 440.94 628.72 440.92 C 630.61 439.91 629.88 437.66 629.99 435.94 C 629.50 435.96 628.51 436.00 628.02 436.02 L 627.78 435.13 L 626.74 434.77 L 626.00 435.29 C 624.01 434.59 621.88 433.98 619.98 435.22 M 580.27 440.51 C 581.05 447.08 582.08 453.63 583.07 460.17 C 584.68 460.10 586.30 459.97 587.92 459.82 C 587.13 453.17 586.53 446.41 584.86 439.94 C 583.33 440.14 581.80 440.33 580.27 440.51 M 640.31 440.06 C 638.48 441.00 639.05 443.07 638.98 444.74 C 641.58 445.44 644.21 446.08 646.84 446.74 C 647.99 445.63 649.22 444.56 650.04 443.17 C 648.82 441.94 647.25 441.34 645.62 440.97 L 645.81 440.42 C 645.62 440.51 645.23 440.69 645.03 440.78 C 643.51 440.27 641.93 439.66 640.31 440.06 M 448.04 444.90 C 448.52 447.76 446.30 453.24 450.20 454.00 L 450.17 454.79 C 450.59 454.80 451.43 454.81 451.85 454.81 L 451.87 454.02 L 452.90 454.13 C 453.07 451.49 453.05 448.86 452.98 446.23 C 451.39 445.57 449.79 444.83 448.04 444.90 M 658.01 445.93 C 657.98 447.58 657.98 449.24 658.00 450.90 C 659.25 450.93 660.51 451.01 661.78 451.14 C 663.37 451.24 664.23 453.40 665.92 453.04 C 667.77 452.99 668.30 450.90 668.04 449.38 L 668.79 448.96 L 668.74 448.06 C 668.34 448.09 667.55 448.14 667.16 448.17 C 664.51 446.32 661.09 446.37 658.01 445.93 M 677.02 452.32 C 677.09 452.72 677.21 453.53 677.27 453.93 C 676.83 454.92 676.40 455.91 676.00 456.92 C 679.01 458.87 682.55 459.64 685.88 460.86 C 686.20 459.34 686.59 457.85 686.97 456.36 C 684.38 454.48 681.34 453.72 678.32 452.85 L 677.88 452.17 L 677.02 452.32 M 448.03 456.96 C 447.88 460.03 447.66 463.22 449.23 466.00 C 450.47 466.00 451.71 466.01 452.96 466.02 C 453.01 463.44 453.18 460.84 452.90 458.28 C 451.91 456.40 449.72 457.11 448.03 456.96 M 696.05 461.12 C 694.95 462.09 694.37 464.10 695.61 465.19 C 697.42 467.43 700.39 467.93 702.94 468.92 C 703.81 467.45 704.80 465.98 705.12 464.26 C 702.12 463.12 699.07 462.16 696.05 461.12 M 694.23 465.14 C 694.91 465.81 694.91 465.81 694.23 465.14 M 449.10 467.94 C 447.30 469.72 448.38 472.23 448.22 474.42 C 447.88 475.66 448.84 477.22 450.24 477.04 C 449.66 478.70 453.38 478.72 452.87 477.07 C 453.07 474.77 453.04 472.47 453.00 470.18 C 451.75 469.33 450.43 468.61 449.10 467.94 M 584.53 469.95 C 584.45 476.63 585.66 483.27 586.12 489.93 C 587.70 489.85 589.30 489.75 590.90 489.66 C 590.74 483.03 589.85 476.44 589.16 469.85 C 587.61 469.86 586.07 469.90 584.53 469.95 M 713.13 470.16 C 712.84 471.35 711.73 472.46 712.12 473.73 C 713.45 475.76 716.25 475.79 717.59 477.79 C 717.98 477.83 718.76 477.93 719.14 477.98 L 719.20 478.80 C 719.61 478.78 720.43 478.75 720.84 478.73 L 720.75 477.96 C 721.18 476.91 721.66 475.89 722.18 474.89 C 720.43 473.45 718.55 472.18 716.56 471.13 L 716.76 470.53 L 716.16 470.33 L 715.96 470.94 C 715.01 470.68 714.06 470.42 713.13 470.16 M 448.01 482.15 C 448.11 484.61 446.95 488.43 450.21 489.27 L 450.25 489.86 C 450.40 489.70 450.70 489.39 450.86 489.23 C 451.37 489.18 452.40 489.08 452.91 489.03 C 453.01 486.44 453.20 483.84 452.89 481.26 C 451.88 479.11 447.93 479.60 448.01 482.15 M 730.29 479.85 C 730.04 481.47 729.84 483.21 727.87 483.46 C 730.94 485.42 733.34 488.31 736.63 489.94 C 737.40 488.52 738.31 487.18 739.24 485.85 C 736.62 483.43 733.51 481.36 730.29 479.85 M 448.03 491.96 C 447.94 494.21 447.95 496.47 448.03 498.73 C 449.00 499.61 449.99 500.49 451.00 501.34 C 454.13 499.89 452.89 496.03 452.90 493.29 C 451.92 491.40 449.73 492.10 448.03 491.96 M 743.65 496.03 C 745.61 497.93 747.79 499.61 749.53 501.74 C 751.95 503.17 752.71 499.54 753.97 498.18 C 751.60 496.38 749.13 494.60 747.53 492.03 C 746.09 493.22 744.79 494.56 743.65 496.03 M 586.87 499.82 C 586.96 506.38 587.47 512.94 587.62 519.51 C 589.28 519.61 590.95 519.65 592.63 519.67 C 592.63 513.03 592.08 506.40 591.85 499.76 C 590.19 499.57 588.52 499.66 586.87 499.82 M 448.01 504.25 C 447.87 506.80 448.17 509.35 448.43 511.89 C 449.61 512.17 450.79 512.49 451.96 512.87 C 453.82 510.82 452.83 507.81 452.93 505.32 C 452.20 504.58 451.50 503.84 450.80 503.10 C 449.87 503.49 448.94 503.87 448.01 504.25 M 757.95 508.21 C 757.84 512.12 761.63 516.63 765.72 516.01 C 766.10 515.05 766.50 514.11 766.94 513.19 C 763.78 512.28 763.73 508.36 760.83 507.27 C 759.84 507.52 758.88 507.84 757.95 508.21 M 449.14 514.76 L 448.10 514.87 C 447.89 517.50 448.31 520.13 448.24 522.78 C 449.11 524.65 451.34 523.83 452.98 524.04 C 453.04 521.78 453.04 519.53 452.97 517.28 C 451.92 516.41 451.06 515.28 449.82 514.70 L 449.76 514.10 C 449.60 514.27 449.30 514.59 449.14 514.76 M 448.03 526.96 C 448.00 528.53 447.99 530.10 448.00 531.68 C 446.05 531.00 444.25 532.17 442.76 533.31 C 442.65 533.42 442.44 533.63 442.34 533.73 C 440.84 535.47 438.99 537.49 439.56 539.99 C 440.10 543.06 439.12 546.78 441.36 549.24 C 441.49 549.33 441.74 549.49 441.87 549.57 C 442.36 549.85 443.34 550.41 443.83 550.69 L 443.16 551.20 L 443.37 552.01 C 443.78 551.92 444.58 551.74 444.98 551.65 C 445.87 552.32 446.81 552.93 447.81 553.46 C 448.14 555.28 447.45 557.64 449.22 558.88 C 450.58 559.33 451.77 558.00 453.06 557.70 C 452.88 556.50 452.67 555.32 452.44 554.15 C 452.65 553.70 453.08 552.81 453.29 552.36 C 458.75 551.21 462.71 543.99 460.16 538.86 L 460.94 538.68 L 461.16 537.77 L 460.51 537.08 L 459.71 537.33 C 459.16 536.06 458.50 534.83 457.70 533.71 C 457.57 533.64 457.31 533.49 457.18 533.42 C 455.86 532.79 454.53 532.24 453.20 531.68 C 453.10 530.55 452.96 529.44 452.78 528.33 C 452.00 526.29 449.67 527.16 448.03 526.96 M 587.99 529.65 C 587.95 536.22 587.99 542.79 587.98 549.36 C 589.64 549.48 591.32 549.48 592.99 549.36 C 593.01 542.78 593.01 536.21 592.99 529.64 C 591.32 529.50 589.65 529.51 587.99 529.65 M 587.64 559.52 C 587.49 566.08 587.03 572.63 586.91 579.19 C 588.57 579.32 590.23 579.38 591.91 579.30 C 592.11 572.63 592.72 565.98 592.65 559.32 C 590.97 559.33 589.30 559.39 587.64 559.52 M 448.09 563.28 C 447.61 565.97 448.04 568.68 449.24 571.14 C 450.51 570.76 451.74 570.26 452.98 569.78 C 452.66 567.24 454.11 563.81 451.70 562.07 C 450.32 561.69 448.83 561.94 448.09 563.28 M 448.00 573.05 C 447.98 575.60 447.83 578.17 448.10 580.72 C 449.07 582.59 451.26 581.88 452.97 582.04 C 453.01 579.77 453.14 577.51 452.92 575.26 C 451.65 573.85 449.64 573.76 448.00 573.05 M 764.24 582.23 C 764.91 582.92 764.91 582.92 764.24 582.23 M 448.03 584.98 C 447.94 587.23 447.95 589.48 448.03 591.73 C 449.01 592.61 449.99 593.49 451.00 594.34 C 454.45 592.53 453.07 587.85 451.76 585.00 C 450.51 584.99 449.27 584.98 448.03 584.98 M 586.15 589.09 C 585.82 595.75 584.50 602.40 584.67 609.06 C 586.27 609.10 587.91 609.30 589.49 608.85 C 589.83 602.33 590.93 595.86 590.91 589.33 C 589.31 589.23 587.73 589.15 586.15 589.09 M 449.10 595.94 C 447.11 598.42 448.21 601.84 448.04 604.76 C 448.97 605.12 449.90 605.51 450.82 605.92 C 453.49 604.14 453.14 601.01 453.01 598.20 C 451.77 597.33 450.44 596.61 449.10 595.94 M 448.08 609.29 C 448.40 611.85 447.44 615.04 449.27 617.10 C 449.42 617.26 449.72 617.59 449.87 617.75 L 449.94 617.13 C 450.69 617.10 452.20 617.04 452.95 617.01 C 453.05 614.42 453.06 611.83 452.97 609.25 C 451.36 608.55 449.19 607.01 448.08 609.29 M 583.09 618.86 C 582.42 625.34 581.10 631.74 580.55 638.23 C 582.14 638.64 583.78 638.98 585.45 638.85 C 586.27 632.28 587.49 625.76 587.97 619.16 C 586.34 619.00 584.71 618.90 583.09 618.86 M 448.03 619.96 C 447.88 623.03 447.66 626.22 449.23 629.00 C 450.47 629.00 451.71 629.00 452.96 629.02 C 453.00 626.44 453.18 623.85 452.90 621.28 C 451.92 619.40 449.73 620.10 448.03 619.96 M 449.25 630.89 C 447.69 634.05 446.84 638.58 450.18 640.92 C 451.09 640.51 452.02 640.12 452.96 639.76 C 453.06 637.60 453.05 635.44 452.96 633.29 C 451.83 632.31 450.92 630.81 449.25 630.89 M 448.11 644.25 C 447.87 646.58 447.77 648.97 448.25 651.28 C 448.37 651.40 448.62 651.64 448.74 651.76 C 450.22 652.30 452.05 652.26 452.91 650.72 C 452.83 648.10 452.93 645.39 451.80 642.96 C 450.40 642.95 448.86 642.79 448.11 644.25 M 578.55 648.22 C 577.64 654.77 575.73 661.16 575.07 667.75 C 576.65 668.00 578.26 668.37 579.89 668.20 C 581.01 661.78 582.69 655.45 583.45 648.97 C 581.84 648.54 580.20 648.25 578.55 648.22 M 449.16 654.78 L 448.12 654.85 C 447.73 657.95 448.29 661.05 449.15 664.03 C 450.58 664.05 452.15 664.19 452.93 662.70 C 453.07 660.51 452.52 658.33 452.87 656.14 C 452.03 655.28 451.02 654.82 449.84 654.76 L 449.79 654.15 C 449.63 654.31 449.32 654.62 449.16 654.78 M 448.08 667.29 C 447.99 669.78 448.48 672.29 448.02 674.78 C 449.35 675.45 450.77 675.83 452.23 675.28 C 452.39 675.25 452.70 675.19 452.86 675.15 C 453.09 672.52 453.07 669.87 452.96 667.24 C 451.35 666.52 449.21 665.03 448.08 667.29 Z" />
<path fill="#b4dffe" opacity="1.00" d=" M 132.13 519.29 C 132.77 519.92 132.77 519.92 132.13 519.29 Z" />
<path fill="#b4dffe" opacity="1.00" d=" M 130.32 587.79 C 132.92 592.65 137.04 596.30 140.26 600.74 C 141.94 602.72 143.08 605.24 145.40 606.61 C 148.91 608.66 150.71 612.74 154.39 614.56 C 157.46 617.52 160.43 620.93 164.51 622.46 C 165.99 623.17 167.28 624.25 168.36 625.49 C 168.74 625.46 169.48 625.42 169.85 625.39 C 173.97 631.45 181.92 632.83 187.22 637.31 C 187.35 637.43 187.63 637.66 187.77 637.77 C 191.34 639.57 194.74 642.01 198.76 642.67 C 201.31 644.95 204.77 645.55 207.44 647.65 C 208.78 648.57 210.50 648.45 211.98 649.04 C 215.15 650.36 218.03 652.33 221.30 653.44 C 221.37 653.46 221.52 653.50 221.59 653.52 C 228.68 656.60 236.37 658.39 243.56 661.44 C 250.29 664.39 257.91 664.89 264.39 668.44 C 264.44 668.45 264.53 668.48 264.58 668.50 C 269.20 669.23 273.87 669.98 278.20 671.82 C 282.79 673.04 287.40 674.15 291.98 675.43 C 292.61 676.41 294.52 676.64 294.80 675.24 C 300.81 677.28 307.10 678.19 313.21 679.83 C 316.65 680.20 320.97 679.86 323.35 682.86 C 327.49 697.11 330.92 711.63 336.48 725.44 C 339.59 734.96 343.37 744.26 347.77 753.26 C 351.74 762.56 356.43 771.55 361.85 780.09 C 366.69 788.95 372.58 797.21 379.09 804.93 C 385.02 812.59 391.83 819.58 399.53 825.46 C 405.84 830.78 412.82 835.33 420.40 838.61 C 422.91 839.61 425.47 840.48 427.86 841.75 C 424.06 841.59 420.45 840.36 416.88 839.15 C 414.00 839.97 411.13 839.12 408.26 838.72 C 402.37 837.39 396.22 837.54 390.43 835.78 C 386.77 835.36 383.01 835.18 379.65 833.52 C 379.60 833.51 379.51 833.49 379.46 833.47 C 374.92 833.07 370.45 831.95 366.11 830.66 C 365.61 830.49 364.61 830.14 364.11 829.97 C 359.24 830.34 355.05 827.05 350.27 826.54 C 347.35 826.26 344.79 824.73 342.01 823.97 C 334.49 821.39 326.59 819.66 319.71 815.50 L 319.60 815.45 C 319.55 815.45 319.45 815.46 319.40 815.46 C 314.80 814.92 311.20 811.11 306.50 810.56 C 303.02 808.11 298.90 806.93 295.30 804.71 C 293.48 803.63 290.75 803.67 289.65 801.68 L 289.53 801.47 C 289.44 801.48 289.25 801.51 289.15 801.52 C 288.80 801.33 288.10 800.96 287.75 800.77 C 287.60 800.67 287.31 800.48 287.16 800.39 C 284.63 799.02 282.20 797.50 279.49 796.53 C 275.87 793.63 271.27 792.29 267.73 789.27 C 263.28 785.72 257.26 784.17 253.78 779.49 L 253.64 779.32 C 253.57 779.35 253.44 779.42 253.37 779.46 L 252.57 779.86 C 248.40 774.81 241.96 772.31 237.60 767.42 C 231.83 764.22 228.25 758.13 222.15 755.55 C 222.07 755.13 221.91 754.29 221.83 753.87 L 221.75 753.38 L 221.30 753.15 C 214.03 749.50 210.54 741.52 203.89 737.11 C 199.43 731.89 194.54 727.01 190.73 721.28 C 186.74 717.51 183.76 712.90 180.45 708.57 C 178.28 703.90 173.62 700.84 172.32 695.69 C 171.83 695.46 170.86 694.99 170.37 694.75 C 170.42 694.40 170.52 693.71 170.57 693.36 C 168.43 690.40 165.79 687.44 164.78 683.79 C 164.70 683.63 164.52 683.31 164.43 683.14 C 160.54 678.51 158.49 672.62 155.53 667.43 C 155.17 667.16 154.44 666.63 154.07 666.37 C 154.16 665.96 154.34 665.14 154.42 664.73 C 154.44 664.68 154.46 664.58 154.47 664.53 L 154.35 664.41 C 152.36 661.72 150.91 658.59 149.30 655.64 C 147.47 648.87 143.35 642.94 142.03 635.99 C 141.81 633.75 139.28 632.26 140.04 629.86 C 139.86 629.37 139.51 628.38 139.33 627.89 C 136.77 623.63 136.63 618.23 134.48 613.74 C 132.80 605.48 130.45 597.34 129.26 588.98 C 129.53 588.69 130.06 588.09 130.32 587.79 Z" />
<path fill="#b4dffe" opacity="1.00" d=" M 761.77 598.77 C 765.73 596.04 765.98 590.18 770.33 588.01 L 770.88 587.83 C 771.28 590.00 770.77 592.12 769.64 594.01 C 768.39 594.93 768.49 595.51 769.93 595.75 C 767.78 601.48 766.99 607.60 765.56 613.54 C 763.81 618.06 762.39 622.73 761.64 627.53 C 761.00 628.64 760.30 629.72 759.59 630.79 C 759.37 631.26 758.92 632.18 758.70 632.65 C 759.50 636.05 756.34 638.56 756.42 641.88 L 755.97 642.04 C 755.67 642.44 755.08 643.25 754.79 643.66 C 754.25 647.55 752.76 651.25 750.38 654.39 C 748.44 656.76 749.48 660.62 746.66 662.38 L 746.55 662.48 C 746.54 662.53 746.54 662.64 746.54 662.69 C 746.21 666.23 743.53 668.99 742.17 672.17 C 740.97 675.42 738.86 678.19 737.17 681.18 C 733.02 687.71 729.55 694.71 724.89 700.91 C 722.08 703.67 721.07 707.93 717.59 710.05 L 717.21 710.31 L 717.15 710.80 C 716.75 714.16 712.93 715.60 711.58 718.58 C 709.61 722.46 705.94 724.99 703.58 728.58 C 702.37 730.35 700.26 731.27 699.21 733.18 C 697.20 736.46 693.75 738.44 691.68 741.67 C 686.49 745.81 682.41 751.17 677.05 755.08 C 669.23 763.32 659.72 769.72 650.92 776.87 C 649.59 777.75 648.14 778.43 646.78 779.25 C 646.64 779.36 646.36 779.58 646.22 779.69 C 643.94 781.98 640.66 783.01 638.46 785.46 C 633.54 788.54 628.46 791.30 623.82 794.80 C 619.81 797.64 614.78 798.79 611.13 802.18 C 604.10 804.69 597.37 808.31 590.64 811.68 C 589.41 812.35 588.04 812.70 586.65 812.70 C 586.18 812.93 585.25 813.38 584.78 813.60 C 580.50 816.62 575.09 817.22 570.68 820.02 C 570.23 820.00 569.33 819.97 568.88 819.96 C 568.39 820.13 567.40 820.48 566.90 820.66 C 563.46 822.94 558.79 823.04 555.16 825.19 C 553.89 826.09 552.30 826.07 550.83 826.34 C 547.05 826.68 543.82 829.61 539.90 828.97 C 539.39 829.12 538.37 829.41 537.86 829.56 C 534.67 830.71 531.59 832.38 528.09 832.07 C 518.75 834.24 509.31 836.11 499.84 837.69 C 495.20 837.44 490.74 839.09 486.12 839.09 C 478.99 840.81 471.65 840.35 464.40 840.58 C 463.01 840.58 462.60 838.34 460.95 839.08 C 458.27 838.90 454.77 840.70 452.75 838.30 C 451.74 836.03 452.63 833.56 452.92 831.24 C 451.95 830.35 450.99 829.48 450.01 828.65 C 448.93 829.48 447.39 830.33 448.06 831.97 C 448.77 834.56 448.66 837.30 447.22 839.65 C 439.39 839.31 431.55 837.69 424.31 834.68 C 414.35 829.87 404.54 824.22 396.76 816.25 C 391.66 811.37 386.72 806.29 382.18 800.89 C 376.44 793.17 370.94 785.27 365.88 777.09 C 361.27 768.95 357.07 760.58 352.84 752.24 C 345.97 736.51 339.55 720.55 334.85 704.02 C 332.37 697.16 330.75 690.06 329.03 682.98 C 333.49 683.00 338.00 683.16 342.19 684.85 C 345.72 684.61 349.05 686.45 352.54 685.75 C 353.41 685.54 354.27 685.60 355.11 685.93 C 358.95 687.25 363.07 687.28 367.06 687.94 C 374.84 687.12 382.43 689.80 390.21 689.63 C 394.87 690.36 399.63 689.56 404.26 690.56 C 410.15 691.73 416.28 690.10 422.07 691.95 C 430.68 692.12 439.30 691.90 447.91 692.04 C 447.96 693.58 448.01 695.13 448.09 696.68 C 448.83 697.42 449.58 698.18 450.31 698.95 C 450.98 698.98 452.30 699.02 452.96 699.04 C 453.00 696.70 453.01 694.36 453.04 692.04 C 457.96 691.82 462.92 692.32 467.82 691.80 C 470.92 690.62 474.06 692.47 477.20 691.69 C 482.79 691.30 488.39 690.87 494.00 691.02 C 496.77 691.04 499.63 691.24 502.25 690.14 C 502.56 691.54 503.14 691.59 503.99 690.28 C 508.42 689.26 512.94 690.18 517.43 689.46 C 517.49 689.46 517.62 689.44 517.68 689.44 C 525.70 688.45 533.72 687.34 541.80 686.87 C 544.86 686.69 547.71 685.28 550.79 685.31 C 554.22 685.21 557.47 683.84 560.93 683.92 C 564.65 684.01 567.83 681.95 571.29 680.93 C 570.93 686.07 568.69 690.83 567.89 695.89 C 568.65 697.38 570.81 696.95 572.16 697.61 C 574.44 692.26 575.20 686.42 577.01 680.91 C 578.76 680.76 580.52 680.55 582.25 680.17 C 582.60 681.55 583.18 681.59 584.01 680.29 C 586.42 678.47 589.86 679.63 592.63 678.60 C 596.29 677.33 600.25 677.33 603.87 675.89 C 605.48 675.24 607.19 675.04 608.92 674.93 C 611.49 674.80 613.77 672.93 616.41 673.46 C 616.46 673.45 616.57 673.44 616.63 673.44 C 620.29 672.71 623.77 671.23 627.43 670.51 C 627.50 670.50 627.63 670.47 627.70 670.46 C 629.35 670.14 630.90 669.48 632.30 668.55 C 635.91 668.88 639.20 666.33 642.70 665.54 C 649.65 664.82 655.65 660.51 662.58 659.66 C 668.64 656.12 675.98 655.75 681.87 651.83 C 692.67 647.82 702.82 642.24 713.17 637.19 C 717.72 633.93 722.94 631.79 727.41 628.41 C 733.93 624.42 739.77 619.50 745.74 614.75 C 751.75 610.14 757.10 604.71 761.77 598.77 M 448.09 708.71 C 449.07 710.59 451.26 709.88 452.97 710.04 C 453.05 707.77 453.04 705.52 452.97 703.27 C 451.98 702.38 451.00 701.50 450.00 700.65 C 446.87 702.12 448.11 705.95 448.09 708.71 M 564.55 706.20 C 563.13 712.52 560.01 718.40 558.95 724.77 C 560.44 725.24 561.94 726.03 563.56 725.77 C 565.32 719.50 568.13 713.51 569.33 707.10 C 567.77 706.63 566.21 705.95 564.55 706.20 M 448.03 712.96 C 447.88 716.03 447.65 719.22 449.23 722.00 C 450.47 722.00 451.71 722.00 452.96 722.02 C 453.01 719.43 453.17 716.85 452.90 714.28 C 451.92 712.40 449.73 713.10 448.03 712.96 M 447.98 725.28 C 448.17 727.79 448.39 730.31 448.01 732.83 C 449.31 733.91 451.79 734.25 452.89 732.73 C 453.15 729.68 453.73 726.05 450.82 724.07 C 449.88 724.48 448.93 724.89 447.98 725.28 M 555.09 733.88 C 552.60 739.92 549.82 745.84 547.54 751.96 C 548.94 752.67 550.39 753.34 551.86 753.93 C 554.73 748.04 557.21 741.97 559.60 735.87 C 558.31 734.77 556.67 734.34 555.09 733.88 M 448.02 737.23 C 447.95 739.42 447.96 741.61 448.00 743.81 C 449.24 744.65 450.55 745.37 451.89 746.07 C 454.24 743.19 452.56 739.34 451.88 736.17 C 450.60 736.57 449.31 736.91 448.02 737.23 M 448.04 747.96 C 447.99 750.54 447.82 753.14 448.10 755.72 C 449.07 757.58 451.26 756.88 452.96 757.04 C 453.00 754.45 453.17 751.85 452.90 749.28 C 451.92 747.40 449.73 748.10 448.04 747.96 M 449.16 759.22 L 449.15 760.01 L 448.10 759.88 C 447.84 762.99 447.66 766.23 449.25 769.06 C 450.63 769.04 452.14 769.16 452.89 767.73 C 453.19 765.13 453.01 762.52 452.94 759.92 C 452.42 759.95 451.36 760.01 450.83 760.04 L 450.83 759.23 C 450.42 759.23 449.58 759.22 449.16 759.22 M 543.11 760.86 C 540.03 766.55 536.90 772.21 533.83 777.91 C 534.97 779.04 536.44 779.70 537.94 780.25 C 541.61 774.82 544.57 768.92 547.41 763.02 C 546.06 762.12 544.62 761.40 543.11 760.86 M 447.95 770.90 C 448.01 773.52 448.30 776.14 448.23 778.77 C 449.11 780.63 451.33 779.83 452.97 780.04 C 453.05 777.43 453.05 774.82 452.97 772.22 C 451.29 771.81 449.62 771.32 447.95 770.90 M 448.03 782.98 C 447.87 786.06 447.67 789.26 449.25 792.05 C 450.64 792.05 452.15 792.14 452.91 790.72 C 453.36 788.06 453.02 785.38 451.76 783.00 C 450.51 782.98 449.27 782.98 448.03 782.98 M 528.30 786.34 C 524.87 791.77 520.82 796.76 517.02 801.93 C 518.17 803.08 519.43 804.13 520.82 805.01 C 524.98 799.91 529.06 794.68 532.43 789.01 C 531.15 787.97 529.86 786.92 528.30 786.34 M 448.04 795.24 C 447.81 798.27 447.77 801.37 449.24 804.14 C 450.51 803.76 451.74 803.26 452.98 802.78 C 453.05 800.62 453.06 798.46 452.93 796.32 C 452.20 795.58 451.49 794.84 450.80 794.10 C 449.88 794.48 448.96 794.86 448.04 795.24 M 447.97 807.23 C 448.09 809.44 448.39 811.65 448.14 813.87 C 449.32 814.69 450.60 815.39 451.89 816.07 C 453.91 813.57 452.76 810.12 452.97 807.19 C 451.35 806.19 449.58 806.28 447.97 807.23 M 510.31 809.32 C 506.14 813.96 501.45 818.09 496.70 822.12 C 497.39 823.52 498.28 824.81 499.23 826.06 C 504.90 822.61 509.29 817.46 514.01 812.87 C 513.23 811.27 511.81 810.17 510.31 809.32 M 447.98 817.98 C 448.21 821.04 447.44 824.83 450.24 826.96 C 450.92 826.98 452.28 827.02 452.96 827.04 C 453.00 824.45 453.18 821.85 452.90 819.28 C 451.91 817.37 449.69 818.11 447.98 817.98 M 472.09 836.09 C 472.30 837.48 472.68 838.84 473.09 840.21 C 475.65 840.45 477.98 839.18 480.25 838.21 C 484.04 836.38 487.84 834.51 491.23 832.01 C 490.50 830.60 489.71 829.23 488.88 827.91 C 483.39 830.85 478.00 834.03 472.09 836.09 Z" />
</g>
</svg>
