<?xml version="1.0" encoding="UTF-8" ?>
<!DOCTYPE svg PUBLIC "-//W3C//DTD SVG 1.1//EN" "http://www.w3.org/Graphics/SVG/1.1/DTD/svg11.dtd">
<svg width="960pt" height="540pt" viewBox="0 0 960 540" version="1.1" xmlns="http://www.w3.org/2000/svg">
<g id="#000000ff">
<path fill="#000000" opacity="1.00" d=" M 444.26 21.00 C 445.20 21.00 447.07 21.00 448.01 21.01 C 450.41 28.75 453.00 36.44 455.11 44.27 C 457.39 36.41 460.15 28.70 462.82 20.97 C 463.74 20.98 465.58 21.01 466.49 21.02 C 463.28 30.00 460.09 39.00 456.87 47.99 C 455.59 47.99 454.32 48.00 453.06 48.00 C 450.10 39.01 447.18 30.00 444.26 21.00 Z" />
<path fill="#000000" opacity="1.00" d=" M 464.48 92.41 C 470.83 81.91 476.58 71.00 483.32 60.76 C 540.36 160.99 597.48 261.18 654.56 361.39 C 657.90 367.46 661.73 373.33 664.32 379.78 C 666.19 388.62 667.95 398.07 664.76 406.84 C 664.48 407.05 663.90 407.49 663.61 407.70 C 661.12 413.95 659.18 420.57 655.23 426.11 C 651.96 430.86 646.69 433.58 642.98 437.93 C 638.77 443.15 633.11 446.93 627.39 450.29 C 622.99 451.93 618.98 454.40 615.24 457.19 C 608.64 460.62 601.81 463.63 594.66 465.70 C 585.54 469.85 575.90 472.74 566.09 474.76 C 557.85 477.18 549.42 478.98 540.92 480.17 C 505.31 486.13 468.81 486.53 433.01 482.00 C 410.05 478.89 387.21 473.87 365.63 465.30 C 357.18 462.22 348.95 458.45 341.24 453.80 C 334.41 450.23 327.92 446.01 322.00 441.08 C 318.69 438.03 315.43 434.92 312.13 431.86 C 306.57 426.06 302.04 419.23 299.34 411.64 C 295.09 402.35 295.30 391.70 297.45 381.91 C 300.13 372.14 305.83 363.65 310.84 354.98 C 362.05 267.45 413.26 179.93 464.48 92.41 M 480.01 72.27 C 479.98 73.48 479.95 74.70 479.95 75.91 C 425.91 168.18 371.91 260.48 317.94 352.79 C 322.56 348.82 327.28 344.88 332.59 341.86 C 333.41 343.24 334.25 344.60 335.11 345.97 C 329.82 349.50 324.72 353.34 320.04 357.66 C 319.05 356.61 318.07 355.57 317.08 354.53 C 315.71 357.51 313.87 360.24 312.51 363.23 C 312.72 363.59 313.16 364.31 313.37 364.68 C 309.00 369.85 305.60 375.77 302.99 381.99 C 300.44 390.06 300.44 398.93 302.97 407.00 C 306.15 417.00 312.75 425.55 320.30 432.68 C 334.21 445.59 351.38 454.32 368.92 461.21 C 405.88 475.06 445.60 480.19 484.92 479.95 C 524.41 479.32 564.37 473.41 600.89 457.82 C 617.64 450.49 633.98 441.09 646.36 427.41 C 654.55 418.30 660.84 406.54 660.40 394.00 C 661.76 393.99 663.12 393.99 664.50 394.00 C 664.49 392.33 664.49 390.66 664.50 389.00 C 662.92 389.00 661.35 389.00 659.79 389.00 C 659.26 380.49 654.91 372.80 650.06 366.00 C 648.19 362.36 646.46 358.64 644.53 355.03 C 643.77 355.84 643.00 356.66 642.25 357.48 C 637.56 353.15 632.43 349.32 627.12 345.80 C 628.02 344.41 628.93 343.01 629.85 341.62 C 634.46 344.59 638.80 347.95 643.07 351.40 C 590.43 258.90 537.77 166.40 485.01 73.97 C 485.01 73.59 485.02 72.82 485.02 72.43 C 484.58 72.03 483.72 71.23 483.28 70.84 C 482.26 71.47 481.17 71.95 480.01 72.27 Z" />
<path fill="#000000" opacity="1.00" d=" M 456.12 306.28 C 462.77 305.88 469.44 305.60 476.11 305.50 C 476.12 307.16 476.14 308.83 476.16 310.50 C 469.59 310.60 463.01 310.86 456.45 311.28 C 456.33 309.61 456.22 307.94 456.12 306.28 Z" />
<path fill="#000000" opacity="1.00" d=" M 486.09 305.49 C 492.76 305.62 499.43 305.84 506.09 306.27 C 505.98 307.93 505.87 309.59 505.77 311.25 C 499.21 310.86 492.64 310.58 486.07 310.51 C 486.07 308.83 486.07 307.16 486.09 305.49 Z" />
<path fill="#000000" opacity="1.00" d=" M 516.06 307.04 C 522.69 307.70 529.31 308.46 535.91 309.43 C 535.65 311.08 535.41 312.73 535.17 314.38 C 528.67 313.43 522.14 312.65 515.60 312.03 C 515.75 310.36 515.90 308.70 516.06 307.04 Z" />
<path fill="#000000" opacity="1.00" d=" M 426.30 309.48 C 432.89 308.49 439.52 307.73 446.15 307.07 C 446.30 308.73 446.45 310.39 446.60 312.05 C 440.06 312.68 433.54 313.47 427.04 314.43 C 426.79 312.77 426.54 311.12 426.30 309.48 Z" />
<path fill="#000000" opacity="1.00" d=" M 396.88 315.30 C 403.35 313.71 409.87 312.31 416.43 311.12 C 416.72 312.75 417.01 314.39 417.31 316.04 C 410.86 317.22 404.45 318.59 398.08 320.15 C 397.68 318.53 397.28 316.91 396.88 315.30 Z" />
<path fill="#000000" opacity="1.00" d=" M 545.72 311.11 C 552.32 312.19 558.84 313.67 565.34 315.22 C 564.93 316.84 564.53 318.45 564.14 320.07 C 557.77 318.53 551.36 317.16 544.92 315.99 C 545.18 314.36 545.45 312.73 545.72 311.11 Z" />
<path fill="#000000" opacity="1.00" d=" M 368.22 324.14 C 374.46 321.79 380.80 319.71 387.22 317.88 C 387.66 319.49 388.11 321.09 388.57 322.71 C 382.29 324.46 376.10 326.54 369.97 328.78 C 369.38 327.23 368.80 325.69 368.22 324.14 Z" />
<path fill="#000000" opacity="1.00" d=" M 574.99 317.79 C 581.40 319.64 587.75 321.69 594.00 324.01 C 593.42 325.57 592.84 327.12 592.27 328.69 C 586.14 326.49 579.99 324.32 573.68 322.70 C 574.10 321.06 574.53 319.42 574.99 317.79 Z" />
<path fill="#000000" opacity="1.00" d=" M 341.00 336.55 C 346.85 333.39 352.79 330.40 358.92 327.83 C 359.57 329.34 360.23 330.85 360.91 332.37 C 354.95 335.00 349.08 337.81 343.38 340.96 C 342.58 339.49 341.79 338.02 341.00 336.55 Z" />
<path fill="#000000" opacity="1.00" d=" M 603.30 327.71 C 609.43 330.33 615.44 333.22 621.27 336.46 C 620.45 337.91 619.64 339.36 618.84 340.82 C 613.16 337.68 607.31 334.87 601.35 332.30 C 601.99 330.77 602.65 329.24 603.30 327.71 Z" />
<path fill="#000000" opacity="1.00" d=" M 689.16 371.00 C 690.53 370.99 691.91 370.99 693.29 370.99 C 696.39 379.98 699.44 388.99 702.48 397.99 C 701.56 398.00 699.71 398.00 698.79 398.01 C 697.83 395.17 696.87 392.34 695.94 389.50 C 692.74 389.48 689.54 389.49 686.35 389.54 C 685.43 392.32 684.53 395.11 683.69 397.91 C 682.46 397.95 681.23 397.99 680.02 398.03 C 683.02 389.00 686.08 380.00 689.16 371.00 M 687.10 386.87 C 689.79 386.87 692.48 386.86 695.18 386.86 C 693.78 382.60 692.24 378.38 691.14 374.04 C 690.00 378.38 688.53 382.62 687.10 386.87 Z" />
<path fill="#000000" opacity="1.00" d=" M 475.97 393.00 C 476.16 387.56 483.50 385.92 487.13 389.30 L 487.07 390.25 C 486.99 392.06 486.83 393.97 487.74 395.64 C 484.90 400.45 476.10 398.85 475.97 393.00 Z" />
<path fill="#000000" opacity="1.00" d=" M 461.45 401.56 C 466.52 399.91 472.72 402.10 475.13 406.98 C 477.81 412.30 477.64 419.20 474.24 424.17 C 470.33 429.89 461.14 430.61 456.36 425.60 C 449.81 418.71 451.69 404.47 461.45 401.56 M 462.27 404.19 C 455.84 406.79 454.86 415.71 457.54 421.36 C 459.34 425.95 465.63 427.81 469.50 424.64 C 473.89 420.86 474.37 413.97 472.20 408.89 C 470.69 405.09 466.21 402.70 462.27 404.19 Z" />
</g>
<g id="#d35f5fff">
<path fill="#d35f5f" opacity="1.00" d=" M 480.01 72.27 C 481.17 71.95 482.26 71.47 483.28 70.84 C 483.72 71.23 484.58 72.03 485.02 72.43 C 485.02 72.82 485.01 73.59 485.01 73.97 C 484.92 80.65 484.94 87.32 484.88 94.00 C 483.21 94.00 481.55 94.00 479.89 93.99 C 479.91 87.97 479.96 81.94 479.95 75.91 C 479.95 74.70 479.98 73.48 480.01 72.27 Z" />
<path fill="#d35f5f" opacity="1.00" d=" M 479.86 101.99 C 481.52 102.01 483.19 102.04 484.87 102.06 C 484.80 109.36 484.78 116.67 484.76 123.98 C 483.09 123.98 481.41 123.99 479.75 124.01 C 479.78 116.67 479.80 109.33 479.86 101.99 Z" />
<path fill="#d35f5f" opacity="1.00" d=" M 479.72 131.98 C 481.38 132.01 483.05 132.04 484.73 132.06 C 484.67 139.37 484.62 146.67 484.62 153.98 C 482.95 153.98 481.28 153.99 479.62 154.01 C 479.62 146.66 479.67 139.32 479.72 131.98 Z" />
<path fill="#d35f5f" opacity="1.00" d=" M 479.57 161.98 C 481.23 162.00 482.91 162.03 484.58 162.06 C 484.56 169.33 484.38 176.60 484.56 183.87 C 482.86 183.93 481.16 183.99 479.48 184.05 C 479.48 176.69 479.53 169.33 479.57 161.98 Z" />
<path fill="#d35f5f" opacity="1.00" d=" M 479.41 192.02 C 481.07 192.01 482.73 192.00 484.41 191.99 C 484.40 199.33 484.36 206.67 484.31 214.01 C 482.63 213.99 480.97 213.98 479.30 213.98 C 479.36 206.66 479.41 199.34 479.41 192.02 Z" />
<path fill="#d35f5f" opacity="1.00" d=" M 479.27 222.02 C 480.93 222.01 482.60 222.00 484.27 221.99 C 484.25 229.33 484.22 236.67 484.17 244.00 C 482.49 243.99 480.83 243.99 479.17 243.99 C 479.22 236.66 479.25 229.34 479.27 222.02 Z" />
<path fill="#d35f5f" opacity="1.00" d=" M 479.14 252.01 C 480.80 252.01 482.46 252.00 484.14 252.00 C 484.10 259.33 484.09 266.67 484.02 274.00 C 482.35 273.99 480.69 273.98 479.04 273.98 C 479.07 266.65 479.10 259.33 479.14 252.01 Z" />
<path fill="#d35f5f" opacity="1.00" d=" M 479.01 282.00 C 480.67 282.00 482.33 282.00 484.00 282.00 C 483.95 289.33 483.93 296.67 483.90 304.00 C 482.23 303.98 480.56 303.97 478.90 303.96 C 478.92 296.64 478.96 289.32 479.01 282.00 Z" />
<path fill="#d35f5f" opacity="1.00" d=" M 478.86 312.00 C 480.52 312.00 482.19 312.01 483.87 312.01 C 483.81 319.34 483.77 326.67 483.77 334.00 C 482.09 333.98 480.42 333.96 478.76 333.96 C 478.78 326.64 478.81 319.32 478.86 312.00 Z" />
<path fill="#d35f5f" opacity="1.00" d=" M 478.72 341.98 C 480.38 341.99 482.05 342.01 483.73 342.03 C 483.68 349.34 483.63 356.66 483.62 363.98 C 481.95 363.97 480.28 363.96 478.62 363.96 C 478.63 356.63 478.68 349.30 478.72 341.98 Z" />
<path fill="#d35f5f" opacity="1.00" d=" M 478.57 371.96 C 480.23 371.98 481.91 372.01 483.58 372.04 C 483.54 377.01 483.51 381.98 483.52 386.96 C 481.84 386.98 480.17 386.99 478.52 387.03 C 478.51 382.00 478.55 376.98 478.57 371.96 Z" />
</g>
<g id="#c0defdff">
<path fill="#c0defd" opacity="1.00" d=" M 485.01 73.97 C 537.77 166.40 590.43 258.90 643.07 351.40 C 638.80 347.95 634.46 344.59 629.85 341.62 C 628.93 343.01 628.02 344.41 627.12 345.80 C 632.43 349.32 637.56 353.15 642.25 357.48 C 643.00 356.66 643.77 355.84 644.53 355.03 C 646.46 358.64 648.19 362.36 650.06 366.00 C 654.91 372.80 659.26 380.49 659.79 389.00 C 653.02 389.00 646.26 388.99 639.51 389.00 C 639.49 390.66 639.49 392.33 639.50 394.00 C 646.47 394.00 653.43 394.00 660.40 394.00 C 660.84 406.54 654.55 418.30 646.36 427.41 C 633.98 441.09 617.64 450.49 600.89 457.82 C 564.37 473.41 524.41 479.32 484.92 479.95 C 445.60 480.19 405.88 475.06 368.92 461.21 C 351.38 454.32 334.21 445.59 320.30 432.68 C 312.75 425.55 306.15 417.00 302.97 407.00 C 300.44 398.93 300.44 390.06 302.99 381.99 C 305.60 375.77 309.00 369.85 313.37 364.68 C 313.16 364.31 312.72 363.59 312.51 363.23 C 313.87 360.24 315.71 357.51 317.08 354.53 C 318.07 355.57 319.05 356.61 320.04 357.66 C 324.72 353.34 329.82 349.50 335.11 345.97 C 334.25 344.60 333.41 343.24 332.59 341.86 C 327.28 344.88 322.56 348.82 317.94 352.79 C 371.91 260.48 425.91 168.18 479.95 75.91 C 479.96 81.94 479.91 87.97 479.89 93.99 C 481.55 94.00 483.21 94.00 484.88 94.00 C 484.94 87.32 484.92 80.65 485.01 73.97 M 479.86 101.99 C 479.80 109.33 479.78 116.67 479.75 124.01 C 481.41 123.99 483.09 123.98 484.76 123.98 C 484.78 116.67 484.80 109.36 484.87 102.06 C 483.19 102.04 481.52 102.01 479.86 101.99 M 479.72 131.98 C 479.67 139.32 479.62 146.66 479.62 154.01 C 481.28 153.99 482.95 153.98 484.62 153.98 C 484.62 146.67 484.67 139.37 484.73 132.06 C 483.05 132.04 481.38 132.01 479.72 131.98 M 479.57 161.98 C 479.53 169.33 479.48 176.69 479.48 184.05 C 481.16 183.99 482.86 183.93 484.56 183.87 C 484.38 176.60 484.56 169.33 484.58 162.06 C 482.91 162.03 481.23 162.00 479.57 161.98 M 479.41 192.02 C 479.41 199.34 479.36 206.66 479.30 213.98 C 480.97 213.98 482.63 213.99 484.31 214.01 C 484.36 206.67 484.40 199.33 484.41 191.99 C 482.73 192.00 481.07 192.01 479.41 192.02 M 479.27 222.02 C 479.25 229.34 479.22 236.66 479.17 243.99 C 480.83 243.99 482.49 243.99 484.17 244.00 C 484.22 236.67 484.25 229.33 484.27 221.99 C 482.60 222.00 480.93 222.01 479.27 222.02 M 494.51 222.00 C 494.49 231.50 494.50 241.00 494.51 250.50 C 495.38 250.50 497.13 250.49 498.00 250.49 C 498.12 246.02 497.73 241.54 498.18 237.09 C 499.02 233.06 505.55 231.76 506.99 236.04 C 508.10 240.75 507.22 245.69 507.51 250.50 C 508.38 250.50 510.12 250.50 511.00 250.50 C 510.62 245.03 511.94 239.24 509.97 234.00 C 507.68 229.21 500.72 229.83 497.94 233.84 C 498.04 229.89 497.99 225.95 498.00 222.00 C 497.12 222.00 495.38 222.00 494.51 222.00 M 479.14 252.01 C 479.10 259.33 479.07 266.65 479.04 273.98 C 480.69 273.98 482.35 273.99 484.02 274.00 C 484.09 266.67 484.10 259.33 484.14 252.00 C 482.46 252.00 480.80 252.01 479.14 252.01 M 479.01 282.00 C 478.96 289.32 478.92 296.64 478.90 303.96 C 480.56 303.97 482.23 303.98 483.90 304.00 C 483.93 296.67 483.95 289.33 484.00 282.00 C 482.33 282.00 480.67 282.00 479.01 282.00 M 456.12 306.28 C 456.22 307.94 456.33 309.61 456.45 311.28 C 463.01 310.86 469.59 310.60 476.16 310.50 C 476.14 308.83 476.12 307.16 476.11 305.50 C 469.44 305.60 462.77 305.88 456.12 306.28 M 486.09 305.49 C 486.07 307.16 486.07 308.83 486.07 310.51 C 492.64 310.58 499.21 310.86 505.77 311.25 C 505.87 309.59 505.98 307.93 506.09 306.27 C 499.43 305.84 492.76 305.62 486.09 305.49 M 516.06 307.04 C 515.90 308.70 515.75 310.36 515.60 312.03 C 522.14 312.65 528.67 313.43 535.17 314.38 C 535.41 312.73 535.65 311.08 535.91 309.43 C 529.31 308.46 522.69 307.70 516.06 307.04 M 426.30 309.48 C 426.54 311.12 426.79 312.77 427.04 314.43 C 433.54 313.47 440.06 312.68 446.60 312.05 C 446.45 310.39 446.30 308.73 446.15 307.07 C 439.52 307.73 432.89 308.49 426.30 309.48 M 396.88 315.30 C 397.28 316.91 397.68 318.53 398.08 320.15 C 404.45 318.59 410.86 317.22 417.31 316.04 C 417.01 314.39 416.72 312.75 416.43 311.12 C 409.87 312.31 403.35 313.71 396.88 315.30 M 545.72 311.11 C 545.45 312.73 545.18 314.36 544.92 315.99 C 551.36 317.16 557.77 318.53 564.14 320.07 C 564.53 318.45 564.93 316.84 565.34 315.22 C 558.84 313.67 552.32 312.19 545.72 311.11 M 478.86 312.00 C 478.81 319.32 478.78 326.64 478.76 333.96 C 480.42 333.96 482.09 333.98 483.77 334.00 C 483.77 326.67 483.81 319.34 483.87 312.01 C 482.19 312.01 480.52 312.00 478.86 312.00 M 368.22 324.14 C 368.80 325.69 369.38 327.23 369.97 328.78 C 376.10 326.54 382.29 324.46 388.57 322.71 C 388.11 321.09 387.66 319.49 387.22 317.88 C 380.80 319.71 374.46 321.79 368.22 324.14 M 574.99 317.79 C 574.53 319.42 574.10 321.06 573.68 322.70 C 579.99 324.32 586.14 326.49 592.27 328.69 C 592.84 327.12 593.42 325.57 594.00 324.01 C 587.75 321.69 581.40 319.64 574.99 317.79 M 341.00 336.55 C 341.79 338.02 342.58 339.49 343.38 340.96 C 349.08 337.81 354.95 335.00 360.91 332.37 C 360.23 330.85 359.57 329.34 358.92 327.83 C 352.79 330.40 346.85 333.39 341.00 336.55 M 603.30 327.71 C 602.65 329.24 601.99 330.77 601.35 332.30 C 607.31 334.87 613.16 337.68 618.84 340.82 C 619.64 339.36 620.45 337.91 621.27 336.46 C 615.44 333.22 609.43 330.33 603.30 327.71 M 478.72 341.98 C 478.68 349.30 478.63 356.63 478.62 363.96 C 480.28 363.96 481.95 363.97 483.62 363.98 C 483.63 356.66 483.68 349.34 483.73 342.03 C 482.05 342.01 480.38 341.99 478.72 341.98 M 577.09 365.38 C 577.04 364.09 576.99 362.81 576.94 361.54 C 576.18 361.53 574.67 361.51 573.91 361.50 C 574.08 368.01 573.96 374.52 574.00 381.03 C 575.18 380.99 576.36 380.95 577.54 380.91 C 577.63 376.60 577.11 372.24 577.83 367.98 C 578.42 365.33 581.10 364.11 583.61 364.11 C 583.60 363.28 583.57 361.62 583.56 360.79 C 580.60 360.87 578.18 362.64 577.09 365.38 M 478.57 371.96 C 478.55 376.98 478.51 382.00 478.52 387.03 C 480.17 386.99 481.84 386.98 483.52 386.96 C 483.51 381.98 483.54 377.01 483.58 372.04 C 481.91 372.01 480.23 371.98 478.57 371.96 M 475.97 393.00 C 476.10 398.85 484.90 400.45 487.74 395.64 C 489.01 394.83 490.35 393.90 491.95 394.03 C 500.53 393.93 509.12 394.06 517.71 393.98 C 517.70 392.32 517.70 390.67 517.71 389.02 C 511.82 388.98 505.94 389.00 500.05 389.00 C 495.71 389.09 491.17 388.41 487.07 390.25 L 487.13 389.30 C 483.50 385.92 476.16 387.56 475.97 393.00 M 527.00 389.00 C 527.00 390.66 527.00 392.33 527.00 394.00 C 536.40 394.00 545.80 394.01 555.20 393.99 C 555.19 392.33 555.19 390.66 555.20 389.01 C 545.80 388.99 536.40 389.00 527.00 389.00 M 564.50 389.00 C 564.50 390.66 564.50 392.33 564.50 394.00 C 573.90 393.99 583.30 394.02 592.71 393.98 C 592.70 392.33 592.71 390.67 592.72 389.03 C 583.31 388.97 573.91 389.01 564.50 389.00 M 602.00 389.00 C 602.00 390.66 601.99 392.33 602.00 394.00 C 611.40 394.00 620.80 394.01 630.20 393.99 C 630.19 392.33 630.19 390.66 630.20 389.01 C 620.80 388.99 611.40 389.00 602.00 389.00 M 461.45 401.56 C 451.69 404.47 449.81 418.71 456.36 425.60 C 461.14 430.61 470.33 429.89 474.24 424.17 C 477.64 419.20 477.81 412.30 475.13 406.98 C 472.72 402.10 466.52 399.91 461.45 401.56 Z" />
<path fill="#c0defd" opacity="1.00" d=" M 462.27 404.19 C 466.21 402.70 470.69 405.09 472.20 408.89 C 474.37 413.97 473.89 420.86 469.50 424.64 C 465.63 427.81 459.34 425.95 457.54 421.36 C 454.86 415.71 455.84 406.79 462.27 404.19 Z" />
</g>
<g id="#f15e5eff">
<path fill="#f15e5e" opacity="1.00" d=" M 494.51 222.00 C 495.38 222.00 497.12 222.00 498.00 222.00 C 497.99 225.95 498.04 229.89 497.94 233.84 C 500.72 229.83 507.68 229.21 509.97 234.00 C 511.94 239.24 510.62 245.03 511.00 250.50 C 510.12 250.50 508.38 250.50 507.51 250.50 C 507.22 245.69 508.10 240.75 506.99 236.04 C 505.55 231.76 499.02 233.06 498.18 237.09 C 497.73 241.54 498.12 246.02 498.00 250.49 C 497.13 250.49 495.38 250.50 494.51 250.50 C 494.50 241.00 494.49 231.50 494.51 222.00 Z" />
</g>
<g id="#007bffff">
<path fill="#007bff" opacity="1.00" d=" M 577.09 365.38 C 578.18 362.64 580.60 360.87 583.56 360.79 C 583.57 361.62 583.60 363.28 583.61 364.11 C 581.10 364.11 578.42 365.33 577.83 367.98 C 577.11 372.24 577.63 376.60 577.54 380.91 C 576.36 380.95 575.18 380.99 574.00 381.03 C 573.96 374.52 574.08 368.01 573.91 361.50 C 574.67 361.51 576.18 361.53 576.94 361.54 C 576.99 362.81 577.04 364.09 577.09 365.38 Z" />
<path fill="#007bff" opacity="1.00" d=" M 487.07 390.25 C 491.17 388.41 495.71 389.09 500.05 389.00 C 505.94 389.00 511.82 388.98 517.71 389.02 C 517.70 390.67 517.70 392.32 517.71 393.98 C 509.12 394.06 500.53 393.93 491.95 394.03 C 490.35 393.90 489.01 394.83 487.74 395.64 C 486.83 393.97 486.99 392.06 487.07 390.25 Z" />
<path fill="#007bff" opacity="1.00" d=" M 527.00 389.00 C 536.40 389.00 545.80 388.99 555.20 389.01 C 555.19 390.66 555.19 392.33 555.20 393.99 C 545.80 394.01 536.40 394.00 527.00 394.00 C 527.00 392.33 527.00 390.66 527.00 389.00 Z" />
<path fill="#007bff" opacity="1.00" d=" M 564.50 389.00 C 573.91 389.01 583.31 388.97 592.72 389.03 C 592.71 390.67 592.70 392.33 592.71 393.98 C 583.30 394.02 573.90 393.99 564.50 394.00 C 564.50 392.33 564.50 390.66 564.50 389.00 Z" />
<path fill="#007bff" opacity="1.00" d=" M 602.00 389.00 C 611.40 389.00 620.80 388.99 630.20 389.01 C 630.19 390.66 630.19 392.33 630.20 393.99 C 620.80 394.01 611.40 394.00 602.00 394.00 C 601.99 392.33 602.00 390.66 602.00 389.00 Z" />
<path fill="#007bff" opacity="1.00" d=" M 639.51 389.00 C 646.26 388.99 653.02 389.00 659.79 389.00 C 661.35 389.00 662.92 389.00 664.50 389.00 C 664.49 390.66 664.49 392.33 664.50 394.00 C 663.12 393.99 661.76 393.99 660.40 394.00 C 653.43 394.00 646.47 394.00 639.50 394.00 C 639.49 392.33 639.49 390.66 639.51 389.00 Z" />
</g>
</svg>
