<?xml version="1.0" encoding="UTF-8" ?>
<!DOCTYPE svg PUBLIC "-//W3C//DTD SVG 1.1//EN" "http://www.w3.org/Graphics/SVG/1.1/DTD/svg11.dtd">
<svg width="960pt" height="540pt" viewBox="0 0 960 540" version="1.1" xmlns="http://www.w3.org/2000/svg">
<g id="#000000eb">
<path fill="#000000" opacity="0.92" d=" M 444.10 20.96 C 445.68 21.14 447.92 20.37 448.71 22.24 C 449.57 29.00 453.40 34.99 454.29 41.77 C 454.67 42.11 455.42 42.79 455.80 43.13 C 456.30 35.77 460.56 29.37 462.35 22.30 C 462.85 20.29 467.41 20.24 465.85 22.94 C 463.01 31.31 460.19 39.71 456.76 47.86 C 455.58 48.05 454.41 48.06 453.24 47.87 C 450.04 38.96 447.17 29.93 444.10 20.96 Z" />
</g>
<g id="#050506f9">
<path fill="#050506" opacity="0.98" d=" M 481.00 64.00 C 481.67 62.66 483.93 59.49 484.41 62.65 C 526.41 136.87 568.84 210.86 610.95 285.03 C 628.26 315.71 646.23 346.03 663.01 376.99 C 665.41 380.25 664.34 384.45 665.89 388.01 C 663.93 388.03 661.97 388.01 660.03 387.99 C 659.89 387.44 659.61 386.35 659.47 385.80 C 657.22 374.49 648.99 365.79 644.77 355.27 C 643.80 355.80 642.90 356.42 641.95 356.94 C 636.92 353.34 632.32 349.16 627.13 345.77 C 627.95 344.38 628.83 342.99 629.97 341.83 C 633.95 343.80 636.81 347.76 641.08 349.10 C 640.27 345.36 637.79 342.29 636.07 338.96 C 585.40 249.64 534.22 160.61 483.74 71.19 C 480.60 72.80 479.39 77.37 477.31 80.31 C 424.64 170.65 371.58 260.79 319.00 351.17 C 323.97 349.23 327.19 344.34 332.03 342.07 C 333.79 342.00 334.13 344.62 334.96 345.87 C 329.90 349.43 325.28 353.63 320.05 356.92 C 319.04 356.39 318.12 355.74 317.12 355.22 C 314.83 358.27 312.86 361.65 312.38 365.54 C 306.65 374.36 300.19 383.92 300.97 395.00 C 301.13 410.28 310.64 423.53 321.23 433.76 C 335.95 446.59 353.55 455.56 371.80 462.25 C 399.36 472.26 428.57 477.28 457.78 479.21 C 462.20 480.02 466.73 479.98 471.22 479.81 C 503.03 480.92 535.00 477.53 565.87 469.76 C 589.06 463.45 612.00 454.74 631.67 440.65 C 644.95 430.27 658.05 416.75 660.22 399.23 C 659.73 394.29 661.97 392.53 666.94 393.95 C 666.35 397.52 666.26 401.16 665.70 404.74 C 663.21 408.68 660.71 412.93 660.60 417.72 C 656.63 424.06 653.00 431.48 646.07 435.11 C 641.97 436.40 641.96 441.52 638.04 443.05 C 631.72 449.31 622.39 451.16 615.96 457.01 C 604.11 463.26 591.16 466.61 578.84 471.76 C 536.15 483.57 491.37 487.32 447.28 483.69 C 415.66 480.62 384.11 473.96 355.00 460.99 C 339.76 453.35 324.14 445.29 312.74 432.27 C 305.41 425.83 301.30 416.96 297.99 408.01 C 293.57 395.16 296.38 381.11 302.43 369.33 C 361.92 267.55 421.61 165.85 481.00 64.00 Z" />
</g>
<g id="#c0ddfcff">
<path fill="#c0ddfc" opacity="1.00" d=" M 477.31 80.31 C 479.39 77.37 480.60 72.80 483.74 71.19 C 534.22 160.61 585.40 249.64 636.07 338.96 C 637.79 342.29 640.27 345.36 641.08 349.10 C 636.81 347.76 633.95 343.80 629.97 341.83 C 628.83 342.99 627.95 344.38 627.13 345.77 C 632.32 349.16 636.92 353.34 641.95 356.94 C 642.90 356.42 643.80 355.80 644.77 355.27 C 648.99 365.79 657.22 374.49 659.47 385.80 C 659.30 386.30 658.97 387.31 658.80 387.81 C 654.17 388.02 649.60 388.00 645.00 388.02 C 638.28 388.48 631.28 386.84 624.73 388.74 C 612.92 389.47 601.06 388.44 589.26 389.27 C 582.83 389.04 576.41 388.94 570.00 389.00 C 562.98 388.99 555.99 388.96 549.00 389.01 C 541.98 388.98 535.00 388.97 528.00 389.01 C 520.28 389.39 512.32 388.04 504.74 389.71 C 498.86 390.01 492.98 390.05 487.12 389.94 C 484.61 385.63 475.67 387.64 475.97 393.00 C 475.84 398.96 485.42 400.22 487.97 395.35 C 493.54 395.03 499.14 394.97 504.74 394.69 C 512.81 395.04 520.91 395.06 529.00 394.99 C 535.66 394.99 542.33 395.04 549.00 394.99 C 555.99 395.00 563.00 395.03 570.00 394.99 C 576.70 394.54 583.68 396.08 590.26 394.29 C 601.73 393.51 613.27 394.55 624.74 393.71 C 630.48 393.93 636.23 394.04 642.00 394.00 C 647.98 394.02 653.98 393.99 659.98 394.00 C 660.04 395.74 660.13 397.48 660.22 399.23 C 658.05 416.75 644.95 430.27 631.67 440.65 C 612.00 454.74 589.06 463.45 565.87 469.76 C 535.00 477.53 503.03 480.92 471.22 479.81 C 466.77 478.92 462.26 479.01 457.78 479.21 C 428.57 477.28 399.36 472.26 371.80 462.25 C 353.55 455.56 335.95 446.59 321.23 433.76 C 310.64 423.53 301.13 410.28 300.97 395.00 C 300.19 383.92 306.65 374.36 312.38 365.54 C 312.86 361.65 314.83 358.27 317.12 355.22 C 318.12 355.74 319.04 356.39 320.05 356.92 C 325.28 353.63 329.90 349.43 334.96 345.87 C 334.13 344.62 333.79 342.00 332.03 342.07 C 327.19 344.34 323.97 349.23 319.00 351.17 C 371.58 260.79 424.64 170.65 477.31 80.31 M 465.00 305.01 L 465.00 305.99 C 461.15 306.72 452.34 302.75 456.00 310.97 C 458.93 311.10 461.80 310.94 464.75 310.71 C 467.57 310.78 473.20 310.91 476.01 310.97 L 475.97 309.94 C 476.04 308.62 476.04 307.31 475.98 306.01 L 476.00 305.02 C 473.25 305.02 467.75 305.01 465.00 305.01 M 485.99 305.02 L 486.02 306.01 C 485.95 307.32 485.95 308.62 486.03 309.94 L 485.99 310.97 C 488.80 310.91 494.44 310.80 497.25 310.74 C 501.06 310.62 509.64 314.08 506.00 306.05 C 503.32 305.93 500.65 305.91 498.00 305.99 C 496.58 302.92 489.07 306.16 485.99 305.02 M 442.31 307.40 C 437.38 308.58 432.24 308.44 427.25 309.25 C 425.24 310.18 427.17 312.37 427.20 313.93 C 433.73 313.65 440.23 312.48 446.77 311.99 C 446.25 309.16 446.18 305.42 442.31 307.40 M 516.01 307.01 L 516.06 311.77 C 522.21 313.07 528.48 313.86 534.78 313.90 C 535.43 312.38 536.19 310.84 536.01 309.14 C 529.34 308.40 522.69 307.53 516.01 307.01 M 414.29 311.33 C 408.57 312.78 402.74 313.74 397.02 315.12 C 396.78 316.83 397.57 318.39 398.20 319.92 C 404.46 318.91 410.75 317.43 416.92 315.84 C 417.35 313.99 417.09 310.19 414.29 311.33 M 546.20 311.12 C 544.53 312.12 544.98 314.20 545.10 315.82 C 550.59 317.95 556.71 317.73 562.29 319.67 C 565.07 320.80 565.35 317.05 564.92 315.21 C 558.72 313.68 552.48 312.21 546.20 311.12 M 385.30 318.35 C 379.64 320.41 373.82 322.02 368.20 324.17 C 368.73 325.75 368.99 327.50 370.09 328.83 C 375.99 326.72 382.03 325.02 387.89 322.80 C 388.40 320.99 388.04 317.13 385.30 318.35 M 575.21 318.12 C 573.53 319.10 573.99 321.16 574.09 322.77 C 580.54 323.69 586.23 328.25 592.80 327.92 C 593.11 326.64 593.47 325.37 593.78 324.10 C 590.84 322.06 586.90 322.12 583.77 320.41 C 580.85 319.86 578.28 317.40 575.21 318.12 M 357.30 328.34 C 351.95 331.06 346.59 333.75 341.13 336.23 C 340.89 337.98 342.68 339.23 343.29 340.78 C 349.11 337.99 354.80 334.91 360.89 332.76 C 360.79 331.03 359.59 327.19 357.30 328.34 M 603.20 328.08 C 602.65 329.56 601.64 331.06 602.16 332.72 C 607.78 335.33 613.29 338.21 618.89 340.90 C 619.83 339.43 620.93 337.91 621.05 336.11 C 615.28 333.13 609.40 329.89 603.20 328.08 M 595.98 369.00 C 595.99 372.75 596.02 380.25 596.03 384.00 L 597.01 383.99 C 597.74 383.99 599.20 383.98 599.93 383.98 C 600.27 379.54 599.53 374.93 600.60 370.64 C 601.21 367.04 607.31 368.23 606.01 363.97 C 603.42 363.35 602.00 365.59 600.28 367.01 C 599.90 366.43 599.13 365.26 598.75 364.68 C 599.98 362.54 589.12 364.60 595.98 369.00 M 462.34 401.38 C 453.38 403.17 450.19 414.46 454.01 422.02 C 456.42 430.20 468.96 431.36 473.82 424.82 C 476.87 420.56 478.10 414.94 476.18 409.90 C 474.84 403.96 468.33 399.62 462.34 401.38 Z" />
</g>
<g id="#7b8ea1ff">
<path fill="#7b8ea1" opacity="1.00" d=" M 465.00 305.01 C 467.75 305.01 473.25 305.02 476.00 305.02 L 475.98 306.01 C 472.29 305.98 468.67 306.05 465.00 305.99 L 465.00 305.01 Z" />
</g>
<g id="#7d90a4ff">
<path fill="#7d90a4" opacity="1.00" d=" M 485.99 305.02 C 489.07 306.16 496.58 302.92 498.00 305.99 C 494.00 306.01 490.01 306.02 486.02 306.01 L 485.99 305.02 Z" />
</g>
<g id="#050607ff">
<path fill="#050607" opacity="1.00" d=" M 456.00 310.97 C 452.34 302.75 461.15 306.72 465.00 305.99 C 468.67 306.05 472.29 305.98 475.98 306.01 C 476.04 307.31 476.04 308.62 475.97 309.94 C 472.21 310.01 468.47 310.27 464.75 310.71 C 461.80 310.94 458.93 311.10 456.00 310.97 Z" />
<path fill="#050607" opacity="1.00" d=" M 475.97 393.00 C 475.67 387.64 484.61 385.63 487.12 389.94 C 487.15 391.76 486.73 393.79 487.97 395.35 C 485.42 400.22 475.84 398.96 475.97 393.00 Z" />
</g>
<g id="#040405ff">
<path fill="#040405" opacity="1.00" d=" M 486.02 306.01 C 490.01 306.02 494.00 306.01 498.00 305.99 C 500.65 305.91 503.32 305.93 506.00 306.05 C 509.64 314.08 501.06 310.62 497.25 310.74 C 493.52 310.25 489.78 309.98 486.03 309.94 C 485.95 308.62 485.95 307.32 486.02 306.01 Z" />
</g>
<g id="#0b0d0fff">
<path fill="#0b0d0f" opacity="1.00" d=" M 442.31 307.40 C 446.18 305.42 446.25 309.16 446.77 311.99 C 440.23 312.48 433.73 313.65 427.20 313.93 C 427.17 312.37 425.24 310.18 427.25 309.25 C 432.24 308.44 437.38 308.58 442.31 307.40 Z" />
</g>
<g id="#0c0d0fff">
<path fill="#0c0d0f" opacity="1.00" d=" M 516.01 307.01 C 522.69 307.53 529.34 308.40 536.01 309.14 C 536.19 310.84 535.43 312.38 534.78 313.90 C 528.48 313.86 522.21 313.07 516.06 311.77 L 516.01 307.01 Z" />
</g>
<g id="#45505bff">
<path fill="#45505b" opacity="1.00" d=" M 464.75 310.71 C 468.47 310.27 472.21 310.01 475.97 309.94 L 476.01 310.97 C 473.20 310.91 467.57 310.78 464.75 310.71 Z" />
</g>
<g id="#48535fff">
<path fill="#48535f" opacity="1.00" d=" M 486.03 309.94 C 489.78 309.98 493.52 310.25 497.25 310.74 C 494.44 310.80 488.80 310.91 485.99 310.97 L 486.03 309.94 Z" />
</g>
<g id="#0d0f11ff">
<path fill="#0d0f11" opacity="1.00" d=" M 414.29 311.33 C 417.09 310.19 417.35 313.99 416.92 315.84 C 410.75 317.43 404.46 318.91 398.20 319.92 C 397.57 318.39 396.78 316.83 397.02 315.12 C 402.74 313.74 408.57 312.78 414.29 311.33 Z" />
<path fill="#0d0f11" opacity="1.00" d=" M 385.30 318.35 C 388.04 317.13 388.40 320.99 387.89 322.80 C 382.03 325.02 375.99 326.72 370.09 328.83 C 368.99 327.50 368.73 325.75 368.20 324.17 C 373.82 322.02 379.64 320.41 385.30 318.35 Z" />
</g>
<g id="#0c0e10ff">
<path fill="#0c0e10" opacity="1.00" d=" M 546.20 311.12 C 552.48 312.21 558.72 313.68 564.92 315.21 C 565.35 317.05 565.07 320.80 562.29 319.67 C 556.71 317.73 550.59 317.95 545.10 315.82 C 544.98 314.20 544.53 312.12 546.20 311.12 Z" />
<path fill="#0c0e10" opacity="1.00" d=" M 575.21 318.12 C 578.28 317.40 580.85 319.86 583.77 320.41 C 586.90 322.12 590.84 322.06 593.78 324.10 C 593.47 325.37 593.11 326.64 592.80 327.92 C 586.23 328.25 580.54 323.69 574.09 322.77 C 573.99 321.16 573.53 319.10 575.21 318.12 Z" />
<path fill="#0c0e10" opacity="1.00" d=" M 357.30 328.34 C 359.59 327.19 360.79 331.03 360.89 332.76 C 354.80 334.91 349.11 337.99 343.29 340.78 C 342.68 339.23 340.89 337.98 341.13 336.23 C 346.59 333.75 351.95 331.06 357.30 328.34 Z" />
</g>
<g id="#0f1114ff">
<path fill="#0f1114" opacity="1.00" d=" M 603.20 328.08 C 609.40 329.89 615.28 333.13 621.05 336.11 C 620.93 337.91 619.83 339.43 618.89 340.90 C 613.29 338.21 607.78 335.33 602.16 332.72 C 601.64 331.06 602.65 329.56 603.20 328.08 Z" />
</g>
<g id="#617080ff">
<path fill="#617080" opacity="1.00" d=" M 595.98 369.00 C 589.12 364.60 599.98 362.54 598.75 364.68 C 598.35 364.85 597.56 365.21 597.17 365.39 C 596.86 371.57 596.98 377.79 597.01 383.99 L 596.03 384.00 C 596.02 380.25 595.99 372.75 595.98 369.00 Z" />
</g>
<g id="#080a0bff">
<path fill="#080a0b" opacity="1.00" d=" M 600.28 367.01 C 602.00 365.59 603.42 363.35 606.01 363.97 C 607.31 368.23 601.21 367.04 600.60 370.64 C 599.53 374.93 600.27 379.54 599.93 383.98 C 599.20 383.98 597.74 383.99 597.01 383.99 C 596.98 377.79 596.86 371.57 597.17 365.39 C 597.56 365.21 598.35 364.85 598.75 364.68 C 599.13 365.26 599.90 366.43 600.28 367.01 Z" />
</g>
<g id="#000000e9">
<path fill="#000000" opacity="0.91" d=" M 745.19 377.11 C 746.40 376.95 747.62 376.95 748.85 377.09 C 752.44 384.66 753.83 393.06 757.40 400.66 C 758.10 402.00 758.02 403.54 758.01 405.01 C 750.71 406.64 755.78 392.03 747.01 395.99 C 738.61 392.19 743.48 406.77 735.94 405.00 C 738.73 395.66 742.12 386.40 745.19 377.11 M 747.06 382.01 C 745.67 384.91 744.76 388.03 743.80 391.09 C 742.79 391.25 742.54 392.20 743.04 393.95 C 745.27 393.33 751.13 396.39 751.07 393.03 C 750.46 389.16 748.76 385.48 747.06 382.01 Z" />
</g>
<g id="#00000012">
<path fill="#000000" opacity="0.07" d=" M 747.06 382.01 C 748.76 385.48 750.46 389.16 751.07 393.03 C 748.41 392.61 743.88 394.67 743.80 391.09 C 744.76 388.03 745.67 384.91 747.06 382.01 Z" />
</g>
<g id="#79b4f3ff">
<path fill="#79b4f3" opacity="1.00" d=" M 659.47 385.80 C 659.61 386.35 659.89 387.44 660.03 387.99 L 660.05 388.97 C 655.01 388.98 650.02 389.03 645.00 389.00 L 645.00 388.02 C 649.60 388.00 654.17 388.02 658.80 387.81 C 658.97 387.31 659.30 386.30 659.47 385.80 Z" />
</g>
<g id="#94c7feff">
<path fill="#94c7fe" opacity="1.00" d=" M 624.73 388.74 C 631.28 386.84 638.28 388.48 645.00 388.02 L 645.00 389.00 C 638.23 388.96 631.48 389.21 624.73 388.74 Z" />
</g>
<g id="#00438aab">
<path fill="#00438a" opacity="0.67" d=" M 660.03 387.99 C 661.97 388.01 663.93 388.03 665.89 388.01 C 672.24 388.06 678.62 387.83 685.00 388.04 L 685.00 389.00 C 676.67 388.99 668.36 389.04 660.05 388.97 L 660.03 387.99 Z" />
</g>
<g id="#0058b7b7">
<path fill="#0058b7" opacity="0.72" d=" M 685.00 388.04 C 690.65 387.91 696.32 387.91 702.00 388.04 L 702.00 389.02 C 696.32 389.02 690.65 389.02 685.00 389.00 L 685.00 388.04 Z" />
</g>
<g id="#0069dada">
<path fill="#0069da" opacity="0.85" d=" M 702.00 388.04 C 707.39 388.01 712.87 387.67 718.26 388.30 C 712.86 389.12 707.41 389.00 702.00 389.02 L 702.00 388.04 Z" />
</g>
<g id="#017bffff">
<path fill="#017bff" opacity="1.00" d=" M 718.26 388.30 C 721.01 387.98 723.96 387.86 726.79 388.07 C 727.06 389.73 727.36 391.39 727.80 393.03 C 724.48 393.01 721.28 393.03 718.00 393.00 C 712.64 392.95 707.33 392.97 702.00 393.00 C 696.32 392.97 690.65 392.97 685.00 393.00 C 678.99 392.98 673.00 392.95 667.01 392.99 C 665.26 393.00 661.74 393.00 659.98 393.01 C 653.97 392.98 647.98 392.97 642.00 393.00 C 636.24 393.05 630.41 392.62 624.74 393.71 C 613.27 394.55 601.73 393.51 590.26 394.29 C 583.49 394.02 576.75 393.93 570.00 394.00 C 562.98 393.99 555.99 393.96 549.00 394.01 C 542.32 393.98 535.66 393.96 529.00 394.01 C 520.95 394.50 512.64 392.87 504.74 394.69 C 499.14 394.97 493.54 395.03 487.97 395.35 C 486.73 393.79 487.15 391.76 487.12 389.94 C 492.98 390.05 498.86 390.01 504.74 389.71 C 512.48 390.03 520.24 390.06 528.00 390.00 C 534.99 389.99 542.00 390.03 549.00 389.99 C 555.99 390.00 563.00 390.02 570.00 389.99 C 576.35 389.53 583.04 391.08 589.26 389.27 C 601.06 388.44 612.92 389.47 624.73 388.74 C 631.48 389.21 638.23 388.96 645.00 389.00 C 650.02 389.03 655.01 388.98 660.05 388.97 C 668.36 389.04 676.67 388.99 685.00 389.00 C 690.65 389.02 696.32 389.02 702.00 389.02 C 707.41 389.00 712.86 389.12 718.26 388.30 Z" />
</g>
<g id="#91c6feff">
<path fill="#91c6fe" opacity="1.00" d=" M 504.74 389.71 C 512.32 388.04 520.28 389.39 528.00 389.01 L 528.00 390.00 C 520.24 390.06 512.48 390.03 504.74 389.71 Z" />
</g>
<g id="#6eb4feff">
<path fill="#6eb4fe" opacity="1.00" d=" M 528.00 389.01 C 535.00 388.97 541.98 388.98 549.00 389.01 L 549.00 389.99 C 542.00 390.03 534.99 389.99 528.00 390.00 L 528.00 389.01 Z" />
</g>
<g id="#4da2feff">
<path fill="#4da2fe" opacity="1.00" d=" M 549.00 389.01 C 555.99 388.96 562.98 388.99 570.00 389.00 L 570.00 389.99 C 563.00 390.02 555.99 390.00 549.00 389.99 L 549.00 389.01 Z" />
</g>
<g id="#2d92ffff">
<path fill="#2d92ff" opacity="1.00" d=" M 570.00 389.00 C 576.41 388.94 582.83 389.04 589.26 389.27 C 583.04 391.08 576.35 389.53 570.00 389.99 L 570.00 389.00 Z" />
</g>
<g id="#0000009e">
<path fill="#000000" opacity="0.62" d=" M 743.04 393.95 C 742.54 392.20 742.79 391.25 743.80 391.09 C 743.88 394.67 748.41 392.61 751.07 393.03 C 751.13 396.39 745.27 393.33 743.04 393.95 Z" />
</g>
<g id="#2a91ffff">
<path fill="#2a91ff" opacity="1.00" d=" M 624.74 393.71 C 630.41 392.62 636.24 393.05 642.00 393.00 L 642.00 394.00 C 636.23 394.04 630.48 393.93 624.74 393.71 Z" />
</g>
<g id="#469fffff">
<path fill="#469fff" opacity="1.00" d=" M 642.00 393.00 C 647.98 392.97 653.97 392.98 659.98 393.01 L 659.98 394.00 C 653.98 393.99 647.98 394.02 642.00 394.00 L 642.00 393.00 Z" />
</g>
<g id="#24507ef9">
<path fill="#24507e" opacity="0.98" d=" M 659.98 393.01 C 661.74 393.00 665.26 393.00 667.01 392.99 L 666.94 393.95 C 661.97 392.53 659.73 394.29 660.22 399.23 C 660.13 397.48 660.04 395.74 659.98 394.00 L 659.98 393.01 Z" />
</g>
<g id="#00356e6e">
<path fill="#00356e" opacity="0.43" d=" M 667.01 392.99 C 673.00 392.95 678.99 392.98 685.00 393.00 L 685.00 393.97 C 678.97 394.03 672.94 394.13 666.94 393.95 L 667.01 392.99 Z" />
</g>
<g id="#00234949">
<path fill="#002349" opacity="0.29" d=" M 685.00 393.00 C 690.65 392.97 696.32 392.97 702.00 393.00 L 702.00 393.97 C 696.32 394.07 690.65 394.07 685.00 393.97 L 685.00 393.00 Z" />
</g>
<g id="#00122626">
<path fill="#001226" opacity="0.15" d=" M 702.00 393.00 C 707.33 392.97 712.64 392.95 718.00 393.00 L 718.00 393.98 C 712.66 394.07 707.32 394.06 702.00 393.97 L 702.00 393.00 Z" />
</g>
<g id="#3094ffff">
<path fill="#3094ff" opacity="1.00" d=" M 504.74 394.69 C 512.64 392.87 520.95 394.50 529.00 394.01 L 529.00 394.99 C 520.91 395.06 512.81 395.04 504.74 394.69 Z" />
</g>
<g id="#53a6feff">
<path fill="#53a6fe" opacity="1.00" d=" M 529.00 394.01 C 535.66 393.96 542.32 393.98 549.00 394.01 L 549.00 394.99 C 542.33 395.04 535.66 394.99 529.00 394.99 L 529.00 394.01 Z" />
</g>
<g id="#73b7feff">
<path fill="#73b7fe" opacity="1.00" d=" M 549.00 394.01 C 555.99 393.96 562.98 393.99 570.00 394.00 L 570.00 394.99 C 563.00 395.03 555.99 395.00 549.00 394.99 L 549.00 394.01 Z" />
</g>
<g id="#94c8feff">
<path fill="#94c8fe" opacity="1.00" d=" M 570.00 394.00 C 576.75 393.93 583.49 394.02 590.26 394.29 C 583.68 396.08 576.70 394.54 570.00 394.99 L 570.00 394.00 Z" />
</g>
<g id="#101315ff">
<path fill="#101315" opacity="1.00" d=" M 462.34 401.38 C 468.33 399.62 474.84 403.96 476.18 409.90 C 478.10 414.94 476.87 420.56 473.82 424.82 C 468.96 431.36 456.42 430.20 454.01 422.02 C 450.19 414.46 453.38 403.17 462.34 401.38 M 462.30 404.27 C 455.15 407.28 454.61 417.54 458.75 423.26 C 462.15 427.70 470.76 427.01 472.02 421.03 C 475.41 414.27 472.05 401.04 462.30 404.27 Z" />
</g>
<g id="#bddaf9ff">
<path fill="#bddaf9" opacity="1.00" d=" M 462.30 404.27 C 472.05 401.04 475.41 414.27 472.02 421.03 C 470.76 427.01 462.15 427.70 458.75 423.26 C 454.61 417.54 455.15 407.28 462.30 404.27 Z" />
</g>
<g id="#697a8bff">
<path fill="#697a8b" opacity="1.00" d=" M 457.78 479.21 C 462.26 479.01 466.77 478.92 471.22 479.81 C 466.73 479.98 462.20 480.02 457.78 479.21 Z" />
</g>
</svg>
