<?xml version="1.0" encoding="UTF-8" ?>
<!DOCTYPE svg PUBLIC "-//W3C//DTD SVG 1.1//EN" "http://www.w3.org/Graphics/SVG/1.1/DTD/svg11.dtd">
<svg width="900pt" height="1080pt" viewBox="0 0 900 1080" version="1.1" xmlns="http://www.w3.org/2000/svg">
<g id="#017bfeff">
<path fill="#017bfe" opacity="1.00" d=" M 452.09 127.06 C 453.82 125.63 454.99 118.37 457.66 122.32 C 573.51 325.51 689.21 528.80 805.04 732.01 C 810.86 743.73 821.01 754.22 821.08 768.00 C 823.73 783.04 824.50 798.83 820.72 813.76 C 815.01 817.01 815.37 824.83 812.07 830.00 C 809.48 831.70 813.19 832.34 812.55 833.80 C 807.26 845.63 798.85 855.71 790.30 865.30 C 789.12 866.92 786.43 863.68 785.74 866.75 C 781.98 871.28 776.08 874.49 774.22 880.27 C 765.12 888.31 755.08 895.30 744.67 901.59 C 736.87 904.45 729.04 908.22 722.95 913.95 C 712.73 919.44 702.00 923.88 691.29 928.26 C 680.72 930.87 670.79 935.60 660.80 939.65 C 634.76 947.88 608.11 954.12 581.34 959.41 C 557.60 962.65 533.97 967.02 509.99 968.06 C 480.77 971.39 451.33 969.49 422.00 970.03 C 379.44 968.38 336.84 963.31 295.29 953.63 C 239.26 940.66 183.51 920.75 137.30 885.65 C 128.75 879.64 122.72 870.84 114.22 864.77 C 101.73 851.88 92.24 836.27 86.51 819.26 C 80.03 804.32 82.37 787.55 82.23 771.92 C 83.41 757.47 90.86 744.31 98.10 732.02 C 102.10 731.87 106.22 731.68 110.06 733.00 C 111.00 733.38 111.94 733.75 112.90 734.10 C 105.88 742.90 100.99 753.00 96.09 763.03 C 92.87 773.02 92.06 783.58 92.01 794.01 C 93.81 820.27 108.54 843.99 127.23 861.77 C 140.09 875.29 155.52 886.11 171.62 895.44 C 226.77 927.94 289.84 944.15 352.71 953.31 C 375.05 955.53 397.33 958.48 419.78 959.23 C 423.14 959.67 426.58 960.13 430.00 960.02 C 433.38 959.96 436.82 959.99 440.22 959.79 C 450.04 959.91 459.91 960.41 469.74 959.73 C 473.89 959.84 478.13 960.07 482.26 959.31 C 487.12 959.01 492.03 959.02 496.91 958.91 C 499.80 960.10 502.19 959.85 504.09 958.15 C 563.26 954.19 622.14 942.69 677.64 921.54 C 705.44 910.24 732.74 896.93 756.68 878.64 C 775.58 863.89 793.10 846.23 803.19 824.15 C 811.91 805.72 813.11 784.14 807.38 764.65 C 803.67 754.33 799.01 744.31 792.59 735.37 C 786.92 727.84 784.69 717.64 778.37 710.79 C 775.62 707.67 773.10 704.31 771.85 700.32 C 775.58 700.59 773.40 696.40 772.19 694.88 C 730.51 623.62 690.27 551.51 649.16 479.90 C 634.84 455.02 621.11 429.80 606.35 405.17 C 599.12 392.79 592.15 380.27 584.96 367.87 C 560.75 324.30 535.93 281.07 511.24 237.77 C 492.93 205.75 475.09 173.44 456.16 141.79 C 418.28 205.22 381.51 269.33 343.91 332.93 C 284.42 435.04 224.51 536.91 164.95 638.97 C 153.48 658.22 141.77 677.33 130.91 696.94 C 129.84 698.60 128.39 700.35 129.78 702.30 C 127.55 704.19 123.78 706.22 124.71 709.70 C 121.78 715.64 115.41 721.00 115.44 727.90 C 113.46 729.36 111.24 730.47 108.92 731.27 C 105.95 730.70 103.00 729.98 99.96 729.85 C 105.29 718.07 112.93 707.43 119.05 696.02 C 230.15 506.42 340.93 316.63 452.09 127.06 Z" />
</g>
<g id="#92d0ffff">
<path fill="#92d0ff" opacity="1.00" d=" M 456.16 141.79 C 475.09 173.44 492.93 205.75 511.24 237.77 C 535.93 281.07 560.75 324.30 584.96 367.87 C 584.52 367.93 583.65 368.05 583.22 368.11 C 584.55 372.31 585.90 376.49 587.40 380.64 C 593.44 387.54 597.46 395.84 602.74 403.26 C 603.78 404.14 604.76 406.35 606.35 405.17 C 621.11 429.80 634.84 455.02 649.16 479.90 C 690.27 551.51 730.51 623.62 772.19 694.88 C 773.40 696.40 775.58 700.59 771.85 700.32 C 765.38 693.87 757.85 688.56 749.98 683.98 C 747.29 685.74 746.09 689.33 744.09 691.84 C 755.21 698.27 764.54 707.21 774.79 714.85 C 776.06 713.57 777.23 712.19 778.37 710.79 C 784.69 717.64 786.92 727.84 792.59 735.37 C 799.01 744.31 803.67 754.33 807.38 764.65 C 813.11 784.14 811.91 805.72 803.19 824.15 C 793.10 846.23 775.58 863.89 756.68 878.64 C 732.74 896.93 705.44 910.24 677.64 921.54 C 622.14 942.69 563.26 954.19 504.09 958.15 C 501.07 956.76 498.68 957.02 496.91 958.91 C 492.03 959.02 487.12 959.01 482.26 959.31 C 478.08 959.15 473.83 958.77 469.74 959.73 C 459.91 960.41 450.04 959.91 440.22 959.79 C 436.81 959.23 433.43 958.89 430.00 958.98 C 426.56 958.91 423.19 959.04 419.78 959.23 C 397.33 958.48 375.05 955.53 352.71 953.31 C 289.84 944.15 226.77 927.94 171.62 895.44 C 155.52 886.11 140.09 875.29 127.23 861.77 C 108.54 843.99 93.81 820.27 92.01 794.01 C 92.06 783.58 92.87 773.02 96.09 763.03 C 100.99 753.00 105.88 742.90 112.90 734.10 C 114.20 732.23 116.80 730.45 115.44 727.90 C 115.41 721.00 121.78 715.64 124.71 709.70 C 126.57 711.37 128.42 713.06 130.27 714.77 C 133.73 711.74 137.17 708.70 140.88 705.98 C 146.58 706.11 150.90 701.18 153.94 696.84 C 155.44 695.58 158.44 693.08 159.94 691.82 C 158.61 689.03 156.55 686.70 154.80 684.20 C 146.05 689.64 137.62 695.60 129.78 702.30 C 128.39 700.35 129.84 698.60 130.91 696.94 C 141.77 677.33 153.48 658.22 164.95 638.97 C 224.51 536.91 284.42 435.04 343.91 332.93 C 381.51 269.33 418.28 205.22 456.16 141.79 M 452.03 151.00 C 451.93 157.67 451.93 164.34 452.03 171.01 L 453.01 170.97 C 454.75 170.97 458.22 170.98 459.96 170.99 C 460.06 164.33 460.06 157.67 459.97 151.02 C 458.23 151.02 454.75 151.01 453.01 151.01 L 452.03 151.00 M 452.03 181.00 C 451.93 187.67 451.93 194.34 452.03 201.02 L 453.01 200.95 C 454.99 201.07 456.98 201.07 458.97 200.96 L 459.97 201.01 C 460.10 195.25 460.04 189.49 459.73 183.75 C 461.45 179.34 456.11 180.92 453.01 181.01 L 452.03 181.00 M 452.03 210.98 C 451.93 217.66 451.93 224.34 452.03 231.02 L 453.01 230.95 C 454.99 231.07 457.00 231.07 458.99 230.95 L 459.97 231.02 C 460.05 224.34 460.05 217.66 459.97 210.98 L 458.99 211.05 C 457.00 210.93 454.99 210.93 453.01 211.05 L 452.03 210.98 M 452.03 240.98 C 451.93 247.66 451.93 254.34 452.03 261.02 L 453.01 260.95 C 454.99 261.07 457.00 261.07 458.99 260.95 L 459.97 261.02 C 460.05 254.34 460.05 247.66 459.97 240.98 L 458.99 241.05 C 457.00 240.93 454.99 240.93 453.01 241.05 L 452.03 240.98 M 452.03 270.98 C 451.93 277.66 451.93 284.34 452.03 291.02 L 453.01 290.95 C 454.99 291.07 457.00 291.07 458.99 290.95 L 459.97 291.02 C 460.05 284.34 460.05 277.66 459.97 270.98 L 458.99 271.05 C 457.00 270.93 454.99 270.93 453.01 271.05 L 452.03 270.98 M 452.06 301.05 C 451.93 307.70 451.92 314.36 452.03 321.02 L 453.00 320.95 C 454.99 321.07 456.99 321.07 458.99 320.95 L 459.97 321.02 C 460.05 314.33 460.05 307.66 459.97 300.98 L 458.99 301.06 C 457.27 300.93 455.54 300.90 453.83 300.95 C 453.39 300.97 452.50 301.02 452.06 301.05 M 452.03 331.03 C 451.93 337.69 451.93 344.35 452.03 351.02 L 453.01 350.95 C 454.99 351.07 457.00 351.07 458.99 350.95 L 459.97 351.02 C 460.05 344.34 460.06 337.67 459.97 331.00 L 458.99 331.01 C 457.71 330.93 456.43 330.95 455.16 331.06 C 454.38 331.06 452.81 331.04 452.03 331.03 M 452.38 365.92 C 451.38 370.87 452.14 376.01 452.18 381.03 C 452.95 382.85 458.03 382.82 458.87 381.05 L 459.92 380.98 C 460.05 374.31 460.07 367.66 459.98 361.00 L 459.00 361.00 C 457.59 360.93 456.20 360.98 454.81 361.17 C 451.64 359.47 451.03 364.00 452.38 365.92 M 452.20 391.93 C 451.63 398.27 452.01 404.67 452.18 411.03 C 452.95 412.85 458.04 412.82 458.87 411.05 L 459.92 410.98 C 460.12 404.30 460.07 397.62 459.78 390.95 L 458.92 391.43 C 457.09 390.65 453.19 390.06 452.20 391.93 M 452.20 421.93 C 451.63 428.27 452.01 434.67 452.18 441.03 C 452.95 442.85 458.04 442.82 458.87 441.05 L 459.92 440.98 C 460.12 434.30 460.07 427.62 459.78 420.95 L 458.92 421.43 C 457.09 420.65 453.19 420.06 452.20 421.93 M 451.23 450.95 C 450.92 457.62 450.87 464.29 451.07 470.98 L 452.12 471.05 C 452.98 472.83 458.00 472.83 458.87 471.05 L 459.92 470.98 C 460.12 464.30 460.07 457.62 459.78 450.95 L 458.91 451.42 C 456.85 450.55 454.15 450.55 452.10 451.41 L 451.23 450.95 M 451.23 480.95 C 450.92 487.62 450.87 494.29 451.07 500.98 L 452.12 501.05 C 452.98 502.83 458.00 502.83 458.87 501.05 L 459.92 500.98 C 460.12 494.30 460.07 487.62 459.78 480.95 L 458.91 481.42 C 456.85 480.55 454.15 480.55 452.10 481.41 L 451.23 480.95 M 451.22 510.95 C 450.92 517.62 450.87 524.29 451.07 530.98 L 452.12 531.05 C 452.96 532.82 458.05 532.85 458.81 531.03 C 459.36 524.68 458.98 518.27 458.81 511.94 C 457.81 510.06 453.91 510.65 452.09 511.42 L 451.22 510.95 M 451.22 540.95 C 450.92 547.62 450.87 554.29 451.07 560.98 L 452.12 561.05 C 452.96 562.82 458.05 562.85 458.81 561.03 C 459.36 554.68 458.98 548.27 458.81 541.94 C 457.81 540.06 453.91 540.65 452.09 541.42 L 451.22 540.95 M 451.18 570.97 C 450.67 577.63 451.06 584.32 451.03 591.00 L 451.01 591.95 C 453.37 591.52 458.22 593.22 458.96 591.00 C 459.07 586.90 458.99 582.82 458.72 578.75 C 458.74 577.05 458.80 573.64 458.83 571.94 C 457.80 570.06 453.92 570.65 452.09 571.41 L 451.18 570.97 M 451.05 601.02 C 450.83 607.68 450.99 614.33 451.03 621.00 L 451.01 621.95 C 453.36 621.53 458.25 623.21 458.94 621.00 C 459.15 614.34 458.98 607.66 458.97 601.02 C 457.23 601.01 453.74 601.00 452.00 600.99 L 451.05 601.02 M 408.02 612.93 C 399.51 609.19 404.51 619.10 403.03 622.01 C 405.70 621.91 411.04 621.71 413.71 621.62 C 416.14 621.56 421.12 623.28 422.00 620.98 C 428.65 620.99 435.30 621.07 441.97 620.96 C 441.99 618.53 442.03 613.68 442.04 611.25 C 430.76 612.87 419.29 611.14 408.02 612.93 M 462.06 610.97 C 461.88 614.08 462.06 617.13 462.35 620.27 L 462.15 621.01 C 469.43 621.07 476.71 620.94 484.00 620.97 C 484.86 623.30 489.81 621.49 492.26 621.74 C 495.14 622.21 497.92 621.89 500.88 621.96 C 501.23 618.97 501.74 616.09 501.99 613.12 C 491.63 612.14 481.23 611.63 470.82 612.01 C 470.04 609.79 465.84 610.64 464.02 611.44 L 463.13 611.14 L 462.06 610.97 M 373.34 615.56 C 363.22 616.74 353.10 618.04 342.97 619.09 C 343.30 622.11 344.34 624.86 344.13 628.01 C 357.11 626.80 369.99 624.24 383.05 623.89 C 382.72 620.96 381.58 618.01 381.88 615.05 C 379.05 614.85 376.11 615.08 373.34 615.56 M 522.06 615.00 C 521.89 617.98 521.94 620.81 522.04 623.85 C 533.07 624.79 544.03 626.30 554.98 627.91 C 561.98 631.55 560.44 622.17 560.98 619.14 C 548.08 617.29 535.11 615.04 522.06 615.00 M 318.33 623.44 C 306.87 625.63 295.47 628.09 284.17 631.00 C 285.00 633.92 285.82 636.86 286.21 639.89 C 298.72 636.84 311.31 634.11 323.98 631.81 C 323.24 628.25 325.38 619.40 318.33 623.44 M 582.21 623.10 C 580.85 625.85 580.64 628.90 580.21 631.92 C 592.88 633.78 605.41 636.63 617.83 639.74 C 618.50 636.88 619.36 634.05 619.93 631.17 C 617.30 629.03 613.28 629.97 610.35 628.52 C 600.98 626.71 591.76 623.72 582.21 623.10 M 451.05 631.02 C 450.83 637.68 450.99 644.33 451.03 651.00 L 451.01 651.95 C 453.36 651.53 458.25 653.21 458.94 651.00 C 459.15 644.34 458.98 637.66 458.97 631.02 C 457.23 631.01 453.74 631.00 452.00 630.99 L 451.05 631.02 M 263.27 636.41 C 251.03 639.80 239.09 644.17 227.08 648.25 C 227.55 651.30 229.05 654.08 230.26 656.89 C 239.88 654.20 249.10 650.15 258.76 647.57 C 260.99 644.44 269.83 648.70 265.50 641.33 C 264.94 639.80 265.46 636.22 263.27 636.41 M 640.26 636.05 C 639.78 639.00 637.99 641.72 638.10 644.75 C 649.94 649.04 662.04 652.59 673.86 656.95 C 675.49 654.36 676.97 651.34 676.91 648.22 C 664.92 643.45 652.49 639.84 640.26 636.05 M 207.20 656.39 C 195.48 661.23 183.82 666.51 172.98 673.16 C 173.71 675.85 175.10 678.33 176.19 680.90 C 178.10 681.45 179.69 680.13 181.23 679.25 C 190.60 673.38 201.08 669.65 210.97 664.85 C 210.20 662.08 209.27 657.69 207.20 656.39 M 697.09 656.12 C 695.28 658.77 694.56 661.96 693.18 664.83 C 704.66 669.07 715.65 674.62 726.29 680.67 C 729.93 681.51 730.08 675.15 731.93 673.03 C 720.39 667.23 708.99 661.13 697.09 656.12 M 451.07 661.02 C 450.81 667.67 451.00 674.33 451.03 681.00 L 451.01 681.95 C 453.36 681.53 458.25 683.21 458.94 681.00 C 459.15 674.35 458.98 667.68 458.96 661.05 C 456.33 660.91 453.69 660.90 451.07 661.02 M 451.07 691.02 C 450.82 697.67 451.00 704.33 451.03 711.00 L 451.01 711.95 C 453.36 711.53 458.25 713.21 458.94 711.00 C 459.15 704.34 458.98 697.64 458.97 690.99 L 458.00 691.01 C 456.27 691.01 452.80 691.01 451.07 691.02 M 451.23 721.78 C 450.61 728.22 451.01 734.73 451.23 741.20 C 452.12 742.74 456.87 742.65 457.85 741.15 L 458.91 740.96 C 459.12 734.28 459.08 727.61 458.78 720.96 L 457.89 721.38 C 456.03 720.80 452.33 720.15 451.23 721.78 M 451.42 751.99 C 450.23 754.02 450.50 756.86 451.44 758.96 C 450.90 762.95 450.82 766.98 451.18 771.03 C 451.95 772.85 457.03 772.82 457.87 771.05 L 458.92 770.98 C 459.12 764.29 459.07 757.62 458.78 750.96 L 457.90 751.38 C 456.15 750.82 452.10 750.01 451.42 751.99 M 453.29 775.36 C 446.21 775.59 440.33 783.18 443.11 789.95 C 447.33 799.37 464.01 798.69 466.20 788.10 C 468.24 781.11 460.26 773.93 453.29 775.36 Z" />
</g>
<g id="#597f9bff">
<path fill="#597f9b" opacity="1.00" d=" M 452.03 151.00 L 453.01 151.01 C 452.99 157.66 452.99 164.32 453.01 170.97 L 452.03 171.01 C 451.93 164.34 451.93 157.67 452.03 151.00 Z" />
</g>
<g id="#010101ff">
<path fill="#010101" opacity="1.00" d=" M 453.01 151.01 C 454.75 151.01 458.23 151.02 459.97 151.02 C 460.06 157.67 460.06 164.33 459.96 170.99 C 458.22 170.98 454.75 170.97 453.01 170.97 C 452.99 164.32 452.99 157.66 453.01 151.01 Z" />
<path fill="#010101" opacity="1.00" d=" M 453.01 241.05 C 454.99 240.93 457.00 240.93 458.99 241.05 C 458.99 247.68 459.00 254.31 458.99 260.95 C 457.00 261.07 454.99 261.07 453.01 260.95 C 452.99 254.31 452.99 247.68 453.01 241.05 Z" />
<path fill="#010101" opacity="1.00" d=" M 453.01 271.05 C 454.99 270.93 457.00 270.93 458.99 271.05 C 458.99 277.68 459.00 284.31 458.99 290.95 C 457.00 291.07 454.99 291.07 453.01 290.95 C 452.99 284.31 452.99 277.68 453.01 271.05 Z" />
<path fill="#010101" opacity="1.00" d=" M 451.99 752.16 C 453.95 752.06 455.91 752.03 457.88 751.94 C 458.07 758.30 457.99 764.66 457.87 771.05 C 456.20 771.05 452.85 771.04 451.18 771.03 C 450.82 766.98 450.90 762.95 451.44 758.96 C 452.18 756.68 452.36 754.41 451.99 752.16 Z" />
</g>
<g id="#4d6f87ff">
<path fill="#4d6f87" opacity="1.00" d=" M 452.03 181.00 L 453.01 181.01 C 452.99 187.65 452.99 194.30 453.01 200.95 L 452.03 201.02 C 451.93 194.34 451.93 187.67 452.03 181.00 Z" />
</g>
<g id="#000001ff">
<path fill="#000001" opacity="1.00" d=" M 453.01 181.01 C 456.11 180.92 461.45 179.34 459.73 183.75 C 458.77 189.43 459.02 195.21 458.97 200.96 C 456.98 201.07 454.99 201.07 453.01 200.95 C 452.99 194.30 452.99 187.65 453.01 181.01 Z" />
<path fill="#000001" opacity="1.00" d=" M 455.16 331.06 C 456.43 330.95 457.71 330.93 458.99 331.01 C 458.99 337.65 459.00 344.30 458.99 350.95 C 457.00 351.07 454.99 351.07 453.01 350.95 C 452.98 344.78 452.83 338.59 453.28 332.44 C 453.75 332.10 454.69 331.41 455.16 331.06 Z" />
</g>
<g id="#11191dff">
<path fill="#11191d" opacity="1.00" d=" M 458.97 200.96 C 459.02 195.21 458.77 189.43 459.73 183.75 C 460.04 189.49 460.10 195.25 459.97 201.01 L 458.97 200.96 Z" />
</g>
<g id="#436075ff">
<path fill="#436075" opacity="1.00" d=" M 452.03 210.98 L 453.01 211.05 C 452.99 217.68 452.99 224.31 453.01 230.95 L 452.03 231.02 C 451.93 224.34 451.93 217.66 452.03 210.98 Z" />
</g>
<g id="#000000ff">
<path fill="#000000" opacity="1.00" d=" M 453.01 211.05 C 454.99 210.93 457.00 210.93 458.99 211.05 C 458.99 217.68 459.00 224.31 458.99 230.95 C 457.00 231.07 454.99 231.07 453.01 230.95 C 452.99 224.31 452.99 217.68 453.01 211.05 Z" />
<path fill="#000000" opacity="1.00" d=" M 452.20 391.93 C 453.87 391.96 457.22 392.00 458.90 392.02 C 459.05 398.36 458.99 404.70 458.87 411.05 C 457.20 411.05 453.85 411.04 452.18 411.03 C 452.01 404.67 451.63 398.27 452.20 391.93 Z" />
<path fill="#000000" opacity="1.00" d=" M 452.20 421.93 C 453.87 421.96 457.22 422.00 458.90 422.02 C 459.05 428.36 458.99 434.70 458.87 441.05 C 457.20 441.05 453.85 441.04 452.18 441.03 C 452.01 434.67 451.63 428.27 452.20 421.93 Z" />
<path fill="#000000" opacity="1.00" d=" M 452.12 451.98 C 453.81 451.98 457.20 451.99 458.89 451.99 C 459.06 458.34 458.99 464.69 458.87 471.05 C 457.18 471.05 453.81 471.05 452.12 471.05 C 451.90 464.69 452.02 458.33 452.12 451.98 Z" />
<path fill="#000000" opacity="1.00" d=" M 452.12 481.98 C 453.81 481.98 457.20 481.99 458.89 481.99 C 459.06 488.34 458.99 494.69 458.87 501.05 C 457.18 501.05 453.81 501.05 452.12 501.05 C 451.90 494.69 452.02 488.32 452.12 481.98 Z" />
<path fill="#000000" opacity="1.00" d=" M 452.12 512.01 C 453.79 511.99 457.14 511.96 458.81 511.94 C 458.98 518.27 459.36 524.68 458.81 531.03 C 457.14 531.03 453.79 531.05 452.12 531.05 C 451.90 524.70 452.02 518.35 452.12 512.01 Z" />
<path fill="#000000" opacity="1.00" d=" M 452.02 601.96 C 453.49 601.99 456.44 602.06 457.91 602.09 C 458.25 608.37 457.90 614.67 457.98 620.98 C 455.98 620.99 453.99 620.99 452.01 620.98 C 451.99 614.64 451.99 608.29 452.02 601.96 Z" />
<path fill="#000000" opacity="1.00" d=" M 452.02 631.96 C 453.49 631.99 456.44 632.06 457.91 632.09 C 458.25 638.37 457.90 644.67 457.98 650.98 C 455.98 650.99 453.99 650.99 452.01 650.98 C 451.99 644.64 451.99 638.28 452.02 631.96 Z" />
<path fill="#000000" opacity="1.00" d=" M 452.05 662.01 C 453.51 662.01 456.45 662.01 457.92 662.01 C 458.24 668.32 457.91 674.64 457.98 680.98 C 455.99 680.99 453.99 680.99 452.01 680.98 C 451.98 674.66 451.90 668.32 452.05 662.01 Z" />
<path fill="#000000" opacity="1.00" d=" M 452.07 692.11 C 453.55 692.08 456.50 692.01 457.98 691.97 C 458.01 698.30 457.99 704.63 457.98 710.98 C 455.99 710.99 453.99 710.99 452.01 710.98 C 451.98 704.69 451.90 698.38 452.07 692.11 Z" />
<path fill="#000000" opacity="1.00" d=" M 451.94 722.10 C 453.91 722.05 455.90 722.03 457.88 721.94 C 458.07 728.34 457.99 734.73 457.85 741.15 C 455.88 740.96 453.90 740.90 451.93 740.86 C 452.06 734.60 451.98 728.34 451.94 722.10 Z" />
</g>
<g id="#1a252dff">
<path fill="#1a252d" opacity="1.00" d=" M 458.99 211.05 L 459.97 210.98 C 460.05 217.66 460.05 224.34 459.97 231.02 L 458.99 230.95 C 459.00 224.31 458.99 217.68 458.99 211.05 Z" />
</g>
<g id="#385062ff">
<path fill="#385062" opacity="1.00" d=" M 452.03 240.98 L 453.01 241.05 C 452.99 247.68 452.99 254.31 453.01 260.95 L 452.03 261.02 C 451.93 254.34 451.93 247.66 452.03 240.98 Z" />
</g>
<g id="#253642ff">
<path fill="#253642" opacity="1.00" d=" M 458.99 241.05 L 459.97 240.98 C 460.05 247.66 460.05 254.34 459.97 261.02 L 458.99 260.95 C 459.00 254.31 458.99 247.68 458.99 241.05 Z" />
</g>
<g id="#2d3f4eff">
<path fill="#2d3f4e" opacity="1.00" d=" M 452.03 270.98 L 453.01 271.05 C 452.99 277.68 452.99 284.31 453.01 290.95 L 452.03 291.02 C 451.93 284.34 451.93 277.66 452.03 270.98 Z" />
</g>
<g id="#314656ff">
<path fill="#314656" opacity="1.00" d=" M 458.99 271.05 L 459.97 270.98 C 460.05 277.66 460.05 284.34 459.97 291.02 L 458.99 290.95 C 459.00 284.31 458.99 277.68 458.99 271.05 Z" />
</g>
<g id="#212f3aff">
<path fill="#212f3a" opacity="1.00" d=" M 452.06 301.05 C 452.50 301.02 453.39 300.97 453.83 300.95 C 452.60 307.54 453.02 314.27 453.00 320.95 L 452.03 321.02 C 451.92 314.36 451.93 307.70 452.06 301.05 Z" />
</g>
<g id="#000101ff">
<path fill="#000101" opacity="1.00" d=" M 453.83 300.95 C 455.54 300.90 457.27 300.93 458.99 301.06 C 458.99 307.68 459.00 314.32 458.99 320.95 C 456.99 321.07 454.99 321.07 453.00 320.95 C 453.02 314.27 452.60 307.54 453.83 300.95 Z" />
<path fill="#000101" opacity="1.00" d=" M 452.12 542.01 C 453.79 541.99 457.14 541.96 458.81 541.94 C 458.98 548.27 459.36 554.68 458.81 561.03 C 457.14 561.03 453.79 561.05 452.12 561.05 C 451.90 554.70 452.02 548.35 452.12 542.01 Z" />
<path fill="#000101" opacity="1.00" d=" M 452.12 572.01 C 453.80 571.99 457.15 571.96 458.83 571.94 C 458.80 573.64 458.74 577.05 458.72 578.75 C 458.14 582.79 458.05 586.89 457.95 590.98 C 455.97 590.99 453.98 590.99 452.00 590.98 C 451.98 584.65 452.00 578.32 452.12 572.01 Z" />
</g>
<g id="#3c5669ff">
<path fill="#3c5669" opacity="1.00" d=" M 458.99 301.06 L 459.97 300.98 C 460.05 307.66 460.05 314.33 459.97 321.02 L 458.99 320.95 C 459.00 314.32 458.99 307.68 458.99 301.06 Z" />
</g>
<g id="#162027ff">
<path fill="#162027" opacity="1.00" d=" M 452.03 331.03 C 452.81 331.04 454.38 331.06 455.16 331.06 C 454.69 331.41 453.75 332.10 453.28 332.44 C 452.83 338.59 452.98 344.78 453.01 350.95 L 452.03 351.02 C 451.93 344.35 451.93 337.69 452.03 331.03 Z" />
<path fill="#162027" opacity="1.00" d=" M 452.10 451.41 C 454.15 450.55 456.85 450.55 458.91 451.42 L 458.89 451.99 C 457.20 451.99 453.81 451.98 452.12 451.98 L 452.10 451.41 Z" />
<path fill="#162027" opacity="1.00" d=" M 452.10 481.41 C 454.15 480.55 456.85 480.55 458.91 481.42 L 458.89 481.99 C 457.20 481.99 453.81 481.98 452.12 481.98 L 452.10 481.41 Z" />
</g>
<g id="#47657cff">
<path fill="#47657c" opacity="1.00" d=" M 458.99 331.01 L 459.97 331.00 C 460.06 337.67 460.05 344.34 459.97 351.02 L 458.99 350.95 C 459.00 344.30 458.99 337.65 458.99 331.01 Z" />
</g>
<g id="#141d23ff">
<path fill="#141d23" opacity="1.00" d=" M 452.38 365.92 C 451.03 364.00 451.64 359.47 454.81 361.17 C 453.32 362.34 452.97 364.22 452.38 365.92 Z" />
</g>
<g id="#010202ff">
<path fill="#010202" opacity="1.00" d=" M 454.81 361.17 C 456.20 360.98 457.59 360.93 459.00 361.00 C 458.95 367.67 459.13 374.37 458.87 381.05 C 457.20 381.05 453.85 381.04 452.18 381.03 C 452.14 376.01 451.38 370.87 452.38 365.92 C 452.97 364.22 453.32 362.34 454.81 361.17 Z" />
</g>
<g id="#527690ff">
<path fill="#527690" opacity="1.00" d=" M 459.00 361.00 L 459.98 361.00 C 460.07 367.66 460.05 374.31 459.92 380.98 L 458.87 381.05 C 459.13 374.37 458.95 367.67 459.00 361.00 Z" />
</g>
<g id="#a8d4fcff">
<path fill="#a8d4fc" opacity="1.00" d=" M 583.22 368.11 C 583.65 368.05 584.52 367.93 584.96 367.87 C 592.15 380.27 599.12 392.79 606.35 405.17 C 604.76 406.35 603.78 404.14 602.74 403.26 C 597.46 395.84 593.44 387.54 587.40 380.64 C 585.90 376.49 584.55 372.31 583.22 368.11 Z" />
</g>
<g id="#79add3ff">
<path fill="#79add3" opacity="1.00" d=" M 452.18 381.03 C 453.85 381.04 457.20 381.05 458.87 381.05 C 458.03 382.82 452.95 382.85 452.18 381.03 Z" />
</g>
<g id="#151f26ff">
<path fill="#151f26" opacity="1.00" d=" M 452.20 391.93 C 453.19 390.06 457.09 390.65 458.92 391.43 L 458.90 392.02 C 457.22 392.00 453.87 391.96 452.20 391.93 Z" />
</g>
<g id="#5e86a4ff">
<path fill="#5e86a4" opacity="1.00" d=" M 458.92 391.43 L 459.78 390.95 C 460.07 397.62 460.12 404.30 459.92 410.98 L 458.87 411.05 C 458.99 404.70 459.05 398.36 458.90 392.02 L 458.92 391.43 Z" />
</g>
<g id="#78abd1ff">
<path fill="#78abd1" opacity="1.00" d=" M 452.18 411.03 C 453.85 411.04 457.20 411.05 458.87 411.05 C 458.04 412.82 452.95 412.85 452.18 411.03 Z" />
<path fill="#78abd1" opacity="1.00" d=" M 452.12 471.05 C 453.81 471.05 457.18 471.05 458.87 471.05 C 458.00 472.83 452.98 472.83 452.12 471.05 Z" />
</g>
<g id="#162127ff">
<path fill="#162127" opacity="1.00" d=" M 452.20 421.93 C 453.19 420.06 457.09 420.65 458.92 421.43 L 458.90 422.02 C 457.22 422.00 453.87 421.96 452.20 421.93 Z" />
</g>
<g id="#6896b6ff">
<path fill="#6896b6" opacity="1.00" d=" M 458.92 421.43 L 459.78 420.95 C 460.07 427.62 460.12 434.30 459.92 440.98 L 458.87 441.05 C 458.99 434.70 459.05 428.36 458.90 422.02 L 458.92 421.43 Z" />
</g>
<g id="#78acd2ff">
<path fill="#78acd2" opacity="1.00" d=" M 452.18 441.03 C 453.85 441.04 457.20 441.05 458.87 441.05 C 458.04 442.82 452.95 442.85 452.18 441.03 Z" />
</g>
<g id="#7cb1d8ff">
<path fill="#7cb1d8" opacity="1.00" d=" M 451.23 450.95 L 452.10 451.41 L 452.12 451.98 C 452.02 458.33 451.90 464.69 452.12 471.05 L 451.07 470.98 C 450.87 464.29 450.92 457.62 451.23 450.95 Z" />
</g>
<g id="#74a5caff">
<path fill="#74a5ca" opacity="1.00" d=" M 458.91 451.42 L 459.78 450.95 C 460.07 457.62 460.12 464.30 459.92 470.98 L 458.87 471.05 C 458.99 464.69 459.06 458.34 458.89 451.99 L 458.91 451.42 Z" />
</g>
<g id="#71a1c4ff">
<path fill="#71a1c4" opacity="1.00" d=" M 451.23 480.95 L 452.10 481.41 L 452.12 481.98 C 452.02 488.32 451.90 494.69 452.12 501.05 L 451.07 500.98 C 450.87 494.29 450.92 487.62 451.23 480.95 Z" />
</g>
<g id="#7fb5ddff">
<path fill="#7fb5dd" opacity="1.00" d=" M 458.91 481.42 L 459.78 480.95 C 460.07 487.62 460.12 494.30 459.92 500.98 L 458.87 501.05 C 458.99 494.69 459.06 488.34 458.89 481.99 L 458.91 481.42 Z" />
</g>
<g id="#77aacfff">
<path fill="#77aacf" opacity="1.00" d=" M 452.12 501.05 C 453.81 501.05 457.18 501.05 458.87 501.05 C 458.00 502.83 452.98 502.83 452.12 501.05 Z" />
</g>
<g id="#6692b2ff">
<path fill="#6692b2" opacity="1.00" d=" M 451.22 510.95 L 452.09 511.42 L 452.12 512.01 C 452.02 518.35 451.90 524.70 452.12 531.05 L 451.07 530.98 C 450.87 524.29 450.92 517.62 451.22 510.95 Z" />
</g>
<g id="#172128ff">
<path fill="#172128" opacity="1.00" d=" M 452.09 511.42 C 453.91 510.65 457.81 510.06 458.81 511.94 C 457.14 511.96 453.79 511.99 452.12 512.01 L 452.09 511.42 Z" />
</g>
<g id="#70a0c4ff">
<path fill="#70a0c4" opacity="1.00" d=" M 452.12 531.05 C 453.79 531.05 457.14 531.03 458.81 531.03 C 458.05 532.85 452.96 532.82 452.12 531.05 Z" />
<path fill="#70a0c4" opacity="1.00" d=" M 451.03 651.00 L 452.01 650.98 C 453.99 650.99 455.98 650.99 457.98 650.98 L 458.94 651.00 C 458.25 653.21 453.36 651.53 451.01 651.95 L 451.03 651.00 Z" />
</g>
<g id="#5b829fff">
<path fill="#5b829f" opacity="1.00" d=" M 451.22 540.95 L 452.09 541.42 L 452.12 542.01 C 452.02 548.35 451.90 554.70 452.12 561.05 L 451.07 560.98 C 450.87 554.29 450.92 547.62 451.22 540.95 Z" />
</g>
<g id="#1c2932ff">
<path fill="#1c2932" opacity="1.00" d=" M 452.09 541.42 C 453.91 540.65 457.81 540.06 458.81 541.94 C 457.14 541.96 453.79 541.99 452.12 542.01 L 452.09 541.42 Z" />
</g>
<g id="#6f9ec1ff">
<path fill="#6f9ec1" opacity="1.00" d=" M 452.12 561.05 C 453.79 561.05 457.14 561.03 458.81 561.03 C 458.05 562.85 452.96 562.82 452.12 561.05 Z" />
</g>
<g id="#4f728bff">
<path fill="#4f728b" opacity="1.00" d=" M 451.18 570.97 L 452.09 571.41 L 452.12 572.01 C 452.00 578.32 451.98 584.65 452.00 590.98 L 451.03 591.00 C 451.06 584.32 450.67 577.63 451.18 570.97 Z" />
</g>
<g id="#212f39ff">
<path fill="#212f39" opacity="1.00" d=" M 452.09 571.41 C 453.92 570.65 457.80 570.06 458.83 571.94 C 457.15 571.96 453.80 571.99 452.12 572.01 L 452.09 571.41 Z" />
</g>
<g id="#11191eff">
<path fill="#11191e" opacity="1.00" d=" M 457.95 590.98 C 458.05 586.89 458.14 582.79 458.72 578.75 C 458.99 582.82 459.07 586.90 458.96 591.00 L 457.95 590.98 Z" />
</g>
<g id="#71a2c5ff">
<path fill="#71a2c5" opacity="1.00" d=" M 451.03 591.00 L 452.00 590.98 C 453.98 590.99 455.97 590.99 457.95 590.98 L 458.96 591.00 C 458.22 593.22 453.37 591.52 451.01 591.95 L 451.03 591.00 Z" />
</g>
<g id="#466379ff">
<path fill="#466379" opacity="1.00" d=" M 451.05 601.02 L 452.00 600.99 L 452.02 601.96 C 451.99 608.29 451.99 614.64 452.01 620.98 L 451.03 621.00 C 450.99 614.33 450.83 607.68 451.05 601.02 Z" />
</g>
<g id="#1c2831ff">
<path fill="#1c2831" opacity="1.00" d=" M 452.00 600.99 C 453.74 601.00 457.23 601.01 458.97 601.02 C 458.98 607.66 459.15 614.34 458.94 621.00 L 457.98 620.98 C 457.90 614.67 458.25 608.37 457.91 602.09 C 456.44 602.06 453.49 601.99 452.02 601.96 L 452.00 600.99 Z" />
</g>
<g id="#020202ff">
<path fill="#020202" opacity="1.00" d=" M 408.02 612.93 C 419.29 611.14 430.76 612.87 442.04 611.25 C 442.03 613.68 441.99 618.53 441.97 620.96 C 435.30 621.07 428.65 620.99 422.00 620.98 C 419.18 620.96 416.40 620.85 413.71 621.62 C 411.04 621.71 405.70 621.91 403.03 622.01 C 404.51 619.10 399.51 609.19 408.02 612.93 Z" />
</g>
<g id="#749dbdff">
<path fill="#749dbd" opacity="1.00" d=" M 462.06 610.97 L 463.13 611.14 C 462.97 614.13 463.31 617.34 462.35 620.27 C 462.06 617.13 461.88 614.08 462.06 610.97 Z" />
</g>
<g id="#020203ff">
<path fill="#020203" opacity="1.00" d=" M 463.13 611.14 L 464.02 611.44 C 466.25 612.15 468.52 612.34 470.82 612.01 C 481.23 611.63 491.63 612.14 501.99 613.12 C 501.74 616.09 501.23 618.97 500.88 621.96 C 497.92 621.89 495.14 622.21 492.26 621.74 C 489.47 621.31 486.78 620.98 484.00 620.97 C 476.71 620.94 469.43 621.07 462.15 621.01 L 462.35 620.27 C 463.31 617.34 462.97 614.13 463.13 611.14 Z" />
</g>
<g id="#61819bff">
<path fill="#61819b" opacity="1.00" d=" M 464.02 611.44 C 465.84 610.64 470.04 609.79 470.82 612.01 C 468.52 612.34 466.25 612.15 464.02 611.44 Z" />
</g>
<g id="#040405ff">
<path fill="#040405" opacity="1.00" d=" M 373.34 615.56 C 376.11 615.08 379.05 614.85 381.88 615.05 C 381.58 618.01 382.72 620.96 383.05 623.89 C 369.99 624.24 357.11 626.80 344.13 628.01 C 344.34 624.86 343.30 622.11 342.97 619.09 C 353.10 618.04 363.22 616.74 373.34 615.56 Z" />
</g>
<g id="#040506ff">
<path fill="#040506" opacity="1.00" d=" M 522.06 615.00 C 535.11 615.04 548.08 617.29 560.98 619.14 C 560.44 622.17 561.98 631.55 554.98 627.91 C 544.03 626.30 533.07 624.79 522.04 623.85 C 521.94 620.81 521.89 617.98 522.06 615.00 Z" />
</g>
<g id="#58758cff">
<path fill="#58758c" opacity="1.00" d=" M 413.71 621.62 C 416.40 620.85 419.18 620.96 422.00 620.98 C 421.12 623.28 416.14 621.56 413.71 621.62 Z" />
</g>
<g id="#71a1c5ff">
<path fill="#71a1c5" opacity="1.00" d=" M 451.03 621.00 L 452.01 620.98 C 453.99 620.99 455.98 620.99 457.98 620.98 L 458.94 621.00 C 458.25 623.21 453.36 621.53 451.01 621.95 L 451.03 621.00 Z" />
</g>
<g id="#4d677cff">
<path fill="#4d677c" opacity="1.00" d=" M 484.00 620.97 C 486.78 620.98 489.47 621.31 492.26 621.74 C 489.81 621.49 484.86 623.30 484.00 620.97 Z" />
</g>
<g id="#050607ff">
<path fill="#050607" opacity="1.00" d=" M 318.33 623.44 C 325.38 619.40 323.24 628.25 323.98 631.81 C 311.31 634.11 298.72 636.84 286.21 639.89 C 285.82 636.86 285.00 633.92 284.17 631.00 C 295.47 628.09 306.87 625.63 318.33 623.44 Z" />
<path fill="#050607" opacity="1.00" d=" M 582.21 623.10 C 591.76 623.72 600.98 626.71 610.35 628.52 C 613.28 629.97 617.30 629.03 619.93 631.17 C 619.36 634.05 618.50 636.88 617.83 639.74 C 605.41 636.63 592.88 633.78 580.21 631.92 C 580.64 628.90 580.85 625.85 582.21 623.10 Z" />
</g>
<g id="#3a5365ff">
<path fill="#3a5365" opacity="1.00" d=" M 451.05 631.02 L 452.00 630.99 L 452.02 631.96 C 451.99 638.28 451.99 644.64 452.01 650.98 L 451.03 651.00 C 450.99 644.33 450.83 637.68 451.05 631.02 Z" />
</g>
<g id="#24333fff">
<path fill="#24333f" opacity="1.00" d=" M 452.00 630.99 C 453.74 631.00 457.23 631.01 458.97 631.02 C 458.98 637.66 459.15 644.34 458.94 651.00 L 457.98 650.98 C 457.90 644.67 458.25 638.37 457.91 632.09 C 456.44 632.06 453.49 631.99 452.02 631.96 L 452.00 630.99 Z" />
</g>
<g id="#060708ff">
<path fill="#060708" opacity="1.00" d=" M 263.27 636.41 C 265.46 636.22 264.94 639.80 265.50 641.33 C 269.83 648.70 260.99 644.44 258.76 647.57 C 249.10 650.15 239.88 654.20 230.26 656.89 C 229.05 654.08 227.55 651.30 227.08 648.25 C 239.09 644.17 251.03 639.80 263.27 636.41 Z" />
<path fill="#060708" opacity="1.00" d=" M 207.20 656.39 C 209.27 657.69 210.20 662.08 210.97 664.85 C 201.08 669.65 190.60 673.38 181.23 679.25 C 179.69 680.13 178.10 681.45 176.19 680.90 C 175.10 678.33 173.71 675.85 172.98 673.16 C 183.82 666.51 195.48 661.23 207.20 656.39 Z" />
</g>
<g id="#07090bff">
<path fill="#07090b" opacity="1.00" d=" M 640.26 636.05 C 652.49 639.84 664.92 643.45 676.91 648.22 C 676.97 651.34 675.49 654.36 673.86 656.95 C 662.04 652.59 649.94 649.04 638.10 644.75 C 637.99 641.72 639.78 639.00 640.26 636.05 Z" />
</g>
<g id="#060809ff">
<path fill="#060809" opacity="1.00" d=" M 697.09 656.12 C 708.99 661.13 720.39 667.23 731.93 673.03 C 730.08 675.15 729.93 681.51 726.29 680.67 C 715.65 674.62 704.66 669.07 693.18 664.83 C 694.56 661.96 695.28 658.77 697.09 656.12 Z" />
</g>
<g id="#2e414fff">
<path fill="#2e414f" opacity="1.00" d=" M 451.07 661.02 C 453.69 660.90 456.33 660.91 458.96 661.05 C 458.98 667.68 459.15 674.35 458.94 681.00 L 457.98 680.98 C 457.91 674.64 458.24 668.32 457.92 662.01 C 456.45 662.01 453.51 662.01 452.05 662.01 C 451.90 668.32 451.98 674.66 452.01 680.98 L 451.03 681.00 C 451.00 674.33 450.81 667.67 451.07 661.02 Z" />
</g>
<g id="#6a98baff">
<path fill="#6a98ba" opacity="1.00" d=" M 451.03 681.00 L 452.01 680.98 C 453.99 680.99 455.99 680.99 457.98 680.98 L 458.94 681.00 C 458.25 683.21 453.36 681.53 451.01 681.95 L 451.03 681.00 Z" />
</g>
<g id="#040507ff">
<path fill="#040507" opacity="1.00" d=" M 129.78 702.30 C 137.62 695.60 146.05 689.64 154.80 684.20 C 156.55 686.70 158.61 689.03 159.94 691.82 C 158.44 693.08 155.44 695.58 153.94 696.84 C 149.34 699.51 144.97 702.57 140.88 705.98 C 137.17 708.70 133.73 711.74 130.27 714.77 C 128.42 713.06 126.57 711.37 124.71 709.70 C 123.78 706.22 127.55 704.19 129.78 702.30 Z" />
</g>
<g id="#032243ff">
<path fill="#032243" opacity="1.00" d=" M 744.09 691.84 C 746.09 689.33 747.29 685.74 749.98 683.98 C 757.85 688.56 765.38 693.87 771.85 700.32 C 773.10 704.31 775.62 707.67 778.37 710.79 C 777.23 712.19 776.06 713.57 774.79 714.85 C 764.54 707.21 755.21 698.27 744.09 691.84 Z" />
</g>
<g id="#243440ff">
<path fill="#243440" opacity="1.00" d=" M 451.07 691.02 C 452.80 691.01 456.27 691.01 458.00 691.01 L 457.98 691.97 C 456.50 692.01 453.55 692.08 452.07 692.11 C 451.90 698.38 451.98 704.69 452.01 710.98 L 451.03 711.00 C 451.00 704.33 450.82 697.67 451.07 691.02 Z" />
</g>
<g id="#3c5668ff">
<path fill="#3c5668" opacity="1.00" d=" M 458.00 691.01 L 458.97 690.99 C 458.98 697.64 459.15 704.34 458.94 711.00 L 457.98 710.98 C 457.99 704.63 458.01 698.30 457.98 691.97 L 458.00 691.01 Z" />
</g>
<g id="#a8cbeaff">
<path fill="#a8cbea" opacity="1.00" d=" M 140.88 705.98 C 144.97 702.57 149.34 699.51 153.94 696.84 C 150.90 701.18 146.58 706.11 140.88 705.98 Z" />
</g>
<g id="#6895b6ff">
<path fill="#6895b6" opacity="1.00" d=" M 451.03 711.00 L 452.01 710.98 C 453.99 710.99 455.99 710.99 457.98 710.98 L 458.94 711.00 C 458.25 713.21 453.36 711.53 451.01 711.95 L 451.03 711.00 Z" />
</g>
<g id="#2d404eff">
<path fill="#2d404e" opacity="1.00" d=" M 451.23 721.78 C 452.33 720.15 456.03 720.80 457.89 721.38 L 457.88 721.94 C 455.90 722.03 453.91 722.05 451.94 722.10 L 451.23 721.78 Z" />
</g>
<g id="#46647bff">
<path fill="#46647b" opacity="1.00" d=" M 457.89 721.38 L 458.78 720.96 C 459.08 727.61 459.12 734.28 458.91 740.96 L 457.85 741.15 C 457.99 734.73 458.07 728.34 457.88 721.94 L 457.89 721.38 Z" />
</g>
<g id="#182229ff">
<path fill="#182229" opacity="1.00" d=" M 451.23 721.78 L 451.94 722.10 C 451.98 728.34 452.06 734.60 451.93 740.86 L 451.23 741.20 C 451.01 734.73 450.61 728.22 451.23 721.78 Z" />
</g>
<g id="#0a223aff">
<path fill="#0a223a" opacity="1.00" d=" M 115.44 727.90 C 116.80 730.45 114.20 732.23 112.90 734.10 C 111.94 733.75 111.00 733.38 110.06 733.00 C 109.77 732.57 109.20 731.71 108.92 731.27 C 111.24 730.47 113.46 729.36 115.44 727.90 Z" />
</g>
<g id="#0062cbf9">
<path fill="#0062cb" opacity="0.98" d=" M 98.10 732.02 C 98.26 730.86 98.88 730.14 99.96 729.85 C 103.00 729.98 105.95 730.70 108.92 731.27 C 109.20 731.71 109.77 732.57 110.06 733.00 C 106.22 731.68 102.10 731.87 98.10 732.02 Z" />
</g>
<g id="#6490b0ff">
<path fill="#6490b0" opacity="1.00" d=" M 451.23 741.20 L 451.93 740.86 C 453.90 740.90 455.88 740.96 457.85 741.15 C 456.87 742.65 452.12 742.74 451.23 741.20 Z" />
</g>
<g id="#2c3f4dff">
<path fill="#2c3f4d" opacity="1.00" d=" M 451.42 751.99 C 452.10 750.01 456.15 750.82 457.90 751.38 L 457.88 751.94 C 455.91 752.03 453.95 752.06 451.99 752.16 L 451.42 751.99 Z" />
</g>
<g id="#51758fff">
<path fill="#51758f" opacity="1.00" d=" M 457.90 751.38 L 458.78 750.96 C 459.07 757.62 459.12 764.29 458.92 770.98 L 457.87 771.05 C 457.99 764.66 458.07 758.30 457.88 751.94 L 457.90 751.38 Z" />
</g>
<g id="#11181dff">
<path fill="#11181d" opacity="1.00" d=" M 451.42 751.99 L 451.99 752.16 C 452.36 754.41 452.18 756.68 451.44 758.96 C 450.50 756.86 450.23 754.02 451.42 751.99 Z" />
</g>
<g id="#648fafff">
<path fill="#648faf" opacity="1.00" d=" M 451.18 771.03 C 452.85 771.04 456.20 771.05 457.87 771.05 C 457.03 772.82 451.95 772.85 451.18 771.03 Z" />
</g>
<g id="#040607ff">
<path fill="#040607" opacity="1.00" d=" M 453.29 775.36 C 460.26 773.93 468.24 781.11 466.20 788.10 C 464.01 798.69 447.33 799.37 443.11 789.95 C 440.33 783.18 446.21 775.59 453.29 775.36 Z" />
</g>
<g id="#3d8ad7ff">
<path fill="#3d8ad7" opacity="1.00" d=" M 496.91 958.91 C 498.68 957.02 501.07 956.76 504.09 958.15 C 502.19 959.85 499.80 960.10 496.91 958.91 Z" />
</g>
<g id="#287cd3ff">
<path fill="#287cd3" opacity="1.00" d=" M 419.78 959.23 C 423.19 959.04 426.56 958.91 430.00 958.98 L 430.00 960.02 C 426.58 960.13 423.14 959.67 419.78 959.23 Z" />
</g>
<g id="#6bafecff">
<path fill="#6bafec" opacity="1.00" d=" M 430.00 958.98 C 433.43 958.89 436.81 959.23 440.22 959.79 C 436.82 959.99 433.38 959.96 430.00 960.02 L 430.00 958.98 Z" />
</g>
<g id="#3e8bd7ff">
<path fill="#3e8bd7" opacity="1.00" d=" M 469.74 959.73 C 473.83 958.77 478.08 959.15 482.26 959.31 C 478.13 960.07 473.89 959.84 469.74 959.73 Z" />
</g>
</svg>
