<?xml version="1.0" encoding="UTF-8" ?>
<!DOCTYPE svg PUBLIC "-//W3C//DTD SVG 1.1//EN" "http://www.w3.org/Graphics/SVG/1.1/DTD/svg11.dtd">
<svg width="900pt" height="1080pt" viewBox="0 0 900 1080" version="1.1" xmlns="http://www.w3.org/2000/svg">
<g id="#020303fc">
<path fill="#020303" opacity="1.00" d=" M 456.11 121.10 L 456.77 121.22 C 499.32 197.44 543.07 273.01 586.04 349.01 C 654.83 469.22 722.94 589.83 791.93 709.92 C 788.11 710.66 784.54 712.11 781.22 714.11 C 780.71 712.73 780.24 711.35 779.85 709.96 C 783.25 706.12 775.84 704.63 774.96 701.11 C 772.82 694.99 768.97 689.68 765.95 684.00 C 753.11 661.02 739.35 638.57 726.41 615.64 C 642.39 467.15 557.52 319.12 473.24 170.77 C 468.78 163.50 465.18 155.67 460.30 148.69 C 460.19 150.51 459.98 154.16 459.87 155.99 C 458.18 155.98 454.79 155.98 453.09 155.98 C 452.98 152.91 453.05 149.86 452.85 146.81 C 452.24 147.75 451.72 148.73 451.21 149.73 C 347.44 326.23 244.64 503.29 140.68 679.68 C 136.68 686.73 132.56 693.72 128.84 700.93 C 127.53 703.17 125.47 704.73 123.35 706.17 C 123.87 707.31 124.70 708.44 124.07 709.74 C 120.53 714.89 117.67 720.45 114.96 726.08 C 112.80 724.68 111.22 721.35 108.24 722.11 C 105.30 725.09 103.40 729.84 99.05 731.14 C 160.93 626.20 222.22 520.91 283.77 415.78 C 341.25 317.58 398.83 219.42 456.11 121.10 Z" />
</g>
<g id="#708294ff">
<path fill="#708294" opacity="1.00" d=" M 451.21 149.73 C 451.72 148.73 452.24 147.75 452.85 146.81 C 453.05 149.86 452.98 152.91 453.09 155.98 C 451.74 154.68 451.11 152.59 451.21 149.73 Z" />
</g>
<g id="#c0ddfdff">
<path fill="#c0ddfd" opacity="1.00" d=" M 460.30 148.69 C 465.18 155.67 468.78 163.50 473.24 170.77 C 557.52 319.12 642.39 467.15 726.41 615.64 C 739.35 638.57 753.11 661.02 765.95 684.00 C 768.97 689.68 772.82 694.99 774.96 701.11 C 766.24 696.18 759.15 688.37 750.01 684.12 C 747.92 684.54 747.30 687.65 745.82 689.16 C 739.68 687.07 734.72 682.71 729.78 678.67 C 730.66 676.70 731.82 674.88 732.89 673.03 C 721.57 667.31 710.37 661.28 698.66 656.39 C 694.58 654.79 695.39 661.29 693.03 663.30 C 687.73 659.60 681.22 658.35 675.71 655.07 C 676.52 652.82 677.50 650.62 677.90 648.27 C 665.56 643.68 653.13 638.68 640.22 636.07 C 638.94 639.11 637.86 642.29 638.12 645.68 C 639.80 646.22 641.50 646.74 643.22 647.20 C 634.69 647.78 625.45 645.49 618.64 640.21 C 619.13 637.11 620.04 634.11 620.74 631.06 C 619.58 630.06 618.03 629.84 616.63 629.44 C 605.14 626.97 593.70 624.18 582.10 622.31 C 580.07 624.97 580.89 628.84 579.93 631.97 C 573.75 630.44 567.66 627.19 561.16 628.21 C 560.88 625.14 561.86 622.20 561.97 619.17 C 548.77 617.05 535.45 615.51 522.18 614.01 C 522.17 617.27 521.76 620.61 521.20 623.84 C 524.16 624.59 527.14 624.84 530.21 625.24 C 520.05 626.22 509.27 627.22 499.47 623.67 C 497.50 622.71 502.89 623.79 501.97 621.92 C 502.06 618.60 502.17 615.36 501.91 612.08 C 488.92 612.42 476.00 610.52 463.02 611.03 C 459.64 610.83 462.75 616.86 461.85 619.04 C 461.16 619.02 459.78 618.99 459.09 618.98 C 460.14 614.36 455.10 616.00 452.02 616.00 C 450.05 615.76 451.42 618.80 450.94 619.97 C 448.37 619.98 445.81 620.05 443.27 620.19 C 442.25 617.66 444.45 612.17 441.98 611.00 C 437.38 610.91 432.79 610.91 428.21 611.19 C 424.38 611.07 420.57 611.26 416.78 611.77 C 412.25 612.02 407.71 611.66 403.21 612.18 C 400.94 614.79 403.14 618.87 402.79 622.18 C 396.16 623.10 389.33 625.37 382.75 624.18 C 382.84 620.76 383.15 617.44 382.94 614.06 C 370.03 615.23 357.09 616.32 344.27 618.26 C 340.40 620.17 345.38 626.04 344.08 628.91 C 347.00 628.56 349.90 628.03 352.82 627.55 C 353.44 627.83 354.68 628.38 355.30 628.66 C 343.70 629.35 332.37 635.90 320.67 633.15 C 322.05 632.64 323.44 632.17 324.83 631.68 C 324.51 628.40 324.17 625.08 322.81 622.06 C 309.81 624.24 296.86 627.12 284.02 630.16 C 284.36 633.71 285.35 637.22 286.99 640.40 C 280.57 641.93 273.85 644.99 267.23 644.30 C 266.40 641.56 265.83 638.75 264.77 636.10 C 251.74 637.61 239.55 643.20 227.16 647.34 C 226.62 650.46 228.46 653.31 229.22 656.24 C 222.82 660.40 216.66 664.92 210.62 669.59 C 201.07 671.77 192.36 677.21 182.74 678.77 C 192.29 673.76 201.88 668.75 211.90 664.72 C 211.06 661.36 209.27 658.30 207.91 655.13 C 195.58 660.07 183.64 665.98 171.89 672.16 C 173.11 675.70 175.27 678.83 177.16 682.05 C 171.61 685.46 166.27 689.29 160.40 692.13 C 159.00 688.80 156.87 685.80 154.87 682.84 C 145.21 687.42 137.87 695.41 128.84 700.93 C 132.56 693.72 136.68 686.73 140.68 679.68 C 244.64 503.29 347.44 326.23 451.21 149.73 C 451.11 152.59 451.74 154.68 453.09 155.98 C 454.79 155.98 458.18 155.98 459.87 155.99 C 459.98 154.16 460.19 150.51 460.30 148.69 M 452.03 166.00 C 451.93 172.67 451.94 179.34 452.03 186.02 L 453.01 185.95 C 454.99 186.07 456.98 186.07 458.98 185.96 L 459.97 186.01 C 460.10 180.25 460.05 174.49 459.73 168.75 C 461.45 164.34 456.11 165.92 453.01 166.01 L 452.03 166.00 M 452.03 195.98 C 451.93 202.66 451.93 209.34 452.03 216.02 L 453.01 215.95 C 454.99 216.07 457.00 216.07 458.99 215.95 L 459.97 216.02 C 460.05 209.34 460.05 202.66 459.97 195.98 L 458.99 196.05 C 457.00 195.93 454.99 195.93 453.01 196.05 L 452.03 195.98 M 452.03 225.98 C 451.93 232.66 451.93 239.34 452.03 246.02 L 453.01 245.95 C 454.99 246.07 457.00 246.07 458.99 245.95 L 459.97 246.02 C 460.05 239.34 460.05 232.66 459.97 225.98 L 458.99 226.05 C 457.00 225.93 454.99 225.93 453.01 226.05 L 452.03 225.98 M 452.03 255.98 C 451.93 262.66 451.93 269.34 452.03 276.02 L 453.01 275.95 C 454.99 276.07 457.00 276.07 458.99 275.95 L 459.97 276.02 C 460.05 269.34 460.05 262.66 459.97 255.98 L 458.99 256.05 C 457.00 255.93 454.99 255.93 453.01 256.05 L 452.03 255.98 M 452.06 286.05 C 451.93 292.70 451.92 299.36 452.03 306.02 L 453.00 305.95 C 454.99 306.07 457.00 306.07 458.99 305.95 L 459.97 306.02 C 460.05 299.33 460.05 292.66 459.97 285.98 L 458.99 286.06 C 457.27 285.93 455.55 285.90 453.83 285.94 C 453.39 285.97 452.50 286.02 452.06 286.05 M 452.03 316.03 C 451.93 322.69 451.94 329.35 452.03 336.02 L 453.01 335.95 C 454.99 336.07 457.00 336.07 458.99 335.95 L 459.97 336.02 C 460.05 329.34 460.05 322.67 459.97 316.00 L 458.99 316.01 C 457.71 315.93 456.43 315.95 455.16 316.07 C 454.38 316.06 452.81 316.04 452.03 316.03 M 452.38 350.92 C 451.38 355.87 452.14 361.02 452.18 366.03 C 452.95 367.85 458.03 367.82 458.87 366.05 L 459.92 365.98 C 460.05 359.31 460.07 352.66 459.98 346.00 L 459.00 346.00 C 457.59 345.93 456.20 345.98 454.82 346.17 C 451.64 344.47 451.03 349.00 452.38 350.92 M 452.20 376.93 C 451.63 383.27 452.01 389.67 452.18 396.03 C 452.95 397.85 458.04 397.82 458.87 396.05 L 459.92 395.98 C 460.12 389.30 460.07 382.62 459.78 375.95 L 458.92 376.42 C 457.09 375.66 453.19 375.06 452.20 376.93 M 452.19 406.93 C 451.95 411.00 451.86 415.08 451.92 419.17 C 450.23 420.07 450.16 425.09 452.08 425.92 C 452.91 427.84 457.90 427.75 458.86 426.09 L 459.92 425.97 C 460.12 419.29 460.07 412.62 459.78 405.95 L 458.92 406.42 C 457.08 405.65 453.20 405.07 452.19 406.93 M 451.22 435.96 C 450.92 442.62 450.87 449.30 451.07 455.98 L 452.12 456.05 C 452.99 457.83 458.00 457.83 458.87 456.05 L 459.92 455.98 C 460.12 449.30 460.07 442.62 459.78 435.95 L 458.91 436.41 C 456.85 435.55 454.15 435.55 452.10 436.41 L 451.22 435.96 M 451.22 465.96 C 450.92 472.62 450.87 479.29 451.07 485.98 L 452.12 486.05 C 452.99 487.83 458.00 487.83 458.87 486.05 L 459.92 485.98 C 460.12 479.30 460.07 472.62 459.78 465.95 L 458.91 466.41 C 456.85 465.55 454.15 465.55 452.10 466.41 L 451.22 465.96 M 451.22 495.95 C 450.92 502.62 450.87 509.29 451.07 515.98 L 452.12 516.05 C 452.96 517.82 458.05 517.85 458.81 516.03 C 459.36 509.68 458.98 503.27 458.81 496.94 C 457.81 495.06 453.91 495.65 452.09 496.42 L 451.22 495.95 M 451.22 525.95 C 450.92 532.62 450.87 539.29 451.07 545.98 L 452.12 546.05 C 452.96 547.82 458.05 547.85 458.81 546.03 C 459.36 539.68 458.98 533.27 458.81 526.94 C 457.81 525.06 453.91 525.65 452.09 526.42 L 451.22 525.95 M 451.18 555.97 C 450.67 562.63 451.06 569.32 451.03 576.00 L 451.01 576.95 C 453.37 576.52 458.22 578.22 458.96 576.00 C 459.07 571.90 458.99 567.82 458.72 563.75 C 458.75 562.05 458.80 558.64 458.83 556.94 C 457.80 555.06 453.93 555.65 452.09 556.41 L 451.18 555.97 M 451.05 586.02 C 450.84 592.67 450.99 599.33 451.03 606.00 L 451.01 606.95 C 453.36 606.53 458.25 608.21 458.94 606.00 C 459.15 599.34 458.98 592.66 458.97 586.02 C 457.23 586.01 453.74 586.00 452.00 585.99 L 451.05 586.02 Z" />
</g>
<g id="#667686ff">
<path fill="#667686" opacity="1.00" d=" M 452.03 166.00 L 453.01 166.01 C 452.99 172.66 452.99 179.30 453.01 185.95 L 452.03 186.02 C 451.94 179.34 451.93 172.67 452.03 166.00 Z" />
</g>
<g id="#000001ff">
<path fill="#000001" opacity="1.00" d=" M 453.01 166.01 C 456.11 165.92 461.45 164.34 459.73 168.75 C 458.75 174.43 459.02 180.21 458.98 185.96 C 456.98 186.07 454.99 186.07 453.01 185.95 C 452.99 179.30 452.99 172.66 453.01 166.01 Z" />
<path fill="#000001" opacity="1.00" d=" M 455.16 316.07 C 456.43 315.95 457.71 315.93 458.99 316.01 C 458.99 322.65 459.00 329.30 458.99 335.95 C 457.00 336.07 454.99 336.07 453.01 335.95 C 452.98 329.78 452.83 323.59 453.27 317.44 C 453.75 317.09 454.69 316.41 455.16 316.07 Z" />
</g>
<g id="#171a1dff">
<path fill="#171a1d" opacity="1.00" d=" M 458.98 185.96 C 459.02 180.21 458.75 174.43 459.73 168.75 C 460.05 174.49 460.10 180.25 459.97 186.01 L 458.98 185.96 Z" />
</g>
<g id="#586674ff">
<path fill="#586674" opacity="1.00" d=" M 452.03 195.98 L 453.01 196.05 C 452.99 202.68 452.99 209.31 453.01 215.95 L 452.03 216.02 C 451.93 209.34 451.93 202.66 452.03 195.98 Z" />
</g>
<g id="#000000ff">
<path fill="#000000" opacity="1.00" d=" M 453.01 196.05 C 454.99 195.93 457.00 195.93 458.99 196.05 C 458.99 202.68 459.00 209.31 458.99 215.95 C 457.00 216.07 454.99 216.07 453.01 215.95 C 452.99 209.31 452.99 202.68 453.01 196.05 Z" />
<path fill="#000000" opacity="1.00" d=" M 452.20 376.93 C 453.87 376.96 457.22 377.00 458.90 377.02 C 459.06 383.36 458.99 389.70 458.87 396.05 C 457.20 396.05 453.85 396.04 452.18 396.03 C 452.01 389.67 451.63 383.27 452.20 376.93 Z" />
<path fill="#000000" opacity="1.00" d=" M 452.19 406.93 C 453.87 406.95 457.22 407.00 458.90 407.02 C 459.06 413.37 458.99 419.73 458.86 426.09 C 457.17 426.05 453.77 425.96 452.08 425.92 C 452.04 424.23 451.96 420.86 451.92 419.17 C 451.86 415.08 451.95 411.00 452.19 406.93 Z" />
<path fill="#000000" opacity="1.00" d=" M 452.12 436.98 C 453.81 436.98 457.20 436.99 458.89 436.99 C 459.06 443.34 458.99 449.69 458.87 456.05 C 457.18 456.05 453.81 456.05 452.12 456.05 C 451.89 449.69 452.02 443.33 452.12 436.98 Z" />
<path fill="#000000" opacity="1.00" d=" M 452.12 466.98 C 453.81 466.98 457.20 466.99 458.89 466.99 C 459.06 473.34 458.99 479.69 458.87 486.05 C 457.18 486.05 453.81 486.05 452.12 486.05 C 451.89 479.69 452.02 473.32 452.12 466.98 Z" />
<path fill="#000000" opacity="1.00" d=" M 452.12 497.01 C 453.79 496.99 457.14 496.96 458.81 496.94 C 458.98 503.27 459.36 509.68 458.81 516.03 C 457.14 516.04 453.79 516.05 452.12 516.05 C 451.89 509.70 452.02 503.35 452.12 497.01 Z" />
<path fill="#000000" opacity="1.00" d=" M 452.02 586.96 C 453.49 586.99 456.44 587.05 457.91 587.09 C 458.25 593.37 457.90 599.67 457.98 605.98 C 455.99 605.99 453.99 605.99 452.01 605.98 C 451.99 599.64 451.99 593.29 452.02 586.96 Z" />
<path fill="#000000" opacity="1.00" d=" M 452.03 616.96 C 453.50 616.99 456.44 617.05 457.91 617.09 C 458.25 623.37 457.90 629.67 458.00 635.98 C 456.00 635.99 454.00 635.99 452.00 635.99 C 451.99 629.64 451.98 623.28 452.03 616.96 Z" />
<path fill="#000000" opacity="1.00" d=" M 452.05 647.01 C 453.51 647.01 456.45 647.01 457.92 647.01 C 458.24 653.32 457.91 659.64 457.98 665.98 C 455.99 665.99 453.99 665.99 452.01 665.98 C 451.98 659.66 451.90 653.32 452.05 647.01 Z" />
<path fill="#000000" opacity="1.00" d=" M 452.07 677.11 C 453.54 677.08 456.50 677.01 457.98 676.97 C 458.01 683.30 457.99 689.63 457.98 695.98 C 455.99 695.99 453.99 695.99 452.01 695.98 C 451.98 689.69 451.90 683.38 452.07 677.11 Z" />
<path fill="#000000" opacity="1.00" d=" M 451.94 707.10 C 453.91 707.05 455.90 707.03 457.88 706.94 C 458.07 713.34 457.99 719.73 457.85 726.15 C 455.88 725.96 453.90 725.90 451.93 725.86 C 452.06 719.60 451.98 713.34 451.94 707.10 Z" />
</g>
<g id="#22272dff">
<path fill="#22272d" opacity="1.00" d=" M 458.99 196.05 L 459.97 195.98 C 460.05 202.66 460.05 209.34 459.97 216.02 L 458.99 215.95 C 459.00 209.31 458.99 202.68 458.99 196.05 Z" />
</g>
<g id="#4a5561ff">
<path fill="#4a5561" opacity="1.00" d=" M 452.03 225.98 L 453.01 226.05 C 452.99 232.68 452.99 239.31 453.01 245.95 L 452.03 246.02 C 451.93 239.34 451.93 232.66 452.03 225.98 Z" />
</g>
<g id="#010101ff">
<path fill="#010101" opacity="1.00" d=" M 453.01 226.05 C 454.99 225.93 457.00 225.93 458.99 226.05 C 458.99 232.68 459.00 239.31 458.99 245.95 C 457.00 246.07 454.99 246.07 453.01 245.95 C 452.99 239.31 452.99 232.68 453.01 226.05 Z" />
<path fill="#010101" opacity="1.00" d=" M 453.01 256.05 C 454.99 255.93 457.00 255.93 458.99 256.05 C 458.99 262.68 459.00 269.31 458.99 275.95 C 457.00 276.07 454.99 276.07 453.01 275.95 C 452.99 269.31 452.99 262.68 453.01 256.05 Z" />
<path fill="#010101" opacity="1.00" d=" M 453.83 285.94 C 455.55 285.90 457.27 285.93 458.99 286.06 C 458.99 292.68 459.00 299.32 458.99 305.95 C 457.00 306.07 454.99 306.07 453.00 305.95 C 453.03 299.27 452.57 292.53 453.83 285.94 Z" />
<path fill="#010101" opacity="1.00" d=" M 452.12 527.01 C 453.79 526.99 457.14 526.96 458.81 526.94 C 458.98 533.27 459.36 539.68 458.81 546.03 C 457.14 546.04 453.79 546.05 452.12 546.05 C 451.89 539.70 452.02 533.34 452.12 527.01 Z" />
<path fill="#010101" opacity="1.00" d=" M 452.12 557.01 C 453.80 556.99 457.15 556.96 458.83 556.94 C 458.80 558.64 458.75 562.05 458.72 563.75 C 458.12 567.78 458.04 571.89 457.96 575.98 C 455.97 575.99 453.98 575.99 452.00 575.98 C 451.98 569.65 452.00 563.32 452.12 557.01 Z" />
<path fill="#010101" opacity="1.00" d=" M 451.99 737.17 C 453.95 737.06 455.91 737.03 457.88 736.94 C 458.07 743.30 457.99 749.66 457.87 756.05 C 456.20 756.05 452.85 756.04 451.17 756.03 C 450.81 751.97 450.90 747.95 451.44 743.95 C 452.19 741.67 452.37 739.41 451.99 737.17 Z" />
</g>
<g id="#313941ff">
<path fill="#313941" opacity="1.00" d=" M 458.99 226.05 L 459.97 225.98 C 460.05 232.66 460.05 239.34 459.97 246.02 L 458.99 245.95 C 459.00 239.31 458.99 232.68 458.99 226.05 Z" />
</g>
<g id="#3a434dff">
<path fill="#3a434d" opacity="1.00" d=" M 452.03 255.98 L 453.01 256.05 C 452.99 262.68 452.99 269.31 453.01 275.95 L 452.03 276.02 C 451.93 269.34 451.93 262.66 452.03 255.98 Z" />
</g>
<g id="#414b55ff">
<path fill="#414b55" opacity="1.00" d=" M 458.99 256.05 L 459.97 255.98 C 460.05 262.66 460.05 269.34 459.97 276.02 L 458.99 275.95 C 459.00 269.31 458.99 262.68 458.99 256.05 Z" />
</g>
<g id="#2c323aff">
<path fill="#2c323a" opacity="1.00" d=" M 452.06 286.05 C 452.50 286.02 453.39 285.97 453.83 285.94 C 452.57 292.53 453.03 299.27 453.00 305.95 L 452.03 306.02 C 451.92 299.36 451.93 292.70 452.06 286.05 Z" />
</g>
<g id="#4f5b68ff">
<path fill="#4f5b68" opacity="1.00" d=" M 458.99 286.06 L 459.97 285.98 C 460.05 292.66 460.05 299.33 459.97 306.02 L 458.99 305.95 C 459.00 299.32 458.99 292.68 458.99 286.06 Z" />
</g>
<g id="#1e2227ff">
<path fill="#1e2227" opacity="1.00" d=" M 452.03 316.03 C 452.81 316.04 454.38 316.06 455.16 316.07 C 454.69 316.41 453.75 317.09 453.27 317.44 C 452.83 323.59 452.98 329.78 453.01 335.95 L 452.03 336.02 C 451.94 329.35 451.93 322.69 452.03 316.03 Z" />
<path fill="#1e2227" opacity="1.00" d=" M 452.10 436.41 C 454.15 435.55 456.85 435.55 458.91 436.41 L 458.89 436.99 C 457.20 436.99 453.81 436.98 452.12 436.98 L 452.10 436.41 Z" />
<path fill="#1e2227" opacity="1.00" d=" M 452.10 466.41 C 454.15 465.55 456.85 465.55 458.91 466.41 L 458.89 466.99 C 457.20 466.99 453.81 466.98 452.12 466.98 L 452.10 466.41 Z" />
</g>
<g id="#5d6b7bff">
<path fill="#5d6b7b" opacity="1.00" d=" M 458.99 316.01 L 459.97 316.00 C 460.05 322.67 460.05 329.34 459.97 336.02 L 458.99 335.95 C 459.00 329.30 458.99 322.65 458.99 316.01 Z" />
</g>
<g id="#1b1f23ff">
<path fill="#1b1f23" opacity="1.00" d=" M 452.38 350.92 C 451.03 349.00 451.64 344.47 454.82 346.17 C 453.32 347.33 452.97 349.22 452.38 350.92 Z" />
</g>
<g id="#020202ff">
<path fill="#020202" opacity="1.00" d=" M 454.82 346.17 C 456.20 345.98 457.59 345.93 459.00 346.00 C 458.95 352.67 459.13 359.37 458.87 366.05 C 457.20 366.05 453.85 366.04 452.18 366.03 C 452.14 361.02 451.38 355.87 452.38 350.92 C 452.97 349.22 453.32 347.33 454.82 346.17 Z" />
</g>
<g id="#6c7d8fff">
<path fill="#6c7d8f" opacity="1.00" d=" M 459.00 346.00 L 459.98 346.00 C 460.07 352.66 460.05 359.31 459.92 365.98 L 458.87 366.05 C 459.13 359.37 458.95 352.67 459.00 346.00 Z" />
</g>
<g id="#9fb7d1ff">
<path fill="#9fb7d1" opacity="1.00" d=" M 452.18 366.03 C 453.85 366.04 457.20 366.05 458.87 366.05 C 458.03 367.82 452.95 367.85 452.18 366.03 Z" />
</g>
<g id="#1d2126ff">
<path fill="#1d2126" opacity="1.00" d=" M 452.20 376.93 C 453.19 375.06 457.09 375.66 458.92 376.42 L 458.90 377.02 C 457.22 377.00 453.87 376.96 452.20 376.93 Z" />
</g>
<g id="#7b8fa3ff">
<path fill="#7b8fa3" opacity="1.00" d=" M 458.92 376.42 L 459.78 375.95 C 460.07 382.62 460.12 389.30 459.92 395.98 L 458.87 396.05 C 458.99 389.70 459.06 383.36 458.90 377.02 L 458.92 376.42 Z" />
</g>
<g id="#9db6cfff">
<path fill="#9db6cf" opacity="1.00" d=" M 452.18 396.03 C 453.85 396.04 457.20 396.05 458.87 396.05 C 458.04 397.82 452.95 397.85 452.18 396.03 Z" />
</g>
<g id="#1e2327ff">
<path fill="#1e2327" opacity="1.00" d=" M 452.19 406.93 C 453.20 405.07 457.08 405.65 458.92 406.42 L 458.90 407.02 C 457.22 407.00 453.87 406.95 452.19 406.93 Z" />
</g>
<g id="#8a9fb5ff">
<path fill="#8a9fb5" opacity="1.00" d=" M 458.92 406.42 L 459.78 405.95 C 460.07 412.62 460.12 419.29 459.92 425.97 L 458.86 426.09 C 458.99 419.73 459.06 413.37 458.90 407.02 L 458.92 406.42 Z" />
</g>
<g id="#aac5e0ff">
<path fill="#aac5e0" opacity="1.00" d=" M 452.08 425.92 C 450.16 425.09 450.23 420.07 451.92 419.17 C 451.96 420.86 452.04 424.23 452.08 425.92 Z" />
</g>
<g id="#9eb6cfff">
<path fill="#9eb6cf" opacity="1.00" d=" M 452.08 425.92 C 453.77 425.96 457.17 426.05 458.86 426.09 C 457.90 427.75 452.91 427.84 452.08 425.92 Z" />
<path fill="#9eb6cf" opacity="1.00" d=" M 452.12 456.05 C 453.81 456.05 457.18 456.05 458.87 456.05 C 458.00 457.83 452.99 457.83 452.12 456.05 Z" />
</g>
<g id="#a2bcd6ff">
<path fill="#a2bcd6" opacity="1.00" d=" M 451.22 435.96 L 452.10 436.41 L 452.12 436.98 C 452.02 443.33 451.89 449.69 452.12 456.05 L 451.07 455.98 C 450.87 449.30 450.92 442.62 451.22 435.96 Z" />
</g>
<g id="#98b0c8ff">
<path fill="#98b0c8" opacity="1.00" d=" M 458.91 436.41 L 459.78 435.95 C 460.07 442.62 460.12 449.30 459.92 455.98 L 458.87 456.05 C 458.99 449.69 459.06 443.34 458.89 436.99 L 458.91 436.41 Z" />
</g>
<g id="#94abc2ff">
<path fill="#94abc2" opacity="1.00" d=" M 451.22 465.96 L 452.10 466.41 L 452.12 466.98 C 452.02 473.32 451.89 479.69 452.12 486.05 L 451.07 485.98 C 450.87 479.29 450.92 472.62 451.22 465.96 Z" />
</g>
<g id="#a6c1dbff">
<path fill="#a6c1db" opacity="1.00" d=" M 458.91 466.41 L 459.78 465.95 C 460.07 472.62 460.12 479.30 459.92 485.98 L 458.87 486.05 C 458.99 479.69 459.06 473.34 458.89 466.99 L 458.91 466.41 Z" />
</g>
<g id="#9cb4cdff">
<path fill="#9cb4cd" opacity="1.00" d=" M 452.12 486.05 C 453.81 486.05 457.18 486.05 458.87 486.05 C 458.00 487.83 452.99 487.83 452.12 486.05 Z" />
</g>
<g id="#869bb1ff">
<path fill="#869bb1" opacity="1.00" d=" M 451.22 495.95 L 452.09 496.42 L 452.12 497.01 C 452.02 503.35 451.89 509.70 452.12 516.05 L 451.07 515.98 C 450.87 509.29 450.92 502.62 451.22 495.95 Z" />
</g>
<g id="#1e2328ff">
<path fill="#1e2328" opacity="1.00" d=" M 452.09 496.42 C 453.91 495.65 457.81 495.06 458.81 496.94 C 457.14 496.96 453.79 496.99 452.12 497.01 L 452.09 496.42 Z" />
</g>
<g id="#93aac2ff">
<path fill="#93aac2" opacity="1.00" d=" M 452.12 516.05 C 453.79 516.05 457.14 516.04 458.81 516.03 C 458.05 517.85 452.96 517.82 452.12 516.05 Z" />
</g>
<g id="#778a9eff">
<path fill="#778a9e" opacity="1.00" d=" M 451.22 525.95 L 452.09 526.42 L 452.12 527.01 C 452.02 533.34 451.89 539.70 452.12 546.05 L 451.07 545.98 C 450.87 539.29 450.92 532.62 451.22 525.95 Z" />
</g>
<g id="#252b31ff">
<path fill="#252b31" opacity="1.00" d=" M 452.09 526.42 C 453.91 525.65 457.81 525.06 458.81 526.94 C 457.14 526.96 453.79 526.99 452.12 527.01 L 452.09 526.42 Z" />
</g>
<g id="#92a8c0ff">
<path fill="#92a8c0" opacity="1.00" d=" M 452.12 546.05 C 453.79 546.05 457.14 546.04 458.81 546.03 C 458.05 547.85 452.96 547.82 452.12 546.05 Z" />
</g>
<g id="#69798aff">
<path fill="#69798a" opacity="1.00" d=" M 451.18 555.97 L 452.09 556.41 L 452.12 557.01 C 452.00 563.32 451.98 569.65 452.00 575.98 L 451.03 576.00 C 451.06 569.32 450.67 562.63 451.18 555.97 Z" />
</g>
<g id="#2b3239ff">
<path fill="#2b3239" opacity="1.00" d=" M 452.09 556.41 C 453.93 555.65 457.80 555.06 458.83 556.94 C 457.15 556.96 453.80 556.99 452.12 557.01 L 452.09 556.41 Z" />
</g>
<g id="#171a1eff">
<path fill="#171a1e" opacity="1.00" d=" M 457.96 575.98 C 458.04 571.89 458.12 567.78 458.72 563.75 C 458.99 567.82 459.07 571.90 458.96 576.00 L 457.96 575.98 Z" />
</g>
<g id="#95acc4ff">
<path fill="#95acc4" opacity="1.00" d=" M 451.03 576.00 L 452.00 575.98 C 453.98 575.99 455.97 575.99 457.96 575.98 L 458.96 576.00 C 458.22 578.22 453.37 576.52 451.01 576.95 L 451.03 576.00 Z" />
</g>
<g id="#5b6978ff">
<path fill="#5b6978" opacity="1.00" d=" M 451.05 586.02 L 452.00 585.99 L 452.02 586.96 C 451.99 593.29 451.99 599.64 452.01 605.98 L 451.03 606.00 C 450.99 599.33 450.84 592.67 451.05 586.02 Z" />
</g>
<g id="#252a31ff">
<path fill="#252a31" opacity="1.00" d=" M 452.00 585.99 C 453.74 586.00 457.23 586.01 458.97 586.02 C 458.98 592.66 459.15 599.34 458.94 606.00 L 457.98 605.98 C 457.90 599.67 458.25 593.37 457.91 587.09 C 456.44 587.05 453.49 586.99 452.02 586.96 L 452.00 585.99 Z" />
</g>
<g id="#94acc4ff">
<path fill="#94acc4" opacity="1.00" d=" M 451.03 606.00 L 452.01 605.98 C 453.99 605.99 455.99 605.99 457.98 605.98 L 458.94 606.00 C 458.25 608.21 453.36 606.53 451.01 606.95 L 451.03 606.00 Z" />
</g>
<g id="#56a5f8ff">
<path fill="#56a5f8" opacity="1.00" d=" M 416.78 611.77 C 420.57 611.26 424.38 611.07 428.21 611.19 C 424.42 611.75 420.61 611.94 416.78 611.77 Z" />
</g>
<g id="#027cfeff">
<path fill="#027cfe" opacity="1.00" d=" M 428.21 611.19 C 432.79 610.91 437.38 610.91 441.98 611.00 C 441.95 614.23 442.04 617.57 441.91 620.84 C 438.66 621.03 435.48 620.97 432.26 621.28 C 429.13 621.12 426.08 620.97 422.98 620.99 C 420.18 620.96 417.40 620.85 414.74 621.67 C 410.76 621.61 406.73 622.84 402.79 622.18 C 403.14 618.87 400.94 614.79 403.21 612.18 C 407.71 611.66 412.25 612.02 416.78 611.77 C 420.61 611.94 424.42 611.75 428.21 611.19 Z" />
</g>
<g id="#5aaafdff">
<path fill="#5aaafd" opacity="1.00" d=" M 441.98 611.00 C 444.45 612.17 442.25 617.66 443.27 620.19 C 442.93 620.35 442.25 620.68 441.91 620.84 C 442.04 617.57 441.95 614.23 441.98 611.00 Z" />
</g>
<g id="#2377d0ff">
<path fill="#2377d0" opacity="1.00" d=" M 461.85 619.04 C 462.75 616.86 459.64 610.83 463.02 611.03 C 462.98 614.28 462.99 617.64 463.06 620.93 C 462.76 620.46 462.15 619.51 461.85 619.04 Z" />
</g>
<g id="#037cfdff">
<path fill="#037cfd" opacity="1.00" d=" M 463.02 611.03 C 476.00 610.52 488.92 612.42 501.91 612.08 C 502.17 615.36 502.06 618.60 501.97 621.92 C 495.71 621.96 489.46 622.15 483.21 621.81 C 479.41 621.22 475.60 621.04 471.78 621.25 C 468.83 621.07 465.97 621.15 463.06 620.93 C 462.99 617.64 462.98 614.28 463.02 611.03 Z" />
</g>
<g id="#057cfcff">
<path fill="#057cfc" opacity="1.00" d=" M 344.27 618.26 C 357.09 616.32 370.03 615.23 382.94 614.06 C 383.15 617.44 382.84 620.76 382.75 624.18 C 372.73 624.56 362.71 625.93 352.82 627.55 C 349.90 628.03 347.00 628.56 344.08 628.91 C 345.38 626.04 340.40 620.17 344.27 618.26 Z" />
<path fill="#057cfc" opacity="1.00" d=" M 284.02 630.16 C 296.86 627.12 309.81 624.24 322.81 622.06 C 324.17 625.08 324.51 628.40 324.83 631.68 C 323.44 632.17 322.05 632.64 320.67 633.15 C 309.35 634.66 297.83 636.70 286.99 640.40 C 285.35 637.22 284.36 633.71 284.02 630.16 Z" />
</g>
<g id="#057dfdff">
<path fill="#057dfd" opacity="1.00" d=" M 522.18 614.01 C 535.45 615.51 548.77 617.05 561.97 619.17 C 561.86 622.20 560.88 625.14 561.16 628.21 C 558.38 629.97 554.94 627.57 552.10 627.84 C 544.78 627.22 537.55 625.29 530.21 625.24 C 527.14 624.84 524.16 624.59 521.20 623.84 C 521.76 620.61 522.17 617.27 522.18 614.01 Z" />
</g>
<g id="#3f5465ff">
<path fill="#3f5465" opacity="1.00" d=" M 450.94 619.97 C 451.42 618.80 450.05 615.76 452.02 616.00 L 452.03 616.96 C 451.98 623.28 451.99 629.64 452.00 635.99 L 451.01 636.01 C 450.88 630.64 451.05 625.32 450.94 619.97 Z" />
</g>
<g id="#28343fff">
<path fill="#28343f" opacity="1.00" d=" M 452.02 616.00 C 455.10 616.00 460.14 614.36 459.09 618.98 C 459.01 624.64 459.09 630.31 458.98 636.00 L 458.00 635.98 C 457.90 629.67 458.25 623.37 457.91 617.09 C 456.44 617.05 453.50 616.99 452.03 616.96 L 452.02 616.00 Z" />
</g>
<g id="#92d1ffff">
<path fill="#92d1ff" opacity="1.00" d=" M 459.09 618.98 C 459.78 618.99 461.16 619.02 461.85 619.04 C 462.15 619.51 462.76 620.46 463.06 620.93 C 465.97 621.15 468.83 621.07 471.78 621.25 C 475.57 621.71 479.38 621.90 483.21 621.81 C 489.46 622.15 495.71 621.96 501.97 621.92 C 502.89 623.79 497.50 622.71 499.47 623.67 C 509.27 627.22 520.05 626.22 530.21 625.24 C 537.55 625.29 544.78 627.22 552.10 627.84 C 554.94 627.57 558.38 629.97 561.16 628.21 C 567.66 627.19 573.75 630.44 579.93 631.97 C 592.89 634.43 605.77 637.29 618.64 640.21 C 625.45 645.49 634.69 647.78 643.22 647.20 C 653.35 649.82 663.05 653.87 673.09 656.82 C 674.45 657.47 675.08 655.92 675.71 655.07 C 681.22 658.35 687.73 659.60 693.03 663.30 C 693.15 664.47 693.87 665.56 695.05 665.93 C 705.62 670.41 715.96 675.37 725.97 680.99 C 728.24 683.57 728.70 679.84 729.78 678.67 C 734.72 682.71 739.68 687.07 745.82 689.16 C 745.25 690.04 744.65 690.91 744.17 691.84 C 753.87 698.70 763.88 705.25 772.36 713.65 C 775.44 716.68 777.43 711.46 779.85 709.96 C 780.24 711.35 780.71 712.73 781.22 714.11 C 783.90 720.22 787.46 725.93 789.89 732.18 C 800.59 746.03 808.73 762.34 810.11 780.00 C 813.30 797.61 808.03 815.45 799.99 831.02 C 785.59 855.87 763.50 875.32 739.26 890.29 C 723.61 901.93 705.01 908.49 687.28 916.24 C 683.09 917.35 680.33 921.12 676.11 922.15 C 670.85 923.71 665.89 926.99 660.21 926.35 C 649.52 930.57 638.26 932.96 627.30 936.33 C 622.23 940.85 614.93 940.80 608.69 942.64 C 606.55 942.99 604.44 941.77 602.31 942.33 C 591.97 944.62 581.57 946.63 571.09 948.15 C 562.84 953.04 552.51 953.42 543.10 952.30 C 533.44 953.30 523.81 954.78 514.10 955.25 C 510.49 955.52 507.83 958.50 504.11 958.24 C 501.03 956.71 498.63 956.96 496.93 958.96 C 493.26 959.83 490.24 958.79 487.24 957.34 C 484.48 957.10 481.73 956.98 478.98 956.98 C 474.88 956.93 470.76 956.91 466.74 957.68 C 457.56 958.16 448.37 958.11 439.21 957.80 C 434.83 957.05 430.41 956.93 426.00 956.99 C 422.89 956.92 419.86 957.09 416.78 957.14 C 415.14 957.12 413.29 956.75 411.95 957.95 C 407.88 959.92 403.20 958.29 398.97 958.22 C 393.45 959.94 390.46 953.39 384.99 955.03 C 374.96 954.46 365.03 952.81 355.02 952.15 C 347.46 953.30 338.99 952.79 332.35 948.76 C 320.47 946.33 308.53 944.17 296.71 941.46 C 291.25 944.03 284.73 939.31 279.01 938.96 C 272.68 934.19 264.31 933.81 256.98 931.06 C 249.94 929.79 243.63 925.00 236.31 925.49 C 228.78 923.37 221.87 919.64 214.97 916.08 C 204.73 911.80 194.76 906.96 184.62 902.48 C 174.60 898.46 166.24 891.42 157.01 885.98 C 136.21 871.58 116.27 854.47 103.91 832.02 C 93.14 813.93 89.50 791.63 94.02 771.07 C 97.54 756.05 106.31 742.75 115.62 730.62 C 116.68 729.20 115.58 727.43 114.96 726.08 C 117.67 720.45 120.53 714.89 124.07 709.74 C 125.99 711.55 127.84 713.46 129.91 715.14 C 133.18 712.34 136.21 709.27 139.86 706.95 C 141.58 706.77 143.57 707.22 144.96 705.94 C 149.25 702.64 154.09 699.56 156.89 694.79 C 157.98 693.79 159.18 692.94 160.40 692.13 C 166.27 689.29 171.61 685.46 177.16 682.05 C 178.88 680.74 180.72 679.58 182.74 678.77 C 192.36 677.21 201.07 671.77 210.62 669.59 C 216.66 664.92 222.82 660.40 229.22 656.24 C 231.23 657.09 233.40 656.77 235.28 655.49 C 242.86 653.02 250.27 649.99 258.00 647.98 C 261.06 646.90 264.76 646.67 267.23 644.30 C 273.85 644.99 280.57 641.93 286.99 640.40 C 297.83 636.70 309.35 634.66 320.67 633.15 C 332.37 635.90 343.70 629.35 355.30 628.66 C 354.68 628.38 353.44 627.83 352.82 627.55 C 362.71 625.93 372.73 624.56 382.75 624.18 C 389.33 625.37 396.16 623.10 402.79 622.18 C 406.73 622.84 410.76 621.61 414.74 621.67 C 417.48 621.82 420.25 621.93 423.02 622.01 C 426.08 622.00 429.31 622.36 432.26 621.28 C 435.48 620.97 438.66 621.03 441.91 620.84 C 442.25 620.68 442.93 620.35 443.27 620.19 C 445.81 620.05 448.37 619.98 450.94 619.97 C 451.05 625.32 450.88 630.64 451.01 636.01 C 450.68 639.34 456.76 636.37 458.93 636.95 L 458.98 636.00 C 459.09 630.31 459.01 624.64 459.09 618.98 M 451.07 646.02 C 450.82 652.67 451.00 659.33 451.03 666.00 L 451.01 666.95 C 453.36 666.53 458.25 668.21 458.94 666.00 C 459.15 659.35 458.98 652.68 458.97 646.05 C 456.33 645.91 453.69 645.90 451.07 646.02 M 451.07 676.02 C 450.82 682.67 451.00 689.33 451.03 696.00 L 451.01 696.95 C 453.36 696.53 458.24 698.21 458.94 696.00 C 459.15 689.33 458.97 682.64 458.97 675.99 L 458.01 676.01 C 456.27 676.01 452.80 676.01 451.07 676.02 M 451.23 706.78 C 450.61 713.22 451.01 719.73 451.23 726.20 C 452.12 727.73 456.87 727.65 457.85 726.15 L 458.91 725.96 C 459.12 719.28 459.08 712.62 458.78 705.96 L 457.89 706.38 C 456.03 705.80 452.33 705.15 451.23 706.78 M 451.42 737.00 C 450.24 739.02 450.50 741.85 451.44 743.95 C 450.90 747.95 450.81 751.97 451.17 756.03 C 451.95 757.85 457.03 757.82 457.87 756.05 L 458.92 755.98 C 459.12 749.30 459.07 742.62 458.78 735.96 L 457.90 736.37 C 456.14 735.82 452.09 735.02 451.42 737.00 M 451.21 766.94 C 450.90 769.88 450.94 772.67 450.78 775.68 C 445.48 777.25 440.64 783.46 443.08 788.93 C 444.74 795.07 452.33 797.99 458.00 796.01 C 463.24 795.59 465.81 790.49 466.84 786.00 C 466.00 781.61 463.42 777.46 458.99 776.02 C 459.12 772.69 458.90 769.24 458.77 765.95 L 457.89 766.42 C 456.09 765.64 452.17 765.06 451.21 766.94 Z" />
</g>
<g id="#2580dfff">
<path fill="#2580df" opacity="1.00" d=" M 414.74 621.67 C 417.40 620.85 420.18 620.96 422.98 620.99 L 423.02 622.01 C 420.25 621.93 417.48 621.82 414.74 621.67 Z" />
</g>
<g id="#5eaaf0ff">
<path fill="#5eaaf0" opacity="1.00" d=" M 422.98 620.99 C 426.08 620.97 429.13 621.12 432.26 621.28 C 429.31 622.36 426.08 622.00 423.02 622.01 L 422.98 620.99 Z" />
</g>
<g id="#54a5f1ff">
<path fill="#54a5f1" opacity="1.00" d=" M 471.78 621.25 C 475.60 621.04 479.41 621.22 483.21 621.81 C 479.38 621.90 475.57 621.71 471.78 621.25 Z" />
</g>
<g id="#057cfdff">
<path fill="#057cfd" opacity="1.00" d=" M 582.10 622.31 C 593.70 624.18 605.14 626.97 616.63 629.44 C 618.03 629.84 619.58 630.06 620.74 631.06 C 620.04 634.11 619.13 637.11 618.64 640.21 C 605.77 637.29 592.89 634.43 579.93 631.97 C 580.89 628.84 580.07 624.97 582.10 622.31 Z" />
</g>
<g id="#057bf9ff">
<path fill="#057bf9" opacity="1.00" d=" M 227.16 647.34 C 239.55 643.20 251.74 637.61 264.77 636.10 C 265.83 638.75 266.40 641.56 267.23 644.30 C 264.76 646.67 261.06 646.90 258.00 647.98 C 250.27 649.99 242.86 653.02 235.28 655.49 C 233.40 656.77 231.23 657.09 229.22 656.24 C 228.46 653.31 226.62 650.46 227.16 647.34 Z" />
</g>
<g id="#70a0c4ff">
<path fill="#70a0c4" opacity="1.00" d=" M 451.01 636.01 L 452.00 635.99 C 454.00 635.99 456.00 635.99 458.00 635.98 L 458.98 636.00 L 458.93 636.95 C 456.76 636.37 450.68 639.34 451.01 636.01 Z" />
</g>
<g id="#047cfdff">
<path fill="#047cfd" opacity="1.00" d=" M 640.22 636.07 C 653.13 638.68 665.56 643.68 677.90 648.27 C 677.50 650.62 676.52 652.82 675.71 655.07 C 675.08 655.92 674.45 657.47 673.09 656.82 C 663.05 653.87 653.35 649.82 643.22 647.20 C 641.50 646.74 639.80 646.22 638.12 645.68 C 637.86 642.29 638.94 639.11 640.22 636.07 Z" />
</g>
<g id="#2e414fff">
<path fill="#2e414f" opacity="1.00" d=" M 451.07 646.02 C 453.69 645.90 456.33 645.91 458.97 646.05 C 458.98 652.68 459.15 659.35 458.94 666.00 L 457.98 665.98 C 457.91 659.64 458.24 653.32 457.92 647.01 C 456.45 647.01 453.51 647.01 452.05 647.01 C 451.90 653.32 451.98 659.66 452.01 665.98 L 451.03 666.00 C 451.00 659.33 450.82 652.67 451.07 646.02 Z" />
</g>
<g id="#0779f4ff">
<path fill="#0779f4" opacity="1.00" d=" M 171.89 672.16 C 183.64 665.98 195.58 660.07 207.91 655.13 C 209.27 658.30 211.06 661.36 211.90 664.72 C 201.88 668.75 192.29 673.76 182.74 678.77 C 180.72 679.58 178.88 680.74 177.16 682.05 C 175.27 678.83 173.11 675.70 171.89 672.16 Z" />
</g>
<g id="#047cfcff">
<path fill="#047cfc" opacity="1.00" d=" M 693.03 663.30 C 695.39 661.29 694.58 654.79 698.66 656.39 C 710.37 661.28 721.57 667.31 732.89 673.03 C 731.82 674.88 730.66 676.70 729.78 678.67 C 728.70 679.84 728.24 683.57 725.97 680.99 C 715.96 675.37 705.62 670.41 695.05 665.93 C 693.87 665.56 693.15 664.47 693.03 663.30 Z" />
</g>
<g id="#6a98baff">
<path fill="#6a98ba" opacity="1.00" d=" M 451.03 666.00 L 452.01 665.98 C 453.99 665.99 455.99 665.99 457.98 665.98 L 458.94 666.00 C 458.25 668.21 453.36 666.53 451.01 666.95 L 451.03 666.00 Z" />
</g>
<g id="#243440ff">
<path fill="#243440" opacity="1.00" d=" M 451.07 676.02 C 452.80 676.01 456.27 676.01 458.01 676.01 L 457.98 676.97 C 456.50 677.01 453.54 677.08 452.07 677.11 C 451.90 683.38 451.98 689.69 452.01 695.98 L 451.03 696.00 C 451.00 689.33 450.82 682.67 451.07 676.02 Z" />
</g>
<g id="#3c5668ff">
<path fill="#3c5668" opacity="1.00" d=" M 458.01 676.01 L 458.97 675.99 C 458.97 682.64 459.15 689.33 458.94 696.00 L 457.98 695.98 C 457.99 689.63 458.01 683.30 457.98 676.97 L 458.01 676.01 Z" />
</g>
<g id="#0674eaff">
<path fill="#0674ea" opacity="1.00" d=" M 128.84 700.93 C 137.87 695.41 145.21 687.42 154.87 682.84 C 156.87 685.80 159.00 688.80 160.40 692.13 C 159.18 692.94 157.98 693.79 156.89 694.79 C 150.95 698.45 145.34 702.63 139.86 706.95 C 136.21 709.27 133.18 712.34 129.91 715.14 C 127.84 713.46 125.99 711.55 124.07 709.74 C 124.70 708.44 123.87 707.31 123.35 706.17 C 125.47 704.73 127.53 703.17 128.84 700.93 Z" />
</g>
<g id="#047bfbff">
<path fill="#047bfb" opacity="1.00" d=" M 745.82 689.16 C 747.30 687.65 747.92 684.54 750.01 684.12 C 759.15 688.37 766.24 696.18 774.96 701.11 C 775.84 704.63 783.25 706.12 779.85 709.96 C 777.43 711.46 775.44 716.68 772.36 713.65 C 763.88 705.25 753.87 698.70 744.17 691.84 C 744.65 690.91 745.25 690.04 745.82 689.16 Z" />
</g>
<g id="#a9d1f3ff">
<path fill="#a9d1f3" opacity="1.00" d=" M 139.86 706.95 C 145.34 702.63 150.95 698.45 156.89 694.79 C 154.09 699.56 149.25 702.64 144.96 705.94 C 143.57 707.22 141.58 706.77 139.86 706.95 Z" />
</g>
<g id="#6895b6ff">
<path fill="#6895b6" opacity="1.00" d=" M 451.03 696.00 L 452.01 695.98 C 453.99 695.99 455.99 695.99 457.98 695.98 L 458.94 696.00 C 458.24 698.21 453.36 696.53 451.01 696.95 L 451.03 696.00 Z" />
</g>
<g id="#2d404eff">
<path fill="#2d404e" opacity="1.00" d=" M 451.23 706.78 C 452.33 705.15 456.03 705.80 457.89 706.38 L 457.88 706.94 C 455.90 707.03 453.91 707.05 451.94 707.10 L 451.23 706.78 Z" />
</g>
<g id="#46647bff">
<path fill="#46647b" opacity="1.00" d=" M 457.89 706.38 L 458.78 705.96 C 459.08 712.62 459.12 719.28 458.91 725.96 L 457.85 726.15 C 457.99 719.73 458.07 713.34 457.88 706.94 L 457.89 706.38 Z" />
</g>
<g id="#182229ff">
<path fill="#182229" opacity="1.00" d=" M 451.23 706.78 L 451.94 707.10 C 451.98 713.34 452.06 719.60 451.93 725.86 L 451.23 726.20 C 451.01 719.73 450.61 713.22 451.23 706.78 Z" />
</g>
<g id="#017bfeff">
<path fill="#017bfe" opacity="1.00" d=" M 781.22 714.11 C 784.54 712.11 788.11 710.66 791.93 709.92 L 792.69 710.22 C 798.30 720.26 804.06 730.23 809.75 740.23 C 813.43 746.66 817.90 752.80 820.00 760.00 C 822.79 777.70 825.35 796.13 820.73 813.77 C 814.99 816.99 815.39 824.84 812.06 829.99 C 809.42 831.72 813.22 832.33 812.56 833.80 C 807.26 845.63 798.85 855.71 790.30 865.31 C 789.12 866.94 786.43 863.65 785.73 866.75 C 781.99 871.30 776.06 874.49 774.22 880.27 C 765.11 888.31 755.08 895.30 744.67 901.59 C 736.87 904.45 729.03 908.23 722.95 913.95 C 712.73 919.44 702.00 923.87 691.29 928.27 C 680.72 930.87 670.79 935.61 660.80 939.65 C 634.76 947.88 608.11 954.12 581.34 959.41 C 557.60 962.65 533.97 967.02 509.99 968.06 C 480.78 971.39 451.33 969.48 422.00 970.03 C 379.44 968.38 336.84 963.31 295.29 953.63 C 250.84 943.33 206.82 928.82 167.35 905.59 C 150.82 896.12 134.72 885.32 121.79 871.21 C 105.11 857.97 93.38 839.29 86.52 819.25 C 81.98 808.12 80.73 795.91 80.96 783.99 C 80.89 779.60 83.05 775.37 82.14 771.00 C 83.96 756.63 91.19 743.75 98.35 731.42 L 99.05 731.14 C 103.40 729.84 105.30 725.09 108.24 722.11 C 111.22 721.35 112.80 724.68 114.96 726.08 C 115.58 727.43 116.68 729.20 115.62 730.62 C 106.31 742.75 97.54 756.05 94.02 771.07 C 89.50 791.63 93.14 813.93 103.91 832.02 C 116.27 854.47 136.21 871.58 157.01 885.98 C 166.24 891.42 174.60 898.46 184.62 902.48 C 194.76 906.96 204.73 911.80 214.97 916.08 C 221.87 919.64 228.78 923.37 236.31 925.49 C 243.63 925.00 249.94 929.79 256.98 931.06 C 264.31 933.81 272.68 934.19 279.01 938.96 C 284.73 939.31 291.25 944.03 296.71 941.46 C 308.53 944.17 320.47 946.33 332.35 948.76 C 338.99 952.79 347.46 953.30 355.02 952.15 C 365.03 952.81 374.96 954.46 384.99 955.03 C 390.46 953.39 393.45 959.94 398.97 958.22 C 403.20 958.29 407.88 959.92 411.95 957.95 C 413.29 956.75 415.14 957.12 416.78 957.14 C 419.80 957.54 422.91 958.11 426.00 958.03 C 430.39 958.01 434.80 957.90 439.21 957.80 C 448.37 958.11 457.56 958.16 466.74 957.68 C 470.82 957.86 474.91 957.98 479.02 958.02 C 481.73 957.91 484.58 958.15 487.24 957.34 C 490.24 958.79 493.26 959.83 496.93 958.96 C 499.72 960.02 502.11 959.78 504.11 958.24 C 507.83 958.50 510.49 955.52 514.10 955.25 C 523.81 954.78 533.44 953.30 543.10 952.30 C 552.51 953.42 562.84 953.04 571.09 948.15 C 581.57 946.63 591.97 944.62 602.31 942.33 C 604.44 941.77 606.55 942.99 608.69 942.64 C 614.93 940.80 622.23 940.85 627.30 936.33 C 638.26 932.96 649.52 930.57 660.21 926.35 C 665.89 926.99 670.85 923.71 676.11 922.15 C 680.33 921.12 683.09 917.35 687.28 916.24 C 705.01 908.49 723.61 901.93 739.26 890.29 C 763.50 875.32 785.59 855.87 799.99 831.02 C 808.03 815.45 813.30 797.61 810.11 780.00 C 808.73 762.34 800.59 746.03 789.89 732.18 C 787.46 725.93 783.90 720.22 781.22 714.11 Z" />
</g>
<g id="#6490b0ff">
<path fill="#6490b0" opacity="1.00" d=" M 451.23 726.20 L 451.93 725.86 C 453.90 725.90 455.88 725.96 457.85 726.15 C 456.87 727.65 452.12 727.73 451.23 726.20 Z" />
</g>
<g id="#2c3f4dff">
<path fill="#2c3f4d" opacity="1.00" d=" M 451.42 737.00 C 452.09 735.02 456.14 735.82 457.90 736.37 L 457.88 736.94 C 455.91 737.03 453.95 737.06 451.99 737.17 L 451.42 737.00 Z" />
</g>
<g id="#51758fff">
<path fill="#51758f" opacity="1.00" d=" M 457.90 736.37 L 458.78 735.96 C 459.07 742.62 459.12 749.30 458.92 755.98 L 457.87 756.05 C 457.99 749.66 458.07 743.30 457.88 736.94 L 457.90 736.37 Z" />
</g>
<g id="#11181dff">
<path fill="#11181d" opacity="1.00" d=" M 451.42 737.00 L 451.99 737.17 C 452.37 739.41 452.19 741.67 451.44 743.95 C 450.50 741.85 450.24 739.02 451.42 737.00 Z" />
</g>
<g id="#648fafff">
<path fill="#648faf" opacity="1.00" d=" M 451.17 756.03 C 452.85 756.04 456.20 756.05 457.87 756.05 C 457.03 757.82 451.95 757.85 451.17 756.03 Z" />
</g>
<g id="#2b3e4bff">
<path fill="#2b3e4b" opacity="1.00" d=" M 451.21 766.94 C 452.17 765.06 456.09 765.64 457.89 766.42 L 457.87 767.02 C 456.20 767.00 452.87 766.96 451.21 766.94 Z" />
</g>
<g id="#5b829fff">
<path fill="#5b829f" opacity="1.00" d=" M 457.89 766.42 L 458.77 765.95 C 458.90 769.24 459.12 772.69 458.99 776.02 C 456.35 774.38 458.67 769.74 457.87 767.02 L 457.89 766.42 Z" />
</g>
<g id="#030405ff">
<path fill="#030405" opacity="1.00" d=" M 451.21 766.94 C 452.87 766.96 456.20 767.00 457.87 767.02 C 458.67 769.74 456.35 774.38 458.99 776.02 C 463.42 777.46 466.00 781.61 466.84 786.00 C 465.81 790.49 463.24 795.59 458.00 796.01 C 452.33 797.99 444.74 795.07 443.08 788.93 C 440.64 783.46 445.48 777.25 450.78 775.68 C 450.94 772.67 450.90 769.88 451.21 766.94 Z" />
</g>
<g id="#3a9dffff">
<path fill="#3a9dff" opacity="1.00" d=" M 416.78 957.14 C 419.86 957.09 422.89 956.92 426.00 956.99 L 426.00 958.03 C 422.91 958.11 419.80 957.54 416.78 957.14 Z" />
</g>
<g id="#6abaffff">
<path fill="#6abaff" opacity="1.00" d=" M 426.00 956.99 C 430.41 956.93 434.83 957.05 439.21 957.80 C 434.80 957.90 430.39 958.01 426.00 958.03 L 426.00 956.99 Z" />
</g>
<g id="#64b6ffff">
<path fill="#64b6ff" opacity="1.00" d=" M 466.74 957.68 C 470.76 956.91 474.88 956.93 478.98 956.98 L 479.02 958.02 C 474.91 957.98 470.82 957.86 466.74 957.68 Z" />
</g>
<g id="#3298ffff">
<path fill="#3298ff" opacity="1.00" d=" M 478.98 956.98 C 481.73 956.98 484.48 957.10 487.24 957.34 C 484.58 958.15 481.73 957.91 479.02 958.02 L 478.98 956.98 Z" />
</g>
<g id="#3d8ad7ff">
<path fill="#3d8ad7" opacity="1.00" d=" M 496.93 958.96 C 498.63 956.96 501.03 956.71 504.11 958.24 C 502.11 959.78 499.72 960.02 496.93 958.96 Z" />
</g>
</svg>
