<?xml version="1.0" encoding="UTF-8" ?>
<!DOCTYPE svg PUBLIC "-//W3C//DTD SVG 1.1//EN" "http://www.w3.org/Graphics/SVG/1.1/DTD/svg11.dtd">
<svg width="960pt" height="540pt" viewBox="0 0 960 540" version="1.1" xmlns="http://www.w3.org/2000/svg">
<g id="#000000eb">
<path fill="#000000" opacity="0.92" d=" M 444.10 20.96 C 445.68 21.14 447.92 20.37 448.71 22.24 C 449.58 29.00 453.39 34.99 454.29 41.77 C 454.67 42.11 455.42 42.79 455.79 43.13 C 456.30 35.77 460.55 29.37 462.35 22.30 C 462.85 20.29 467.41 20.24 465.85 22.94 C 463.01 31.31 460.19 39.71 456.76 47.86 C 455.58 48.05 454.41 48.06 453.24 47.88 C 450.04 38.96 447.17 29.93 444.10 20.96 Z" />
</g>
<g id="#d35f60ff">
<path fill="#d35f60" opacity="1.00" d=" M 481.00 63.98 C 480.02 60.25 485.97 60.25 485.01 63.98 C 484.99 67.99 485.00 72.00 485.03 76.02 C 485.02 82.76 484.78 89.53 485.26 96.27 C 484.86 103.10 485.25 109.95 484.78 116.78 C 483.82 122.47 483.97 128.25 483.99 134.00 C 483.97 139.33 483.97 144.67 484.01 150.00 C 483.96 155.74 484.06 161.48 484.25 167.22 C 483.86 174.06 484.25 180.94 483.78 187.78 C 483.13 191.82 482.98 195.91 482.98 200.00 C 482.94 204.66 482.96 209.33 483.01 214.00 C 482.97 218.00 482.97 221.99 483.01 226.00 C 483.03 230.07 483.11 234.14 483.25 238.22 C 482.87 245.06 483.22 251.94 482.80 258.78 C 481.84 264.13 481.99 269.58 481.99 275.00 C 481.96 280.66 481.96 286.33 482.00 292.00 C 481.95 297.74 482.06 303.47 482.25 309.22 C 481.87 316.06 482.22 322.94 481.80 329.78 C 480.84 335.13 480.99 340.58 480.99 346.00 C 480.96 351.32 480.97 356.67 481.01 362.00 C 480.95 368.07 481.02 374.14 481.21 380.21 C 481.08 382.04 481.02 383.87 481.00 385.70 C 479.32 386.10 477.67 386.57 476.02 387.04 C 476.05 385.09 476.08 383.15 476.20 381.22 C 476.98 376.17 477.07 371.08 477.00 366.00 C 477.01 360.32 477.01 354.66 477.00 349.00 C 477.03 342.92 476.97 336.85 476.78 330.79 C 477.11 323.93 476.74 317.06 477.22 310.22 C 477.83 306.16 478.00 302.08 478.02 298.00 C 478.02 293.66 478.02 289.33 478.00 285.00 C 477.99 280.66 478.04 276.33 477.99 272.00 C 477.95 267.92 477.87 263.85 477.75 259.78 C 478.10 252.93 477.78 246.06 478.20 239.22 C 479.14 233.86 478.99 228.41 479.01 223.00 C 479.02 217.33 479.02 211.66 479.00 206.00 C 479.03 200.26 478.92 194.52 478.75 188.78 C 479.08 182.26 478.79 175.73 479.22 169.22 C 479.83 165.17 480.00 161.08 480.02 157.00 C 480.03 153.00 480.02 149.00 480.00 145.00 C 479.99 140.66 480.04 136.33 480.00 132.00 C 479.98 127.59 479.91 123.19 479.78 118.79 C 480.02 111.60 479.95 104.40 480.25 97.22 C 481.33 89.85 480.99 82.39 480.98 74.97 C 480.98 71.30 481.00 67.64 481.00 63.98 Z" />
</g>
<g id="#682f2ff0">
<path fill="#682f2f" opacity="0.94" d=" M 479.97 66.95 C 479.54 65.24 479.89 64.25 481.00 63.98 C 481.00 67.64 480.98 71.30 480.98 74.97 L 480.03 75.00 C 480.01 72.32 479.99 69.63 479.97 66.95 Z" />
</g>
<g id="#909b7efa">
<path fill="#909b7e" opacity="0.98" d=" M 485.01 63.98 L 485.97 64.02 C 485.99 64.50 486.02 65.46 486.03 65.94 C 485.98 69.26 485.99 72.59 486.02 75.91 L 485.03 76.02 C 485.00 72.00 484.99 67.99 485.01 63.98 Z" />
</g>
<g id="#53d199f8">
<path fill="#53d199" opacity="0.97" d=" M 486.03 65.94 L 486.89 66.14 C 544.87 168.42 603.18 270.51 661.42 372.64 C 664.56 377.14 666.63 382.42 666.01 388.00 C 664.28 387.99 660.83 387.97 659.10 387.96 C 658.64 375.65 648.97 366.62 644.37 355.79 C 643.77 353.33 642.54 351.12 641.07 349.09 C 640.57 347.60 640.03 346.12 639.25 344.76 C 595.09 267.55 551.23 190.18 507.09 112.95 C 500.15 100.88 493.73 88.46 486.11 76.81 L 486.02 75.91 C 485.99 72.59 485.98 69.26 486.03 65.94 Z" />
</g>
<g id="#050506f9">
<path fill="#050506" opacity="0.98" d=" M 479.10 67.13 L 479.97 66.95 C 479.99 69.63 480.01 72.32 480.03 75.00 C 479.86 75.45 479.52 76.33 479.35 76.78 C 426.03 168.31 372.26 259.61 319.00 351.17 C 323.97 349.23 327.19 344.34 332.03 342.07 C 333.79 342.00 334.13 344.62 334.96 345.87 C 329.90 349.43 325.28 353.63 320.05 356.91 C 319.04 356.39 318.12 355.74 317.12 355.22 C 314.83 358.28 312.86 361.65 312.38 365.54 C 306.66 374.36 300.19 383.92 300.97 395.00 C 301.13 410.28 310.64 423.53 321.23 433.76 C 335.95 446.59 353.55 455.56 371.80 462.25 C 399.36 472.26 428.57 477.28 457.78 479.21 C 462.20 480.02 466.73 479.98 471.22 479.81 C 503.03 480.92 535.00 477.53 565.87 469.76 C 589.06 463.45 612.00 454.74 631.67 440.65 C 646.36 429.16 661.62 413.18 660.03 393.00 C 662.01 392.98 663.99 392.99 665.98 393.00 C 665.99 394.75 666.02 398.25 666.03 400.00 C 666.97 406.60 659.98 411.00 660.60 417.72 C 656.63 424.06 653.00 431.48 646.07 435.11 C 641.97 436.40 641.96 441.52 638.04 443.05 C 631.72 449.31 622.39 451.17 615.96 457.01 C 604.11 463.26 591.16 466.61 578.84 471.76 C 536.15 483.58 491.37 487.32 447.28 483.69 C 415.66 480.62 384.11 473.96 355.00 460.99 C 339.76 453.35 324.14 445.29 312.74 432.27 C 305.41 425.83 301.30 416.96 297.99 408.01 C 293.57 395.16 296.38 381.11 302.43 369.33 C 361.28 268.59 420.44 167.99 479.10 67.13 Z" />
</g>
<g id="#c7828bff">
<path fill="#c7828b" opacity="1.00" d=" M 480.03 75.00 L 480.98 74.97 C 480.99 82.39 481.33 89.85 480.25 97.22 C 479.61 90.44 480.94 83.45 479.35 76.78 C 479.52 76.33 479.86 75.45 480.03 75.00 Z" />
</g>
<g id="#c6b8cdff">
<path fill="#c6b8cd" opacity="1.00" d=" M 485.03 76.02 L 486.02 75.91 L 486.11 76.81 C 485.53 83.24 487.10 89.99 485.26 96.27 C 484.78 89.53 485.02 82.76 485.03 76.02 Z" />
</g>
<g id="#c0ddfcff">
<path fill="#c0ddfc" opacity="1.00" d=" M 479.35 76.78 C 480.94 83.45 479.61 90.44 480.25 97.22 C 479.95 104.40 480.02 111.60 479.78 118.79 C 479.09 123.16 478.96 127.58 478.98 132.00 C 478.96 136.33 478.96 140.67 479.00 145.00 C 478.97 149.00 478.97 152.99 479.01 157.00 C 479.03 161.07 479.10 165.14 479.22 169.22 C 478.79 175.73 479.08 182.26 478.75 188.78 C 477.85 194.47 477.97 200.25 477.99 206.00 C 477.97 211.66 477.97 217.33 478.01 223.00 C 477.98 228.40 477.90 233.82 478.20 239.22 C 477.78 246.06 478.10 252.93 477.75 259.78 C 477.15 263.82 476.98 267.91 476.98 272.00 C 476.94 276.32 476.96 280.66 477.00 285.00 C 476.97 289.32 476.94 293.66 477.01 298.00 C 477.03 302.06 477.10 306.14 477.22 310.22 C 476.74 317.06 477.11 323.93 476.78 330.79 C 475.79 336.80 475.96 342.92 476.00 349.00 C 475.97 354.66 475.97 360.33 476.00 366.00 C 475.98 371.06 475.94 376.15 476.20 381.22 C 476.08 383.15 476.05 385.09 476.02 387.04 C 474.25 388.99 472.41 393.02 475.22 394.80 C 477.83 397.53 482.35 397.56 485.24 395.20 C 490.05 394.95 494.92 395.19 499.74 394.73 C 504.47 394.85 509.25 395.03 514.00 395.00 C 518.98 395.00 524.00 395.03 529.00 394.99 C 533.98 394.99 539.00 395.02 544.00 395.00 C 549.74 394.97 555.55 395.29 561.26 394.32 C 569.41 393.74 577.61 394.28 585.78 393.78 C 591.17 393.88 596.60 394.06 602.00 393.99 C 607.31 393.99 612.67 394.03 618.00 393.99 C 622.98 393.99 628.00 394.02 633.00 394.00 C 637.70 393.69 642.67 394.79 647.26 393.29 C 651.49 393.07 655.77 392.98 660.03 393.00 C 661.62 413.18 646.36 429.16 631.67 440.65 C 612.00 454.74 589.06 463.45 565.87 469.76 C 535.00 477.53 503.03 480.92 471.22 479.81 C 466.77 478.93 462.26 479.01 457.78 479.21 C 428.57 477.28 399.36 472.26 371.80 462.25 C 353.55 455.56 335.95 446.59 321.23 433.76 C 310.64 423.53 301.13 410.28 300.97 395.00 C 300.19 383.92 306.66 374.36 312.38 365.54 C 312.86 361.65 314.83 358.28 317.12 355.22 C 318.12 355.74 319.04 356.39 320.05 356.91 C 325.28 353.63 329.90 349.43 334.96 345.87 C 334.13 344.62 333.79 342.00 332.03 342.07 C 327.19 344.34 323.97 349.23 319.00 351.17 C 372.26 259.61 426.03 168.31 479.35 76.78 M 465.00 305.01 L 465.00 305.99 C 461.15 306.72 452.34 302.75 456.00 310.97 C 458.93 311.10 461.80 310.94 464.75 310.71 C 467.57 310.78 473.20 310.91 476.01 310.97 L 475.97 309.94 C 476.04 308.62 476.04 307.31 475.98 306.01 L 476.00 305.02 C 473.25 305.02 467.75 305.01 465.00 305.01 M 442.31 307.40 C 437.38 308.57 432.24 308.44 427.25 309.25 C 425.24 310.18 427.17 312.37 427.20 313.93 C 433.73 313.65 440.23 312.49 446.77 311.99 C 446.25 309.15 446.18 305.42 442.31 307.40 M 414.29 311.33 C 408.57 312.77 402.74 313.74 397.02 315.12 C 396.78 316.83 397.57 318.39 398.19 319.93 C 404.46 318.90 410.75 317.43 416.92 315.85 C 417.34 313.99 417.10 310.19 414.29 311.33 M 385.30 318.36 C 379.64 320.41 373.82 322.02 368.20 324.17 C 368.73 325.75 368.99 327.50 370.09 328.83 C 375.99 326.72 382.03 325.02 387.89 322.80 C 388.39 320.99 388.05 317.13 385.30 318.36 M 357.30 328.34 C 351.95 331.06 346.59 333.76 341.13 336.23 C 340.91 337.98 342.67 339.23 343.29 340.78 C 349.11 338.00 354.80 334.91 360.90 332.76 C 360.77 331.02 359.60 327.18 357.30 328.34 M 462.34 401.38 C 453.38 403.17 450.19 414.46 454.01 422.02 C 456.42 430.20 468.96 431.36 473.82 424.82 C 476.87 420.56 478.10 414.94 476.18 409.90 C 474.84 403.96 468.33 399.62 462.34 401.38 Z" />
</g>
<g id="#c0defdff">
<path fill="#c0defd" opacity="1.00" d=" M 486.11 76.81 C 493.73 88.46 500.15 100.88 507.09 112.95 C 551.23 190.18 595.09 267.55 639.25 344.76 C 640.03 346.12 640.57 347.60 641.07 349.09 C 637.14 347.02 633.93 343.87 629.98 341.88 C 628.78 342.96 627.97 344.39 627.15 345.76 C 632.21 349.31 637.00 353.24 641.99 356.90 C 642.59 356.62 643.77 356.07 644.37 355.79 C 648.97 366.62 658.64 375.65 659.10 387.96 C 655.12 388.00 651.16 388.10 647.22 388.25 C 641.79 388.09 636.41 387.94 631.00 388.01 C 625.64 387.98 620.33 387.97 615.00 388.01 C 609.98 387.98 605.00 387.98 600.00 388.00 C 595.26 388.32 590.29 387.11 585.73 388.75 C 577.24 389.32 568.72 388.51 560.26 389.30 C 552.83 388.97 545.41 388.94 538.00 389.00 C 531.32 388.98 524.66 388.97 518.00 389.00 C 511.94 389.34 505.65 388.14 499.74 389.71 C 495.26 389.90 490.81 390.03 486.36 389.96 C 485.28 387.75 483.32 386.39 481.00 385.70 C 481.02 383.87 481.08 382.04 481.21 380.21 C 482.20 374.18 482.02 368.07 482.00 362.00 C 481.99 356.65 482.03 351.33 481.99 346.00 C 481.98 340.58 482.10 335.18 481.80 329.78 C 482.22 322.94 481.87 316.06 482.25 309.22 C 483.13 303.52 483.02 297.74 483.01 292.00 C 483.01 286.33 483.01 280.66 482.99 275.00 C 482.99 269.58 483.10 264.18 482.80 258.78 C 483.22 251.94 482.87 245.06 483.25 238.22 C 483.81 234.16 484.00 230.08 484.02 226.00 C 484.03 222.00 484.02 218.00 484.00 214.00 C 483.99 209.32 484.05 204.67 483.99 200.00 C 483.94 195.92 483.87 191.85 483.78 187.78 C 484.25 180.94 483.86 174.06 484.25 167.22 C 485.13 161.52 485.02 155.74 485.01 150.00 C 484.99 144.66 485.03 139.33 484.99 134.00 C 485.02 128.26 484.91 122.52 484.78 116.78 C 485.25 109.95 484.86 103.10 485.26 96.27 C 487.10 89.99 485.53 83.24 486.11 76.81 M 496.05 241.02 C 495.90 250.38 495.95 259.76 496.07 269.13 C 495.59 271.06 498.85 269.60 499.95 269.96 C 500.19 265.21 499.94 260.44 499.70 255.71 C 500.06 252.93 503.49 252.37 505.75 252.22 C 511.64 255.82 508.05 263.56 509.06 269.12 C 508.59 271.06 511.87 269.59 512.97 269.96 C 512.98 266.22 512.98 258.75 512.99 255.01 L 512.02 254.98 C 511.75 250.12 504.15 247.62 500.92 251.42 C 500.66 248.82 500.15 243.62 499.89 241.02 L 498.96 241.01 C 498.23 241.01 496.77 241.02 496.05 241.02 M 485.99 305.02 L 486.02 306.01 C 485.95 307.32 485.95 308.62 486.03 309.94 L 485.99 310.97 C 488.80 310.91 494.44 310.80 497.25 310.74 C 501.06 310.62 509.64 314.08 506.00 306.05 C 503.32 305.93 500.65 305.91 498.00 305.99 C 496.58 302.92 489.07 306.16 485.99 305.02 M 516.01 307.01 L 516.06 311.77 C 522.21 313.07 528.48 313.86 534.78 313.90 C 535.43 312.38 536.19 310.84 536.01 309.14 C 529.34 308.40 522.69 307.53 516.01 307.01 M 546.20 311.12 C 544.53 312.12 544.98 314.20 545.10 315.83 C 550.59 317.94 556.71 317.73 562.29 319.67 C 565.07 320.80 565.34 317.05 564.92 315.21 C 558.72 313.68 552.48 312.21 546.20 311.12 M 575.21 318.12 C 573.53 319.09 574.00 321.16 574.09 322.77 C 580.54 323.69 586.23 328.25 592.80 327.92 C 593.12 326.64 593.47 325.37 593.78 324.10 C 590.84 322.07 586.90 322.12 583.77 320.41 C 580.85 319.86 578.28 317.40 575.21 318.12 M 603.20 328.08 C 602.65 329.56 601.64 331.06 602.16 332.72 C 607.78 335.33 613.29 338.21 618.89 340.89 C 619.83 339.43 620.92 337.91 621.05 336.11 C 615.28 333.12 609.40 329.90 603.20 328.08 M 568.05 364.93 C 567.93 371.61 567.92 378.29 568.03 384.98 C 568.77 384.98 570.23 384.99 570.96 384.99 L 571.96 384.99 C 572.15 380.58 571.94 376.16 571.81 371.77 C 572.39 367.49 579.25 369.53 578.01 365.01 C 574.64 363.99 572.70 366.47 571.22 369.07 C 571.13 367.16 570.58 364.46 568.05 364.93 Z" />
</g>
<g id="#ce7f87ff">
<path fill="#ce7f87" opacity="1.00" d=" M 483.99 134.00 C 483.97 128.25 483.82 122.47 484.78 116.78 C 484.91 122.52 485.02 128.26 484.99 134.00 L 483.99 134.00 Z" />
</g>
<g id="#c5bed5ff">
<path fill="#c5bed5" opacity="1.00" d=" M 478.98 132.00 C 478.96 127.58 479.09 123.16 479.78 118.79 C 479.91 123.19 479.98 127.59 480.00 132.00 L 478.98 132.00 Z" />
</g>
<g id="#c9a7b8ff">
<path fill="#c9a7b8" opacity="1.00" d=" M 478.98 132.00 L 480.00 132.00 C 480.04 136.33 479.99 140.66 480.00 145.00 L 479.00 145.00 C 478.96 140.67 478.96 136.33 478.98 132.00 Z" />
</g>
<g id="#ca9dacff">
<path fill="#ca9dac" opacity="1.00" d=" M 483.99 134.00 L 484.99 134.00 C 485.03 139.33 484.99 144.66 485.01 150.00 L 484.01 150.00 C 483.97 144.67 483.97 139.33 483.99 134.00 Z" />
</g>
<g id="#cc909cff">
<path fill="#cc909c" opacity="1.00" d=" M 479.00 145.00 L 480.00 145.00 C 480.02 149.00 480.03 153.00 480.02 157.00 L 479.01 157.00 C 478.97 152.99 478.97 149.00 479.00 145.00 Z" />
</g>
<g id="#c6bad1ff">
<path fill="#c6bad1" opacity="1.00" d=" M 484.01 150.00 L 485.01 150.00 C 485.02 155.74 485.13 161.52 484.25 167.22 C 484.06 161.48 483.96 155.74 484.01 150.00 Z" />
<path fill="#c6bad1" opacity="1.00" d=" M 476.00 349.00 C 475.96 342.92 475.79 336.80 476.78 330.79 C 476.97 336.85 477.03 342.92 477.00 349.00 L 476.00 349.00 Z" />
<path fill="#c6bad1" opacity="1.00" d=" M 481.01 362.00 L 482.00 362.00 C 482.02 368.07 482.20 374.18 481.21 380.21 C 481.02 374.14 480.95 368.07 481.01 362.00 Z" />
</g>
<g id="#cf7a81ff">
<path fill="#cf7a81" opacity="1.00" d=" M 479.01 157.00 L 480.02 157.00 C 480.00 161.08 479.83 165.17 479.22 169.22 C 479.10 165.14 479.03 161.07 479.01 157.00 Z" />
</g>
<g id="#cf7b82ff">
<path fill="#cf7b82" opacity="1.00" d=" M 482.98 200.00 C 482.98 195.91 483.13 191.82 483.78 187.78 C 483.87 191.85 483.94 195.92 483.99 200.00 L 482.98 200.00 Z" />
</g>
<g id="#c5bcd2ff">
<path fill="#c5bcd2" opacity="1.00" d=" M 477.99 206.00 C 477.97 200.25 477.85 194.47 478.75 188.78 C 478.92 194.52 479.03 200.26 479.00 206.00 L 477.99 206.00 Z" />
</g>
<g id="#cc929fff">
<path fill="#cc929f" opacity="1.00" d=" M 482.98 200.00 L 483.99 200.00 C 484.05 204.67 483.99 209.32 484.00 214.00 L 483.01 214.00 C 482.96 209.33 482.94 204.66 482.98 200.00 Z" />
<path fill="#cc929f" opacity="1.00" d=" M 477.00 285.00 L 478.00 285.00 C 478.02 289.33 478.02 293.66 478.02 298.00 L 477.01 298.00 C 476.94 293.66 476.97 289.32 477.00 285.00 Z" />
</g>
<g id="#4cc790eb">
<path fill="#4cc790" opacity="0.92" d=" M 599.31 201.33 C 602.54 200.74 606.36 200.25 608.77 202.94 C 608.57 200.80 610.35 200.87 611.96 200.98 C 612.01 207.97 612.14 214.97 611.94 221.96 C 610.20 228.63 601.83 230.98 596.13 227.81 C 596.09 227.12 596.02 225.75 595.99 225.07 C 599.95 225.40 605.20 227.87 607.81 223.74 C 611.02 214.34 604.00 222.17 600.68 220.46 C 591.92 218.77 591.64 204.39 599.31 201.33 M 600.19 204.20 C 596.20 207.56 596.76 216.09 602.06 217.98 C 604.47 218.19 608.54 216.86 608.05 213.85 C 609.85 213.04 609.85 207.96 608.05 207.15 C 608.49 203.66 602.35 201.45 600.19 204.20 Z" />
</g>
<g id="#ca9dadff">
<path fill="#ca9dad" opacity="1.00" d=" M 477.99 206.00 L 479.00 206.00 C 479.02 211.66 479.02 217.33 479.01 223.00 L 478.01 223.00 C 477.97 217.33 477.97 211.66 477.99 206.00 Z" />
</g>
<g id="#2c725287">
<path fill="#2c7252" opacity="0.53" d=" M 608.05 207.15 C 609.85 207.96 609.85 213.04 608.05 213.85 C 608.05 212.18 608.05 208.82 608.05 207.15 Z" />
</g>
<g id="#c8a9bcff">
<path fill="#c8a9bc" opacity="1.00" d=" M 483.01 214.00 L 484.00 214.00 C 484.02 218.00 484.03 222.00 484.02 226.00 L 483.01 226.00 C 482.97 221.99 482.97 218.00 483.01 214.00 Z" />
</g>
<g id="#ce8088ff">
<path fill="#ce8088" opacity="1.00" d=" M 478.01 223.00 L 479.01 223.00 C 478.99 228.41 479.14 233.86 478.20 239.22 C 477.90 233.82 477.98 228.40 478.01 223.00 Z" />
</g>
<g id="#c5bfd7ff">
<path fill="#c5bfd7" opacity="1.00" d=" M 483.01 226.00 L 484.02 226.00 C 484.00 230.08 483.81 234.16 483.25 238.22 C 483.11 234.14 483.03 230.07 483.01 226.00 Z" />
</g>
<g id="#d36162ff">
<path fill="#d36162" opacity="1.00" d=" M 496.05 241.02 C 496.77 241.02 498.23 241.01 498.96 241.01 C 498.95 245.04 499.00 249.07 499.09 253.10 C 499.71 252.56 500.32 252.00 500.92 251.42 C 504.15 247.62 511.75 250.12 512.02 254.98 C 511.93 259.59 512.24 264.22 511.90 268.83 C 511.19 268.90 509.77 269.05 509.06 269.12 C 508.05 263.56 511.64 255.82 505.75 252.22 C 503.49 252.37 500.06 252.93 499.70 255.71 C 498.80 260.01 499.27 264.46 498.86 268.82 C 498.16 268.90 496.77 269.05 496.07 269.13 C 495.95 259.76 495.90 250.38 496.05 241.02 Z" />
</g>
<g id="#caa0afff">
<path fill="#caa0af" opacity="1.00" d=" M 498.96 241.01 L 499.89 241.02 C 500.15 243.62 500.66 248.82 500.92 251.42 C 500.32 252.00 499.71 252.56 499.09 253.10 C 499.00 249.07 498.95 245.04 498.96 241.01 Z" />
</g>
<g id="#c9a3b3ff">
<path fill="#c9a3b3" opacity="1.00" d=" M 512.02 254.98 L 512.99 255.01 C 512.98 258.75 512.98 266.22 512.97 269.96 C 511.87 269.59 508.59 271.06 509.06 269.12 C 509.77 269.05 511.19 268.90 511.90 268.83 C 512.24 264.22 511.93 259.59 512.02 254.98 Z" />
</g>
<g id="#caa0b0ff">
<path fill="#caa0b0" opacity="1.00" d=" M 498.86 268.82 C 499.27 264.46 498.80 260.01 499.70 255.71 C 499.94 260.44 500.19 265.21 499.95 269.96 C 498.85 269.60 495.59 271.06 496.07 269.13 C 496.77 269.05 498.16 268.90 498.86 268.82 Z" />
</g>
<g id="#cf7f86ff">
<path fill="#cf7f86" opacity="1.00" d=" M 481.99 275.00 C 481.99 269.58 481.84 264.13 482.80 258.78 C 483.10 264.18 482.99 269.58 482.99 275.00 L 481.99 275.00 Z" />
</g>
<g id="#c5c0d8ff">
<path fill="#c5c0d8" opacity="1.00" d=" M 476.98 272.00 C 476.98 267.91 477.15 263.82 477.75 259.78 C 477.87 263.85 477.95 267.92 477.99 272.00 L 476.98 272.00 Z" />
</g>
<g id="#c8aabcff">
<path fill="#c8aabc" opacity="1.00" d=" M 476.98 272.00 L 477.99 272.00 C 478.04 276.33 477.99 280.66 478.00 285.00 L 477.00 285.00 C 476.96 280.66 476.94 276.32 476.98 272.00 Z" />
</g>
<g id="#ca9cabff">
<path fill="#ca9cab" opacity="1.00" d=" M 481.99 275.00 L 482.99 275.00 C 483.01 280.66 483.01 286.33 483.01 292.00 L 482.00 292.00 C 481.96 286.33 481.96 280.66 481.99 275.00 Z" />
<path fill="#ca9cab" opacity="1.00" d=" M 480.99 346.00 L 481.99 346.00 C 482.03 351.33 481.99 356.65 482.00 362.00 L 481.01 362.00 C 480.97 356.67 480.96 351.32 480.99 346.00 Z" />
</g>
<g id="#c5bbd1ff">
<path fill="#c5bbd1" opacity="1.00" d=" M 482.00 292.00 L 483.01 292.00 C 483.02 297.74 483.13 303.52 482.25 309.22 C 482.06 303.47 481.95 297.74 482.00 292.00 Z" />
</g>
<g id="#cf7c83ff">
<path fill="#cf7c83" opacity="1.00" d=" M 477.01 298.00 L 478.02 298.00 C 478.00 302.08 477.83 306.16 477.22 310.22 C 477.10 306.14 477.03 302.06 477.01 298.00 Z" />
</g>
<g id="#7b8ea1ff">
<path fill="#7b8ea1" opacity="1.00" d=" M 465.00 305.01 C 467.75 305.01 473.25 305.02 476.00 305.02 L 475.98 306.01 C 472.29 305.98 468.67 306.05 465.00 305.99 L 465.00 305.01 Z" />
</g>
<g id="#7d90a4ff">
<path fill="#7d90a4" opacity="1.00" d=" M 485.99 305.02 C 489.07 306.16 496.58 302.92 498.00 305.99 C 494.00 306.01 490.01 306.02 486.02 306.01 L 485.99 305.02 Z" />
</g>
<g id="#050607ff">
<path fill="#050607" opacity="1.00" d=" M 456.00 310.97 C 452.34 302.75 461.15 306.72 465.00 305.99 C 468.67 306.05 472.29 305.98 475.98 306.01 C 476.04 307.31 476.04 308.62 475.97 309.94 C 472.21 310.02 468.47 310.28 464.75 310.71 C 461.80 310.94 458.93 311.10 456.00 310.97 Z" />
</g>
<g id="#040405ff">
<path fill="#040405" opacity="1.00" d=" M 486.02 306.01 C 490.01 306.02 494.00 306.01 498.00 305.99 C 500.65 305.91 503.32 305.93 506.00 306.05 C 509.64 314.08 501.06 310.62 497.25 310.74 C 493.52 310.25 489.78 309.98 486.03 309.94 C 485.95 308.62 485.95 307.32 486.02 306.01 Z" />
</g>
<g id="#0b0d0fff">
<path fill="#0b0d0f" opacity="1.00" d=" M 442.31 307.40 C 446.18 305.42 446.25 309.15 446.77 311.99 C 440.23 312.49 433.73 313.65 427.20 313.93 C 427.17 312.37 425.24 310.18 427.25 309.25 C 432.24 308.44 437.38 308.57 442.31 307.40 Z" />
<path fill="#0b0d0f" opacity="1.00" d=" M 627.15 345.76 C 627.97 344.39 628.78 342.96 629.98 341.88 C 633.93 343.87 637.14 347.02 641.07 349.09 C 642.54 351.12 643.77 353.33 644.37 355.79 C 643.77 356.07 642.59 356.62 641.99 356.90 C 637.00 353.24 632.21 349.31 627.15 345.76 Z" />
</g>
<g id="#0c0d0fff">
<path fill="#0c0d0f" opacity="1.00" d=" M 516.01 307.01 C 522.69 307.53 529.34 308.40 536.01 309.14 C 536.19 310.84 535.43 312.38 534.78 313.90 C 528.48 313.86 522.21 313.07 516.06 311.77 L 516.01 307.01 Z" />
</g>
<g id="#45505bff">
<path fill="#45505b" opacity="1.00" d=" M 464.75 310.71 C 468.47 310.28 472.21 310.02 475.97 309.94 L 476.01 310.97 C 473.20 310.91 467.57 310.78 464.75 310.71 Z" />
</g>
<g id="#48535fff">
<path fill="#48535f" opacity="1.00" d=" M 486.03 309.94 C 489.78 309.98 493.52 310.25 497.25 310.74 C 494.44 310.80 488.80 310.91 485.99 310.97 L 486.03 309.94 Z" />
</g>
<g id="#0d0f11ff">
<path fill="#0d0f11" opacity="1.00" d=" M 414.29 311.33 C 417.10 310.19 417.34 313.99 416.92 315.85 C 410.75 317.43 404.46 318.90 398.19 319.93 C 397.57 318.39 396.78 316.83 397.02 315.12 C 402.74 313.74 408.57 312.77 414.29 311.33 Z" />
<path fill="#0d0f11" opacity="1.00" d=" M 385.30 318.36 C 388.05 317.13 388.39 320.99 387.89 322.80 C 382.03 325.02 375.99 326.72 370.09 328.83 C 368.99 327.50 368.73 325.75 368.20 324.17 C 373.82 322.02 379.64 320.41 385.30 318.36 Z" />
</g>
<g id="#0c0e10ff">
<path fill="#0c0e10" opacity="1.00" d=" M 546.20 311.12 C 552.48 312.21 558.72 313.68 564.92 315.21 C 565.34 317.05 565.07 320.80 562.29 319.67 C 556.71 317.73 550.59 317.94 545.10 315.83 C 544.98 314.20 544.53 312.12 546.20 311.12 Z" />
<path fill="#0c0e10" opacity="1.00" d=" M 575.21 318.12 C 578.28 317.40 580.85 319.86 583.77 320.41 C 586.90 322.12 590.84 322.07 593.78 324.10 C 593.47 325.37 593.12 326.64 592.80 327.92 C 586.23 328.25 580.54 323.69 574.09 322.77 C 574.00 321.16 573.53 319.09 575.21 318.12 Z" />
<path fill="#0c0e10" opacity="1.00" d=" M 357.30 328.34 C 359.60 327.18 360.77 331.02 360.90 332.76 C 354.80 334.91 349.11 338.00 343.29 340.78 C 342.67 339.23 340.91 337.98 341.13 336.23 C 346.59 333.76 351.95 331.06 357.30 328.34 Z" />
</g>
<g id="#0f1114ff">
<path fill="#0f1114" opacity="1.00" d=" M 603.20 328.08 C 609.40 329.90 615.28 333.12 621.05 336.11 C 620.92 337.91 619.83 339.43 618.89 340.89 C 613.29 338.21 607.78 335.33 602.16 332.72 C 601.64 331.06 602.65 329.56 603.20 328.08 Z" />
</g>
<g id="#cf7f87ff">
<path fill="#cf7f87" opacity="1.00" d=" M 480.99 346.00 C 480.99 340.58 480.84 335.13 481.80 329.78 C 482.10 335.18 481.98 340.58 481.99 346.00 L 480.99 346.00 Z" />
</g>
<g id="#ca9baaff">
<path fill="#ca9baa" opacity="1.00" d=" M 476.00 349.00 L 477.00 349.00 C 477.01 354.66 477.01 360.32 477.00 366.00 L 476.00 366.00 C 475.97 360.33 475.97 354.66 476.00 349.00 Z" />
</g>
<g id="#0a80ffff">
<path fill="#0a80ff" opacity="1.00" d=" M 568.05 364.93 C 570.58 364.46 571.13 367.16 571.22 369.07 C 572.70 366.47 574.64 363.99 578.01 365.01 C 579.25 369.53 572.39 367.49 571.81 371.77 C 570.50 375.94 571.16 380.60 570.96 384.99 C 570.23 384.99 568.77 384.98 568.03 384.98 C 567.92 378.29 567.93 371.61 568.05 364.93 Z" />
</g>
<g id="#cf7e86ff">
<path fill="#cf7e86" opacity="1.00" d=" M 476.00 366.00 L 477.00 366.00 C 477.07 371.08 476.98 376.17 476.20 381.22 C 475.94 376.15 475.98 371.06 476.00 366.00 Z" />
</g>
<g id="#5dabfeff">
<path fill="#5dabfe" opacity="1.00" d=" M 570.96 384.99 C 571.16 380.60 570.50 375.94 571.81 371.77 C 571.94 376.16 572.15 380.58 571.96 384.99 L 570.96 384.99 Z" />
</g>
<g id="#000000e9">
<path fill="#000000" opacity="0.91" d=" M 745.19 377.11 C 746.40 376.95 747.62 376.95 748.85 377.09 C 752.44 384.66 753.83 393.06 757.40 400.66 C 758.10 402.00 758.02 403.54 758.01 405.01 C 750.71 406.64 755.78 392.03 747.01 395.99 C 738.61 392.20 743.47 406.77 735.94 405.00 C 738.73 395.66 742.12 386.40 745.19 377.11 M 747.06 382.01 C 745.67 384.91 744.75 388.02 743.80 391.09 C 742.79 391.25 742.54 392.20 743.04 393.95 C 745.27 393.33 751.12 396.39 751.07 393.03 C 750.45 389.16 748.77 385.48 747.06 382.01 Z" />
</g>
<g id="#00000012">
<path fill="#000000" opacity="0.07" d=" M 747.06 382.01 C 748.77 385.48 750.45 389.16 751.07 393.03 C 748.41 392.61 743.88 394.67 743.80 391.09 C 744.75 388.02 745.67 384.91 747.06 382.01 Z" />
</g>
<g id="#08090aff">
<path fill="#08090a" opacity="1.00" d=" M 476.02 387.04 C 477.67 386.57 479.32 386.10 481.00 385.70 C 483.32 386.39 485.28 387.75 486.36 389.96 C 486.73 391.81 485.82 393.50 485.24 395.20 C 482.35 397.56 477.83 397.53 475.22 394.80 C 472.41 393.02 474.25 388.99 476.02 387.04 Z" />
</g>
<g id="#94c7feff">
<path fill="#94c7fe" opacity="1.00" d=" M 585.73 388.75 C 590.29 387.11 595.26 388.32 600.00 388.00 L 600.00 389.00 C 595.22 388.98 590.48 389.03 585.73 388.75 Z" />
</g>
<g id="#74b7feff">
<path fill="#74b7fe" opacity="1.00" d=" M 600.00 388.00 C 605.00 387.98 609.98 387.98 615.00 388.01 L 615.00 388.99 C 609.98 388.99 605.00 389.04 600.00 389.00 L 600.00 388.00 Z" />
<path fill="#74b7fe" opacity="1.00" d=" M 618.00 393.01 C 623.00 392.96 627.97 392.97 633.00 393.00 L 633.00 394.00 C 628.00 394.02 622.98 393.99 618.00 393.99 L 618.00 393.01 Z" />
</g>
<g id="#51a5feff">
<path fill="#51a5fe" opacity="1.00" d=" M 615.00 388.01 C 620.33 387.97 625.64 387.98 631.00 388.01 L 631.00 389.01 C 625.64 389.01 620.33 389.03 615.00 388.99 L 615.00 388.01 Z" />
</g>
<g id="#2e93ffff">
<path fill="#2e93ff" opacity="1.00" d=" M 631.00 388.01 C 636.41 387.94 641.79 388.09 647.22 388.25 C 641.84 389.09 636.40 389.01 631.00 389.01 L 631.00 388.01 Z" />
<path fill="#2e93ff" opacity="1.00" d=" M 585.78 393.78 C 591.13 392.86 596.57 392.99 602.00 392.99 L 602.00 393.99 C 596.60 394.06 591.17 393.88 585.78 393.78 Z" />
</g>
<g id="#017bffff">
<path fill="#017bff" opacity="1.00" d=" M 647.22 388.25 C 651.16 388.10 655.12 388.00 659.10 387.96 C 660.83 387.97 664.28 387.99 666.01 388.00 C 665.99 389.66 665.99 391.33 665.98 393.00 C 663.99 392.99 662.01 392.98 660.03 393.00 C 655.77 392.98 651.49 393.07 647.26 393.29 C 642.48 393.12 637.75 392.96 633.00 393.00 C 627.97 392.97 623.00 392.96 618.00 393.01 C 612.64 392.98 607.33 392.98 602.00 392.99 C 596.57 392.99 591.13 392.86 585.78 393.78 C 577.61 394.28 569.41 393.74 561.26 394.32 C 555.50 394.05 549.74 393.94 544.00 394.00 C 538.98 393.97 534.00 393.96 529.00 394.01 C 523.98 393.98 519.00 393.98 514.00 394.00 C 509.26 394.30 504.31 393.17 499.74 394.73 C 494.92 395.19 490.05 394.95 485.24 395.20 C 485.82 393.50 486.73 391.81 486.36 389.96 C 490.81 390.03 495.26 389.90 499.74 389.71 C 505.81 389.94 511.90 390.05 518.00 390.00 C 524.66 390.00 531.33 390.03 538.00 389.99 C 545.41 389.89 552.90 390.51 560.26 389.30 C 568.72 388.51 577.24 389.32 585.73 388.75 C 590.48 389.03 595.22 388.98 600.00 389.00 C 605.00 389.04 609.98 388.99 615.00 388.99 C 620.33 389.03 625.64 389.01 631.00 389.01 C 636.40 389.01 641.84 389.09 647.22 388.25 Z" />
</g>
<g id="#01142771">
<path fill="#011427" opacity="0.44" d=" M 666.01 388.00 L 666.99 388.00 C 665.81 391.09 669.06 398.54 666.03 400.00 C 666.02 398.25 665.99 394.75 665.98 393.00 C 665.99 391.33 665.99 389.66 666.01 388.00 Z" />
</g>
<g id="#8fc5feff">
<path fill="#8fc5fe" opacity="1.00" d=" M 499.74 389.71 C 505.65 388.14 511.94 389.34 518.00 389.00 L 518.00 390.00 C 511.90 390.05 505.81 389.94 499.74 389.71 Z" />
</g>
<g id="#65affeff">
<path fill="#65affe" opacity="1.00" d=" M 518.00 389.00 C 524.66 388.97 531.32 388.98 538.00 389.00 L 538.00 389.99 C 531.33 390.03 524.66 390.00 518.00 390.00 L 518.00 389.00 Z" />
</g>
<g id="#3697ffff">
<path fill="#3697ff" opacity="1.00" d=" M 538.00 389.00 C 545.41 388.94 552.83 388.97 560.26 389.30 C 552.90 390.51 545.41 389.89 538.00 389.99 L 538.00 389.00 Z" />
</g>
<g id="#0000009e">
<path fill="#000000" opacity="0.62" d=" M 743.04 393.95 C 742.54 392.20 742.79 391.25 743.80 391.09 C 743.88 394.67 748.41 392.61 751.07 393.03 C 751.12 396.39 745.27 393.33 743.04 393.95 Z" />
</g>
<g id="#52a5feff">
<path fill="#52a5fe" opacity="1.00" d=" M 602.00 392.99 C 607.33 392.98 612.64 392.98 618.00 393.01 L 618.00 393.99 C 612.67 394.03 607.31 393.99 602.00 393.99 L 602.00 392.99 Z" />
</g>
<g id="#94c8feff">
<path fill="#94c8fe" opacity="1.00" d=" M 633.00 393.00 C 637.75 392.96 642.48 393.12 647.26 393.29 C 642.67 394.79 637.70 393.69 633.00 394.00 L 633.00 393.00 Z" />
</g>
<g id="#2c92ffff">
<path fill="#2c92ff" opacity="1.00" d=" M 499.74 394.73 C 504.31 393.17 509.26 394.30 514.00 394.00 L 514.00 395.00 C 509.25 395.03 504.47 394.85 499.74 394.73 Z" />
</g>
<g id="#4da3feff">
<path fill="#4da3fe" opacity="1.00" d=" M 514.00 394.00 C 519.00 393.98 523.98 393.98 529.00 394.01 L 529.00 394.99 C 524.00 395.03 518.98 395.00 514.00 395.00 L 514.00 394.00 Z" />
</g>
<g id="#6eb4feff">
<path fill="#6eb4fe" opacity="1.00" d=" M 529.00 394.01 C 534.00 393.96 538.98 393.97 544.00 394.00 L 544.00 395.00 C 539.00 395.02 533.98 394.99 529.00 394.99 L 529.00 394.01 Z" />
</g>
<g id="#92c6feff">
<path fill="#92c6fe" opacity="1.00" d=" M 544.00 394.00 C 549.74 393.94 555.50 394.05 561.26 394.32 C 555.55 395.29 549.74 394.97 544.00 395.00 L 544.00 394.00 Z" />
</g>
<g id="#101315ff">
<path fill="#101315" opacity="1.00" d=" M 462.34 401.38 C 468.33 399.62 474.84 403.96 476.18 409.90 C 478.10 414.94 476.87 420.56 473.82 424.82 C 468.96 431.36 456.42 430.20 454.01 422.02 C 450.19 414.46 453.38 403.17 462.34 401.38 M 462.30 404.28 C 455.15 407.28 454.61 417.55 458.75 423.26 C 462.15 427.70 470.76 427.01 472.02 421.03 C 475.41 414.27 472.05 401.04 462.30 404.28 Z" />
</g>
<g id="#bddaf9ff">
<path fill="#bddaf9" opacity="1.00" d=" M 462.30 404.28 C 472.05 401.04 475.41 414.27 472.02 421.03 C 470.76 427.01 462.15 427.70 458.75 423.26 C 454.61 417.55 455.15 407.28 462.30 404.28 Z" />
</g>
<g id="#697a8bff">
<path fill="#697a8b" opacity="1.00" d=" M 457.78 479.21 C 462.26 479.01 466.77 478.93 471.22 479.81 C 466.73 479.98 462.20 480.02 457.78 479.21 Z" />
</g>
</svg>
