<?xml version="1.0" encoding="UTF-8" ?>
<!DOCTYPE svg PUBLIC "-//W3C//DTD SVG 1.1//EN" "http://www.w3.org/Graphics/SVG/1.1/DTD/svg11.dtd">
<svg width="900pt" height="1080pt" viewBox="0 0 900 1080" version="1.1" xmlns="http://www.w3.org/2000/svg">
<g id="#027bfcfd">
<path fill="#027bfc" opacity="1.00" d=" M 452.05 121.02 C 454.84 121.07 457.88 120.75 460.72 121.16 C 462.98 128.32 467.28 134.55 470.86 141.08 C 508.55 209.72 546.09 278.45 584.19 346.86 C 601.49 381.05 621.15 414.07 638.98 448.01 C 699.33 557.12 758.97 666.62 819.23 775.78 C 820.42 778.06 822.06 780.27 822.66 782.79 C 822.27 785.76 822.18 788.90 821.81 791.92 C 819.12 791.95 813.75 792.02 811.07 792.05 C 804.77 791.93 798.49 792.12 792.22 791.81 C 784.19 790.53 776.07 791.02 768.00 791.01 C 756.65 790.99 745.32 790.97 734.00 791.01 C 725.65 790.98 717.33 790.96 709.00 791.01 C 696.92 791.13 684.84 790.67 672.78 791.22 C 653.59 790.62 634.40 791.36 615.22 790.81 C 603.54 789.28 591.73 790.17 580.00 790.01 C 571.65 789.98 563.33 789.96 555.00 790.01 C 546.99 789.98 538.99 789.96 531.00 790.01 C 519.25 790.09 507.51 789.73 495.78 790.21 C 486.26 788.81 475.83 791.92 466.70 789.05 C 466.89 787.03 466.92 785.01 466.81 783.00 C 472.69 781.30 478.95 782.23 485.00 781.98 C 492.66 782.01 500.33 782.02 508.00 781.99 C 519.73 781.89 531.49 782.26 543.22 781.79 C 566.73 782.47 590.27 781.50 613.78 782.22 C 629.45 783.88 645.27 782.62 661.00 782.99 C 669.32 782.99 677.67 783.03 686.00 782.99 C 697.73 782.89 709.49 783.26 721.22 782.79 C 744.40 783.42 767.60 782.57 790.78 783.19 C 797.47 784.34 804.29 784.05 811.07 783.96 L 810.97 782.98 C 810.46 780.29 810.25 777.43 808.97 775.02 C 800.39 759.32 791.81 743.61 783.07 727.99 C 780.69 723.17 778.27 718.38 775.10 714.03 C 770.60 706.45 767.08 698.32 762.01 691.09 C 754.33 673.41 743.76 657.14 734.93 640.01 C 682.21 544.37 629.92 448.49 577.12 352.90 C 570.36 339.23 561.59 326.63 555.13 312.81 C 541.79 288.75 528.28 264.78 515.59 240.37 C 499.49 211.19 482.99 182.25 467.04 152.99 C 465.34 149.45 463.54 145.96 461.22 142.79 C 461.25 146.48 460.19 150.08 460.20 153.76 C 459.87 165.84 459.99 177.92 460.01 190.00 C 460.09 209.07 459.75 228.15 460.24 247.22 C 459.53 297.73 460.45 348.27 459.78 398.79 C 458.01 424.78 459.46 450.94 459.01 477.00 C 458.99 490.00 458.97 503.00 459.01 516.00 C 459.09 535.40 458.76 554.81 459.22 574.21 C 458.57 624.73 459.43 675.26 458.79 725.78 C 457.16 742.19 458.27 758.75 458.08 775.23 C 455.29 775.16 452.55 775.01 449.86 775.67 C 450.29 759.52 449.66 743.35 450.19 727.21 C 451.97 707.88 450.57 688.39 450.99 669.00 C 451.01 649.99 451.01 631.00 450.99 612.00 C 451.01 592.66 451.01 573.33 450.99 554.00 C 450.90 534.59 451.24 515.18 450.78 495.79 C 451.45 463.93 450.55 432.06 451.20 400.21 C 452.96 380.88 451.57 361.39 451.99 342.00 C 452.01 323.00 452.01 304.00 451.99 285.00 C 452.01 265.66 452.01 246.33 451.99 227.00 C 451.90 207.59 452.24 188.19 451.78 168.79 C 452.01 162.12 452.09 155.45 451.88 148.79 C 451.99 142.16 452.07 135.53 451.97 128.89 C 451.89 126.26 451.92 123.64 452.05 121.02 Z" />
</g>
<g id="#020303fc">
<path fill="#020303" opacity="1.00" d=" M 395.94 223.97 C 414.84 192.43 432.87 160.23 451.97 128.89 C 452.07 135.53 451.99 142.16 451.88 148.79 C 422.85 197.29 394.76 246.34 366.05 295.03 C 287.31 429.61 208.55 564.18 129.82 698.78 C 129.30 699.47 127.97 702.85 129.89 701.86 C 138.08 695.98 145.65 688.30 154.87 683.92 C 156.64 686.49 158.53 689.08 159.99 691.88 C 149.62 699.16 139.74 707.05 129.93 715.06 C 127.40 713.70 126.23 710.81 124.19 708.88 C 121.90 714.70 118.46 719.93 115.33 725.32 C 113.56 727.41 118.50 728.50 116.19 730.21 C 107.38 739.74 101.80 751.55 96.07 763.03 C 91.20 781.05 90.15 800.87 97.53 818.37 C 103.57 834.23 113.52 848.53 125.74 860.26 C 147.57 883.41 175.89 899.08 204.36 912.59 C 260.47 937.72 321.38 950.74 382.38 956.54 C 409.43 958.92 436.59 960.41 463.74 959.73 C 467.13 959.77 470.60 960.08 474.02 960.01 C 476.74 959.89 479.59 960.14 482.26 959.34 C 545.67 956.90 609.05 946.30 668.87 924.80 C 697.71 914.11 725.75 900.68 750.94 882.92 C 774.43 865.82 796.28 844.19 806.34 816.32 C 809.02 808.49 810.17 800.24 811.07 792.05 C 813.75 792.02 819.12 791.95 821.81 791.92 C 822.18 788.90 822.27 785.76 822.66 782.79 C 823.60 793.12 823.03 803.72 819.73 813.62 C 814.44 817.00 814.65 824.48 811.64 829.69 C 810.09 831.44 812.58 833.52 811.38 835.32 C 805.80 845.92 798.39 855.48 790.30 864.25 C 789.20 865.62 786.70 864.28 785.80 865.83 C 782.66 871.13 775.12 873.36 773.63 879.72 C 767.15 886.31 758.95 890.98 751.62 896.57 C 747.69 898.87 744.00 902.03 739.31 902.39 C 734.42 906.85 726.92 907.75 722.96 913.00 C 712.50 918.41 701.85 923.50 690.91 927.87 C 678.59 930.30 667.65 937.10 655.69 940.64 C 642.19 945.36 628.18 947.99 614.37 951.53 C 596.32 956.97 577.59 959.38 558.99 962.06 C 545.48 964.63 531.70 966.07 518.00 967.00 C 514.85 966.92 511.72 966.71 508.70 967.62 C 506.84 968.12 504.89 967.95 502.99 968.00 C 500.17 967.94 497.40 967.83 494.70 968.61 C 493.03 968.71 489.68 968.89 488.00 968.98 C 484.86 968.93 481.73 968.73 478.71 969.62 C 460.18 970.50 441.55 969.75 422.99 970.01 C 397.19 967.84 371.21 967.10 345.65 962.58 C 317.64 959.12 290.24 952.18 262.98 945.07 C 252.49 941.66 241.83 938.84 231.67 934.45 C 214.66 928.40 197.79 921.74 182.00 913.01 C 167.99 904.83 153.26 897.75 140.64 887.39 C 132.56 882.25 126.92 874.32 119.28 868.69 C 105.97 856.37 95.18 841.11 89.00 824.00 C 80.36 804.98 80.21 783.09 84.98 762.99 C 90.92 743.13 102.71 725.79 112.86 707.92 C 207.21 546.60 301.73 385.38 395.94 223.97 Z" />
</g>
<g id="#92d1ffff">
<path fill="#92d1ff" opacity="1.00" d=" M 461.22 142.79 C 463.54 145.96 465.34 149.45 467.04 152.99 C 482.99 182.25 499.49 211.19 515.59 240.37 C 528.28 264.78 541.79 288.75 555.13 312.81 C 561.59 326.63 570.36 339.23 577.12 352.90 C 629.92 448.49 682.21 544.37 734.93 640.01 C 743.76 657.14 754.33 673.41 762.01 691.09 C 757.43 689.30 753.92 685.25 749.19 683.99 C 747.83 686.59 745.56 688.88 744.97 691.83 C 754.05 698.03 763.07 704.36 771.21 711.79 C 772.34 712.79 773.57 713.72 775.10 714.03 C 778.27 718.38 780.69 723.17 783.07 727.99 C 791.81 743.61 800.39 759.32 808.97 775.02 C 810.25 777.43 810.46 780.29 810.97 782.98 C 804.22 782.99 797.50 782.88 790.78 783.19 C 767.60 782.57 744.40 783.42 721.22 782.79 C 709.54 781.31 697.73 782.17 686.00 782.01 C 677.65 781.98 669.33 781.96 661.00 782.01 C 645.25 782.04 629.51 781.81 613.78 782.22 C 590.27 781.50 566.73 782.47 543.22 781.79 C 531.54 780.31 519.73 781.16 508.00 781.01 C 500.32 780.97 492.66 780.97 485.00 781.00 C 479.06 781.05 473.12 780.71 467.22 781.15 C 467.12 781.61 466.91 782.53 466.81 783.00 C 464.57 779.72 461.55 777.11 458.08 775.23 C 459.92 758.85 458.85 742.24 458.79 725.78 C 459.43 675.26 458.57 624.73 459.22 574.21 C 460.94 554.88 459.58 535.39 459.99 516.00 C 460.00 502.99 460.02 489.99 459.99 477.00 C 459.88 450.92 460.26 424.85 459.78 398.79 C 460.45 348.27 459.53 297.73 460.24 247.22 C 461.90 228.21 460.59 209.06 460.99 190.00 C 460.72 177.93 461.77 165.77 460.20 153.76 C 460.19 150.08 461.25 146.48 461.22 142.79 M 462.02 621.02 L 463.00 620.94 C 475.64 620.35 488.14 622.44 500.76 621.90 C 501.54 619.06 502.58 616.13 501.98 613.13 C 494.44 611.37 486.65 612.13 478.99 612.02 L 479.01 611.01 C 476.19 611.07 470.56 611.20 467.75 611.26 C 466.17 611.03 464.58 610.94 463.00 611.00 C 462.76 613.50 462.26 618.51 462.02 621.02 M 522.02 614.07 C 522.03 616.52 522.04 621.43 522.04 623.88 C 533.00 625.41 544.05 626.16 554.98 627.92 C 561.68 631.40 561.27 622.45 560.96 619.24 C 548.12 616.55 535.00 615.78 522.02 614.07 M 582.21 623.08 C 579.93 625.26 580.55 628.92 580.01 631.81 C 592.72 633.99 605.31 636.88 617.87 639.78 C 618.88 636.68 620.07 633.49 619.98 630.18 C 607.28 628.46 595.03 623.62 582.21 623.08 M 640.17 636.13 C 639.53 639.27 635.49 645.66 640.99 646.05 C 652.41 649.12 663.43 653.74 674.75 656.96 C 675.38 653.91 676.47 650.99 677.83 648.20 C 665.41 643.71 652.99 639.23 640.17 636.13 M 696.27 656.06 C 696.01 659.24 693.43 661.70 693.11 664.76 C 699.34 667.01 705.16 670.20 711.30 672.69 C 717.00 675.14 721.90 679.25 727.89 681.07 C 729.27 678.45 730.67 675.86 731.87 673.16 C 721.32 666.07 709.31 661.60 697.92 656.09 C 697.51 656.09 696.68 656.07 696.27 656.06 Z" />
</g>
<g id="#bfdefcff">
<path fill="#bfdefc" opacity="1.00" d=" M 366.05 295.03 C 394.76 246.34 422.85 197.29 451.88 148.79 C 452.09 155.45 452.01 162.12 451.78 168.79 C 450.06 188.12 451.41 207.61 451.01 227.00 C 450.99 246.33 450.99 265.67 451.01 285.00 C 450.99 304.00 450.99 323.00 451.01 342.00 C 451.08 361.40 450.78 380.81 451.20 400.21 C 450.55 432.06 451.45 463.93 450.78 495.79 C 449.06 515.12 450.41 534.60 450.01 554.00 C 449.99 573.33 449.99 592.66 450.01 612.00 C 449.99 631.00 449.99 650.00 450.01 669.00 C 450.07 688.40 449.79 707.81 450.19 727.21 C 449.66 743.35 450.29 759.52 449.86 775.67 C 444.31 777.75 439.76 784.14 442.94 790.04 C 447.02 799.73 463.22 799.00 466.70 789.05 C 475.83 791.92 486.26 788.81 495.78 790.21 C 507.45 791.68 519.26 790.83 531.00 790.99 C 538.99 790.99 547.00 791.03 555.00 790.99 C 563.33 790.99 571.67 791.03 580.00 790.99 C 591.73 790.91 603.48 791.23 615.22 790.81 C 634.40 791.36 653.59 790.62 672.78 791.22 C 684.78 792.75 696.93 791.73 709.00 791.99 C 717.32 791.99 725.66 792.03 734.00 791.99 C 745.33 792.00 756.66 792.01 768.00 791.99 C 776.06 792.01 784.14 792.08 792.22 791.81 C 798.49 792.12 804.77 791.93 811.07 792.05 C 810.17 800.24 809.02 808.49 806.34 816.32 C 796.28 844.19 774.43 865.82 750.94 882.92 C 725.75 900.68 697.71 914.11 668.87 924.80 C 609.05 946.30 545.67 956.90 482.26 959.34 C 479.49 959.15 476.73 959.03 473.98 958.99 C 470.53 958.91 467.03 958.58 463.74 959.73 C 436.59 960.41 409.43 958.92 382.38 956.54 C 321.38 950.74 260.47 937.72 204.36 912.59 C 175.89 899.08 147.57 883.41 125.74 860.26 C 113.52 848.53 103.57 834.23 97.53 818.37 C 90.15 800.87 91.20 781.05 96.07 763.03 C 101.80 751.55 107.38 739.74 116.19 730.21 C 118.50 728.50 113.56 727.41 115.33 725.32 C 118.46 719.93 121.90 714.70 124.19 708.88 C 126.23 710.81 127.40 713.70 129.93 715.06 C 139.74 707.05 149.62 699.16 159.99 691.88 C 158.53 689.08 156.64 686.49 154.87 683.92 C 145.65 688.30 138.08 695.98 129.89 701.86 C 127.97 702.85 129.30 699.47 129.82 698.78 C 208.55 564.18 287.31 429.61 366.05 295.03 M 403.23 612.15 C 399.82 614.71 404.73 619.57 403.04 622.80 C 408.06 621.00 413.54 622.63 418.70 621.62 C 423.08 622.43 427.56 621.87 432.00 621.99 L 432.00 620.99 C 435.34 621.02 438.63 621.02 442.00 620.97 C 442.24 618.47 442.74 613.48 442.98 610.98 L 442.00 611.06 C 429.05 610.43 416.17 612.47 403.23 612.15 M 379.29 614.30 C 367.22 616.06 355.04 617.08 343.02 619.15 C 343.12 622.43 343.71 625.75 344.16 629.02 C 356.93 626.29 370.08 625.96 382.93 623.85 C 382.86 620.44 384.30 612.96 379.29 614.30 M 321.27 622.33 C 308.87 624.98 296.45 627.58 284.04 630.19 C 284.23 633.53 284.90 636.82 286.06 640.05 C 299.00 637.66 311.82 634.22 324.78 631.90 C 324.06 628.60 323.19 625.39 322.81 622.05 C 322.42 622.12 321.66 622.26 321.27 622.33 M 263.85 636.12 C 251.33 639.21 239.12 643.66 227.07 648.16 C 227.05 651.28 228.44 654.37 230.17 656.93 C 238.09 656.05 245.03 650.90 252.97 649.84 C 257.72 648.76 262.02 645.83 267.01 645.83 C 265.40 643.57 267.18 636.10 263.85 636.12 M 206.31 656.36 C 194.62 661.36 183.37 667.32 172.03 673.06 C 173.53 676.10 174.90 679.27 177.11 681.89 C 188.20 675.28 200.08 670.16 211.82 664.83 C 210.39 661.96 209.76 658.67 207.83 656.07 C 207.45 656.15 206.69 656.29 206.31 656.36 Z" />
</g>
<g id="#53aaffff">
<path fill="#53aaff" opacity="1.00" d=" M 460.20 153.76 C 461.77 165.77 460.72 177.93 460.99 190.00 L 460.01 190.00 C 459.99 177.92 459.87 165.84 460.20 153.76 Z" />
<path fill="#53aaff" opacity="1.00" d=" M 661.00 782.01 C 669.33 781.96 677.65 781.98 686.00 782.01 L 686.00 782.99 C 677.67 783.03 669.32 782.99 661.00 782.99 L 661.00 782.01 Z" />
</g>
<g id="#93c7fdff">
<path fill="#93c7fd" opacity="1.00" d=" M 451.01 227.00 C 451.41 207.61 450.06 188.12 451.78 168.79 C 452.24 188.19 451.90 207.59 451.99 227.00 L 451.01 227.00 Z" />
<path fill="#93c7fd" opacity="1.00" d=" M 450.01 554.00 C 450.41 534.60 449.06 515.12 450.78 495.79 C 451.24 515.18 450.90 534.59 450.99 554.00 L 450.01 554.00 Z" />
</g>
<g id="#69b7ffff">
<path fill="#69b7ff" opacity="1.00" d=" M 460.01 190.00 L 460.99 190.00 C 460.59 209.06 461.90 228.21 460.24 247.22 C 459.75 228.15 460.09 209.07 460.01 190.00 Z" />
<path fill="#69b7ff" opacity="1.00" d=" M 459.01 516.00 L 459.99 516.00 C 459.58 535.39 460.94 554.88 459.22 574.21 C 458.76 554.81 459.09 535.40 459.01 516.00 Z" />
</g>
<g id="#71b5feff">
<path fill="#71b5fe" opacity="1.00" d=" M 451.01 227.00 L 451.99 227.00 C 452.01 246.33 452.01 265.66 451.99 285.00 L 451.01 285.00 C 450.99 265.67 450.99 246.33 451.01 227.00 Z" />
<path fill="#71b5fe" opacity="1.00" d=" M 450.01 554.00 L 450.99 554.00 C 451.01 573.33 451.01 592.66 450.99 612.00 L 450.01 612.00 C 449.99 592.66 449.99 573.33 450.01 554.00 Z" />
</g>
<g id="#4fa4feff">
<path fill="#4fa4fe" opacity="1.00" d=" M 451.01 285.00 L 451.99 285.00 C 452.01 304.00 452.01 323.00 451.99 342.00 L 451.01 342.00 C 450.99 323.00 450.99 304.00 451.01 285.00 Z" />
<path fill="#4fa4fe" opacity="1.00" d=" M 450.01 612.00 L 450.99 612.00 C 451.01 631.00 451.01 649.99 450.99 669.00 L 450.01 669.00 C 449.99 650.00 449.99 631.00 450.01 612.00 Z" />
</g>
<g id="#2d92ffff">
<path fill="#2d92ff" opacity="1.00" d=" M 451.01 342.00 L 451.99 342.00 C 451.57 361.39 452.96 380.88 451.20 400.21 C 450.78 380.81 451.08 361.40 451.01 342.00 Z" />
<path fill="#2d92ff" opacity="1.00" d=" M 450.01 669.00 L 450.99 669.00 C 450.57 688.39 451.97 707.88 450.19 727.21 C 449.79 707.81 450.07 688.40 450.01 669.00 Z" />
<path fill="#2d92ff" opacity="1.00" d=" M 768.00 791.01 C 776.07 791.02 784.19 790.53 792.22 791.81 C 784.14 792.08 776.06 792.01 768.00 791.99 L 768.00 791.01 Z" />
</g>
<g id="#3198ffff">
<path fill="#3198ff" opacity="1.00" d=" M 459.01 477.00 C 459.46 450.94 458.01 424.78 459.78 398.79 C 460.26 424.85 459.88 450.92 459.99 477.00 L 459.01 477.00 Z" />
</g>
<g id="#50a8ffff">
<path fill="#50a8ff" opacity="1.00" d=" M 459.01 477.00 L 459.99 477.00 C 460.02 489.99 460.00 502.99 459.99 516.00 L 459.01 516.00 C 458.97 503.00 458.99 490.00 459.01 477.00 Z" />
</g>
<g id="#050506ff">
<path fill="#050506" opacity="1.00" d=" M 403.23 612.15 C 416.17 612.47 429.05 610.43 442.00 611.06 C 441.96 614.32 442.01 617.67 442.00 620.97 C 438.63 621.02 435.34 621.02 432.00 620.99 C 427.58 621.20 423.01 620.42 418.70 621.62 C 413.54 622.63 408.06 621.00 403.04 622.80 C 404.73 619.57 399.82 614.71 403.23 612.15 Z" />
</g>
<g id="#8ca2b8ff">
<path fill="#8ca2b8" opacity="1.00" d=" M 442.00 611.06 L 442.98 610.98 C 442.74 613.48 442.24 618.47 442.00 620.97 C 442.01 617.67 441.96 614.32 442.00 611.06 Z" />
</g>
<g id="#354553ff">
<path fill="#354553" opacity="1.00" d=" M 462.02 621.02 C 462.26 618.51 462.76 613.50 463.00 611.00 C 462.97 614.27 463.01 617.64 463.00 620.94 L 462.02 621.02 Z" />
</g>
<g id="#020304ff">
<path fill="#020304" opacity="1.00" d=" M 463.00 611.00 C 464.58 610.94 466.17 611.03 467.75 611.26 C 471.46 611.82 475.21 612.07 478.99 612.02 C 486.65 612.13 494.44 611.37 501.98 613.13 C 502.58 616.13 501.54 619.06 500.76 621.90 C 488.14 622.44 475.64 620.35 463.00 620.94 C 463.01 617.64 462.97 614.27 463.00 611.00 Z" />
</g>
<g id="#4f697dff">
<path fill="#4f697d" opacity="1.00" d=" M 467.75 611.26 C 470.56 611.20 476.19 611.07 479.01 611.01 L 478.99 612.02 C 475.21 612.07 471.46 611.82 467.75 611.26 Z" />
</g>
<g id="#060708ff">
<path fill="#060708" opacity="1.00" d=" M 379.29 614.30 C 384.30 612.96 382.86 620.44 382.93 623.85 C 370.08 625.96 356.93 626.29 344.16 629.02 C 343.71 625.75 343.12 622.43 343.02 619.15 C 355.04 617.08 367.22 616.06 379.29 614.30 Z" />
<path fill="#060708" opacity="1.00" d=" M 263.85 636.12 C 267.18 636.10 265.40 643.57 267.01 645.83 C 262.02 645.83 257.72 648.76 252.97 649.84 C 245.03 650.90 238.09 656.05 230.17 656.93 C 228.44 654.37 227.05 651.28 227.07 648.16 C 239.12 643.66 251.33 639.21 263.85 636.12 Z" />
</g>
<g id="#030405ff">
<path fill="#030405" opacity="1.00" d=" M 522.02 614.07 C 535.00 615.78 548.12 616.55 560.96 619.24 C 561.27 622.45 561.68 631.40 554.98 627.92 C 544.05 626.16 533.00 625.41 522.04 623.88 C 522.04 621.43 522.03 616.52 522.02 614.07 Z" />
</g>
<g id="#6c7d8fff">
<path fill="#6c7d8f" opacity="1.00" d=" M 418.70 621.62 C 423.01 620.42 427.58 621.20 432.00 620.99 L 432.00 621.99 C 427.56 621.87 423.08 622.43 418.70 621.62 Z" />
</g>
<g id="#070809ff">
<path fill="#070809" opacity="1.00" d=" M 321.27 622.33 C 321.66 622.26 322.42 622.12 322.81 622.05 C 323.19 625.39 324.06 628.60 324.78 631.90 C 311.82 634.22 299.00 637.66 286.06 640.05 C 284.90 636.82 284.23 633.53 284.04 630.19 C 296.45 627.58 308.87 624.98 321.27 622.33 Z" />
</g>
<g id="#040506ff">
<path fill="#040506" opacity="1.00" d=" M 582.21 623.08 C 595.03 623.62 607.28 628.46 619.98 630.18 C 620.07 633.49 618.88 636.68 617.87 639.78 C 605.31 636.88 592.72 633.99 580.01 631.81 C 580.55 628.92 579.93 625.26 582.21 623.08 Z" />
</g>
<g id="#040507ff">
<path fill="#040507" opacity="1.00" d=" M 640.17 636.13 C 652.99 639.23 665.41 643.71 677.83 648.20 C 676.47 650.99 675.38 653.91 674.75 656.96 C 663.43 653.74 652.41 649.12 640.99 646.05 C 635.49 645.66 639.53 639.27 640.17 636.13 Z" />
</g>
<g id="#050607ff">
<path fill="#050607" opacity="1.00" d=" M 206.31 656.36 C 206.69 656.29 207.45 656.15 207.83 656.07 C 209.76 658.67 210.39 661.96 211.82 664.83 C 200.08 670.16 188.20 675.28 177.11 681.89 C 174.90 679.27 173.53 676.10 172.03 673.06 C 183.37 667.32 194.62 661.36 206.31 656.36 Z" />
<path fill="#050607" opacity="1.00" d=" M 696.27 656.06 C 696.68 656.07 697.51 656.09 697.92 656.09 C 709.31 661.60 721.32 666.07 731.87 673.16 C 730.67 675.86 729.27 678.45 727.89 681.07 C 721.90 679.25 717.00 675.14 711.30 672.69 C 705.16 670.20 699.34 667.01 693.11 664.76 C 693.43 661.70 696.01 659.24 696.27 656.06 Z" />
</g>
<g id="#04070aff">
<path fill="#04070a" opacity="1.00" d=" M 749.19 683.99 C 753.92 685.25 757.43 689.30 762.01 691.09 C 767.08 698.32 770.60 706.45 775.10 714.03 C 773.57 713.72 772.34 712.79 771.21 711.79 C 763.07 704.36 754.05 698.03 744.97 691.83 C 745.56 688.88 747.83 686.59 749.19 683.99 Z" />
</g>
<g id="#2e96ffff">
<path fill="#2e96ff" opacity="1.00" d=" M 458.08 775.23 C 458.27 758.75 457.16 742.19 458.79 725.78 C 458.85 742.24 459.92 758.85 458.08 775.23 Z" />
<path fill="#2e96ff" opacity="1.00" d=" M 790.78 783.19 C 797.50 782.88 804.22 782.99 810.97 782.98 L 811.07 783.96 C 804.29 784.05 797.47 784.34 790.78 783.19 Z" />
</g>
<g id="#040405ff">
<path fill="#040405" opacity="1.00" d=" M 449.86 775.67 C 452.55 775.01 455.29 775.16 458.08 775.23 C 461.55 777.11 464.57 779.72 466.81 783.00 C 466.92 785.01 466.89 787.03 466.70 789.05 C 463.22 799.00 447.02 799.73 442.94 790.04 C 439.76 784.14 444.31 777.75 449.86 775.67 Z" />
</g>
<g id="#3a9dffff">
<path fill="#3a9dff" opacity="1.00" d=" M 467.22 781.15 C 473.12 780.71 479.06 781.05 485.00 781.00 L 485.00 781.98 C 478.95 782.23 472.69 781.30 466.81 783.00 C 466.91 782.53 467.12 781.61 467.22 781.15 Z" />
</g>
<g id="#53abffff">
<path fill="#53abff" opacity="1.00" d=" M 485.00 781.00 C 492.66 780.97 500.32 780.97 508.00 781.01 L 508.00 781.99 C 500.33 782.02 492.66 782.01 485.00 781.98 L 485.00 781.00 Z" />
</g>
<g id="#6fbbffff">
<path fill="#6fbbff" opacity="1.00" d=" M 508.00 781.01 C 519.73 781.16 531.54 780.31 543.22 781.79 C 531.49 782.26 519.73 781.89 508.00 781.99 L 508.00 781.01 Z" />
<path fill="#6fbbff" opacity="1.00" d=" M 686.00 782.01 C 697.73 782.17 709.54 781.31 721.22 782.79 C 709.49 783.26 697.73 782.89 686.00 782.99 L 686.00 782.01 Z" />
</g>
<g id="#3298ffff">
<path fill="#3298ff" opacity="1.00" d=" M 613.78 782.22 C 629.51 781.81 645.25 782.04 661.00 782.01 L 661.00 782.99 C 645.27 782.62 629.45 783.88 613.78 782.22 Z" />
</g>
<g id="#8dc4feff">
<path fill="#8dc4fe" opacity="1.00" d=" M 495.78 790.21 C 507.51 789.73 519.25 790.09 531.00 790.01 L 531.00 790.99 C 519.26 790.83 507.45 791.68 495.78 790.21 Z" />
<path fill="#8dc4fe" opacity="1.00" d=" M 672.78 791.22 C 684.84 790.67 696.92 791.13 709.00 791.01 L 709.00 791.99 C 696.93 791.73 684.78 792.75 672.78 791.22 Z" />
</g>
<g id="#6db3feff">
<path fill="#6db3fe" opacity="1.00" d=" M 531.00 790.01 C 538.99 789.96 546.99 789.98 555.00 790.01 L 555.00 790.99 C 547.00 791.03 538.99 790.99 531.00 790.99 L 531.00 790.01 Z" />
</g>
<g id="#53a6feff">
<path fill="#53a6fe" opacity="1.00" d=" M 555.00 790.01 C 563.33 789.96 571.65 789.98 580.00 790.01 L 580.00 790.99 C 571.67 791.03 563.33 790.99 555.00 790.99 L 555.00 790.01 Z" />
</g>
<g id="#3295feff">
<path fill="#3295fe" opacity="1.00" d=" M 580.00 790.01 C 591.73 790.17 603.54 789.28 615.22 790.81 C 603.48 791.23 591.73 790.91 580.00 790.99 L 580.00 790.01 Z" />
</g>
<g id="#6cb3feff">
<path fill="#6cb3fe" opacity="1.00" d=" M 709.00 791.01 C 717.33 790.96 725.65 790.98 734.00 791.01 L 734.00 791.99 C 725.66 792.03 717.32 791.99 709.00 791.99 L 709.00 791.01 Z" />
</g>
<g id="#4da2feff">
<path fill="#4da2fe" opacity="1.00" d=" M 734.00 791.01 C 745.32 790.97 756.65 790.99 768.00 791.01 L 768.00 791.99 C 756.66 792.01 745.33 792.00 734.00 791.99 L 734.00 791.01 Z" />
</g>
<g id="#7a8da1ff">
<path fill="#7a8da1" opacity="1.00" d=" M 463.74 959.73 C 467.03 958.58 470.53 958.91 473.98 958.99 L 474.02 960.01 C 470.60 960.08 467.13 959.77 463.74 959.73 Z" />
</g>
<g id="#3a434cff">
<path fill="#3a434c" opacity="1.00" d=" M 473.98 958.99 C 476.73 959.03 479.49 959.15 482.26 959.34 C 479.59 960.14 476.74 959.89 474.02 960.01 L 473.98 958.99 Z" />
</g>
<g id="#0000009a">
<path fill="#000000" opacity="0.60" d=" M 508.70 967.62 C 511.72 966.71 514.85 966.92 518.00 967.00 C 517.82 970.18 511.15 967.34 508.70 967.62 Z" />
</g>
<g id="#00000082">
<path fill="#000000" opacity="0.51" d=" M 494.70 968.61 C 497.40 967.83 500.17 967.94 502.99 968.00 C 502.08 970.27 497.13 968.57 494.70 968.61 Z" />
</g>
<g id="#0000008e">
<path fill="#000000" opacity="0.56" d=" M 478.71 969.62 C 481.73 968.73 484.86 968.93 488.00 968.98 C 487.82 972.19 481.16 969.35 478.71 969.62 Z" />
</g>
</svg>
