<?xml version="1.0" encoding="UTF-8" ?>
<!DOCTYPE svg PUBLIC "-//W3C//DTD SVG 1.1//EN" "http://www.w3.org/Graphics/SVG/1.1/DTD/svg11.dtd">
<svg width="960pt" height="540pt" viewBox="0 0 960 540" version="1.1" xmlns="http://www.w3.org/2000/svg">
<g id="#000000fb">
<path fill="#000000" opacity="1.00" d=" M 203.64 53.68 C 204.32 52.77 204.57 51.10 205.91 50.95 C 208.92 57.48 212.88 63.50 216.01 69.97 C 213.63 70.56 208.77 68.59 208.01 70.98 C 207.77 85.63 208.34 100.31 207.84 114.95 C 205.83 114.99 203.80 115.09 201.94 115.91 C 204.11 101.04 202.75 85.76 202.81 70.76 C 201.02 69.79 198.81 69.54 196.19 70.03 C 195.64 70.04 194.56 70.05 194.01 70.05 C 196.99 64.46 200.52 59.19 203.64 53.68 Z" />
</g>
<g id="#000000fc">
<path fill="#000000" opacity="1.00" d=" M 621.64 53.68 C 622.32 52.77 622.56 51.10 623.91 50.95 C 626.92 57.48 630.88 63.50 634.01 69.97 C 631.59 70.56 626.78 68.59 626.01 70.98 C 625.86 85.00 626.21 99.02 625.86 113.04 C 624.40 111.77 622.58 112.04 621.01 112.91 C 620.83 98.86 621.28 84.80 620.82 70.76 C 619.01 69.79 616.80 69.55 614.19 70.03 C 613.64 70.04 612.56 70.05 612.01 70.05 C 614.98 64.46 618.52 59.19 621.64 53.68 Z" />
</g>
<g id="#00000035">
<path fill="#000000" opacity="0.21" d=" M 196.19 70.03 C 198.81 69.54 201.02 69.79 202.81 70.76 C 200.95 71.25 197.08 71.98 196.19 70.03 Z" />
<path fill="#000000" opacity="0.21" d=" M 614.19 70.03 C 616.80 69.55 619.01 69.79 620.82 70.76 C 618.95 71.25 615.08 71.98 614.19 70.03 Z" />
</g>
<g id="#0000006c">
<path fill="#000000" opacity="0.42" d=" M 208.01 70.98 C 208.77 68.59 213.63 70.56 216.01 69.97 C 215.15 72.23 210.41 70.52 208.01 70.98 Z" />
<path fill="#000000" opacity="0.42" d=" M 626.01 70.98 C 626.78 68.59 631.59 70.56 634.01 69.97 C 633.15 72.23 628.40 70.52 626.01 70.98 Z" />
</g>
<g id="#027afafb">
<path fill="#027afa" opacity="1.00" d=" M 621.01 112.91 C 622.58 112.04 624.40 111.77 625.86 113.04 C 653.14 174.54 681.43 235.62 709.02 296.99 C 713.79 306.45 717.40 316.45 722.23 325.84 C 726.37 333.99 728.88 343.09 734.60 350.37 C 736.62 354.32 738.09 358.56 739.01 362.92 C 737.11 363.33 733.26 361.90 733.92 365.10 C 733.58 364.65 732.89 363.75 732.55 363.30 C 725.77 362.82 718.98 363.04 712.22 362.75 C 708.14 362.16 704.07 361.99 700.00 361.98 C 691.98 361.98 683.99 361.96 675.99 362.01 C 671.57 361.99 667.18 362.08 662.79 362.22 C 653.92 361.89 645.06 362.12 636.21 361.76 C 632.74 361.09 629.27 361.10 625.83 361.80 C 624.18 361.92 622.53 362.01 620.89 362.10 L 620.80 361.21 C 621.17 283.07 621.05 204.92 620.87 126.78 C 620.93 122.81 620.95 118.84 620.94 114.87 C 620.96 114.38 620.99 113.40 621.01 112.91 M 626.09 128.77 C 625.91 199.17 626.01 269.58 626.03 339.98 L 625.99 340.98 C 631.40 341.11 636.81 341.04 642.23 340.77 C 641.95 346.18 641.88 351.60 642.03 357.02 L 643.02 356.94 C 653.00 357.18 663.00 356.90 673.00 357.00 C 674.24 359.58 680.49 356.90 683.01 357.95 C 690.00 358.13 696.99 358.01 704.01 357.96 C 708.75 358.18 713.48 357.93 718.25 357.73 C 722.80 358.32 727.38 357.92 731.98 358.02 C 729.74 353.16 727.23 348.36 723.88 344.19 C 723.04 339.90 720.66 335.50 717.76 332.34 C 717.90 329.60 716.48 327.09 715.33 324.70 C 685.54 259.43 656.10 193.87 626.09 128.77 M 626.05 343.03 C 625.84 347.34 625.94 351.66 626.03 355.99 L 626.01 356.95 C 630.68 357.16 635.33 356.98 640.02 356.97 L 639.94 355.99 C 640.17 351.69 639.97 347.36 639.97 343.07 C 635.33 342.83 630.66 342.99 626.05 343.03 Z" />
</g>
<g id="#027bfafb">
<path fill="#027bfa" opacity="1.00" d=" M 201.94 115.91 C 203.80 115.09 205.83 114.99 207.84 114.95 C 212.81 122.44 215.30 131.40 219.58 139.34 C 247.61 201.28 275.68 263.21 303.89 325.07 C 309.48 338.09 316.05 350.70 321.12 363.93 C 308.83 363.92 296.52 364.33 284.25 363.73 C 277.22 362.62 270.08 363.03 263.00 362.98 C 257.33 362.97 251.66 362.95 246.00 363.00 C 233.32 363.00 220.65 363.00 207.97 363.02 C 206.37 362.98 204.76 362.97 203.15 362.94 C 202.91 362.64 202.42 362.05 202.18 361.75 C 202.65 355.17 203.23 348.60 203.02 342.00 C 202.99 270.33 202.98 198.66 203.02 127.00 C 202.97 124.21 203.18 121.39 202.38 118.70 C 202.27 118.00 202.05 116.60 201.94 115.91 M 208.09 128.77 C 207.91 199.17 208.01 269.57 208.03 339.98 L 207.99 340.98 C 213.42 341.11 218.84 341.03 224.27 340.74 C 226.20 345.25 224.26 351.81 225.04 356.99 L 224.99 357.97 C 231.99 358.04 239.00 358.08 246.01 357.96 C 250.42 358.16 254.84 357.93 259.25 357.74 C 268.80 358.44 278.42 357.79 288.00 358.01 L 288.00 358.98 C 296.33 359.04 304.66 359.05 312.99 358.97 C 312.76 358.72 312.30 358.22 312.07 357.97 C 302.85 336.15 292.62 314.70 282.89 293.07 C 257.80 238.39 233.38 183.28 208.09 128.77 M 208.07 343.03 C 207.83 347.66 208.00 352.29 208.03 356.94 C 209.68 357.04 211.34 357.03 213.00 357.02 L 213.02 357.96 C 215.43 357.25 221.99 360.24 221.99 356.99 L 222.95 356.98 C 223.16 352.32 222.99 347.63 222.97 342.98 L 221.99 343.06 C 217.36 342.83 212.70 342.99 208.07 343.03 Z" />
</g>
<g id="#040405fa">
<path fill="#040405" opacity="0.98" d=" M 611.89 132.93 C 614.70 126.86 617.15 120.34 620.94 114.87 C 620.95 118.84 620.93 122.81 620.87 126.78 C 619.87 128.40 618.93 130.05 618.16 131.78 C 586.64 198.64 554.28 265.15 522.88 332.04 C 525.87 330.77 528.10 328.28 531.01 326.87 C 532.23 327.91 533.02 329.40 533.85 330.77 C 528.80 334.39 523.85 338.13 518.92 341.92 C 512.63 349.95 505.78 359.04 507.00 369.98 C 506.94 378.50 511.75 385.93 516.24 392.78 C 541.43 417.39 577.63 425.67 611.78 427.22 C 613.83 426.43 620.10 429.79 621.00 426.98 C 620.95 405.35 621.14 383.72 620.89 362.10 C 622.53 362.01 624.18 361.92 625.83 361.80 C 626.32 383.53 625.70 405.27 626.10 426.99 C 651.41 427.29 676.85 421.59 699.70 410.69 C 712.65 403.40 726.58 394.60 731.84 379.86 C 733.98 375.25 734.12 370.09 733.92 365.10 C 733.26 361.90 737.11 363.33 739.01 362.92 C 740.64 376.06 735.04 388.75 726.23 398.23 C 701.11 421.73 666.20 429.97 632.83 432.07 C 629.58 430.86 627.36 431.10 626.19 432.79 C 625.80 445.17 626.01 457.57 626.04 469.96 C 628.93 469.96 632.05 469.96 635.00 470.05 C 632.56 475.15 629.25 479.79 627.04 485.02 C 626.03 486.17 625.70 489.89 623.33 488.77 C 619.96 482.81 616.05 477.16 612.98 471.04 C 615.29 470.40 620.23 472.41 620.99 470.02 C 621.02 457.67 621.02 445.33 620.99 433.00 L 620.94 432.03 C 616.60 431.93 612.31 431.95 607.99 432.01 C 583.58 431.27 559.27 425.39 537.28 414.70 C 524.53 407.39 511.74 398.49 505.14 384.91 C 503.90 381.34 501.68 377.92 501.97 374.01 C 501.95 370.64 502.00 367.33 501.99 363.98 C 503.53 352.02 512.94 343.04 516.84 331.87 C 548.60 265.59 580.08 199.19 611.89 132.93 Z" />
</g>
<g id="#003c7c7d">
<path fill="#003c7c" opacity="0.49" d=" M 202.38 118.70 C 203.18 121.39 202.97 124.21 203.02 127.00 C 200.71 126.12 202.44 121.13 202.38 118.70 Z" />
</g>
<g id="#b7d9fcff">
<path fill="#b7d9fc" opacity="1.00" d=" M 618.16 131.78 C 618.93 130.05 619.87 128.40 620.87 126.78 C 621.05 204.92 621.17 283.07 620.80 361.21 C 619.18 344.51 618.59 327.74 619.99 311.01 C 619.55 277.72 620.91 244.33 619.36 211.09 C 621.28 187.40 618.29 163.67 620.03 140.00 C 619.96 137.30 620.99 133.50 618.16 131.78 Z" />
</g>
<g id="#92d1ffff">
<path fill="#92d1ff" opacity="1.00" d=" M 208.09 128.77 C 233.38 183.28 257.80 238.39 282.89 293.07 C 292.62 314.70 302.85 336.15 312.07 357.97 C 304.04 358.03 296.02 357.94 288.00 358.01 C 278.42 357.79 268.80 358.44 259.25 357.74 C 254.86 357.02 250.42 356.96 245.99 356.98 C 239.00 356.96 232.02 357.01 225.04 356.99 C 224.26 351.81 226.20 345.25 224.27 340.74 C 219.11 339.28 213.38 340.31 208.03 339.98 C 208.01 269.57 207.91 199.17 208.09 128.77 Z" />
<path fill="#92d1ff" opacity="1.00" d=" M 626.05 343.03 C 630.66 342.99 635.33 342.83 639.97 343.07 C 639.97 347.36 640.17 351.69 639.94 355.99 C 635.28 355.98 630.66 356.00 626.03 355.99 C 625.94 351.66 625.84 347.34 626.05 343.03 M 631.21 347.13 C 628.82 348.42 630.03 352.83 632.95 351.99 C 636.77 351.60 634.80 345.25 631.21 347.13 Z" />
</g>
<g id="#91d0feff">
<path fill="#91d0fe" opacity="1.00" d=" M 626.09 128.77 C 656.10 193.87 685.54 259.43 715.33 324.70 C 716.48 327.09 717.90 329.60 717.76 332.34 C 716.14 331.33 714.67 330.12 713.09 329.07 C 712.26 330.31 711.53 331.63 710.95 333.01 C 715.07 336.88 719.92 340.06 723.88 344.19 C 727.23 348.36 729.74 353.16 731.98 358.02 C 727.38 357.92 722.80 358.32 718.25 357.73 C 713.51 356.98 708.76 356.95 703.99 356.98 C 696.98 356.98 689.99 356.98 683.00 357.00 C 679.61 356.95 676.34 356.96 673.00 357.00 C 663.00 356.90 653.00 357.18 643.02 356.94 C 642.48 351.69 644.00 345.60 642.23 340.77 C 637.37 338.98 631.27 340.50 626.03 339.98 C 626.01 269.58 625.91 199.17 626.09 128.77 M 628.01 304.98 L 628.02 309.85 C 634.33 310.48 640.63 311.25 647.00 311.00 C 647.05 309.72 647.01 308.44 646.88 307.17 C 640.95 304.80 634.24 305.85 628.01 304.98 M 658.14 308.24 C 656.47 309.17 657.04 311.27 657.08 312.85 C 663.30 314.11 669.51 316.37 675.80 316.93 C 675.80 315.38 677.77 313.16 675.75 312.28 C 669.88 310.89 664.00 309.61 658.14 308.24 M 686.22 316.01 C 685.83 317.58 685.35 319.13 685.08 320.73 C 690.79 322.23 696.02 325.05 701.29 327.63 C 703.63 328.92 704.02 324.76 703.91 323.20 C 698.00 320.85 692.35 317.68 686.22 316.01 Z" />
</g>
<g id="#bfddfcff">
<path fill="#bfddfc" opacity="1.00" d=" M 618.16 131.78 C 620.99 133.50 619.96 137.30 620.03 140.00 C 618.29 163.67 621.28 187.40 619.36 211.09 C 620.91 244.33 619.55 277.72 619.99 311.01 C 618.59 327.74 619.18 344.51 620.80 361.21 L 620.89 362.10 C 621.14 383.72 620.95 405.35 621.00 426.98 C 617.87 427.00 614.86 427.10 611.78 427.22 C 577.63 425.67 541.43 417.39 516.24 392.78 C 511.75 385.93 506.94 378.50 507.00 369.98 C 505.78 359.04 512.63 349.95 518.92 341.92 C 523.85 338.13 528.80 334.39 533.85 330.77 C 533.02 329.40 532.23 327.91 531.01 326.87 C 528.10 328.28 525.87 330.77 522.88 332.04 C 554.28 265.15 586.64 198.64 618.16 131.78 M 605.34 305.58 C 601.75 306.58 594.46 303.47 598.01 311.01 C 604.67 310.79 611.27 309.45 618.00 309.92 L 617.99 305.04 C 613.77 304.85 609.50 304.88 605.34 305.58 M 581.35 308.51 C 576.90 309.34 572.46 310.28 568.04 311.18 C 568.33 312.79 568.81 314.35 569.21 315.93 C 575.55 315.78 581.50 312.50 587.97 312.84 L 587.99 307.97 C 586.33 308.11 583.01 308.38 581.35 308.51 M 555.29 315.33 C 550.06 317.26 544.86 319.33 539.99 322.06 C 540.92 323.42 541.42 326.92 543.69 325.63 C 548.95 322.99 554.69 321.36 559.96 318.84 C 560.03 316.08 558.12 313.83 555.29 315.33 Z" />
<path fill="#bfddfc" opacity="1.00" d=" M 625.83 361.80 C 629.30 361.99 632.71 361.81 636.21 361.76 C 645.06 362.12 653.92 361.89 662.79 362.22 C 667.14 362.87 671.59 363.03 676.01 363.02 C 683.99 362.99 692.00 363.05 700.00 362.99 C 704.06 362.95 708.13 362.87 712.22 362.75 C 718.98 363.04 725.77 362.82 732.55 363.30 C 732.89 363.75 733.58 364.65 733.92 365.10 C 734.12 370.09 733.98 375.25 731.84 379.86 C 726.58 394.60 712.65 403.40 699.70 410.69 C 676.85 421.59 651.41 427.29 626.10 426.99 C 625.70 405.27 626.32 383.53 625.83 361.80 Z" />
</g>
<g id="#0d0f11ff">
<path fill="#0d0f11" opacity="1.00" d=" M 605.34 305.58 C 609.50 304.88 613.77 304.85 617.99 305.04 L 618.00 309.92 C 611.27 309.45 604.67 310.79 598.01 311.01 C 594.46 303.47 601.75 306.58 605.34 305.58 Z" />
</g>
<g id="#0a0d10ff">
<path fill="#0a0d10" opacity="1.00" d=" M 628.01 304.98 C 634.24 305.85 640.95 304.80 646.88 307.17 C 647.01 308.44 647.05 309.72 647.00 311.00 C 640.63 311.25 634.33 310.48 628.02 309.85 L 628.01 304.98 Z" />
</g>
<g id="#0c0e10ff">
<path fill="#0c0e10" opacity="1.00" d=" M 581.35 308.51 C 583.01 308.38 586.33 308.11 587.99 307.97 L 587.97 312.84 C 581.50 312.50 575.55 315.78 569.21 315.93 C 568.81 314.35 568.33 312.79 568.04 311.18 C 572.46 310.28 576.90 309.34 581.35 308.51 Z" />
<path fill="#0c0e10" opacity="1.00" d=" M 555.29 315.33 C 558.12 313.83 560.03 316.08 559.96 318.84 C 554.69 321.36 548.95 322.99 543.69 325.63 C 541.42 326.92 540.92 323.42 539.99 322.06 C 544.86 319.33 550.06 317.26 555.29 315.33 Z" />
</g>
<g id="#0b1013ff">
<path fill="#0b1013" opacity="1.00" d=" M 658.14 308.24 C 664.00 309.61 669.88 310.89 675.75 312.28 C 677.77 313.16 675.80 315.38 675.80 316.93 C 669.51 316.37 663.30 314.11 657.08 312.85 C 657.04 311.27 656.47 309.17 658.14 308.24 Z" />
</g>
<g id="#0c1014ff">
<path fill="#0c1014" opacity="1.00" d=" M 686.22 316.01 C 692.35 317.68 698.00 320.85 703.91 323.20 C 704.02 324.76 703.63 328.92 701.29 327.63 C 696.02 325.05 690.79 322.23 685.08 320.73 C 685.35 319.13 685.83 317.58 686.22 316.01 Z" />
</g>
<g id="#080e14ff">
<path fill="#080e14" opacity="1.00" d=" M 713.09 329.07 C 714.67 330.12 716.14 331.33 717.76 332.34 C 720.66 335.50 723.04 339.90 723.88 344.19 C 719.92 340.06 715.07 336.88 710.95 333.01 C 711.53 331.63 712.26 330.31 713.09 329.07 Z" />
</g>
<g id="#49a7ffff">
<path fill="#49a7ff" opacity="1.00" d=" M 208.03 339.98 C 213.38 340.31 219.11 339.28 224.27 340.74 C 218.84 341.03 213.42 341.11 207.99 340.98 L 208.03 339.98 Z" />
<path fill="#49a7ff" opacity="1.00" d=" M 626.03 339.98 C 631.27 340.50 637.37 338.98 642.23 340.77 C 636.81 341.04 631.40 341.11 625.99 340.98 L 626.03 339.98 Z" />
<path fill="#49a7ff" opacity="1.00" d=" M 221.99 343.06 L 222.97 342.98 C 222.99 347.63 223.16 352.32 222.95 356.98 L 221.99 356.99 C 222.00 352.34 221.99 347.69 221.99 343.06 Z" />
</g>
<g id="#48a6ffff">
<path fill="#48a6ff" opacity="1.00" d=" M 642.23 340.77 C 644.00 345.60 642.48 351.69 643.02 356.94 L 642.03 357.02 C 641.88 351.60 641.95 346.18 642.23 340.77 Z" />
</g>
<g id="#8fcfffff">
<path fill="#8fcfff" opacity="1.00" d=" M 208.07 343.03 C 212.70 342.99 217.36 342.83 221.99 343.06 C 221.99 347.69 222.00 352.34 221.99 356.99 C 218.97 356.96 216.00 356.97 213.00 357.02 C 211.34 357.03 209.68 357.04 208.03 356.94 C 208.00 352.29 207.83 347.66 208.07 343.03 M 213.03 348.03 C 212.95 349.34 212.95 350.65 213.03 351.97 C 214.34 352.04 215.66 352.04 216.97 351.97 C 217.05 350.65 217.05 349.34 216.97 348.03 C 215.66 347.95 214.34 347.95 213.03 348.03 Z" />
</g>
<g id="#0e84ffff">
<path fill="#0e84ff" opacity="1.00" d=" M 631.21 347.13 C 634.80 345.25 636.77 351.60 632.95 351.99 C 630.03 352.83 628.82 348.42 631.21 347.13 Z" />
</g>
<g id="#047effff">
<path fill="#047eff" opacity="1.00" d=" M 213.03 348.03 C 214.34 347.95 215.66 347.95 216.97 348.03 C 217.05 349.34 217.05 350.65 216.97 351.97 C 215.66 352.04 214.34 352.04 213.03 351.97 C 212.95 350.65 212.95 349.34 213.03 348.03 Z" />
</g>
<g id="#5ca7eaff">
<path fill="#5ca7ea" opacity="1.00" d=" M 626.03 355.99 C 630.66 356.00 635.28 355.98 639.94 355.99 L 640.02 356.97 C 635.33 356.98 630.68 357.16 626.01 356.95 L 626.03 355.99 Z" />
</g>
<g id="#298beeff">
<path fill="#298bee" opacity="1.00" d=" M 213.00 357.02 C 216.00 356.97 218.97 356.96 221.99 356.99 C 221.99 360.24 215.43 357.25 213.02 357.96 L 213.00 357.02 Z" />
</g>
<g id="#48a2f7ff">
<path fill="#48a2f7" opacity="1.00" d=" M 225.04 356.99 C 232.02 357.01 239.00 356.96 245.99 356.98 L 246.01 357.96 C 239.00 358.08 231.99 358.04 224.99 357.97 L 225.04 356.99 Z" />
</g>
<g id="#6cb0ebff">
<path fill="#6cb0eb" opacity="1.00" d=" M 245.99 356.98 C 250.42 356.96 254.86 357.02 259.25 357.74 C 254.84 357.93 250.42 358.16 246.01 357.96 L 245.99 356.98 Z" />
</g>
<g id="#2c8defff">
<path fill="#2c8def" opacity="1.00" d=" M 673.00 357.00 C 676.34 356.96 679.61 356.95 683.00 357.00 L 683.01 357.95 C 680.49 356.90 674.24 359.58 673.00 357.00 Z" />
</g>
<g id="#46a1f8ff">
<path fill="#46a1f8" opacity="1.00" d=" M 683.00 357.00 C 689.99 356.98 696.98 356.98 703.99 356.98 L 704.01 357.96 C 696.99 358.01 690.00 358.13 683.01 357.95 L 683.00 357.00 Z" />
</g>
<g id="#6aafebff">
<path fill="#6aafeb" opacity="1.00" d=" M 703.99 356.98 C 708.76 356.95 713.51 356.98 718.25 357.73 C 713.48 357.93 708.75 358.18 704.01 357.96 L 703.99 356.98 Z" />
</g>
<g id="#3797f7ff">
<path fill="#3797f7" opacity="1.00" d=" M 288.00 358.01 C 296.02 357.94 304.04 358.03 312.07 357.97 C 312.30 358.22 312.76 358.72 312.99 358.97 C 304.66 359.05 296.33 359.04 288.00 358.98 L 288.00 358.01 Z" />
</g>
<g id="#3c8de3ff">
<path fill="#3c8de3" opacity="1.00" d=" M 625.83 361.80 C 629.27 361.10 632.74 361.09 636.21 361.76 C 632.71 361.81 629.30 361.99 625.83 361.80 Z" />
</g>
<g id="#8bb9eaff">
<path fill="#8bb9ea" opacity="1.00" d=" M 662.79 362.22 C 667.18 362.08 671.57 361.99 675.99 362.01 L 676.01 363.02 C 671.59 363.03 667.14 362.87 662.79 362.22 Z" />
</g>
<g id="#60a8f3ff">
<path fill="#60a8f3" opacity="1.00" d=" M 675.99 362.01 C 683.99 361.96 691.98 361.98 700.00 361.98 L 700.00 362.99 C 692.00 363.05 683.99 362.99 676.01 363.02 L 675.99 362.01 Z" />
</g>
<g id="#2c89ecff">
<path fill="#2c89ec" opacity="1.00" d=" M 700.00 361.98 C 704.07 361.99 708.14 362.16 712.22 362.75 C 708.13 362.87 704.06 362.95 700.00 362.99 L 700.00 361.98 Z" />
</g>
<g id="#000000f9">
<path fill="#000000" opacity="0.98" d=" M 203.15 362.94 C 204.76 362.97 206.37 362.98 207.97 363.02 C 208.17 378.01 207.78 393.02 208.07 408.01 C 215.14 408.38 223.06 404.95 226.68 398.65 C 229.36 390.65 220.34 386.39 214.08 384.74 C 213.75 383.26 214.09 380.93 216.05 381.03 C 223.60 382.10 233.08 387.14 232.00 396.00 C 233.18 401.79 228.16 406.01 223.97 408.95 C 219.24 412.18 213.59 413.12 208.09 414.22 C 207.82 432.81 208.13 451.40 207.97 469.99 C 206.29 469.99 204.62 470.01 202.94 470.07 C 202.98 451.43 203.11 432.79 202.92 414.15 C 196.29 413.57 189.71 411.63 184.19 407.81 C 181.13 404.57 176.52 401.32 178.00 396.00 C 176.54 389.86 182.34 386.63 185.76 382.73 C 186.22 381.02 184.47 379.55 184.00 377.95 C 189.52 377.74 194.90 379.31 200.01 381.21 C 197.17 384.92 193.05 387.60 190.70 391.73 C 188.52 392.99 189.13 390.33 188.84 389.00 C 185.72 388.09 184.84 391.42 183.34 393.36 C 181.23 396.96 183.98 399.65 185.84 402.16 C 190.64 405.97 196.69 408.68 202.96 408.01 C 203.27 392.99 202.62 377.95 203.15 362.94 Z" />
</g>
<g id="#00214452">
<path fill="#002144" opacity="0.32" d=" M 246.00 363.00 C 251.66 362.95 257.33 362.97 263.00 362.98 L 263.00 363.95 C 257.34 364.08 251.67 364.07 246.01 363.97 L 246.00 363.00 Z" />
</g>
<g id="#003e7f7f">
<path fill="#003e7f" opacity="0.50" d=" M 263.00 362.98 C 270.08 363.03 277.22 362.62 284.25 363.73 C 277.17 364.04 270.08 364.15 263.00 363.95 L 263.00 362.98 Z" />
</g>
<g id="#00000060">
<path fill="#000000" opacity="0.38" d=" M 501.00 373.99 C 501.24 371.49 501.74 366.48 501.99 363.98 C 502.00 367.33 501.95 370.64 501.97 374.01 L 501.00 373.99 Z" />
</g>
<g id="#4d5965ff">
<path fill="#4d5965" opacity="1.00" d=" M 611.78 427.22 C 614.86 427.10 617.87 427.00 621.00 426.98 C 620.10 429.79 613.83 426.43 611.78 427.22 Z" />
</g>
<g id="#00000073">
<path fill="#000000" opacity="0.45" d=" M 607.99 432.01 C 612.31 431.95 616.60 431.93 620.94 432.03 L 620.99 433.00 C 617.50 431.87 609.74 435.09 607.99 432.01 Z" />
</g>
<g id="#00000066">
<path fill="#000000" opacity="0.40" d=" M 626.19 432.79 C 627.36 431.10 629.58 430.86 632.83 432.07 C 631.78 433.90 628.09 433.18 626.19 432.79 Z" />
</g>
<g id="#0000009f">
<path fill="#000000" opacity="0.62" d=" M 195.16 470.93 C 196.24 469.09 200.04 469.69 201.92 470.36 L 201.88 471.00 C 200.20 470.98 196.84 470.95 195.16 470.93 Z" />
</g>
<g id="#000000c8">
<path fill="#000000" opacity="0.78" d=" M 201.92 470.36 L 202.94 470.07 C 204.62 470.01 206.29 469.99 207.97 469.99 C 208.80 470.06 210.44 470.22 211.26 470.29 C 208.13 470.66 205.03 471.04 201.88 471.00 L 201.92 470.36 Z" />
</g>
<g id="#000000f7">
<path fill="#000000" opacity="0.97" d=" M 211.26 470.29 C 212.70 470.21 215.58 470.04 217.02 469.96 C 213.36 476.17 210.19 482.63 206.90 489.04 C 206.51 488.97 205.72 488.83 205.33 488.76 C 202.10 482.73 197.78 477.26 195.16 470.93 C 196.84 470.95 200.20 470.98 201.88 471.00 C 205.03 471.04 208.13 470.66 211.26 470.29 Z" />
</g>
<g id="#000000a1">
<path fill="#000000" opacity="0.63" d=" M 612.98 471.04 C 613.86 468.76 618.58 470.48 620.99 470.02 C 620.23 472.41 615.29 470.40 612.98 471.04 Z" />
</g>
</svg>
