<?xml version="1.0" standalone="no"?>
<!DOCTYPE svg PUBLIC "-//W3C//DTD SVG 20010904//EN"
 "http://www.w3.org/TR/2001/REC-SVG-20010904/DTD/svg10.dtd">
<svg version="1.0" xmlns="http://www.w3.org/2000/svg"
 width="298.000000pt" height="150.000000pt" viewBox="0 0 298.000000 150.000000"
 preserveAspectRatio="xMidYMid meet">
<metadata>
Created by potrace 1.15, written by Peter Selinger 2001-2017
</metadata>
<g transform="translate(0.000000,150.000000) scale(0.100000,-0.100000)"
fill="#000000" stroke="none">
<path d="M655 1483 c-114 -41 -235 -140 -357 -293 -63 -77 -298 -426 -298
-441 0 -5 333 -10 741 -11 l741 -3 80 -125 c204 -320 366 -499 518 -573 56
-27 76 -31 145 -32 74 0 88 3 157 38 88 43 202 144 300 266 62 78 298 427 298
442 0 5 -333 10 -741 11 l-741 3 -80 125 c-263 412 -456 593 -646 606 -49 3
-80 0 -117 -13z m243 -50 c57 -27 95 -56 166 -126 109 -109 155 -167 298 -382
l106 -160 -353 -3 c-194 -1 -516 -1 -715 0 l-361 3 56 90 c233 374 438 582
606 614 65 13 116 3 197 -36z m2016 -740 c-42 -74 -140 -218 -217 -320 -115
-155 -261 -288 -353 -324 -233 -88 -448 82 -797 634 l-37 57 716 0 716 0 -28
-47z"/>
</g>
</svg>
