<svg height="512pt" viewBox="0 0 512 512" width="512pt" xmlns="http://www.w3.org/2000/svg"><path d="m135 362h-120c-8.285156 0-15 6.714844-15 15v120c0 8.285156 6.714844 15 15 15h120c8.285156 0 15-6.714844 15-15 0-5.273438 0-114.738281 0-120 0-8.285156-6.714844-15-15-15zm-15 30v30h-90v-30zm0 90h-90v-30h90zm0 0"/><path d="m316 302h-120c-8.285156 0-15 6.714844-15 15v180c0 8.285156 6.714844 15 15 15h120c8.285156 0 15-6.714844 15-15 0-5.949219 0-170.722656 0-180 0-8.285156-6.714844-15-15-15zm-105 90h90v30h-90zm90-60v30h-90v-30zm0 150h-90v-30h90zm0 0"/><path d="m497 182h-120c-8.285156 0-15 6.714844-15 15v300c0 8.285156 6.714844 15 15 15h120c8.285156 0 15-6.714844 15-15 0-5.949219 0-294.738281 0-300 0-8.285156-6.714844-15-15-15zm-105 180v-30h90v30zm90-60h-90v-30h90zm-90 90h90v30h-90zm90-180v30h-90v-30zm0 270h-90v-30h90zm0 0"/><path d="m76 271c3.839844 0 7.679688-1.464844 10.605469-4.394531l109.394531-109.390625 49.394531 49.390625c5.871094 5.871093 15.390625 5.855469 21.242188-.027344l154.363281-155.222656v23.644531c0 8.285156 6.714844 15 15 15s15-6.714844 15-15v-60c0-.007812 0-.015625 0-.019531-.011719-7.890625-6.25-14.722657-14.574219-14.9609378-.144531 0-.28125-.0195312-.425781-.0195312h-60c-8.285156 0-15 6.714844-15 15s6.714844 15 15 15h23.929688l-143.957032 144.757812-49.367187-49.363281c-5.855469-5.859375-15.351563-5.859375-21.210938 0l-120 120c-5.859375 5.855469-5.859375 15.351563 0 21.210938 2.925781 2.929687 6.765625 4.394531 10.605469 4.394531zm0 0"/></svg>