<?xml version="1.0" standalone="no"?>
<!DOCTYPE svg PUBLIC "-//W3C//DTD SVG 20010904//EN"
 "http://www.w3.org/TR/2001/REC-SVG-20010904/DTD/svg10.dtd">
<svg version="1.0" xmlns="http://www.w3.org/2000/svg"
 width="128.000000pt" height="128.000000pt" viewBox="0 0 128.000000 128.000000"
 preserveAspectRatio="xMidYMid meet">
<metadata>
Created by potrace 1.15, written by Peter Selinger 2001-2017
</metadata>
<g transform="translate(0.000000,128.000000) scale(0.100000,-0.100000)"
fill="#000000" stroke="none">
<path d="M724 1261 c-67 -41 -110 -125 -159 -308 l-28 -103 -108 0 c-106 0
-109 -1 -126 -26 -15 -24 -15 -29 -2 -53 14 -25 19 -26 112 -29 95 -3 97 -3
92 -25 -102 -420 -136 -552 -149 -572 -18 -28 -61 -34 -90 -12 -10 7 -30 35
-44 62 -29 54 -60 67 -103 45 -47 -26 -3 -146 77 -206 30 -23 49 -29 103 -32
56 -3 71 0 101 20 65 44 83 91 162 416 l73 302 92 0 c100 0 123 10 123 55 0
43 -24 55 -110 55 l-79 0 20 73 c27 101 48 156 77 200 41 62 93 44 110 -39 10
-49 46 -71 86 -52 33 15 41 43 26 99 -27 101 -82 149 -171 149 -36 0 -65 -7
-85 -19z"/>
<path d="M774 585 c-23 -35 -12 -64 51 -137 30 -34 55 -66 55 -70 0 -3 -27
-39 -61 -79 -52 -63 -60 -77 -57 -108 2 -28 9 -38 29 -45 46 -16 75 0 125 69
26 36 49 65 51 65 1 0 27 -31 58 -70 49 -62 60 -70 90 -70 42 0 65 22 65 63 0
25 -14 48 -60 100 -33 38 -60 72 -60 77 0 5 24 37 54 72 64 75 74 100 52 133
-26 40 -75 34 -119 -14 -20 -22 -43 -51 -52 -65 -10 -14 -20 -26 -24 -26 -3 0
-24 26 -46 56 -45 63 -61 74 -104 74 -22 0 -35 -7 -47 -25z"/>
</g>
</svg>
