<?xml version="1.0" standalone="no"?>
<!DOCTYPE svg PUBLIC "-//W3C//DTD SVG 20010904//EN"
 "http://www.w3.org/TR/2001/REC-SVG-20010904/DTD/svg10.dtd">
<svg version="1.0" xmlns="http://www.w3.org/2000/svg"
 width="299.000000pt" height="300.000000pt" viewBox="0 0 299.000000 300.000000"
 preserveAspectRatio="xMidYMid meet">
<metadata>
Created by potrace 1.15, written by Peter Selinger 2001-2017
</metadata>
<g transform="translate(0.000000,300.000000) scale(0.100000,-0.100000)"
fill="#000000" stroke="none">
<path d="M1160 2960 c-24 -47 -26 -70 -5 -70 13 0 15 -119 15 -951 l0 -952
-38 7 c-20 3 -94 6 -164 6 l-128 0 0 30 c0 17 -4 30 -10 30 -5 0 -10 -13 -10
-30 l0 -30 -355 0 c-309 0 -355 2 -355 15 0 20 -11 19 -65 -7 -25 -12 -45 -29
-45 -38 0 -9 20 -26 45 -38 54 -26 65 -27 65 -7 0 13 46 15 354 15 274 0 355
-3 359 -12 4 -10 7 -10 15 0 6 9 43 12 147 10 l138 -3 -136 -123 c-74 -67
-138 -122 -141 -122 -3 0 -6 9 -6 20 0 35 -19 21 -22 -16 -3 -33 -26 -56 -313
-314 -204 -183 -314 -274 -321 -269 -7 6 -15 4 -22 -3 -17 -21 -45 -98 -38
-105 4 -4 32 0 64 8 47 11 57 18 57 35 0 15 84 97 292 283 161 143 297 261
302 261 6 0 11 4 11 9 0 5 62 64 138 132 75 67 147 131 160 142 l22 20 0 -141
0 -142 -25 0 c-14 0 -25 -4 -25 -10 0 -5 11 -10 25 -10 l25 0 0 -130 c0 -109
-2 -130 -15 -130 -8 0 -15 -7 -15 -15 0 -27 40 -95 55 -95 15 0 55 68 55 95 0
8 -7 15 -15 15 -13 0 -15 21 -15 130 0 123 1 130 20 130 11 0 20 5 20 10 0 6
-9 10 -20 10 -19 0 -20 7 -20 165 l0 165 520 0 520 0 0 -25 c0 -14 5 -25 10
-25 6 0 10 12 10 26 l0 26 143 -7 c87 -5 145 -12 149 -19 5 -8 13 -8 28 2 13
8 63 12 149 12 106 0 130 -3 135 -15 5 -13 13 -12 56 10 27 14 50 31 50 38 0
12 -79 57 -100 57 -6 0 -10 -7 -10 -15 0 -12 -20 -15 -120 -15 -113 0 -120 1
-120 20 0 11 -4 20 -10 20 -5 0 -10 -9 -10 -20 0 -19 -7 -20 -170 -20 -163 0
-170 1 -170 20 0 11 -4 20 -10 20 -5 0 -10 -9 -10 -20 0 -20 -7 -20 -492 -20
l-493 1 26 22 c15 12 98 85 184 162 116 103 163 139 179 137 19 -2 26 6 41 53
11 30 16 57 12 61 -4 4 -30 1 -59 -7 -40 -11 -53 -19 -52 -32 1 -12 -65 -79
-183 -185 -102 -92 -190 -168 -194 -170 -5 -2 -9 407 -9 927 0 821 2 931 15
931 8 0 15 7 15 15 0 27 -40 95 -55 95 -8 0 -24 -18 -35 -40z"/>
</g>
</svg>
