<?xml version="1.0" standalone="no"?>
<!DOCTYPE svg PUBLIC "-//W3C//DTD SVG 20010904//EN"
 "http://www.w3.org/TR/2001/REC-SVG-20010904/DTD/svg10.dtd">
<svg version="1.0" xmlns="http://www.w3.org/2000/svg"
 width="300.000000pt" height="183.000000pt" viewBox="0 0 300.000000 183.000000"
 preserveAspectRatio="xMidYMid meet">
<metadata>
Created by potrace 1.15, written by Peter Selinger 2001-2017
</metadata>
<g transform="translate(0.000000,183.000000) scale(0.100000,-0.100000)"
fill="#000000" stroke="none">
<path d="M271 1821 c-54 -7 -51 4 -86 -259 -14 -108 -60 -444 -102 -747 -42
-302 -76 -579 -77 -615 -1 -68 22 -129 67 -178 l20 -22 1401 0 1401 0 53 79
c62 94 61 90 27 308 -13 87 -49 329 -80 538 -103 707 -131 878 -151 892 -14
11 -249 13 -1223 11 -663 0 -1226 -4 -1250 -7z m2460 -28 c6 -6 12 -30 15 -54
l4 -44 -12 45 -13 45 -1232 0 c-677 0 -1234 -2 -1236 -5 -3 -3 -17 -100 -32
-215 -15 -116 -31 -214 -36 -219 -5 -6 -9 -8 -9 -5 0 15 61 427 66 441 5 16
35 18 397 21 806 7 2077 1 2088 -10z m-1675 -184 c7 -5 9 -29 6 -58 -4 -44 -1
-52 22 -72 21 -19 26 -31 26 -71 l0 -48 -70 0 -70 0 0 35 c0 23 -8 43 -22 57
-35 35 -26 99 19 143 36 35 58 38 89 14z m675 5 c14 -13 17 -26 12 -63 -5 -43
-3 -50 21 -69 21 -16 28 -32 33 -71 l6 -51 -72 0 -71 0 0 31 c0 22 -9 39 -30
57 -25 22 -30 34 -30 73 0 33 5 51 20 64 11 10 20 24 20 32 0 19 69 17 91 -3z
m233 -9 c15 -14 31 -25 36 -25 5 0 12 -25 16 -56 6 -48 4 -58 -15 -78 -12 -13
-21 -35 -21 -54 l0 -32 -69 0 -69 0 -7 50 c-6 46 -5 53 19 75 30 28 34 69 10
97 -42 46 52 68 100 23z m227 3 c7 -13 11 -42 10 -64 -2 -34 2 -45 22 -61 18
-14 27 -33 32 -71 l7 -52 -76 0 c-63 0 -74 2 -70 15 11 28 -6 64 -36 80 -28
14 -30 20 -30 69 0 73 27 106 87 106 34 0 45 -5 54 -22z m252 -11 c29 -26 37
-42 42 -82 6 -43 4 -53 -14 -69 -13 -12 -21 -31 -21 -53 l0 -33 -74 0 c-82 0
-86 3 -86 69 0 24 7 42 20 54 24 21 27 83 5 114 -14 20 -14 22 12 26 66 10 81
7 116 -26z m201 6 c13 -62 36 -207 36 -224 0 -16 -8 -19 -49 -19 -43 0 -49 2
-44 19 6 24 -23 81 -42 81 -15 0 -20 15 -28 80 -7 49 32 90 84 90 33 0 38 -3
43 -27z m-2222 -8 c-2 -11 -6 -35 -9 -53 -3 -20 1 -41 11 -57 16 -24 21 -80
10 -109 -5 -12 -20 -16 -58 -16 -72 0 -82 10 -61 63 5 12 2 17 -11 18 -17 0
-17 1 1 8 19 8 18 9 -5 13 -25 5 -25 5 3 7 35 1 40 40 5 42 -22 1 -22 1 2 9
14 4 19 8 12 9 -11 1 -10 4 1 16 19 18 11 55 -12 56 -35 2 36 17 74 16 34 -2
40 -5 37 -22z m210 -5 c-7 -56 -4 -82 14 -103 15 -17 18 -34 16 -74 l-3 -53
-95 0 -94 0 6 43 c5 30 16 51 41 74 31 29 35 38 31 70 -7 54 9 74 52 71 31 -3
35 -6 32 -28z m233 3 c37 -43 35 -106 -6 -144 -25 -23 -30 -35 -27 -59 l5 -30
-69 0 -68 0 0 53 c0 48 3 53 31 69 28 16 30 22 28 66 -3 61 4 72 47 72 26 0
41 -7 59 -27z m426 4 c21 -17 28 -34 31 -74 4 -45 2 -55 -18 -74 -13 -12 -27
-37 -30 -56 l-6 -33 -64 0 -64 0 0 49 c0 37 5 53 18 63 34 24 44 55 32 93 -6
19 -9 39 -5 45 11 18 79 10 106 -13z m236 -9 c21 -23 32 -47 36 -79 5 -40 3
-49 -18 -69 -15 -14 -25 -35 -25 -52 0 -27 -1 -28 -53 -28 -53 0 -54 1 -54 29
0 17 -11 42 -26 61 -15 17 -27 39 -27 48 0 9 -3 26 -6 38 -4 14 3 31 21 52 23
28 33 32 74 32 40 0 52 -5 78 -32z m185 -259 c-591 -5 -1122 -5 -1180 0 -63 5
380 8 1073 8 l1180 0 -1073 -8z m-1527 -71 c-4 -29 -35 -272 -71 -541 -35
-268 -64 -498 -64 -512 l0 -25 1450 0 c1294 0 1451 2 1457 15 3 9 -29 253 -71
543 -68 476 -83 588 -70 557 2 -5 28 -181 58 -390 31 -209 67 -456 81 -550 24
-160 25 -170 8 -182 -13 -11 -308 -13 -1472 -11 l-1456 3 2 65 c1 64 122 981
138 1058 10 42 16 22 10 -30z m2069 33 c203 0 367 -3 365 -6 -3 -2 -295 -5
-650 -5 -642 -1 -644 -1 -666 -22 -27 -25 -30 -60 -7 -82 8 -9 12 -21 9 -27
-11 -17 -8 -78 4 -93 8 -10 7 -16 -4 -26 -19 -16 -19 -59 0 -87 13 -19 13 -24
0 -50 -21 -40 -19 -51 16 -86 l31 -31 9 -225 c6 -154 6 -227 -1 -229 -29 -10
-42 -37 -37 -79 l5 -43 -74 0 -74 0 0 31 c0 17 -4 39 -10 49 -7 13 -5 27 6 50
13 25 14 37 5 56 -8 17 -8 31 -1 44 17 31 11 59 -16 87 l-26 26 1 235 c2 233
2 235 26 267 29 37 30 46 10 84 -13 26 -13 30 4 45 10 9 36 20 57 23 l39 7
-30 7 -30 7 30 2 c25 3 23 4 -15 10 l-45 7 50 3 50 3 -55 7 -55 7 65 3 c110 6
-143 17 -417 19 -184 1 -243 -2 -247 -11 -5 -10 -7 -10 -12 0 -3 6 -22 13 -42
14 -53 4 871 13 1138 12 124 -1 391 -2 594 -3z m-1869 -124 l21 -32 -28 -233
c-27 -232 -27 -233 -58 -262 -32 -30 -37 -49 -19 -82 8 -15 8 -26 -1 -44 -7
-13 -11 -40 -8 -61 4 -26 1 -42 -9 -52 -9 -8 -13 -29 -12 -55 1 -22 -3 -52
-10 -65 -7 -13 -11 -36 -9 -52 4 -28 3 -29 -36 -29 -55 0 -86 21 -58 39 5 3
12 18 16 34 5 21 3 27 -10 27 -14 0 -13 2 2 17 16 17 16 18 -7 24 l-24 7 26 1
c25 1 39 31 15 31 -8 0 -8 2 0 8 6 4 14 19 18 35 6 24 4 27 -21 28 l-28 1 30
8 c17 4 26 8 20 9 -5 1 -3 5 5 11 13 8 13 9 0 14 -8 2 -22 7 -30 9 -8 3 -1 6
15 6 23 1 27 4 15 11 -10 6 -11 10 -2 10 6 0 12 9 12 20 0 14 -7 20 -22 21
-14 0 -17 2 -8 6 43 14 44 16 15 23 l-30 8 28 1 c16 0 26 5 22 11 -3 6 -2 10
3 10 16 0 1 39 -17 43 -11 3 -9 5 7 6 32 1 28 29 -5 34 -27 4 -27 4 3 6 30 1
32 4 36 41 3 35 1 40 -17 41 -20 1 -20 1 0 7 24 8 31 32 13 43 -10 7 -10 9 2
9 10 0 17 11 18 29 2 25 -2 30 -25 34 -28 4 -28 4 2 6 27 1 31 5 33 31 2 23
-2 30 -15 31 -16 0 -15 2 2 9 18 8 18 9 -5 10 l-25 2 25 7 c30 8 40 41 13 42
-16 0 -16 1 2 9 11 5 14 9 7 9 -10 1 -9 5 3 17 10 11 13 19 6 23 -6 4 -7 12
-1 21 15 24 12 30 -17 31 -27 2 -27 2 -3 6 14 3 29 9 35 14 5 5 23 9 40 9 23
-1 35 -9 50 -33z m209 17 c3 -9 1 -34 -6 -55 -8 -28 -8 -46 -1 -62 8 -17 7
-28 -3 -42 -20 -27 -17 -58 7 -89 24 -31 24 -49 -7 -350 -14 -144 -16 -150
-45 -177 -25 -24 -30 -35 -29 -76 1 -26 -2 -67 -6 -90 l-6 -43 -53 0 -52 0 -6
44 c-4 30 -1 54 9 75 12 24 13 38 6 61 -8 22 -7 31 4 41 10 8 15 30 14 63 0
28 2 70 6 93 5 34 2 45 -16 63 l-22 22 27 230 28 229 36 39 c29 31 43 39 72
39 25 1 39 -4 43 -15z m276 -62 c0 -43 -5 -138 -11 -212 -10 -122 -13 -136
-35 -157 -25 -23 -32 -71 -13 -90 8 -8 6 -18 -7 -38 -14 -22 -16 -32 -7 -56 9
-23 8 -36 -4 -61 -15 -29 -15 -34 0 -60 10 -17 12 -30 6 -34 -22 -13 -30 -56
-16 -84 12 -23 12 -30 0 -46 -8 -10 -13 -34 -11 -51 l4 -33 -68 0 -68 0 0 33
c0 17 -4 38 -9 46 -6 10 -5 22 5 35 20 29 17 63 -6 86 -25 25 -25 44 1 299 20
201 21 205 50 232 31 28 36 57 18 91 -8 14 -8 23 0 31 14 14 15 84 1 92 -10 6
18 39 41 48 8 3 40 6 72 6 l57 1 0 -78z m188 52 c8 -17 9 -31 2 -44 -18 -33
-11 -61 21 -91 l32 -29 -8 -238 c-4 -130 -11 -239 -16 -240 -35 -13 -55 -91
-28 -108 8 -4 8 -9 0 -17 -14 -14 -14 -84 -1 -92 6 -4 4 -16 -6 -31 -11 -16
-14 -35 -10 -54 l6 -30 -73 0 -73 0 -1 37 c-1 21 -2 47 -2 58 -1 11 2 39 5 61
4 26 2 44 -5 48 -7 5 -6 14 4 30 9 13 15 43 15 67 -1 24 2 63 5 85 4 25 3 44
-3 48 -7 4 -5 17 5 36 16 34 11 62 -19 89 -19 19 -20 27 -13 216 6 150 11 200
22 211 9 9 35 14 72 14 52 0 59 -2 69 -26z m1225 4 c3 -13 16 -106 27 -208 12
-102 23 -187 25 -189 3 -2 -5 -11 -17 -21 -23 -18 -25 -38 -14 -150 3 -36 6
-82 6 -103 0 -22 6 -49 12 -60 7 -12 11 -46 9 -74 -2 -41 1 -54 13 -59 14 -5
14 -8 -1 -31 -13 -20 -14 -31 -6 -54 l11 -29 -64 0 -64 0 0 39 c0 22 -6 44
-15 51 -14 12 -14 15 0 30 19 21 19 50 1 76 -10 13 -13 34 -9 65 5 45 -7 71
-38 81 -7 2 -20 91 -35 238 l-23 233 24 23 c29 27 33 69 8 96 -13 15 -14 23
-5 43 11 23 17 25 81 25 63 0 69 -2 74 -22z m198 0 c13 -17 17 -32 12 -56 -4
-25 0 -41 15 -61 13 -19 17 -32 11 -42 -17 -28 -9 -69 19 -99 30 -31 26 -10
76 -388 11 -85 11 -93 -6 -109 -22 -20 -24 -85 -4 -106 9 -9 11 -19 5 -28 -13
-20 -11 -63 3 -77 9 -9 -5 -12 -64 -12 l-77 0 6 35 c4 25 1 41 -10 53 -14 15
-15 23 -5 49 9 24 9 38 -3 64 -7 19 -12 55 -11 80 2 26 -1 50 -7 53 -5 4 -7
22 -4 41 4 25 1 41 -11 54 -14 15 -15 23 -5 44 14 32 -3 83 -31 92 -12 4 -21
19 -24 43 -8 52 -46 363 -46 379 0 9 19 13 71 13 61 0 73 -3 90 -22z m229 14
c0 -7 127 -929 134 -969 3 -22 0 -23 -61 -23 -61 0 -63 1 -53 21 14 25 4 76
-17 88 -11 6 -12 10 -4 15 19 12 13 74 -9 96 -11 11 -24 20 -28 20 -10 0 -26
90 -47 262 -19 160 -19 202 0 218 23 19 20 95 -4 112 -17 12 -17 16 -5 33 19
26 17 62 -5 84 -30 30 -10 51 49 51 28 0 50 -3 50 -8z m-1162 -33 l33 -30 9
-162 c5 -89 12 -193 15 -230 6 -62 4 -70 -19 -98 -30 -35 -33 -65 -11 -96 10
-14 12 -24 5 -28 -13 -8 -13 -61 1 -87 8 -14 8 -23 0 -31 -16 -16 -13 -73 4
-87 14 -12 14 -15 -1 -31 -10 -12 -15 -29 -12 -49 l5 -30 -68 0 -67 0 5 39 c5
33 1 44 -21 66 l-26 26 -6 227 c-7 223 -6 227 15 246 25 22 29 86 7 108 -11
12 -11 17 0 33 18 24 18 69 0 84 -12 10 -12 16 0 39 18 34 18 53 0 78 -21 28
-2 44 53 44 37 -1 52 -6 79 -31z m223 15 c14 -13 17 -26 12 -63 -4 -35 -1 -51
11 -63 13 -14 14 -18 1 -28 -20 -17 -19 -69 2 -92 14 -15 14 -22 4 -41 -18
-35 -10 -80 16 -92 28 -12 29 -18 48 -267 l16 -206 -27 -27 c-22 -22 -25 -33
-21 -61 l6 -34 -67 0 -67 0 -2 43 c-2 23 -3 64 -2 91 0 26 -5 54 -12 62 -9 11
-9 18 1 29 8 9 10 30 6 57 -6 45 -7 63 -6 113 1 21 -7 36 -24 50 -26 21 -26
21 -37 256 l-11 236 23 26 c29 30 102 37 130 11z m238 -8 c19 -20 21 -28 12
-44 -18 -34 -13 -63 17 -91 28 -26 29 -29 52 -254 l23 -228 -21 -20 c-26 -23
-29 -74 -7 -99 12 -13 13 -22 3 -47 -10 -25 -9 -35 4 -55 14 -21 14 -27 1 -52
-8 -16 -12 -39 -9 -52 6 -23 5 -24 -52 -24 l-59 0 -6 42 c-4 28 -14 50 -30 63
-23 19 -25 29 -36 195 -16 247 -15 276 9 300 25 25 26 61 1 91 -17 22 -18 25
-3 57 15 31 15 36 -1 64 -12 21 -14 34 -7 48 14 27 12 61 -5 80 -27 30 -9 50
44 50 37 0 52 -5 70 -24z m905 -1038 c-4 -7 -20 -32 -36 -55 -29 -43 -29 -43
-86 -41 -53 1 -54 2 -12 5 31 3 40 7 30 14 -12 6 -12 9 -2 9 7 0 20 7 28 15
14 13 -50 15 -563 18 l-578 2 590 5 c440 3 534 6 370 10 l-220 6 225 4 c208 4
195 5 -175 10 l-400 5 418 3 c332 2 417 -1 411 -10z"/>
</g>
</svg>
