<?xml version="1.0" standalone="no"?>
<!DOCTYPE svg PUBLIC "-//W3C//DTD SVG 20010904//EN"
 "http://www.w3.org/TR/2001/REC-SVG-20010904/DTD/svg10.dtd">
<svg version="1.0" xmlns="http://www.w3.org/2000/svg"
 width="128.000000pt" height="128.000000pt" viewBox="0 0 128.000000 128.000000"
 preserveAspectRatio="xMidYMid meet">
<metadata>
Created by potrace 1.15, written by Peter Selinger 2001-2017
</metadata>
<g transform="translate(0.000000,128.000000) scale(0.100000,-0.100000)"
fill="#000000" stroke="none">
<path d="M62 1257 c-14 -15 -22 -36 -22 -60 0 -41 -19 -16 285 -372 94 -110
175 -206 179 -214 6 -9 -59 -81 -228 -250 -230 -231 -236 -238 -236 -277 0
-29 6 -47 23 -62 l23 -22 555 0 556 0 21 23 c21 22 22 33 22 183 0 155 -1 161
-23 182 -23 22 -68 29 -102 16 -30 -12 -45 -60 -45 -149 l0 -85 -367 0 -367 0
192 194 c178 179 192 196 192 229 0 41 -6 49 -240 322 -81 94 -150 176 -154
183 -5 9 78 12 367 12 l374 0 6 -47 c6 -57 33 -83 86 -83 26 0 44 7 59 23 20
21 22 34 22 128 0 97 -2 107 -23 127 l-23 22 -555 0 -556 0 -21 -23z"/>
</g>
</svg>
