<?xml version="1.0" standalone="no"?>
<!DOCTYPE svg PUBLIC "-//W3C//DTD SVG 20010904//EN"
 "http://www.w3.org/TR/2001/REC-SVG-20010904/DTD/svg10.dtd">
<svg version="1.0" xmlns="http://www.w3.org/2000/svg"
 width="128.000000pt" height="128.000000pt" viewBox="0 0 128.000000 128.000000"
 preserveAspectRatio="xMidYMid meet">
<metadata>
Created by potrace 1.15, written by Peter Selinger 2001-2017
</metadata>
<g transform="translate(0.000000,128.000000) scale(0.100000,-0.100000)"
fill="#000000" stroke="none">
<path d="M13 1153 c-9 -3 -13 -27 -13 -68 l0 -64 88 -4 87 -3 -87 -2 -88 -2 0
-29 c0 -29 2 -30 53 -34 l52 -3 -52 -2 c-49 -2 -53 -4 -53 -27 0 -24 2 -24 88
-28 l87 -3 -87 -2 c-87 -2 -88 -2 -88 -27 0 -23 4 -25 45 -25 25 0 45 -4 45
-10 0 -5 -20 -10 -45 -10 -41 0 -45 -2 -45 -25 0 -24 2 -24 88 -28 l87 -3 -87
-2 c-86 -2 -88 -3 -88 -26 0 -23 4 -25 53 -29 l52 -3 -52 -2 c-52 -2 -53 -3
-53 -32 l0 -29 88 -4 87 -3 -87 -2 c-86 -2 -88 -3 -88 -26 0 -23 4 -25 53 -29
l52 -3 -52 -2 c-52 -2 -53 -3 -53 -32 l0 -29 88 -4 87 -3 -87 -2 c-86 -2 -88
-3 -88 -26 0 -23 4 -25 53 -29 l52 -3 -52 -2 c-52 -2 -53 -3 -53 -32 l0 -29
83 -4 82 -3 -82 -2 c-81 -2 -83 -3 -83 -26 0 -23 4 -25 53 -29 l52 -3 -52 -2
c-49 -2 -53 -4 -53 -27 0 -25 1 -25 80 -25 47 0 80 -4 80 -10 0 -6 -33 -10
-80 -10 l-80 0 0 -55 0 -56 138 3 137 3 3 505 c2 466 1 506 -15 518 -17 12
-223 17 -250 5z"/>
<path d="M322 643 l3 -518 478 -3 c355 -2 477 1 477 9 0 7 -20 36 -46 65 -40
47 -47 52 -64 42 -23 -15 -37 -4 -21 16 14 16 4 43 -24 66 -13 11 -20 9 -45
-15 -39 -37 -52 -24 -15 14 l28 30 -24 30 c-27 34 -41 38 -59 16 -7 -8 -17
-12 -22 -9 -5 3 -3 13 6 23 21 24 20 34 -7 59 -30 28 -35 28 -69 -5 -41 -39
-48 -19 -8 22 l34 35 -34 35 c-32 33 -35 34 -52 18 -23 -21 -37 -8 -16 14 15
15 14 19 -15 55 l-31 38 -36 -35 c-20 -19 -39 -35 -43 -35 -16 0 -5 26 25 57
l32 33 -29 30 c-26 27 -30 28 -45 15 -23 -21 -34 -6 -13 17 16 18 15 20 -15
50 l-32 32 -30 -29 c-39 -37 -52 -24 -15 15 l28 29 -27 36 c-29 38 -36 41 -54
23 -17 -17 -27 -2 -12 17 12 14 9 21 -18 48 l-32 31 -30 -29 c-39 -37 -52 -24
-15 15 28 29 28 30 10 52 -48 58 -100 108 -112 108 -11 0 -13 -98 -11 -517z
m388 -133 l242 -250 -246 0 -246 0 0 250 c0 138 2 250 4 250 2 0 112 -112 246
-250z"/>
</g>
</svg>
