<?xml version="1.0" encoding="UTF-8" ?>
<!DOCTYPE svg PUBLIC "-//W3C//DTD SVG 1.1//EN" "http://www.w3.org/Graphics/SVG/1.1/DTD/svg11.dtd">
<svg width="960pt" height="540pt" viewBox="0 0 960 540" version="1.1" xmlns="http://www.w3.org/2000/svg">
<g id="#0000005d">
<path fill="#000000" opacity="0.36" d=" M 684.00 15.99 C 684.00 12.73 690.56 15.75 692.97 15.04 L 693.02 15.98 C 689.96 15.99 687.01 16.01 684.00 15.99 Z" />
</g>
<g id="#00000080">
<path fill="#000000" opacity="0.50" d=" M 681.04 16.00 L 682.01 16.04 C 681.99 26.69 681.99 37.33 682.01 47.98 L 681.03 48.01 C 680.99 37.34 680.90 26.67 681.04 16.00 Z" />
</g>
<g id="#000000f8">
<path fill="#000000" opacity="0.97" d=" M 682.01 16.04 C 682.51 16.03 683.50 16.00 684.00 15.99 C 687.01 16.01 689.96 15.99 693.02 15.98 C 697.46 15.82 702.72 20.12 701.01 25.01 C 703.07 30.09 698.00 32.56 694.71 34.72 C 691.72 34.95 688.94 34.95 686.00 35.04 L 685.04 35.09 C 684.92 39.39 684.98 43.69 684.99 47.99 C 684.24 47.99 682.75 47.98 682.01 47.98 C 681.99 37.33 681.99 26.69 682.01 16.04 M 685.05 19.02 C 684.83 23.34 684.97 27.67 685.02 32.00 L 686.01 32.00 C 689.81 32.42 696.68 32.03 697.02 27.02 C 699.04 20.45 691.24 16.94 686.01 19.01 L 685.05 19.02 Z" />
</g>
<g id="#000000a3">
<path fill="#000000" opacity="0.64" d=" M 685.05 19.02 L 686.01 19.01 C 685.98 23.34 685.99 27.67 686.01 32.00 L 685.02 32.00 C 684.97 27.67 684.83 23.34 685.05 19.02 Z" />
</g>
<g id="#000000a2">
<path fill="#000000" opacity="0.64" d=" M 685.04 35.09 L 686.00 35.04 C 686.01 39.35 686.14 43.67 685.96 47.98 L 684.99 47.99 C 684.98 43.69 684.92 39.39 685.04 35.09 Z" />
</g>
<g id="#c34b4bf7">
<path fill="#c34b4b" opacity="0.97" d=" M 661.30 49.30 C 665.81 47.13 670.74 52.70 669.02 57.02 C 669.06 61.96 661.27 62.73 658.70 59.30 C 655.08 56.72 657.27 50.23 661.30 49.30 Z" />
</g>
<g id="#027bfdfd">
<path fill="#027bfd" opacity="1.00" d=" M 186.14 189.08 C 442.08 188.91 698.02 189.02 953.95 189.03 C 911.42 286.11 868.85 383.22 826.29 480.26 L 825.82 480.90 C 559.55 481.11 293.27 480.99 27.00 480.96 C 80.14 383.72 132.76 286.18 186.14 189.08 M 189.18 194.10 C 140.34 282.49 92.64 371.50 44.01 460.00 C 41.85 465.57 37.58 470.20 35.92 475.94 C 298.21 476.00 560.51 476.13 822.80 475.88 C 863.74 381.88 905.35 288.11 946.08 194.06 C 693.78 193.99 441.48 193.90 189.18 194.10 Z" />
</g>
<g id="#dbeffeff">
<path fill="#dbeffe" opacity="1.00" d=" M 189.18 194.10 C 441.48 193.90 693.78 193.99 946.08 194.06 C 905.35 288.11 863.74 381.88 822.80 475.88 C 560.51 476.13 298.21 476.00 35.92 475.94 C 37.58 470.20 41.85 465.57 44.01 460.00 C 92.64 371.50 140.34 282.49 189.18 194.10 M 499.00 242.01 L 499.00 242.98 C 483.48 244.01 467.89 247.13 453.66 253.57 C 427.01 264.46 403.42 285.89 395.04 314.00 C 389.17 332.03 391.88 352.12 400.08 368.97 C 407.95 384.00 419.61 396.98 433.99 406.01 C 453.62 418.52 476.64 426.51 500.00 427.01 L 500.02 427.96 C 506.01 428.17 512.00 427.98 518.00 427.98 L 517.99 427.02 C 533.85 426.22 549.80 422.97 564.34 416.43 C 590.99 405.54 614.58 384.11 622.96 356.00 C 628.82 337.97 626.11 317.87 617.92 301.03 C 610.05 286.00 598.39 273.02 584.01 263.99 C 564.66 251.61 542.01 243.80 519.00 242.98 L 519.00 242.02 C 512.33 241.94 505.66 241.94 499.00 242.01 M 76.09 445.06 C 72.76 452.00 77.47 462.14 85.71 461.65 C 88.72 461.32 90.47 458.86 92.64 457.08 C 93.45 459.49 95.45 461.20 97.86 461.91 C 99.86 460.49 99.04 457.78 96.83 457.20 C 97.26 452.39 96.94 447.54 96.74 442.75 C 96.96 441.17 97.05 439.57 96.99 437.99 C 94.62 437.33 93.27 438.77 92.66 440.92 C 88.18 434.93 77.72 438.03 76.09 445.06 Z" />
</g>
<g id="#88c3ffff">
<path fill="#88c3ff" opacity="1.00" d=" M 499.00 242.01 C 505.66 241.94 512.33 241.94 519.00 242.02 L 519.00 242.98 C 512.32 243.00 505.66 243.05 499.00 242.98 L 499.00 242.01 Z" />
</g>
<g id="#087fffff">
<path fill="#087fff" opacity="1.00" d=" M 453.66 253.57 C 467.89 247.13 483.48 244.01 499.00 242.98 C 505.66 243.05 512.32 243.00 519.00 242.98 C 542.01 243.80 564.66 251.61 584.01 263.99 C 598.39 273.02 610.05 286.00 617.92 301.03 C 626.11 317.87 628.82 337.97 622.96 356.00 C 614.58 384.11 590.99 405.54 564.34 416.43 C 549.80 422.97 533.85 426.22 517.99 427.02 C 511.98 426.97 505.99 426.94 500.00 427.01 C 476.64 426.51 453.62 418.52 433.99 406.01 C 419.61 396.98 407.95 384.00 400.08 368.97 C 391.88 352.12 389.17 332.03 395.04 314.00 C 403.42 285.89 427.01 264.46 453.66 253.57 M 500.00 248.01 L 500.00 248.98 C 482.73 249.97 465.37 253.84 449.98 261.97 C 428.87 271.87 410.50 289.12 402.35 311.28 C 395.68 328.10 397.01 347.33 404.34 363.69 C 412.55 382.27 428.28 396.62 445.99 406.02 C 462.52 415.01 481.17 420.52 500.00 421.01 L 500.02 421.96 C 506.01 422.17 512.00 421.98 518.00 421.99 L 518.00 421.02 C 535.27 420.02 552.63 416.16 568.02 408.03 C 589.12 398.13 607.49 380.88 615.65 358.72 C 622.31 341.90 620.99 322.67 613.66 306.31 C 605.44 287.73 589.72 273.38 572.01 263.98 C 555.48 254.99 536.83 249.48 518.01 248.99 L 517.98 248.04 C 511.98 247.83 505.98 248.01 500.00 248.01 Z" />
</g>
<g id="#3a9effff">
<path fill="#3a9eff" opacity="1.00" d=" M 500.00 248.01 C 505.98 248.01 511.98 247.83 517.98 248.04 L 518.01 248.99 C 511.99 249.01 506.00 249.03 500.00 248.98 L 500.00 248.01 Z" />
<path fill="#3a9eff" opacity="1.00" d=" M 500.00 421.01 C 505.99 420.96 511.99 420.98 518.00 421.02 L 518.00 421.99 C 512.00 421.98 506.01 422.17 500.02 421.96 L 500.00 421.01 Z" />
</g>
<g id="#92d1ffff">
<path fill="#92d1ff" opacity="1.00" d=" M 449.98 261.97 C 465.37 253.84 482.73 249.97 500.00 248.98 C 506.00 249.03 511.99 249.01 518.01 248.99 C 536.83 249.48 555.48 254.99 572.01 263.98 C 589.72 273.38 605.44 287.73 613.66 306.31 C 620.99 322.67 622.31 341.90 615.65 358.72 C 607.49 380.88 589.12 398.13 568.02 408.03 C 552.63 416.16 535.27 420.02 518.00 421.02 C 511.99 420.98 505.99 420.96 500.00 421.01 C 481.17 420.52 462.52 415.01 445.99 406.02 C 428.28 396.62 412.55 382.27 404.34 363.69 C 397.01 347.33 395.68 328.10 402.35 311.28 C 410.50 289.12 428.87 271.87 449.98 261.97 M 432.01 330.16 L 431.05 329.97 C 430.90 340.64 430.99 351.32 431.03 362.01 L 432.01 361.98 C 432.75 361.98 434.24 361.99 434.99 361.99 L 435.95 361.98 C 436.16 357.32 436.01 352.64 436.00 347.99 C 438.98 347.93 442.66 347.68 444.72 350.27 C 446.78 353.82 446.93 358.05 448.14 361.92 C 449.44 362.02 450.74 362.05 452.05 361.98 C 450.96 356.44 450.22 350.28 446.05 346.19 C 450.99 344.51 452.05 338.88 450.82 334.26 C 446.45 328.37 438.41 328.80 432.01 330.16 Z" />
</g>
<g id="#06090bff">
<path fill="#06090b" opacity="1.00" d=" M 432.01 330.16 C 438.41 328.80 446.45 328.37 450.82 334.26 C 452.05 338.88 450.99 344.51 446.05 346.19 C 450.22 350.28 450.96 356.44 452.05 361.98 C 450.74 362.05 449.44 362.02 448.14 361.92 C 446.93 358.05 446.78 353.82 444.72 350.27 C 442.66 347.68 438.98 347.93 436.00 347.99 L 435.03 348.00 C 434.92 352.65 434.99 357.33 434.99 361.99 C 434.24 361.99 432.75 361.98 432.01 361.98 C 431.99 351.37 431.99 340.77 432.01 330.16 M 435.02 345.00 L 436.01 345.00 C 439.82 345.41 446.68 345.03 447.03 340.02 C 449.92 332.77 440.16 332.18 436.01 333.00 C 432.90 334.35 436.16 341.91 435.02 345.00 Z" />
</g>
<g id="#496a81ff">
<path fill="#496a81" opacity="1.00" d=" M 431.05 329.97 L 432.01 330.16 C 431.99 340.77 431.99 351.37 432.01 361.98 L 431.03 362.01 C 430.99 351.32 430.90 340.64 431.05 329.97 Z" />
</g>
<g id="#3c5467ff">
<path fill="#3c5467" opacity="1.00" d=" M 435.02 345.00 C 436.16 341.91 432.90 334.35 436.01 333.00 C 435.99 337.00 435.99 340.99 436.01 345.00 L 435.02 345.00 Z" />
</g>
<g id="#8fcdfaff">
<path fill="#8fcdfa" opacity="1.00" d=" M 436.01 333.00 C 440.16 332.18 449.92 332.77 447.03 340.02 C 446.68 345.03 439.82 345.41 436.01 345.00 C 435.99 340.99 435.99 337.00 436.01 333.00 Z" />
</g>
<g id="#3c5568ff">
<path fill="#3c5568" opacity="1.00" d=" M 435.03 348.00 L 436.00 347.99 C 436.01 352.64 436.16 357.32 435.95 361.98 L 434.99 361.99 C 434.99 357.33 434.92 352.65 435.03 348.00 Z" />
</g>
<g id="#83c0ffff">
<path fill="#83c0ff" opacity="1.00" d=" M 500.00 427.01 C 505.99 426.94 511.98 426.97 517.99 427.02 L 518.00 427.98 C 512.00 427.98 506.01 428.17 500.02 427.96 L 500.00 427.01 Z" />
</g>
<g id="#121415ff">
<path fill="#121415" opacity="1.00" d=" M 76.09 445.06 C 77.72 438.03 88.18 434.93 92.66 440.92 C 93.27 438.77 94.62 437.33 96.99 437.99 C 97.05 439.57 96.96 441.17 96.74 442.75 C 96.68 447.24 94.51 453.23 96.83 457.20 C 99.04 457.78 99.86 460.49 97.86 461.91 C 95.45 461.20 93.45 459.49 92.64 457.08 C 90.47 458.86 88.72 461.32 85.71 461.65 C 77.47 462.14 72.76 452.00 76.09 445.06 M 83.23 441.13 C 80.87 443.38 79.03 446.48 80.00 450.00 C 78.11 454.63 83.82 460.31 88.35 457.41 C 93.52 455.46 91.77 448.45 91.81 444.28 C 89.65 441.88 87.17 439.01 83.23 441.13 Z" />
</g>
<g id="#d7eaf9ff">
<path fill="#d7eaf9" opacity="1.00" d=" M 83.23 441.13 C 87.17 439.01 89.65 441.88 91.81 444.28 C 91.77 448.45 93.52 455.46 88.35 457.41 C 83.82 460.31 78.11 454.63 80.00 450.00 C 79.03 446.48 80.87 443.38 83.23 441.13 Z" />
</g>
<g id="#5f676dff">
<path fill="#5f676d" opacity="1.00" d=" M 96.83 457.20 C 94.51 453.23 96.68 447.24 96.74 442.75 C 96.94 447.54 97.26 452.39 96.83 457.20 Z" />
</g>
</svg>
