<?xml version="1.0" encoding="UTF-8" ?>
<!DOCTYPE svg PUBLIC "-//W3C//DTD SVG 1.1//EN" "http://www.w3.org/Graphics/SVG/1.1/DTD/svg11.dtd">
<svg width="960pt" height="540pt" viewBox="0 0 960 540" version="1.1" xmlns="http://www.w3.org/2000/svg">
<g id="#0000005d">
<path fill="#000000" opacity="0.36" d=" M 684.00 15.99 C 684.01 12.74 690.56 15.76 692.97 15.04 L 693.02 15.98 C 689.95 15.99 687.01 16.01 684.00 15.99 Z" />
</g>
<g id="#00000080">
<path fill="#000000" opacity="0.50" d=" M 681.04 16.00 L 682.01 16.04 C 681.99 26.69 681.99 37.33 682.01 47.98 L 681.03 48.00 C 680.98 37.34 680.90 26.67 681.04 16.00 Z" />
</g>
<g id="#000000f8">
<path fill="#000000" opacity="0.97" d=" M 682.01 16.04 C 682.51 16.02 683.50 16.00 684.00 15.99 C 687.01 16.01 689.95 15.99 693.02 15.98 C 697.46 15.82 702.72 20.12 701.01 25.01 C 703.07 30.09 698.00 32.56 694.71 34.72 C 691.72 34.95 688.94 34.96 686.00 35.04 L 685.04 35.09 C 684.92 39.39 684.98 43.69 684.99 47.99 C 684.24 47.99 682.75 47.99 682.01 47.98 C 681.99 37.33 681.99 26.69 682.01 16.04 M 685.05 19.02 C 684.83 23.34 684.97 27.67 685.02 32.00 L 686.01 32.00 C 689.80 32.42 696.69 32.02 697.02 27.02 C 699.03 20.44 691.24 16.96 686.01 19.00 L 685.05 19.02 Z" />
</g>
<g id="#000000a3">
<path fill="#000000" opacity="0.64" d=" M 685.05 19.02 L 686.01 19.00 C 685.98 23.34 685.99 27.67 686.01 32.00 L 685.02 32.00 C 684.97 27.67 684.83 23.34 685.05 19.02 Z" />
</g>
<g id="#000000a2">
<path fill="#000000" opacity="0.64" d=" M 685.04 35.09 L 686.00 35.04 C 686.01 39.35 686.14 43.67 685.96 47.99 L 684.99 47.99 C 684.98 43.69 684.92 39.39 685.04 35.09 Z" />
</g>
<g id="#c34b4bf7">
<path fill="#c34b4b" opacity="0.97" d=" M 661.30 49.29 C 669.61 45.61 672.70 61.89 663.98 61.14 C 661.22 61.42 659.08 59.98 657.30 58.06 C 656.15 54.68 657.62 50.28 661.30 49.29 Z" />
</g>
<g id="#047cfcfc">
<path fill="#047cfc" opacity="1.00" d=" M 657.30 58.06 C 659.08 59.98 661.22 61.42 663.98 61.14 C 661.56 83.47 657.84 105.71 654.94 128.01 C 651.70 148.28 649.86 168.80 645.99 188.95 C 748.64 189.08 851.30 188.93 953.95 189.03 C 918.29 270.66 882.27 352.15 846.78 433.85 L 846.05 433.89 C 844.68 433.47 843.30 433.10 841.92 432.79 C 876.21 353.03 911.85 273.85 946.10 194.07 C 845.78 193.95 745.46 193.96 645.15 194.07 C 645.15 201.35 643.60 208.49 642.69 215.69 C 637.26 255.47 631.27 295.18 626.21 335.00 C 626.22 361.28 611.51 386.28 590.45 401.42 C 587.20 401.17 584.06 400.99 580.86 400.84 C 595.97 390.63 609.16 376.76 615.44 359.37 C 618.49 351.32 619.68 342.75 620.22 334.21 C 620.61 331.43 621.12 328.69 620.57 325.92 C 621.99 323.18 623.48 320.36 623.26 317.11 C 635.19 233.17 646.75 149.14 658.82 65.24 C 658.58 64.92 658.09 64.30 657.84 63.98 C 626.57 93.50 594.68 122.43 563.34 151.89 C 561.80 150.89 560.14 150.08 558.29 149.93 C 557.77 148.14 561.16 147.97 561.72 146.67 C 582.58 126.50 604.32 107.33 625.26 87.27 C 632.16 82.57 636.83 75.35 643.71 70.65 C 648.25 66.46 652.28 61.72 657.30 58.06 Z" />
</g>
<g id="#92d1ffff">
<path fill="#92d1ff" opacity="1.00" d=" M 563.34 151.89 C 594.68 122.43 626.57 93.50 657.84 63.98 C 658.09 64.30 658.58 64.92 658.82 65.24 C 646.75 149.14 635.19 233.17 623.26 317.11 C 623.48 320.36 621.99 323.18 620.57 325.92 C 620.30 328.67 620.18 331.43 620.22 334.21 C 619.68 342.75 618.49 351.32 615.44 359.37 C 609.16 376.76 595.97 390.63 580.86 400.84 C 562.27 413.26 540.39 419.51 518.26 421.33 C 512.10 420.99 505.93 420.97 499.78 421.26 C 482.57 420.17 465.35 416.02 449.98 408.04 C 430.80 398.79 413.55 383.98 404.64 364.32 C 396.46 347.01 395.70 326.33 403.81 308.88 C 412.48 290.69 427.43 275.89 444.60 265.58 C 446.94 264.77 444.27 261.69 446.82 260.78 C 468.70 237.66 493.35 217.36 516.26 195.27 C 532.12 181.00 547.30 165.95 563.34 151.89 M 511.19 250.06 L 512.06 249.59 C 514.07 250.76 516.87 250.43 518.96 249.56 C 522.91 250.36 526.97 250.61 530.99 251.00 C 534.03 243.06 522.65 246.01 519.00 244.95 L 518.97 244.02 C 514.55 244.05 507.43 242.06 511.19 250.06 M 492.34 245.55 C 488.91 246.11 485.44 246.39 482.06 247.15 C 481.90 248.86 481.56 251.97 484.04 251.95 C 487.34 251.14 490.67 250.58 494.07 250.18 C 497.75 249.20 505.60 252.91 501.99 244.98 C 499.58 245.12 494.76 245.41 492.34 245.55 M 541.21 248.03 C 540.82 249.61 540.34 251.18 540.06 252.80 C 546.56 253.59 552.40 257.43 558.81 257.91 C 559.50 255.74 562.08 252.19 556.83 252.30 C 551.72 250.53 546.59 248.70 541.21 248.03 M 471.23 249.40 C 465.15 251.56 458.70 252.95 453.05 256.11 C 453.62 257.45 454.28 258.77 455.16 259.95 C 461.19 258.32 467.21 256.36 472.93 253.84 C 473.03 252.49 472.72 249.27 471.23 249.40 M 569.20 258.10 C 568.61 259.58 567.69 261.10 568.11 262.77 C 573.51 264.74 578.18 268.05 583.05 270.98 C 585.46 271.68 586.06 268.83 586.87 267.20 C 580.79 264.84 575.78 258.62 569.20 258.10 M 594.25 274.22 C 593.39 275.20 591.36 276.14 592.23 277.74 C 596.31 282.04 601.02 285.81 604.21 290.88 C 605.88 291.44 606.78 289.70 607.82 288.76 C 608.89 285.23 604.32 283.73 602.76 281.23 C 599.86 279.20 597.83 274.43 594.25 274.22 M 612.21 297.14 C 610.95 297.85 610.61 299.47 611.33 300.70 C 613.72 305.19 615.90 309.81 617.38 314.70 C 618.06 316.86 620.41 314.76 621.92 314.79 C 622.10 308.28 617.41 302.73 614.90 297.00 C 614.22 297.03 612.88 297.10 612.21 297.14 M 432.01 330.16 L 431.05 329.98 C 430.90 340.65 430.99 351.32 431.03 362.00 L 432.01 361.98 C 432.75 361.99 434.24 361.99 434.99 361.99 L 435.95 361.98 C 436.16 357.32 436.01 352.64 436.00 347.99 C 438.99 347.92 442.65 347.68 444.72 350.27 C 446.78 353.82 446.93 358.05 448.14 361.92 C 449.44 362.02 450.74 362.05 452.05 361.98 C 450.94 356.45 450.26 350.26 446.04 346.20 C 450.98 344.52 452.06 338.89 450.82 334.26 C 446.45 328.37 438.41 328.81 432.01 330.16 Z" />
</g>
<g id="#037cfefe">
<path fill="#037cfe" opacity="1.00" d=" M 558.29 149.93 C 560.14 150.08 561.80 150.89 563.34 151.89 C 547.30 165.95 532.12 181.00 516.26 195.27 C 493.35 217.36 468.70 237.66 446.82 260.78 C 444.27 261.69 446.94 264.77 444.60 265.58 C 427.43 275.89 412.48 290.69 403.81 308.88 C 395.70 326.33 396.46 347.01 404.64 364.32 C 413.55 383.98 430.80 398.79 449.98 408.04 C 465.35 416.02 482.57 420.17 499.78 421.26 C 505.84 421.80 512.26 422.97 518.26 421.33 C 540.39 419.51 562.27 413.26 580.86 400.84 C 584.06 400.99 587.20 401.17 590.45 401.42 C 570.59 417.22 545.27 424.79 520.27 427.34 C 512.77 426.91 505.26 426.94 497.77 427.29 C 476.43 425.52 455.34 419.22 437.08 407.91 C 418.58 397.10 403.70 380.02 396.17 359.91 C 391.84 346.19 390.14 331.17 394.37 317.22 C 400.09 296.98 414.17 280.17 430.61 267.57 C 457.34 243.28 483.60 218.46 510.25 194.13 C 403.22 193.90 296.18 193.95 189.16 194.10 C 154.96 255.76 121.76 317.99 87.76 379.77 C 70.68 411.94 52.57 443.56 35.82 475.90 C 298.14 476.03 560.48 476.14 822.78 475.84 C 829.36 461.58 835.11 446.92 841.92 432.79 C 843.30 433.10 844.68 433.47 846.05 433.89 C 846.01 434.39 845.94 435.39 845.91 435.89 C 838.78 450.69 832.94 466.15 825.83 480.90 C 559.56 481.10 293.27 480.99 27.00 480.96 C 80.11 383.70 132.80 286.20 186.14 189.08 C 295.99 188.71 405.86 189.41 515.70 188.73 C 522.88 183.99 527.63 176.49 534.71 171.65 C 542.30 164.11 550.18 156.89 558.29 149.93 Z" />
</g>
<g id="#dbeffeff">
<path fill="#dbeffe" opacity="1.00" d=" M 189.16 194.10 C 296.18 193.95 403.22 193.90 510.25 194.13 C 483.60 218.46 457.34 243.28 430.61 267.57 C 414.17 280.17 400.09 296.98 394.37 317.22 C 390.14 331.17 391.84 346.19 396.17 359.91 C 403.70 380.02 418.58 397.10 437.08 407.91 C 455.34 419.22 476.43 425.52 497.77 427.29 C 505.18 427.99 512.90 428.82 520.27 427.34 C 545.27 424.79 570.59 417.22 590.45 401.42 C 611.51 386.28 626.22 361.28 626.21 335.00 C 631.27 295.18 637.26 255.47 642.69 215.69 C 643.60 208.49 645.15 201.35 645.15 194.07 C 745.46 193.96 845.78 193.95 946.10 194.07 C 911.85 273.85 876.21 353.03 841.92 432.79 C 835.11 446.92 829.36 461.58 822.78 475.84 C 560.48 476.14 298.14 476.03 35.82 475.90 C 52.57 443.56 70.68 411.94 87.76 379.77 C 121.76 317.99 154.96 255.76 189.16 194.10 M 76.09 445.06 C 72.75 452.00 77.47 462.14 85.71 461.65 C 88.73 461.32 90.47 458.86 92.65 457.07 C 93.42 459.50 95.47 461.19 97.86 461.91 C 99.84 460.48 99.06 457.75 96.83 457.20 C 97.26 452.39 96.94 447.54 96.73 442.75 C 96.96 441.17 97.05 439.57 97.00 437.99 C 94.62 437.33 93.27 438.77 92.66 440.92 C 88.19 434.93 77.72 438.03 76.09 445.06 Z" />
</g>
<g id="#5bb0ffff">
<path fill="#5bb0ff" opacity="1.00" d=" M 511.19 250.06 C 507.43 242.06 514.55 244.05 518.97 244.02 L 519.00 244.95 C 517.27 244.98 513.81 245.04 512.08 245.07 C 512.04 246.36 512.04 247.65 512.08 248.95 L 512.06 249.59 L 511.19 250.06 Z" />
</g>
<g id="#0a81ffff">
<path fill="#0a81ff" opacity="1.00" d=" M 492.34 245.55 C 494.76 245.41 499.58 245.12 501.99 244.98 C 505.60 252.91 497.75 249.20 494.07 250.18 C 490.67 250.58 487.34 251.14 484.04 251.95 C 481.56 251.97 481.90 248.86 482.06 247.15 C 485.44 246.39 488.91 246.11 492.34 245.55 Z" />
<path fill="#0a81ff" opacity="1.00" d=" M 569.20 258.10 C 575.78 258.62 580.79 264.84 586.87 267.20 C 586.06 268.83 585.46 271.68 583.05 270.98 C 578.18 268.05 573.51 264.74 568.11 262.77 C 567.69 261.10 568.61 259.58 569.20 258.10 Z" />
</g>
<g id="#057effff">
<path fill="#057eff" opacity="1.00" d=" M 512.08 245.07 C 513.81 245.04 517.27 244.98 519.00 244.95 C 522.65 246.01 534.03 243.06 530.99 251.00 C 526.97 250.61 522.91 250.36 518.96 249.56 C 516.67 248.83 514.38 248.63 512.08 248.95 C 512.04 247.65 512.04 246.36 512.08 245.07 Z" />
</g>
<g id="#0980ffff">
<path fill="#0980ff" opacity="1.00" d=" M 541.21 248.03 C 546.59 248.70 551.72 250.53 556.83 252.30 C 562.08 252.19 559.50 255.74 558.81 257.91 C 552.40 257.43 546.56 253.59 540.06 252.80 C 540.34 251.18 540.82 249.61 541.21 248.03 Z" />
<path fill="#0980ff" opacity="1.00" d=" M 471.23 249.40 C 472.72 249.27 473.03 252.49 472.93 253.84 C 467.21 256.36 461.19 258.32 455.16 259.95 C 454.28 258.77 453.62 257.45 453.05 256.11 C 458.70 252.95 465.15 251.56 471.23 249.40 Z" />
</g>
<g id="#359affff">
<path fill="#359aff" opacity="1.00" d=" M 512.08 248.95 C 514.38 248.63 516.67 248.83 518.96 249.56 C 516.87 250.43 514.07 250.76 512.06 249.59 L 512.08 248.95 Z" />
</g>
<g id="#0880ffff">
<path fill="#0880ff" opacity="1.00" d=" M 594.25 274.22 C 597.83 274.43 599.86 279.20 602.76 281.23 C 604.32 283.73 608.89 285.23 607.82 288.76 C 606.78 289.70 605.88 291.44 604.21 290.88 C 601.02 285.81 596.31 282.04 592.23 277.74 C 591.36 276.14 593.39 275.20 594.25 274.22 Z" />
</g>
<g id="#087fffff">
<path fill="#087fff" opacity="1.00" d=" M 612.21 297.14 C 612.88 297.10 614.22 297.03 614.90 297.00 C 617.41 302.73 622.10 308.28 621.92 314.79 C 620.41 314.76 618.06 316.86 617.38 314.70 C 615.90 309.81 613.72 305.19 611.33 300.70 C 610.61 299.47 610.95 297.85 612.21 297.14 Z" />
</g>
<g id="#51abffff">
<path fill="#51abff" opacity="1.00" d=" M 620.57 325.92 C 621.12 328.69 620.61 331.43 620.22 334.21 C 620.18 331.43 620.30 328.67 620.57 325.92 Z" />
</g>
<g id="#06090bff">
<path fill="#06090b" opacity="1.00" d=" M 432.01 330.16 C 438.41 328.81 446.45 328.37 450.82 334.26 C 452.06 338.89 450.98 344.52 446.04 346.20 C 450.26 350.26 450.94 356.45 452.05 361.98 C 450.74 362.05 449.44 362.02 448.14 361.92 C 446.93 358.05 446.78 353.82 444.72 350.27 C 442.65 347.68 438.99 347.92 436.00 347.99 L 435.03 348.00 C 434.92 352.65 434.99 357.33 434.99 361.99 C 434.24 361.99 432.75 361.99 432.01 361.98 C 431.99 351.37 431.99 340.76 432.01 330.16 M 435.02 345.00 L 436.01 345.00 C 439.82 345.41 446.68 345.02 447.02 340.02 C 449.93 332.78 440.16 332.17 436.01 333.00 C 432.90 334.36 436.16 341.90 435.02 345.00 Z" />
</g>
<g id="#496a81ff">
<path fill="#496a81" opacity="1.00" d=" M 431.05 329.98 L 432.01 330.16 C 431.99 340.76 431.99 351.37 432.01 361.98 L 431.03 362.00 C 430.99 351.32 430.90 340.65 431.05 329.98 Z" />
</g>
<g id="#3c5467ff">
<path fill="#3c5467" opacity="1.00" d=" M 435.02 345.00 C 436.16 341.90 432.90 334.36 436.01 333.00 C 435.99 337.00 435.99 341.00 436.01 345.00 L 435.02 345.00 Z" />
</g>
<g id="#8fcdfaff">
<path fill="#8fcdfa" opacity="1.00" d=" M 436.01 333.00 C 440.16 332.17 449.93 332.78 447.02 340.02 C 446.68 345.02 439.82 345.41 436.01 345.00 C 435.99 341.00 435.99 337.00 436.01 333.00 Z" />
</g>
<g id="#3c5568ff">
<path fill="#3c5568" opacity="1.00" d=" M 435.03 348.00 L 436.00 347.99 C 436.01 352.64 436.16 357.32 435.95 361.98 L 434.99 361.99 C 434.99 357.33 434.92 352.65 435.03 348.00 Z" />
</g>
<g id="#3a9effff">
<path fill="#3a9eff" opacity="1.00" d=" M 499.78 421.26 C 505.93 420.97 512.10 420.99 518.26 421.33 C 512.26 422.97 505.84 421.80 499.78 421.26 Z" />
</g>
<g id="#7fbfffff">
<path fill="#7fbfff" opacity="1.00" d=" M 497.77 427.29 C 505.26 426.94 512.77 426.91 520.27 427.34 C 512.90 428.82 505.18 427.99 497.77 427.29 Z" />
</g>
<g id="#121415ff">
<path fill="#121415" opacity="1.00" d=" M 76.09 445.06 C 77.72 438.03 88.19 434.93 92.66 440.92 C 93.27 438.77 94.62 437.33 97.00 437.99 C 97.05 439.57 96.96 441.17 96.73 442.75 C 96.66 447.24 94.52 453.23 96.83 457.20 C 99.06 457.75 99.84 460.48 97.86 461.91 C 95.47 461.19 93.42 459.50 92.65 457.07 C 90.47 458.86 88.73 461.32 85.71 461.65 C 77.47 462.14 72.75 452.00 76.09 445.06 M 83.23 441.13 C 80.88 443.39 79.02 446.47 80.00 450.00 C 78.11 454.64 83.82 460.31 88.35 457.41 C 93.52 455.44 91.78 448.46 91.80 444.28 C 89.65 441.86 87.17 439.04 83.23 441.13 Z" />
</g>
<g id="#d7eaf9ff">
<path fill="#d7eaf9" opacity="1.00" d=" M 83.23 441.13 C 87.17 439.04 89.65 441.86 91.80 444.28 C 91.78 448.46 93.52 455.44 88.35 457.41 C 83.82 460.31 78.11 454.64 80.00 450.00 C 79.02 446.47 80.88 443.39 83.23 441.13 Z" />
</g>
<g id="#5f676dff">
<path fill="#5f676d" opacity="1.00" d=" M 96.83 457.20 C 94.52 453.23 96.66 447.24 96.73 442.75 C 96.94 447.54 97.26 452.39 96.83 457.20 Z" />
</g>
</svg>
